G75*
%MOIN*%
%OFA0B0*%
%FSLAX24Y24*%
%IPPOS*%
%LPD*%
%AMOC8*
5,1,8,0,0,1.08239X$1,22.5*
%
%ADD10C,0.0160*%
%ADD11C,0.0000*%
%ADD12C,0.0847*%
%ADD13C,0.0600*%
%ADD14OC8,0.0600*%
%ADD15R,0.0610X0.0197*%
%ADD16C,0.0660*%
%ADD17C,0.1035*%
%ADD18R,0.0660X0.0660*%
%ADD19C,0.1460*%
%ADD20R,0.0572X0.0651*%
%ADD21R,0.0651X0.0572*%
%ADD22R,0.0760X0.2060*%
%ADD23R,0.0560X0.1060*%
%ADD24R,0.0493X0.0651*%
%ADD25R,0.0220X0.0540*%
%ADD26R,0.0217X0.0591*%
%ADD27R,0.0651X0.0808*%
%ADD28C,0.0739*%
%ADD29C,0.0562*%
%ADD30C,0.0436*%
D10*
X000259Y001718D02*
X016401Y001718D01*
X016401Y021403D01*
X001913Y021403D01*
X000259Y019749D01*
X000259Y001718D01*
D11*
X003490Y004375D02*
X003492Y004427D01*
X003498Y004479D01*
X003508Y004531D01*
X003521Y004581D01*
X003538Y004631D01*
X003559Y004679D01*
X003584Y004725D01*
X003612Y004769D01*
X003643Y004811D01*
X003677Y004851D01*
X003714Y004888D01*
X003754Y004922D01*
X003796Y004953D01*
X003840Y004981D01*
X003886Y005006D01*
X003934Y005027D01*
X003984Y005044D01*
X004034Y005057D01*
X004086Y005067D01*
X004138Y005073D01*
X004190Y005075D01*
X004242Y005073D01*
X004294Y005067D01*
X004346Y005057D01*
X004396Y005044D01*
X004446Y005027D01*
X004494Y005006D01*
X004540Y004981D01*
X004584Y004953D01*
X004626Y004922D01*
X004666Y004888D01*
X004703Y004851D01*
X004737Y004811D01*
X004768Y004769D01*
X004796Y004725D01*
X004821Y004679D01*
X004842Y004631D01*
X004859Y004581D01*
X004872Y004531D01*
X004882Y004479D01*
X004888Y004427D01*
X004890Y004375D01*
X004888Y004323D01*
X004882Y004271D01*
X004872Y004219D01*
X004859Y004169D01*
X004842Y004119D01*
X004821Y004071D01*
X004796Y004025D01*
X004768Y003981D01*
X004737Y003939D01*
X004703Y003899D01*
X004666Y003862D01*
X004626Y003828D01*
X004584Y003797D01*
X004540Y003769D01*
X004494Y003744D01*
X004446Y003723D01*
X004396Y003706D01*
X004346Y003693D01*
X004294Y003683D01*
X004242Y003677D01*
X004190Y003675D01*
X004138Y003677D01*
X004086Y003683D01*
X004034Y003693D01*
X003984Y003706D01*
X003934Y003723D01*
X003886Y003744D01*
X003840Y003769D01*
X003796Y003797D01*
X003754Y003828D01*
X003714Y003862D01*
X003677Y003899D01*
X003643Y003939D01*
X003612Y003981D01*
X003584Y004025D01*
X003559Y004071D01*
X003538Y004119D01*
X003521Y004169D01*
X003508Y004219D01*
X003498Y004271D01*
X003492Y004323D01*
X003490Y004375D01*
X007990Y004375D02*
X007992Y004427D01*
X007998Y004479D01*
X008008Y004531D01*
X008021Y004581D01*
X008038Y004631D01*
X008059Y004679D01*
X008084Y004725D01*
X008112Y004769D01*
X008143Y004811D01*
X008177Y004851D01*
X008214Y004888D01*
X008254Y004922D01*
X008296Y004953D01*
X008340Y004981D01*
X008386Y005006D01*
X008434Y005027D01*
X008484Y005044D01*
X008534Y005057D01*
X008586Y005067D01*
X008638Y005073D01*
X008690Y005075D01*
X008742Y005073D01*
X008794Y005067D01*
X008846Y005057D01*
X008896Y005044D01*
X008946Y005027D01*
X008994Y005006D01*
X009040Y004981D01*
X009084Y004953D01*
X009126Y004922D01*
X009166Y004888D01*
X009203Y004851D01*
X009237Y004811D01*
X009268Y004769D01*
X009296Y004725D01*
X009321Y004679D01*
X009342Y004631D01*
X009359Y004581D01*
X009372Y004531D01*
X009382Y004479D01*
X009388Y004427D01*
X009390Y004375D01*
X009388Y004323D01*
X009382Y004271D01*
X009372Y004219D01*
X009359Y004169D01*
X009342Y004119D01*
X009321Y004071D01*
X009296Y004025D01*
X009268Y003981D01*
X009237Y003939D01*
X009203Y003899D01*
X009166Y003862D01*
X009126Y003828D01*
X009084Y003797D01*
X009040Y003769D01*
X008994Y003744D01*
X008946Y003723D01*
X008896Y003706D01*
X008846Y003693D01*
X008794Y003683D01*
X008742Y003677D01*
X008690Y003675D01*
X008638Y003677D01*
X008586Y003683D01*
X008534Y003693D01*
X008484Y003706D01*
X008434Y003723D01*
X008386Y003744D01*
X008340Y003769D01*
X008296Y003797D01*
X008254Y003828D01*
X008214Y003862D01*
X008177Y003899D01*
X008143Y003939D01*
X008112Y003981D01*
X008084Y004025D01*
X008059Y004071D01*
X008038Y004119D01*
X008021Y004169D01*
X008008Y004219D01*
X007998Y004271D01*
X007992Y004323D01*
X007990Y004375D01*
X001676Y020536D02*
X001678Y020575D01*
X001684Y020614D01*
X001694Y020652D01*
X001707Y020689D01*
X001724Y020724D01*
X001744Y020758D01*
X001768Y020789D01*
X001795Y020818D01*
X001824Y020844D01*
X001856Y020867D01*
X001890Y020887D01*
X001926Y020903D01*
X001963Y020915D01*
X002002Y020924D01*
X002041Y020929D01*
X002080Y020930D01*
X002119Y020927D01*
X002158Y020920D01*
X002195Y020909D01*
X002232Y020895D01*
X002267Y020877D01*
X002300Y020856D01*
X002331Y020831D01*
X002359Y020804D01*
X002384Y020774D01*
X002406Y020741D01*
X002425Y020707D01*
X002440Y020671D01*
X002452Y020633D01*
X002460Y020595D01*
X002464Y020556D01*
X002464Y020516D01*
X002460Y020477D01*
X002452Y020439D01*
X002440Y020401D01*
X002425Y020365D01*
X002406Y020331D01*
X002384Y020298D01*
X002359Y020268D01*
X002331Y020241D01*
X002300Y020216D01*
X002267Y020195D01*
X002232Y020177D01*
X002195Y020163D01*
X002158Y020152D01*
X002119Y020145D01*
X002080Y020142D01*
X002041Y020143D01*
X002002Y020148D01*
X001963Y020157D01*
X001926Y020169D01*
X001890Y020185D01*
X001856Y020205D01*
X001824Y020228D01*
X001795Y020254D01*
X001768Y020283D01*
X001744Y020314D01*
X001724Y020348D01*
X001707Y020383D01*
X001694Y020420D01*
X001684Y020458D01*
X001678Y020497D01*
X001676Y020536D01*
D12*
X002070Y020536D03*
D13*
X000830Y002273D03*
X014830Y002273D03*
D14*
X014830Y003273D03*
X014830Y004273D03*
X014830Y005273D03*
X014830Y006273D03*
X014830Y007273D03*
X014830Y008273D03*
X014830Y009273D03*
X014830Y010273D03*
X014830Y011273D03*
X014830Y012273D03*
X014830Y013273D03*
X014830Y014273D03*
X014830Y015273D03*
X014830Y016273D03*
X014830Y017273D03*
X014830Y018273D03*
X014830Y019273D03*
X015830Y019273D03*
X015830Y018273D03*
X015830Y017273D03*
X015830Y016273D03*
X015830Y015273D03*
X015830Y014273D03*
X015830Y013273D03*
X015830Y012273D03*
X015830Y011273D03*
X015830Y010273D03*
X015830Y009273D03*
X015830Y008273D03*
X015830Y007273D03*
X015830Y006273D03*
X015830Y005273D03*
X015830Y004273D03*
X015830Y003273D03*
X015830Y002273D03*
X001830Y002273D03*
X001830Y003273D03*
X001830Y004273D03*
X001830Y005273D03*
X001830Y006273D03*
X001830Y007273D03*
X001830Y008273D03*
X001830Y009273D03*
X001830Y010273D03*
X001830Y011273D03*
X001830Y012273D03*
X001830Y013273D03*
X001830Y014273D03*
X001830Y015273D03*
X001830Y016273D03*
X001830Y017273D03*
X001830Y018273D03*
X001830Y019273D03*
X000830Y019273D03*
X000830Y018273D03*
X000830Y017273D03*
X000830Y016273D03*
X000830Y015273D03*
X000830Y014273D03*
X000830Y013273D03*
X000830Y012273D03*
X000830Y011273D03*
X000830Y010273D03*
X000830Y009273D03*
X000830Y008273D03*
X000830Y007273D03*
X000830Y006273D03*
X000830Y005273D03*
X000830Y004273D03*
X000830Y003273D03*
D15*
X007757Y013460D03*
X007757Y013716D03*
X007757Y013971D03*
X007757Y014227D03*
X007757Y014483D03*
X007757Y014739D03*
X007757Y014995D03*
X007757Y015251D03*
X007757Y015507D03*
X007757Y015763D03*
X007757Y016019D03*
X007757Y016275D03*
X007757Y016531D03*
X007757Y016786D03*
X010636Y016786D03*
X010636Y016531D03*
X010636Y016275D03*
X010636Y016019D03*
X010636Y015763D03*
X010636Y015507D03*
X010636Y015251D03*
X010636Y014995D03*
X010636Y014739D03*
X010636Y014483D03*
X010636Y014227D03*
X010636Y013971D03*
X010636Y013716D03*
X010636Y013460D03*
D16*
X008190Y007875D03*
X007690Y006875D03*
X007190Y007875D03*
X006690Y006875D03*
X006190Y007875D03*
X005690Y006875D03*
X005190Y007875D03*
X004840Y002425D03*
X003840Y002425D03*
X008040Y002425D03*
X009040Y002425D03*
D17*
X009590Y005525D03*
X003290Y005525D03*
D18*
X004690Y006875D03*
D19*
X004190Y004375D03*
X008690Y004375D03*
D20*
X009255Y009218D03*
X009255Y010084D03*
X009255Y010891D03*
X010003Y010891D03*
X010003Y010084D03*
X010003Y009218D03*
X008192Y009237D03*
X008192Y010103D03*
X007444Y010103D03*
X007444Y009237D03*
X006047Y009218D03*
X005299Y009218D03*
X004393Y009218D03*
X004393Y010025D03*
X003645Y010025D03*
X003645Y009218D03*
X004984Y011777D03*
X005732Y011777D03*
X006066Y013312D03*
X006086Y014139D03*
X005338Y014139D03*
X005318Y013312D03*
X005358Y015399D03*
X006106Y015399D03*
X006106Y016206D03*
X005358Y016206D03*
X005358Y017229D03*
X006106Y017229D03*
X005318Y018233D03*
X004570Y018233D03*
X012739Y017623D03*
X013487Y017623D03*
X013487Y016737D03*
X012739Y016737D03*
D21*
X011972Y011580D03*
X011972Y010832D03*
X005082Y019572D03*
X005082Y020320D03*
D22*
X003625Y016866D03*
X003625Y013066D03*
D23*
X011952Y013017D03*
D24*
X005968Y010005D03*
X005259Y010005D03*
D25*
X006236Y019316D03*
X006736Y019316D03*
X007236Y019316D03*
X007236Y020576D03*
X006736Y020576D03*
X006236Y020576D03*
D26*
X010259Y019779D03*
X010515Y019779D03*
X010771Y019779D03*
X011027Y019779D03*
X011283Y019779D03*
D27*
X011165Y020832D03*
X010377Y020828D03*
D28*
X009393Y020832D03*
X012149Y020832D03*
D29*
X011755Y019798D03*
X009787Y019798D03*
D30*
X008606Y018155D03*
X008684Y017564D03*
X006972Y016324D03*
X007031Y015182D03*
X008901Y013804D03*
X009688Y012840D03*
X008901Y011442D03*
X008251Y011245D03*
X008232Y012682D03*
X006184Y010694D03*
X005810Y012584D03*
X002582Y017879D03*
X006184Y018529D03*
X011322Y018942D03*
X011657Y016875D03*
X011342Y016284D03*
X012582Y015871D03*
X012110Y014296D03*
X011106Y011836D03*
X011027Y010694D03*
X012129Y010221D03*
X010692Y009218D03*
X011519Y007525D03*
X007503Y003548D03*
X013428Y018351D03*
M02*
