G75*
%MOIN*%
%OFA0B0*%
%FSLAX24Y24*%
%IPPOS*%
%LPD*%
%AMOC8*
5,1,8,0,0,1.08239X$1,22.5*
%
%ADD10C,0.0160*%
%ADD11C,0.0000*%
D10*
X000259Y001718D02*
X016401Y001718D01*
X016401Y021403D01*
X001913Y021403D01*
X000259Y019749D01*
X000259Y001718D01*
D11*
X003490Y004375D02*
X003492Y004427D01*
X003498Y004479D01*
X003508Y004531D01*
X003521Y004581D01*
X003538Y004631D01*
X003559Y004679D01*
X003584Y004725D01*
X003612Y004769D01*
X003643Y004811D01*
X003677Y004851D01*
X003714Y004888D01*
X003754Y004922D01*
X003796Y004953D01*
X003840Y004981D01*
X003886Y005006D01*
X003934Y005027D01*
X003984Y005044D01*
X004034Y005057D01*
X004086Y005067D01*
X004138Y005073D01*
X004190Y005075D01*
X004242Y005073D01*
X004294Y005067D01*
X004346Y005057D01*
X004396Y005044D01*
X004446Y005027D01*
X004494Y005006D01*
X004540Y004981D01*
X004584Y004953D01*
X004626Y004922D01*
X004666Y004888D01*
X004703Y004851D01*
X004737Y004811D01*
X004768Y004769D01*
X004796Y004725D01*
X004821Y004679D01*
X004842Y004631D01*
X004859Y004581D01*
X004872Y004531D01*
X004882Y004479D01*
X004888Y004427D01*
X004890Y004375D01*
X004888Y004323D01*
X004882Y004271D01*
X004872Y004219D01*
X004859Y004169D01*
X004842Y004119D01*
X004821Y004071D01*
X004796Y004025D01*
X004768Y003981D01*
X004737Y003939D01*
X004703Y003899D01*
X004666Y003862D01*
X004626Y003828D01*
X004584Y003797D01*
X004540Y003769D01*
X004494Y003744D01*
X004446Y003723D01*
X004396Y003706D01*
X004346Y003693D01*
X004294Y003683D01*
X004242Y003677D01*
X004190Y003675D01*
X004138Y003677D01*
X004086Y003683D01*
X004034Y003693D01*
X003984Y003706D01*
X003934Y003723D01*
X003886Y003744D01*
X003840Y003769D01*
X003796Y003797D01*
X003754Y003828D01*
X003714Y003862D01*
X003677Y003899D01*
X003643Y003939D01*
X003612Y003981D01*
X003584Y004025D01*
X003559Y004071D01*
X003538Y004119D01*
X003521Y004169D01*
X003508Y004219D01*
X003498Y004271D01*
X003492Y004323D01*
X003490Y004375D01*
X007990Y004375D02*
X007992Y004427D01*
X007998Y004479D01*
X008008Y004531D01*
X008021Y004581D01*
X008038Y004631D01*
X008059Y004679D01*
X008084Y004725D01*
X008112Y004769D01*
X008143Y004811D01*
X008177Y004851D01*
X008214Y004888D01*
X008254Y004922D01*
X008296Y004953D01*
X008340Y004981D01*
X008386Y005006D01*
X008434Y005027D01*
X008484Y005044D01*
X008534Y005057D01*
X008586Y005067D01*
X008638Y005073D01*
X008690Y005075D01*
X008742Y005073D01*
X008794Y005067D01*
X008846Y005057D01*
X008896Y005044D01*
X008946Y005027D01*
X008994Y005006D01*
X009040Y004981D01*
X009084Y004953D01*
X009126Y004922D01*
X009166Y004888D01*
X009203Y004851D01*
X009237Y004811D01*
X009268Y004769D01*
X009296Y004725D01*
X009321Y004679D01*
X009342Y004631D01*
X009359Y004581D01*
X009372Y004531D01*
X009382Y004479D01*
X009388Y004427D01*
X009390Y004375D01*
X009388Y004323D01*
X009382Y004271D01*
X009372Y004219D01*
X009359Y004169D01*
X009342Y004119D01*
X009321Y004071D01*
X009296Y004025D01*
X009268Y003981D01*
X009237Y003939D01*
X009203Y003899D01*
X009166Y003862D01*
X009126Y003828D01*
X009084Y003797D01*
X009040Y003769D01*
X008994Y003744D01*
X008946Y003723D01*
X008896Y003706D01*
X008846Y003693D01*
X008794Y003683D01*
X008742Y003677D01*
X008690Y003675D01*
X008638Y003677D01*
X008586Y003683D01*
X008534Y003693D01*
X008484Y003706D01*
X008434Y003723D01*
X008386Y003744D01*
X008340Y003769D01*
X008296Y003797D01*
X008254Y003828D01*
X008214Y003862D01*
X008177Y003899D01*
X008143Y003939D01*
X008112Y003981D01*
X008084Y004025D01*
X008059Y004071D01*
X008038Y004119D01*
X008021Y004169D01*
X008008Y004219D01*
X007998Y004271D01*
X007992Y004323D01*
X007990Y004375D01*
X001676Y020536D02*
X001678Y020575D01*
X001684Y020614D01*
X001694Y020652D01*
X001707Y020689D01*
X001724Y020724D01*
X001744Y020758D01*
X001768Y020789D01*
X001795Y020818D01*
X001824Y020844D01*
X001856Y020867D01*
X001890Y020887D01*
X001926Y020903D01*
X001963Y020915D01*
X002002Y020924D01*
X002041Y020929D01*
X002080Y020930D01*
X002119Y020927D01*
X002158Y020920D01*
X002195Y020909D01*
X002232Y020895D01*
X002267Y020877D01*
X002300Y020856D01*
X002331Y020831D01*
X002359Y020804D01*
X002384Y020774D01*
X002406Y020741D01*
X002425Y020707D01*
X002440Y020671D01*
X002452Y020633D01*
X002460Y020595D01*
X002464Y020556D01*
X002464Y020516D01*
X002460Y020477D01*
X002452Y020439D01*
X002440Y020401D01*
X002425Y020365D01*
X002406Y020331D01*
X002384Y020298D01*
X002359Y020268D01*
X002331Y020241D01*
X002300Y020216D01*
X002267Y020195D01*
X002232Y020177D01*
X002195Y020163D01*
X002158Y020152D01*
X002119Y020145D01*
X002080Y020142D01*
X002041Y020143D01*
X002002Y020148D01*
X001963Y020157D01*
X001926Y020169D01*
X001890Y020185D01*
X001856Y020205D01*
X001824Y020228D01*
X001795Y020254D01*
X001768Y020283D01*
X001744Y020314D01*
X001724Y020348D01*
X001707Y020383D01*
X001694Y020420D01*
X001684Y020458D01*
X001678Y020497D01*
X001676Y020536D01*
M02*
