G75*
%MOIN*%
%OFA0B0*%
%FSLAX24Y24*%
%IPPOS*%
%LPD*%
%AMOC8*
5,1,8,0,0,1.08239X$1,22.5*
%
%ADD10C,0.0160*%
%ADD11C,0.0000*%
%ADD12C,0.0540*%
%ADD13OC8,0.0540*%
%ADD14R,0.0004X0.0421*%
%ADD15R,0.0004X0.0465*%
%ADD16R,0.0004X0.0492*%
%ADD17R,0.0004X0.0516*%
%ADD18R,0.0004X0.0531*%
%ADD19R,0.0004X0.0547*%
%ADD20R,0.0004X0.0563*%
%ADD21R,0.0004X0.0575*%
%ADD22R,0.0004X0.0587*%
%ADD23R,0.0004X0.0598*%
%ADD24R,0.0004X0.0610*%
%ADD25R,0.0004X0.0618*%
%ADD26R,0.0004X0.0626*%
%ADD27R,0.0004X0.0638*%
%ADD28R,0.0004X0.0646*%
%ADD29R,0.0004X0.0650*%
%ADD30R,0.0004X0.0657*%
%ADD31R,0.0004X0.0665*%
%ADD32R,0.0004X0.0673*%
%ADD33R,0.0004X0.0677*%
%ADD34R,0.0004X0.0685*%
%ADD35R,0.0004X0.0689*%
%ADD36R,0.0004X0.0693*%
%ADD37R,0.0004X0.0701*%
%ADD38R,0.0004X0.0705*%
%ADD39R,0.0004X0.0709*%
%ADD40R,0.0004X0.0717*%
%ADD41R,0.0004X0.0720*%
%ADD42R,0.0004X0.0724*%
%ADD43R,0.0004X0.0728*%
%ADD44R,0.0004X0.0732*%
%ADD45R,0.0004X0.0736*%
%ADD46R,0.0004X0.0740*%
%ADD47R,0.0004X0.0744*%
%ADD48R,0.0004X0.0748*%
%ADD49R,0.0004X0.0752*%
%ADD50R,0.0004X0.0756*%
%ADD51R,0.0004X0.0760*%
%ADD52R,0.0004X0.0764*%
%ADD53R,0.0004X0.0768*%
%ADD54R,0.0004X0.0772*%
%ADD55R,0.0004X0.0776*%
%ADD56R,0.0004X0.0780*%
%ADD57R,0.0004X0.0783*%
%ADD58R,0.0004X0.0787*%
%ADD59R,0.0004X0.0791*%
%ADD60R,0.0004X0.0795*%
%ADD61R,0.0004X0.0799*%
%ADD62R,0.0004X0.0803*%
%ADD63R,0.0004X0.0807*%
%ADD64R,0.0004X0.0811*%
%ADD65R,0.0004X0.0815*%
%ADD66R,0.0004X0.0819*%
%ADD67R,0.0004X0.0823*%
%ADD68R,0.0004X0.0827*%
%ADD69R,0.0004X0.0831*%
%ADD70R,0.0004X0.0835*%
%ADD71R,0.0004X0.0839*%
%ADD72R,0.0004X0.0909*%
%ADD73R,0.0004X0.0937*%
%ADD74R,0.0004X0.0953*%
%ADD75R,0.0004X0.0961*%
%ADD76R,0.0004X0.0969*%
%ADD77R,0.0004X0.0976*%
%ADD78R,0.0004X0.0980*%
%ADD79R,0.0004X0.0984*%
%ADD80R,0.0004X0.0965*%
%ADD81R,0.0004X0.0957*%
%ADD82R,0.0004X0.0945*%
%ADD83R,0.0004X0.0921*%
%ADD84R,0.0004X0.0232*%
%ADD85R,0.0004X0.0555*%
%ADD86R,0.0004X0.0224*%
%ADD87R,0.0004X0.0543*%
%ADD88R,0.0004X0.0539*%
%ADD89R,0.0004X0.0220*%
%ADD90R,0.0004X0.0535*%
%ADD91R,0.0004X0.0528*%
%ADD92R,0.0004X0.0520*%
%ADD93R,0.0004X0.0512*%
%ADD94R,0.0004X0.0500*%
%ADD95R,0.0004X0.0488*%
%ADD96R,0.0004X0.0484*%
%ADD97R,0.0004X0.0476*%
%ADD98R,0.0004X0.0449*%
%ADD99R,0.0004X0.0370*%
%ADD100R,0.0004X0.0043*%
%ADD101R,0.0004X0.0228*%
%ADD102R,0.0004X0.0358*%
%ADD103R,0.0004X0.0350*%
%ADD104R,0.0004X0.0343*%
%ADD105R,0.0004X0.0331*%
%ADD106R,0.0004X0.0319*%
%ADD107R,0.0004X0.0311*%
%ADD108R,0.0004X0.0307*%
%ADD109R,0.0004X0.0303*%
%ADD110R,0.0004X0.0063*%
%ADD111R,0.0004X0.0130*%
%ADD112R,0.0004X0.0445*%
%ADD113R,0.0004X0.0437*%
%ADD114R,0.0004X0.0433*%
%ADD115R,0.0004X0.0362*%
%ADD116R,0.0004X0.0047*%
%ADD117R,0.0004X0.0354*%
%ADD118R,0.0004X0.0031*%
%ADD119R,0.0004X0.0346*%
%ADD120R,0.0004X0.0339*%
%ADD121R,0.0004X0.0055*%
%ADD122R,0.0004X0.0177*%
%ADD123R,0.0004X0.0035*%
%ADD124R,0.0004X0.0161*%
%ADD125R,0.0004X0.0051*%
%ADD126R,0.0004X0.0142*%
%ADD127R,0.0004X0.0118*%
%ADD128R,0.0004X0.0091*%
%ADD129R,0.0004X0.0024*%
%ADD130R,0.0004X0.0020*%
%ADD131R,0.0004X0.0008*%
%ADD132R,0.0004X0.0004*%
%ADD133R,0.0004X0.0012*%
%ADD134R,0.0004X0.0028*%
%ADD135R,0.0004X0.0059*%
%ADD136R,0.0004X0.0067*%
%ADD137R,0.0004X0.0075*%
%ADD138R,0.0004X0.0083*%
%ADD139R,0.0004X0.0098*%
%ADD140R,0.0004X0.0106*%
%ADD141R,0.0004X0.0114*%
%ADD142R,0.0004X0.0122*%
%ADD143R,0.0004X0.0138*%
%ADD144R,0.0004X0.0146*%
%ADD145R,0.0004X0.0154*%
%ADD146R,0.0004X0.0165*%
%ADD147R,0.0004X0.0169*%
%ADD148R,0.0004X0.0185*%
%ADD149R,0.0004X0.0189*%
%ADD150R,0.0004X0.0193*%
%ADD151R,0.0004X0.0201*%
%ADD152R,0.0004X0.0209*%
%ADD153R,0.0004X0.0213*%
%ADD154R,0.0004X0.0217*%
%ADD155R,0.0004X0.0236*%
%ADD156R,0.0004X0.0240*%
%ADD157R,0.0004X0.0248*%
%ADD158R,0.0004X0.0256*%
%ADD159R,0.0004X0.0264*%
%ADD160R,0.0004X0.0272*%
%ADD161R,0.0004X0.0280*%
%ADD162R,0.0004X0.0287*%
%ADD163R,0.0004X0.0295*%
%ADD164R,0.0004X0.0299*%
%ADD165R,0.0004X0.0126*%
%ADD166R,0.0004X0.0157*%
%ADD167R,0.0004X0.0134*%
%ADD168R,0.0004X0.0173*%
%ADD169R,0.0004X0.0366*%
%ADD170R,0.0004X0.0374*%
%ADD171R,0.0004X0.0382*%
%ADD172R,0.0004X0.0390*%
%ADD173R,0.0004X0.0394*%
%ADD174R,0.0004X0.0398*%
%ADD175R,0.0004X0.0406*%
%ADD176R,0.0004X0.0409*%
%ADD177R,0.0004X0.0417*%
%ADD178R,0.0004X0.0429*%
%ADD179R,0.0004X0.0441*%
%ADD180R,0.0004X0.0453*%
%ADD181R,0.0004X0.0457*%
%ADD182R,0.0004X0.0469*%
%ADD183R,0.0004X0.0480*%
%ADD184R,0.0004X0.0504*%
%ADD185R,0.0004X0.0508*%
%ADD186R,0.0004X0.0551*%
%ADD187R,0.0004X0.0567*%
%ADD188R,0.0004X0.0579*%
%ADD189R,0.0004X0.0413*%
%ADD190R,0.0004X0.0425*%
%ADD191R,0.0004X0.0181*%
%ADD192R,0.0004X0.0634*%
%ADD193R,0.0004X0.0654*%
%ADD194R,0.0004X0.0661*%
%ADD195R,0.0004X0.0669*%
%ADD196R,0.0004X0.0697*%
%ADD197R,0.0004X0.0244*%
%ADD198R,0.0004X0.0252*%
%ADD199R,0.0004X0.0461*%
%ADD200R,0.0004X0.0094*%
%ADD201R,0.0004X0.0622*%
%ADD202R,0.0004X0.0102*%
%ADD203R,0.0004X0.0630*%
%ADD204R,0.0004X0.0614*%
%ADD205R,0.0004X0.0583*%
%ADD206R,0.0004X0.0327*%
%ADD207C,0.0600*%
%ADD208C,0.0975*%
%ADD209R,0.0600X0.0600*%
%ADD210C,0.0679*%
%ADD211C,0.0502*%
%ADD212C,0.0376*%
%ADD213C,0.0100*%
%ADD214C,0.0120*%
D10*
X000259Y001718D02*
X016401Y001718D01*
X016401Y021403D01*
X001913Y021403D01*
X000259Y019749D01*
X000259Y001718D01*
X000579Y002721D02*
X000680Y002763D01*
X000619Y002763D01*
X000579Y002802D01*
X000579Y002721D01*
X000980Y002763D02*
X001041Y002763D01*
X001330Y003051D01*
X001609Y002773D01*
X001320Y002484D01*
X001320Y002422D01*
X001262Y002562D01*
X001119Y002705D01*
X000980Y002763D01*
X001106Y002827D02*
X001554Y002827D01*
X001505Y002669D02*
X001155Y002669D01*
X001284Y002510D02*
X001346Y002510D01*
X001320Y002123D02*
X001320Y002061D01*
X001344Y002038D01*
X001285Y002038D01*
X001320Y002123D01*
X001264Y002986D02*
X001396Y002986D01*
X001330Y003494D02*
X001609Y003773D01*
X001330Y004051D01*
X001051Y003773D01*
X001330Y003494D01*
X001204Y003620D02*
X001456Y003620D01*
X001603Y003778D02*
X001057Y003778D01*
X001215Y003937D02*
X001445Y003937D01*
X001330Y004494D02*
X001609Y004773D01*
X001330Y005051D01*
X001051Y004773D01*
X001330Y004494D01*
X001253Y004571D02*
X001407Y004571D01*
X001565Y004729D02*
X001095Y004729D01*
X001166Y004888D02*
X001494Y004888D01*
X001335Y005046D02*
X001325Y005046D01*
X001330Y005494D02*
X001609Y005773D01*
X001330Y006051D01*
X001051Y005773D01*
X001330Y005494D01*
X001302Y005522D02*
X001358Y005522D01*
X001516Y005680D02*
X001144Y005680D01*
X001117Y005839D02*
X001543Y005839D01*
X001384Y005997D02*
X001276Y005997D01*
X001330Y006494D02*
X001609Y006773D01*
X001330Y007051D01*
X001051Y006773D01*
X001330Y006494D01*
X001193Y006631D02*
X001467Y006631D01*
X001592Y006790D02*
X001068Y006790D01*
X001227Y006948D02*
X001433Y006948D01*
X001330Y007494D02*
X001609Y007773D01*
X001330Y008051D01*
X001051Y007773D01*
X001330Y007494D01*
X001242Y007582D02*
X001418Y007582D01*
X001577Y007741D02*
X001083Y007741D01*
X001178Y007899D02*
X001482Y007899D01*
X001330Y008494D02*
X001609Y008773D01*
X001330Y009051D01*
X001051Y008773D01*
X001330Y008494D01*
X001291Y008533D02*
X001369Y008533D01*
X001528Y008692D02*
X001132Y008692D01*
X001129Y008850D02*
X001531Y008850D01*
X001373Y009009D02*
X001287Y009009D01*
X001330Y009494D02*
X001609Y009773D01*
X001330Y010051D01*
X001051Y009773D01*
X001330Y009494D01*
X001181Y009643D02*
X001479Y009643D01*
X001580Y009801D02*
X001080Y009801D01*
X001238Y009960D02*
X001422Y009960D01*
X001330Y010494D02*
X001609Y010773D01*
X001330Y011051D01*
X001051Y010773D01*
X001330Y010494D01*
X001230Y010594D02*
X001430Y010594D01*
X001588Y010752D02*
X001072Y010752D01*
X001189Y010911D02*
X001471Y010911D01*
X001330Y011494D02*
X001609Y011773D01*
X001330Y012051D01*
X001051Y011773D01*
X001330Y011494D01*
X001279Y011545D02*
X001381Y011545D01*
X001539Y011703D02*
X001121Y011703D01*
X001140Y011862D02*
X001520Y011862D01*
X001361Y012020D02*
X001299Y012020D01*
X001330Y012494D02*
X001609Y012773D01*
X001330Y013051D01*
X001051Y012773D01*
X001330Y012494D01*
X001328Y012496D02*
X001332Y012496D01*
X001490Y012654D02*
X001170Y012654D01*
X001091Y012813D02*
X001569Y012813D01*
X001410Y012971D02*
X001250Y012971D01*
X001330Y013494D02*
X001051Y013773D01*
X001340Y014061D01*
X001340Y014484D01*
X001051Y014773D01*
X001330Y015051D01*
X001619Y014763D01*
X002041Y014763D01*
X002340Y015061D01*
X002340Y015484D01*
X002051Y015773D01*
X002340Y016061D01*
X002340Y016484D01*
X002051Y016773D01*
X002340Y017061D01*
X002340Y017441D01*
X002528Y017441D01*
X002552Y017451D01*
X002667Y017451D01*
X002824Y017516D01*
X002945Y017636D01*
X003010Y017794D01*
X003010Y017964D01*
X002945Y018121D01*
X002824Y018242D01*
X002667Y018307D01*
X002497Y018307D01*
X002339Y018242D01*
X002280Y018182D01*
X002280Y018263D01*
X001840Y018263D01*
X001840Y018283D01*
X001820Y018283D01*
X001820Y018723D01*
X001644Y018723D01*
X001380Y018459D01*
X001380Y018283D01*
X001820Y018283D01*
X001820Y018263D01*
X001380Y018263D01*
X001380Y018086D01*
X001385Y018081D01*
X001340Y018081D01*
X001340Y018484D01*
X001041Y018783D01*
X000619Y018783D01*
X000579Y018743D01*
X000579Y018887D01*
X000644Y018823D01*
X000820Y018823D01*
X000820Y019263D01*
X000840Y019263D01*
X000840Y019283D01*
X000820Y019283D01*
X000820Y019723D01*
X000685Y019723D01*
X001436Y020474D01*
X001436Y020410D01*
X001533Y020177D01*
X001711Y019999D01*
X001944Y019903D01*
X002196Y019903D01*
X002429Y019999D01*
X002607Y020177D01*
X002704Y020410D01*
X002704Y020662D01*
X002607Y020895D01*
X002429Y021074D01*
X002408Y021083D01*
X008938Y021083D01*
X008911Y021031D01*
X008886Y020953D01*
X008873Y020873D01*
X008873Y020865D01*
X009360Y020865D01*
X009360Y020799D01*
X008873Y020799D01*
X008873Y020791D01*
X008886Y020710D01*
X008911Y020632D01*
X008949Y020559D01*
X008997Y020493D01*
X009055Y020435D01*
X009121Y020387D01*
X009194Y020350D01*
X009271Y020325D01*
X009352Y020312D01*
X009360Y020312D01*
X009360Y020798D01*
X009426Y020798D01*
X009426Y020312D01*
X009434Y020312D01*
X009515Y020325D01*
X009592Y020350D01*
X009665Y020387D01*
X009731Y020435D01*
X009789Y020493D01*
X009837Y020559D01*
X009874Y020632D01*
X009900Y020710D01*
X009913Y020791D01*
X009913Y020799D01*
X009426Y020799D01*
X009426Y020865D01*
X009913Y020865D01*
X009913Y020873D01*
X009900Y020953D01*
X009874Y021031D01*
X009848Y021083D01*
X011694Y021083D01*
X011667Y021031D01*
X011642Y020953D01*
X011629Y020873D01*
X011629Y020865D01*
X012116Y020865D01*
X012116Y020799D01*
X011629Y020799D01*
X011629Y020791D01*
X011642Y020710D01*
X011667Y020632D01*
X011705Y020559D01*
X011753Y020493D01*
X011810Y020435D01*
X011877Y020387D01*
X011949Y020350D01*
X012027Y020325D01*
X012108Y020312D01*
X012116Y020312D01*
X012116Y020798D01*
X012182Y020798D01*
X012182Y020312D01*
X012190Y020312D01*
X012271Y020325D01*
X012348Y020350D01*
X012421Y020387D01*
X012487Y020435D01*
X012545Y020493D01*
X012593Y020559D01*
X012630Y020632D01*
X012656Y020710D01*
X012668Y020791D01*
X012668Y020799D01*
X012182Y020799D01*
X012182Y020865D01*
X012668Y020865D01*
X012668Y020873D01*
X012656Y020953D01*
X012630Y021031D01*
X012604Y021083D01*
X014482Y021083D01*
X014463Y021064D01*
X014460Y021057D01*
X014459Y021056D01*
X014456Y021050D01*
X014455Y021048D01*
X014452Y021042D01*
X014447Y021037D01*
X014445Y021030D01*
X014443Y021029D01*
X014441Y021022D01*
X014440Y021021D01*
X014437Y021014D01*
X014436Y021013D01*
X014433Y021006D01*
X014432Y021005D01*
X014429Y020998D01*
X014428Y020997D01*
X014425Y020990D01*
X014424Y020989D01*
X014421Y020983D01*
X014420Y020981D01*
X014417Y020975D01*
X014416Y020974D01*
X014413Y020967D01*
X014412Y020966D01*
X014409Y020959D01*
X014408Y020958D01*
X014405Y020951D01*
X014404Y020950D01*
X014368Y020862D01*
X014368Y020861D01*
X014360Y020842D01*
X014360Y020840D01*
X014356Y020830D01*
X014356Y020828D01*
X014352Y020818D01*
X014352Y020816D01*
X014348Y020807D01*
X014348Y020804D01*
X014344Y020795D01*
X014344Y020792D01*
X014340Y020783D01*
X014340Y020777D01*
X014336Y020767D01*
X014336Y020761D01*
X014332Y020751D01*
X014332Y020745D01*
X014328Y020736D01*
X014328Y020726D01*
X014324Y020716D01*
X014324Y020702D01*
X014320Y020692D01*
X014320Y020666D01*
X014316Y020657D01*
X014316Y020455D01*
X014320Y020446D01*
X014320Y020420D01*
X014324Y020410D01*
X014324Y020396D01*
X014328Y020387D01*
X014328Y020376D01*
X014332Y020367D01*
X014332Y020361D01*
X014336Y020351D01*
X014336Y020345D01*
X014340Y020335D01*
X014340Y020329D01*
X014344Y020320D01*
X014344Y020317D01*
X014348Y020308D01*
X014348Y020306D01*
X014352Y020296D01*
X014352Y020294D01*
X014356Y020284D01*
X014356Y020282D01*
X014360Y020272D01*
X014360Y020270D01*
X014368Y020251D01*
X014368Y020250D01*
X014404Y020162D01*
X014405Y020162D01*
X014416Y020135D01*
X014417Y020134D01*
X014420Y020127D01*
X014421Y020126D01*
X014424Y020119D01*
X014425Y020118D01*
X014428Y020111D01*
X014429Y020110D01*
X014432Y020103D01*
X014433Y020102D01*
X014436Y020095D01*
X014437Y020094D01*
X014440Y020087D01*
X014445Y020082D01*
X014447Y020076D01*
X014449Y020075D01*
X014451Y020068D01*
X014452Y020067D01*
X014455Y020060D01*
X014456Y020059D01*
X014459Y020052D01*
X014464Y020047D01*
X014467Y020040D01*
X014535Y019973D01*
X014623Y019936D01*
X014730Y019936D01*
X014818Y019973D01*
X014823Y019978D01*
X014830Y019981D01*
X014839Y019990D01*
X014846Y019992D01*
X014855Y020001D01*
X014862Y020004D01*
X014871Y020013D01*
X014877Y020016D01*
X014886Y020025D01*
X014893Y020028D01*
X014902Y020037D01*
X014909Y020040D01*
X014918Y020049D01*
X014925Y020051D01*
X014934Y020060D01*
X014940Y020063D01*
X014944Y020067D01*
X014949Y020072D01*
X014956Y020075D01*
X014965Y020084D01*
X014972Y020087D01*
X014981Y020096D01*
X014988Y020099D01*
X014993Y020104D01*
X014999Y020107D01*
X015008Y020116D01*
X015015Y020118D01*
X015024Y020127D01*
X015031Y020130D01*
X015040Y020139D01*
X015047Y020142D01*
X015056Y020151D01*
X015062Y020154D01*
X015071Y020163D01*
X015078Y020166D01*
X015086Y020174D01*
X015087Y020175D01*
X015094Y020177D01*
X015103Y020186D01*
X015104Y020187D01*
X015116Y020175D01*
X015120Y020166D01*
X015120Y020164D01*
X015156Y020076D01*
X015157Y020075D01*
X015160Y020068D01*
X015161Y020067D01*
X015164Y020060D01*
X015231Y019992D01*
X015235Y019988D01*
X015239Y019985D01*
X015243Y019981D01*
X015247Y019977D01*
X015251Y019973D01*
X015251Y019973D01*
X015255Y019969D01*
X015262Y019966D01*
X015267Y019961D01*
X015274Y019958D01*
X015275Y019957D01*
X015278Y019956D01*
X015282Y019946D01*
X015350Y019878D01*
X015353Y019874D01*
X015357Y019870D01*
X015361Y019866D01*
X015365Y019862D01*
X015454Y019826D01*
X015456Y019826D01*
X015465Y019822D01*
X015612Y019822D01*
X015621Y019826D01*
X015624Y019826D01*
X015712Y019862D01*
X015780Y019930D01*
X015783Y019934D01*
X015787Y019938D01*
X015788Y019938D01*
X015792Y019940D01*
X015793Y019940D01*
X015881Y019977D01*
X015882Y019978D01*
X015889Y019981D01*
X015890Y019982D01*
X015897Y019985D01*
X015898Y019986D01*
X015905Y019988D01*
X015906Y019990D01*
X015913Y019992D01*
X015918Y019997D01*
X015925Y020000D01*
X015930Y020005D01*
X015936Y020008D01*
X015942Y020013D01*
X015948Y020016D01*
X015980Y020048D01*
X016047Y020115D01*
X016050Y020122D01*
X016051Y020123D01*
X016055Y020127D01*
X016058Y020134D01*
X016059Y020135D01*
X016063Y020139D01*
X016066Y020145D01*
X016067Y020147D01*
X016070Y020153D01*
X016071Y020154D01*
X016074Y020161D01*
X016075Y020162D01*
X016081Y020177D01*
X016081Y019743D01*
X016041Y019783D01*
X015619Y019783D01*
X015320Y019484D01*
X015320Y019061D01*
X015609Y018773D01*
X015330Y018494D01*
X015041Y018783D01*
X014619Y018783D01*
X014320Y018484D01*
X014320Y018061D01*
X014609Y017773D01*
X014320Y017484D01*
X014320Y017061D01*
X014609Y016773D01*
X014320Y016484D01*
X014320Y016061D01*
X014609Y015773D01*
X014320Y015484D01*
X014320Y015061D01*
X014609Y014773D01*
X014320Y014484D01*
X014320Y014061D01*
X014609Y013773D01*
X014320Y013484D01*
X014320Y013061D01*
X014609Y012773D01*
X014320Y012484D01*
X014320Y012061D01*
X014609Y011773D01*
X014320Y011484D01*
X014320Y011061D01*
X014609Y010773D01*
X014320Y010484D01*
X014320Y010061D01*
X014619Y009763D01*
X015041Y009763D01*
X015330Y010051D01*
X015609Y009773D01*
X015320Y009484D01*
X015320Y009061D01*
X015609Y008773D01*
X015330Y008494D01*
X015041Y008783D01*
X014619Y008783D01*
X014320Y008484D01*
X014320Y008061D01*
X014609Y007773D01*
X014320Y007484D01*
X014320Y007061D01*
X014609Y006773D01*
X014320Y006484D01*
X014320Y006061D01*
X014609Y005773D01*
X014320Y005484D01*
X014320Y005061D01*
X014609Y004773D01*
X014320Y004484D01*
X014320Y004061D01*
X014609Y003773D01*
X014320Y003484D01*
X014320Y003061D01*
X014619Y002763D01*
X014680Y002763D01*
X014541Y002705D01*
X014398Y002562D01*
X014320Y002374D01*
X014320Y002171D01*
X014375Y002038D01*
X009416Y002038D01*
X009498Y002119D01*
X009580Y002318D01*
X009580Y002532D01*
X009498Y002731D01*
X009404Y002825D01*
X010553Y002825D01*
X010660Y002869D01*
X010741Y002951D01*
X011273Y003482D01*
X011317Y003589D01*
X011317Y007145D01*
X011434Y007096D01*
X011604Y007096D01*
X011761Y007162D01*
X011882Y007282D01*
X011947Y007439D01*
X011947Y007610D01*
X011947Y007611D01*
X011947Y013900D01*
X012024Y013868D01*
X012195Y013868D01*
X012352Y013933D01*
X012472Y014054D01*
X012538Y014211D01*
X012538Y014314D01*
X012828Y014604D01*
X012872Y014711D01*
X012872Y015556D01*
X012945Y015629D01*
X013010Y015786D01*
X013010Y015956D01*
X012945Y016114D01*
X012824Y016234D01*
X012667Y016299D01*
X012497Y016299D01*
X012339Y016234D01*
X012219Y016114D01*
X012154Y015956D01*
X012154Y015786D01*
X012219Y015629D01*
X012292Y015556D01*
X012292Y014889D01*
X012128Y014724D01*
X012024Y014724D01*
X011947Y014692D01*
X011947Y016560D01*
X012020Y016632D01*
X012085Y016790D01*
X012085Y016960D01*
X012020Y017118D01*
X011899Y017238D01*
X011742Y017303D01*
X011572Y017303D01*
X011414Y017238D01*
X011294Y017118D01*
X011229Y016960D01*
X011229Y016790D01*
X011261Y016713D01*
X011257Y016713D01*
X011099Y016647D01*
X011036Y016584D01*
X010022Y016584D01*
X009912Y016539D01*
X009060Y015687D01*
X009014Y015576D01*
X009014Y015457D01*
X009024Y015433D01*
X009024Y014216D01*
X008986Y014232D01*
X008876Y014232D01*
X008876Y017180D01*
X008927Y017201D01*
X009047Y017321D01*
X009112Y017479D01*
X009112Y017649D01*
X009047Y017806D01*
X008955Y017899D01*
X008969Y017912D01*
X009034Y018069D01*
X009034Y018240D01*
X008969Y018397D01*
X008848Y018517D01*
X008691Y018583D01*
X008520Y018583D01*
X008363Y018517D01*
X008243Y018397D01*
X008177Y018240D01*
X008177Y018137D01*
X007513Y017472D01*
X007469Y017366D01*
X007469Y011220D01*
X006127Y011220D01*
X006020Y011176D01*
X005938Y011094D01*
X005910Y011025D01*
X005821Y010936D01*
X005756Y010779D01*
X005756Y010609D01*
X005821Y010451D01*
X005942Y010331D01*
X006099Y010266D01*
X006143Y010266D01*
X006059Y010231D01*
X005016Y009188D01*
X004935Y009106D01*
X004890Y009000D01*
X004890Y008335D01*
X004884Y008333D01*
X004732Y008181D01*
X004650Y007982D01*
X004650Y007768D01*
X004732Y007569D01*
X004884Y007417D01*
X004890Y007415D01*
X004342Y007415D01*
X004254Y007378D01*
X004187Y007311D01*
X004150Y007223D01*
X004150Y006527D01*
X004187Y006439D01*
X004254Y006372D01*
X004342Y006335D01*
X005038Y006335D01*
X005126Y006372D01*
X005194Y006439D01*
X005230Y006527D01*
X005230Y006574D01*
X005232Y006569D01*
X005384Y006417D01*
X005583Y006335D01*
X005798Y006335D01*
X005996Y006417D01*
X006148Y006569D01*
X006190Y006671D01*
X006232Y006569D01*
X006384Y006417D01*
X006583Y006335D01*
X006798Y006335D01*
X006996Y006417D01*
X007148Y006569D01*
X007190Y006671D01*
X007232Y006569D01*
X007384Y006417D01*
X007583Y006335D01*
X007798Y006335D01*
X007996Y006417D01*
X008148Y006569D01*
X008230Y006768D01*
X008230Y006982D01*
X008148Y007181D01*
X007996Y007333D01*
X007798Y007415D01*
X007583Y007415D01*
X007384Y007333D01*
X007232Y007181D01*
X007190Y007079D01*
X007148Y007181D01*
X006996Y007333D01*
X006798Y007415D01*
X006583Y007415D01*
X006384Y007333D01*
X006232Y007181D01*
X006190Y007079D01*
X006148Y007181D01*
X005996Y007333D01*
X005798Y007415D01*
X005583Y007415D01*
X005384Y007333D01*
X005232Y007181D01*
X005230Y007176D01*
X005230Y007223D01*
X005194Y007311D01*
X005170Y007335D01*
X005298Y007335D01*
X005496Y007417D01*
X005648Y007569D01*
X005690Y007671D01*
X005732Y007569D01*
X005884Y007417D01*
X006083Y007335D01*
X006298Y007335D01*
X006496Y007417D01*
X006648Y007569D01*
X006690Y007671D01*
X006732Y007569D01*
X006884Y007417D01*
X007083Y007335D01*
X007298Y007335D01*
X007496Y007417D01*
X007648Y007569D01*
X007725Y007754D01*
X007745Y007691D01*
X007780Y007623D01*
X007824Y007562D01*
X007878Y007509D01*
X007939Y007464D01*
X008006Y007430D01*
X008078Y007407D01*
X008152Y007395D01*
X008190Y007395D01*
X008190Y007875D01*
X008190Y008355D01*
X008152Y008355D01*
X008078Y008343D01*
X008064Y008339D01*
X008161Y008435D01*
X008978Y008435D01*
X009085Y008480D01*
X009479Y008873D01*
X009560Y008955D01*
X009604Y009061D01*
X009604Y015382D01*
X010206Y015984D01*
X011036Y015984D01*
X011099Y015922D01*
X011257Y015856D01*
X011367Y015856D01*
X011367Y012310D01*
X011282Y012226D01*
X011191Y012264D01*
X011020Y012264D01*
X010863Y012199D01*
X010743Y012078D01*
X010677Y011921D01*
X010677Y011750D01*
X010743Y011593D01*
X010863Y011473D01*
X011020Y011408D01*
X011191Y011408D01*
X011348Y011473D01*
X011367Y011491D01*
X011367Y010959D01*
X011269Y011057D01*
X011112Y011122D01*
X010942Y011122D01*
X010784Y011057D01*
X010664Y010936D01*
X010599Y010779D01*
X010599Y010609D01*
X010664Y010451D01*
X010737Y010378D01*
X010737Y003767D01*
X010375Y003405D01*
X004473Y003405D01*
X004366Y003361D01*
X004080Y003075D01*
X004056Y003065D01*
X003954Y002963D01*
X003948Y002965D01*
X003733Y002965D01*
X003534Y002883D01*
X003382Y002731D01*
X003300Y002532D01*
X003300Y002318D01*
X003382Y002119D01*
X003464Y002038D01*
X002316Y002038D01*
X002340Y002061D01*
X002340Y002484D01*
X002051Y002773D01*
X002340Y003061D01*
X002340Y003484D01*
X002051Y003773D01*
X002340Y004061D01*
X002340Y004484D01*
X002051Y004773D01*
X002340Y005061D01*
X002340Y005484D01*
X002051Y005773D01*
X002340Y006061D01*
X002340Y006484D01*
X002051Y006773D01*
X002340Y007061D01*
X002340Y007484D01*
X002051Y007773D01*
X002340Y008061D01*
X002340Y008484D01*
X002051Y008773D01*
X002340Y009061D01*
X002340Y009484D01*
X002051Y009773D01*
X002340Y010061D01*
X002340Y010484D01*
X002051Y010773D01*
X002340Y011061D01*
X002340Y011484D01*
X002051Y011773D01*
X002340Y012061D01*
X002340Y012484D01*
X002051Y012773D01*
X002340Y013061D01*
X002340Y013484D01*
X002041Y013783D01*
X001619Y013783D01*
X001330Y013494D01*
X001219Y013605D02*
X001441Y013605D01*
X001600Y013764D02*
X001060Y013764D01*
X001201Y013922D02*
X001544Y013922D01*
X001644Y013823D02*
X001380Y014086D01*
X001380Y014263D01*
X001820Y014263D01*
X001820Y014283D01*
X001820Y014723D01*
X001644Y014723D01*
X001380Y014459D01*
X001380Y014283D01*
X001820Y014283D01*
X001840Y014283D01*
X001840Y014723D01*
X002016Y014723D01*
X002280Y014459D01*
X002280Y014283D01*
X001840Y014283D01*
X001840Y014263D01*
X002280Y014263D01*
X002280Y014086D01*
X002016Y013823D01*
X001840Y013823D01*
X001840Y014263D01*
X001820Y014263D01*
X001820Y013823D01*
X001644Y013823D01*
X001820Y013922D02*
X001840Y013922D01*
X001840Y014081D02*
X001820Y014081D01*
X001820Y014239D02*
X001840Y014239D01*
X001840Y014398D02*
X001820Y014398D01*
X001820Y014556D02*
X001840Y014556D01*
X001840Y014715D02*
X001820Y014715D01*
X001636Y014715D02*
X001109Y014715D01*
X001152Y014873D02*
X001508Y014873D01*
X001350Y015032D02*
X001310Y015032D01*
X001330Y015494D02*
X001609Y015773D01*
X001330Y016051D01*
X001051Y015773D01*
X001330Y015494D01*
X001317Y015507D02*
X001343Y015507D01*
X001502Y015666D02*
X001158Y015666D01*
X001103Y015824D02*
X001557Y015824D01*
X001399Y015983D02*
X001261Y015983D01*
X001330Y016494D02*
X001609Y016773D01*
X001330Y017051D01*
X001051Y016773D01*
X001330Y016494D01*
X001207Y016617D02*
X001453Y016617D01*
X001606Y016775D02*
X001054Y016775D01*
X001212Y016934D02*
X001448Y016934D01*
X002054Y016775D02*
X007469Y016775D01*
X007469Y016617D02*
X002207Y016617D01*
X002340Y016458D02*
X007469Y016458D01*
X007469Y016300D02*
X002340Y016300D01*
X002340Y016141D02*
X007469Y016141D01*
X007469Y015983D02*
X002261Y015983D01*
X002103Y015824D02*
X007469Y015824D01*
X007469Y015666D02*
X002158Y015666D01*
X002317Y015507D02*
X007469Y015507D01*
X007469Y015349D02*
X002340Y015349D01*
X002340Y015190D02*
X007469Y015190D01*
X007469Y015032D02*
X002310Y015032D01*
X002152Y014873D02*
X007469Y014873D01*
X007469Y014715D02*
X002024Y014715D01*
X002183Y014556D02*
X007469Y014556D01*
X007469Y014398D02*
X002280Y014398D01*
X002280Y014239D02*
X007469Y014239D01*
X007469Y014081D02*
X002274Y014081D01*
X002116Y013922D02*
X007469Y013922D01*
X007469Y013764D02*
X002060Y013764D01*
X002219Y013605D02*
X007469Y013605D01*
X007469Y013447D02*
X002340Y013447D01*
X002340Y013288D02*
X007469Y013288D01*
X007469Y013130D02*
X002340Y013130D01*
X002250Y012971D02*
X007469Y012971D01*
X007469Y012813D02*
X002091Y012813D01*
X002170Y012654D02*
X007469Y012654D01*
X007469Y012496D02*
X002328Y012496D01*
X002340Y012337D02*
X007469Y012337D01*
X007469Y012179D02*
X002340Y012179D01*
X002299Y012020D02*
X007469Y012020D01*
X007469Y011862D02*
X002140Y011862D01*
X002121Y011703D02*
X007469Y011703D01*
X007469Y011545D02*
X002279Y011545D01*
X002340Y011386D02*
X007469Y011386D01*
X007469Y011228D02*
X002340Y011228D01*
X002340Y011069D02*
X005928Y011069D01*
X005811Y010911D02*
X002189Y010911D01*
X002072Y010752D02*
X005756Y010752D01*
X005763Y010594D02*
X002230Y010594D01*
X002340Y010435D02*
X005838Y010435D01*
X006073Y010277D02*
X002340Y010277D01*
X002340Y010118D02*
X005946Y010118D01*
X005788Y009960D02*
X002238Y009960D01*
X002080Y009801D02*
X005629Y009801D01*
X005471Y009643D02*
X002181Y009643D01*
X002340Y009484D02*
X005312Y009484D01*
X005154Y009326D02*
X002340Y009326D01*
X002340Y009167D02*
X004995Y009167D01*
X004894Y009009D02*
X002287Y009009D01*
X002129Y008850D02*
X004890Y008850D01*
X004890Y008692D02*
X002132Y008692D01*
X002291Y008533D02*
X004890Y008533D01*
X004890Y008375D02*
X002340Y008375D01*
X002340Y008216D02*
X004768Y008216D01*
X004681Y008058D02*
X002336Y008058D01*
X002178Y007899D02*
X004650Y007899D01*
X004661Y007741D02*
X002083Y007741D01*
X002242Y007582D02*
X004727Y007582D01*
X004878Y007424D02*
X002340Y007424D01*
X002340Y007265D02*
X004168Y007265D01*
X004150Y007107D02*
X002340Y007107D01*
X002227Y006948D02*
X004150Y006948D01*
X004150Y006790D02*
X002068Y006790D01*
X002193Y006631D02*
X004150Y006631D01*
X004173Y006473D02*
X002340Y006473D01*
X002340Y006314D02*
X010737Y006314D01*
X010737Y006156D02*
X009969Y006156D01*
X010002Y006142D02*
X009735Y006252D01*
X009446Y006252D01*
X009178Y006142D01*
X008973Y005937D01*
X008863Y005670D01*
X008863Y005380D01*
X008892Y005309D01*
X008877Y005315D01*
X008503Y005315D01*
X008158Y005172D01*
X007893Y004907D01*
X007750Y004562D01*
X007750Y004188D01*
X007893Y003843D01*
X008158Y003578D01*
X008503Y003435D01*
X008877Y003435D01*
X009223Y003578D01*
X009487Y003843D01*
X009630Y004188D01*
X009630Y004562D01*
X009533Y004798D01*
X009735Y004798D01*
X010002Y004908D01*
X010207Y005113D01*
X010318Y005380D01*
X010318Y005670D01*
X010207Y005937D01*
X010002Y006142D01*
X010147Y005997D02*
X010737Y005997D01*
X010737Y005839D02*
X010248Y005839D01*
X010313Y005680D02*
X010737Y005680D01*
X010737Y005522D02*
X010318Y005522D01*
X010311Y005363D02*
X010737Y005363D01*
X010737Y005205D02*
X010245Y005205D01*
X010140Y005046D02*
X010737Y005046D01*
X010737Y004888D02*
X009952Y004888D01*
X009561Y004729D02*
X010737Y004729D01*
X010737Y004571D02*
X009627Y004571D01*
X009630Y004412D02*
X010737Y004412D01*
X010737Y004254D02*
X009630Y004254D01*
X009592Y004095D02*
X010737Y004095D01*
X010737Y003937D02*
X009526Y003937D01*
X009423Y003778D02*
X010737Y003778D01*
X010590Y003620D02*
X009264Y003620D01*
X008940Y003461D02*
X010431Y003461D01*
X010776Y002986D02*
X014396Y002986D01*
X014320Y003144D02*
X010934Y003144D01*
X011093Y003303D02*
X014320Y003303D01*
X014320Y003461D02*
X011251Y003461D01*
X011317Y003620D02*
X014456Y003620D01*
X014603Y003778D02*
X011317Y003778D01*
X011317Y003937D02*
X014445Y003937D01*
X014320Y004095D02*
X011317Y004095D01*
X011317Y004254D02*
X014320Y004254D01*
X014320Y004412D02*
X011317Y004412D01*
X011317Y004571D02*
X014407Y004571D01*
X014565Y004729D02*
X011317Y004729D01*
X011317Y004888D02*
X014494Y004888D01*
X014335Y005046D02*
X011317Y005046D01*
X011317Y005205D02*
X014320Y005205D01*
X014320Y005363D02*
X011317Y005363D01*
X011317Y005522D02*
X014358Y005522D01*
X014516Y005680D02*
X011317Y005680D01*
X011317Y005839D02*
X014543Y005839D01*
X014384Y005997D02*
X011317Y005997D01*
X011317Y006156D02*
X014320Y006156D01*
X014320Y006314D02*
X011317Y006314D01*
X011317Y006473D02*
X014320Y006473D01*
X014467Y006631D02*
X011317Y006631D01*
X011317Y006790D02*
X014592Y006790D01*
X014433Y006948D02*
X011317Y006948D01*
X011317Y007107D02*
X011410Y007107D01*
X011628Y007107D02*
X014320Y007107D01*
X014320Y007265D02*
X011865Y007265D01*
X011940Y007424D02*
X014320Y007424D01*
X014418Y007582D02*
X011947Y007582D01*
X011947Y007741D02*
X014577Y007741D01*
X014482Y007899D02*
X011947Y007899D01*
X011947Y008058D02*
X014324Y008058D01*
X014320Y008216D02*
X011947Y008216D01*
X011947Y008375D02*
X014320Y008375D01*
X014369Y008533D02*
X011947Y008533D01*
X011947Y008692D02*
X014528Y008692D01*
X014644Y008823D02*
X014380Y009086D01*
X014380Y009263D01*
X014820Y009263D01*
X014820Y009283D01*
X014820Y009723D01*
X014644Y009723D01*
X014380Y009459D01*
X014380Y009283D01*
X014820Y009283D01*
X014840Y009283D01*
X014840Y009723D01*
X015016Y009723D01*
X015280Y009459D01*
X015280Y009283D01*
X014840Y009283D01*
X014840Y009263D01*
X015280Y009263D01*
X015280Y009086D01*
X015016Y008823D01*
X014840Y008823D01*
X014840Y009263D01*
X014820Y009263D01*
X014820Y008823D01*
X014644Y008823D01*
X014616Y008850D02*
X011947Y008850D01*
X011947Y009009D02*
X014458Y009009D01*
X014380Y009167D02*
X011947Y009167D01*
X011947Y009326D02*
X014380Y009326D01*
X014405Y009484D02*
X011947Y009484D01*
X011947Y009643D02*
X014563Y009643D01*
X014580Y009801D02*
X011947Y009801D01*
X011947Y009960D02*
X014422Y009960D01*
X014320Y010118D02*
X011947Y010118D01*
X011947Y010277D02*
X014320Y010277D01*
X014320Y010435D02*
X011947Y010435D01*
X011947Y010594D02*
X014430Y010594D01*
X014588Y010752D02*
X011947Y010752D01*
X011947Y010911D02*
X014471Y010911D01*
X014320Y011069D02*
X011947Y011069D01*
X011947Y011228D02*
X014320Y011228D01*
X014320Y011386D02*
X011947Y011386D01*
X011947Y011545D02*
X014381Y011545D01*
X014539Y011703D02*
X011947Y011703D01*
X011947Y011862D02*
X014520Y011862D01*
X014361Y012020D02*
X011947Y012020D01*
X011947Y012179D02*
X014320Y012179D01*
X014320Y012337D02*
X011947Y012337D01*
X011947Y012496D02*
X014332Y012496D01*
X014490Y012654D02*
X011947Y012654D01*
X011947Y012813D02*
X014569Y012813D01*
X014410Y012971D02*
X011947Y012971D01*
X011947Y013130D02*
X014320Y013130D01*
X014320Y013288D02*
X011947Y013288D01*
X011947Y013447D02*
X014320Y013447D01*
X014441Y013605D02*
X011947Y013605D01*
X011947Y013764D02*
X014600Y013764D01*
X014459Y013922D02*
X012325Y013922D01*
X012484Y014081D02*
X014320Y014081D01*
X014320Y014239D02*
X012538Y014239D01*
X012621Y014398D02*
X014320Y014398D01*
X014392Y014556D02*
X012779Y014556D01*
X012872Y014715D02*
X014551Y014715D01*
X014508Y014873D02*
X012872Y014873D01*
X012872Y015032D02*
X014350Y015032D01*
X014320Y015190D02*
X012872Y015190D01*
X012872Y015349D02*
X014320Y015349D01*
X014343Y015507D02*
X012872Y015507D01*
X012960Y015666D02*
X014502Y015666D01*
X014557Y015824D02*
X013010Y015824D01*
X012999Y015983D02*
X014399Y015983D01*
X014320Y016141D02*
X012917Y016141D01*
X012247Y016141D02*
X011947Y016141D01*
X011947Y015983D02*
X012165Y015983D01*
X012154Y015824D02*
X011947Y015824D01*
X011947Y015666D02*
X012204Y015666D01*
X012292Y015507D02*
X011947Y015507D01*
X011947Y015349D02*
X012292Y015349D01*
X012292Y015190D02*
X011947Y015190D01*
X011947Y015032D02*
X012292Y015032D01*
X012276Y014873D02*
X011947Y014873D01*
X011947Y014715D02*
X012001Y014715D01*
X011367Y014715D02*
X009604Y014715D01*
X009604Y014873D02*
X011367Y014873D01*
X011367Y015032D02*
X009604Y015032D01*
X009604Y015190D02*
X011367Y015190D01*
X011367Y015349D02*
X009604Y015349D01*
X009729Y015507D02*
X011367Y015507D01*
X011367Y015666D02*
X009887Y015666D01*
X010046Y015824D02*
X011367Y015824D01*
X011038Y015983D02*
X010204Y015983D01*
X009831Y016458D02*
X008876Y016458D01*
X008876Y016300D02*
X009673Y016300D01*
X009514Y016141D02*
X008876Y016141D01*
X008876Y015983D02*
X009356Y015983D01*
X009197Y015824D02*
X008876Y015824D01*
X008876Y015666D02*
X009051Y015666D01*
X009014Y015507D02*
X008876Y015507D01*
X008876Y015349D02*
X009024Y015349D01*
X009024Y015190D02*
X008876Y015190D01*
X008876Y015032D02*
X009024Y015032D01*
X009024Y014873D02*
X008876Y014873D01*
X008876Y014715D02*
X009024Y014715D01*
X009024Y014556D02*
X008876Y014556D01*
X008876Y014398D02*
X009024Y014398D01*
X009024Y014239D02*
X008876Y014239D01*
X008296Y014239D02*
X008049Y014239D01*
X008049Y014081D02*
X008296Y014081D01*
X008296Y013922D02*
X008049Y013922D01*
X008049Y013764D02*
X008296Y013764D01*
X008296Y013605D02*
X008049Y013605D01*
X008049Y013447D02*
X008296Y013447D01*
X008296Y013288D02*
X008049Y013288D01*
X008049Y013130D02*
X008296Y013130D01*
X008296Y013110D02*
X008146Y013110D01*
X008049Y013070D01*
X008049Y017188D01*
X008281Y017420D01*
X008296Y017383D01*
X008296Y013110D01*
X008296Y014398D02*
X008049Y014398D01*
X008049Y014556D02*
X008296Y014556D01*
X008296Y014715D02*
X008049Y014715D01*
X008049Y014873D02*
X008296Y014873D01*
X008296Y015032D02*
X008049Y015032D01*
X008049Y015190D02*
X008296Y015190D01*
X008296Y015349D02*
X008049Y015349D01*
X008049Y015507D02*
X008296Y015507D01*
X008296Y015666D02*
X008049Y015666D01*
X008049Y015824D02*
X008296Y015824D01*
X008296Y015983D02*
X008049Y015983D01*
X008049Y016141D02*
X008296Y016141D01*
X008296Y016300D02*
X008049Y016300D01*
X008049Y016458D02*
X008296Y016458D01*
X008296Y016617D02*
X008049Y016617D01*
X008049Y016775D02*
X008296Y016775D01*
X008296Y016934D02*
X008049Y016934D01*
X008049Y017092D02*
X008296Y017092D01*
X008296Y017251D02*
X008112Y017251D01*
X008270Y017409D02*
X008285Y017409D01*
X007925Y017885D02*
X003010Y017885D01*
X002977Y018043D02*
X008084Y018043D01*
X008177Y018202D02*
X002865Y018202D01*
X002582Y017879D02*
X002464Y017761D01*
X001318Y017761D01*
X000830Y017273D01*
X000579Y017743D02*
X000609Y017773D01*
X000579Y017802D01*
X000579Y017743D01*
X000579Y016802D02*
X000609Y016773D01*
X000579Y016743D01*
X000579Y016802D01*
X000579Y016775D02*
X000606Y016775D01*
X000579Y015802D02*
X000609Y015773D01*
X000579Y015743D01*
X000579Y015802D01*
X000579Y014802D02*
X000609Y014773D01*
X000579Y014743D01*
X000579Y014802D01*
X001268Y014556D02*
X001477Y014556D01*
X001380Y014398D02*
X001340Y014398D01*
X001340Y014239D02*
X001380Y014239D01*
X001386Y014081D02*
X001340Y014081D01*
X000609Y013773D02*
X000579Y013743D01*
X000579Y013802D01*
X000609Y013773D01*
X000600Y013764D02*
X000579Y013764D01*
X000579Y012802D02*
X000609Y012773D01*
X000579Y012743D01*
X000579Y012802D01*
X000579Y011802D02*
X000609Y011773D01*
X000579Y011743D01*
X000579Y011802D01*
X000579Y010802D02*
X000609Y010773D01*
X000579Y010743D01*
X000579Y010802D01*
X000579Y010752D02*
X000588Y010752D01*
X000579Y009802D02*
X000609Y009773D01*
X000579Y009743D01*
X000579Y009802D01*
X000579Y009801D02*
X000580Y009801D01*
X000579Y008802D02*
X000609Y008773D01*
X000579Y008743D01*
X000579Y008802D01*
X000579Y007802D02*
X000609Y007773D01*
X000579Y007743D01*
X000579Y007802D01*
X000579Y006802D02*
X000609Y006773D01*
X000579Y006743D01*
X000579Y006802D01*
X000579Y006790D02*
X000592Y006790D01*
X000579Y005802D02*
X000609Y005773D01*
X000579Y005743D01*
X000579Y005802D01*
X000579Y004802D02*
X000609Y004773D01*
X000579Y004743D01*
X000579Y004802D01*
X000579Y003802D02*
X000609Y003773D01*
X000579Y003743D01*
X000579Y003802D01*
X000579Y003778D02*
X000603Y003778D01*
X002057Y003778D02*
X003458Y003778D01*
X003393Y003843D02*
X003658Y003578D01*
X004003Y003435D01*
X004377Y003435D01*
X004723Y003578D01*
X004987Y003843D01*
X005130Y004188D01*
X005130Y004562D01*
X004987Y004907D01*
X004723Y005172D01*
X004377Y005315D01*
X004003Y005315D01*
X003988Y005309D01*
X004018Y005380D01*
X004018Y005670D01*
X003907Y005937D01*
X003702Y006142D01*
X003435Y006252D01*
X003146Y006252D01*
X002878Y006142D01*
X002673Y005937D01*
X002563Y005670D01*
X002563Y005380D01*
X002673Y005113D01*
X002878Y004908D01*
X003146Y004798D01*
X003348Y004798D01*
X003250Y004562D01*
X003250Y004188D01*
X003393Y003843D01*
X003354Y003937D02*
X002215Y003937D01*
X002340Y004095D02*
X003289Y004095D01*
X003250Y004254D02*
X002340Y004254D01*
X002340Y004412D02*
X003250Y004412D01*
X003254Y004571D02*
X002253Y004571D01*
X002095Y004729D02*
X003319Y004729D01*
X002928Y004888D02*
X002166Y004888D01*
X002325Y005046D02*
X002740Y005046D01*
X002636Y005205D02*
X002340Y005205D01*
X002340Y005363D02*
X002570Y005363D01*
X002563Y005522D02*
X002302Y005522D01*
X002144Y005680D02*
X002567Y005680D01*
X002633Y005839D02*
X002117Y005839D01*
X002276Y005997D02*
X002733Y005997D01*
X002911Y006156D02*
X002340Y006156D01*
X003669Y006156D02*
X009211Y006156D01*
X009033Y005997D02*
X003847Y005997D01*
X003948Y005839D02*
X008933Y005839D01*
X008867Y005680D02*
X004013Y005680D01*
X004018Y005522D02*
X008863Y005522D01*
X008870Y005363D02*
X004011Y005363D01*
X004644Y005205D02*
X008237Y005205D01*
X008032Y005046D02*
X004849Y005046D01*
X004995Y004888D02*
X007885Y004888D01*
X007819Y004729D02*
X005061Y004729D01*
X005127Y004571D02*
X007754Y004571D01*
X007750Y004412D02*
X005130Y004412D01*
X005130Y004254D02*
X007750Y004254D01*
X007789Y004095D02*
X005092Y004095D01*
X005026Y003937D02*
X007854Y003937D01*
X007958Y003778D02*
X004923Y003778D01*
X004764Y003620D02*
X008116Y003620D01*
X008440Y003461D02*
X004440Y003461D01*
X004308Y003303D02*
X002340Y003303D01*
X002340Y003461D02*
X003940Y003461D01*
X004149Y003144D02*
X002340Y003144D01*
X002264Y002986D02*
X003976Y002986D01*
X003479Y002827D02*
X002106Y002827D01*
X002155Y002669D02*
X003357Y002669D01*
X003300Y002510D02*
X002314Y002510D01*
X002340Y002352D02*
X003300Y002352D01*
X003352Y002193D02*
X002340Y002193D01*
X002204Y003620D02*
X003616Y003620D01*
X004375Y002304D02*
X004395Y002241D01*
X004430Y002173D01*
X004474Y002112D01*
X004528Y002059D01*
X004557Y002038D01*
X004216Y002038D01*
X004298Y002119D01*
X004375Y002304D01*
X004420Y002193D02*
X004329Y002193D01*
X004840Y002425D02*
X004840Y002425D01*
X005320Y002425D01*
X004840Y002425D01*
X005124Y002038D02*
X005153Y002059D01*
X005206Y002112D01*
X005251Y002173D01*
X005285Y002241D01*
X005308Y002313D01*
X005320Y002387D01*
X005320Y002425D01*
X005320Y002463D01*
X005308Y002537D01*
X005285Y002609D01*
X005251Y002677D01*
X005206Y002738D01*
X005153Y002791D01*
X005106Y002825D01*
X007774Y002825D01*
X007728Y002791D01*
X007674Y002738D01*
X007630Y002677D01*
X007595Y002609D01*
X007572Y002537D01*
X007560Y002463D01*
X007560Y002425D01*
X007560Y002387D01*
X007572Y002313D01*
X007595Y002241D01*
X007630Y002173D01*
X007674Y002112D01*
X007728Y002059D01*
X007757Y002038D01*
X005124Y002038D01*
X005261Y002193D02*
X007620Y002193D01*
X007566Y002352D02*
X005315Y002352D01*
X005313Y002510D02*
X007568Y002510D01*
X007560Y002425D02*
X008040Y002425D01*
X007560Y002425D01*
X007626Y002669D02*
X005255Y002669D01*
X008040Y002425D02*
X008040Y002425D01*
X008324Y002038D02*
X008353Y002059D01*
X008406Y002112D01*
X008451Y002173D01*
X008485Y002241D01*
X008506Y002304D01*
X008582Y002119D01*
X008664Y002038D01*
X008324Y002038D01*
X008461Y002193D02*
X008552Y002193D01*
X008506Y002546D02*
X008485Y002609D01*
X008451Y002677D01*
X008406Y002738D01*
X008353Y002791D01*
X008306Y002825D01*
X008677Y002825D01*
X008582Y002731D01*
X008506Y002546D01*
X008455Y002669D02*
X008557Y002669D01*
X009524Y002669D02*
X014505Y002669D01*
X014554Y002827D02*
X010558Y002827D01*
X009580Y002510D02*
X014376Y002510D01*
X014320Y002352D02*
X009580Y002352D01*
X009529Y002193D02*
X014320Y002193D01*
X014980Y002763D02*
X015041Y002763D01*
X015330Y003051D01*
X015609Y002773D01*
X015320Y002484D01*
X015320Y002422D01*
X015262Y002562D01*
X015119Y002705D01*
X014980Y002763D01*
X015106Y002827D02*
X015554Y002827D01*
X015505Y002669D02*
X015155Y002669D01*
X015284Y002510D02*
X015346Y002510D01*
X015320Y002123D02*
X015320Y002061D01*
X015344Y002038D01*
X015285Y002038D01*
X015320Y002123D01*
X015264Y002986D02*
X015396Y002986D01*
X015330Y003494D02*
X015609Y003773D01*
X015330Y004051D01*
X015051Y003773D01*
X015330Y003494D01*
X015204Y003620D02*
X015456Y003620D01*
X015603Y003778D02*
X015057Y003778D01*
X015215Y003937D02*
X015445Y003937D01*
X015330Y004494D02*
X015609Y004773D01*
X015330Y005051D01*
X015051Y004773D01*
X015330Y004494D01*
X015253Y004571D02*
X015407Y004571D01*
X015565Y004729D02*
X015095Y004729D01*
X015166Y004888D02*
X015494Y004888D01*
X015335Y005046D02*
X015325Y005046D01*
X015330Y005494D02*
X015609Y005773D01*
X015330Y006051D01*
X015051Y005773D01*
X015330Y005494D01*
X015302Y005522D02*
X015358Y005522D01*
X015516Y005680D02*
X015144Y005680D01*
X015117Y005839D02*
X015543Y005839D01*
X015384Y005997D02*
X015276Y005997D01*
X015330Y006494D02*
X015609Y006773D01*
X015330Y007051D01*
X015051Y006773D01*
X015330Y006494D01*
X015193Y006631D02*
X015467Y006631D01*
X015592Y006790D02*
X015068Y006790D01*
X015227Y006948D02*
X015433Y006948D01*
X015330Y007494D02*
X015609Y007773D01*
X015330Y008051D01*
X015051Y007773D01*
X015330Y007494D01*
X015242Y007582D02*
X015418Y007582D01*
X015577Y007741D02*
X015083Y007741D01*
X015178Y007899D02*
X015482Y007899D01*
X015369Y008533D02*
X015291Y008533D01*
X015132Y008692D02*
X015528Y008692D01*
X015531Y008850D02*
X015044Y008850D01*
X014840Y008850D02*
X014820Y008850D01*
X014820Y009009D02*
X014840Y009009D01*
X014840Y009167D02*
X014820Y009167D01*
X014820Y009326D02*
X014840Y009326D01*
X014840Y009484D02*
X014820Y009484D01*
X014820Y009643D02*
X014840Y009643D01*
X015096Y009643D02*
X015479Y009643D01*
X015580Y009801D02*
X015080Y009801D01*
X015238Y009960D02*
X015422Y009960D01*
X015330Y010494D02*
X015609Y010773D01*
X015330Y011051D01*
X015051Y010773D01*
X015330Y010494D01*
X015230Y010594D02*
X015430Y010594D01*
X015588Y010752D02*
X015072Y010752D01*
X015189Y010911D02*
X015471Y010911D01*
X015330Y011494D02*
X015609Y011773D01*
X015330Y012051D01*
X015051Y011773D01*
X015330Y011494D01*
X015279Y011545D02*
X015381Y011545D01*
X015539Y011703D02*
X015121Y011703D01*
X015140Y011862D02*
X015520Y011862D01*
X015361Y012020D02*
X015299Y012020D01*
X015330Y012494D02*
X015609Y012773D01*
X015330Y013051D01*
X015051Y012773D01*
X015330Y012494D01*
X015328Y012496D02*
X015332Y012496D01*
X015490Y012654D02*
X015170Y012654D01*
X015091Y012813D02*
X015569Y012813D01*
X015410Y012971D02*
X015250Y012971D01*
X015330Y013494D02*
X015609Y013773D01*
X015330Y014051D01*
X015051Y013773D01*
X015330Y013494D01*
X015219Y013605D02*
X015441Y013605D01*
X015600Y013764D02*
X015060Y013764D01*
X015201Y013922D02*
X015459Y013922D01*
X015330Y014494D02*
X015609Y014773D01*
X015330Y015051D01*
X015051Y014773D01*
X015330Y014494D01*
X015268Y014556D02*
X015392Y014556D01*
X015551Y014715D02*
X015109Y014715D01*
X015152Y014873D02*
X015508Y014873D01*
X015350Y015032D02*
X015310Y015032D01*
X015330Y015494D02*
X015609Y015773D01*
X015330Y016051D01*
X015051Y015773D01*
X015330Y015494D01*
X015317Y015507D02*
X015343Y015507D01*
X015502Y015666D02*
X015158Y015666D01*
X015103Y015824D02*
X015557Y015824D01*
X015399Y015983D02*
X015261Y015983D01*
X015330Y016494D02*
X015609Y016773D01*
X015330Y017051D01*
X015051Y016773D01*
X015330Y016494D01*
X015207Y016617D02*
X015453Y016617D01*
X015606Y016775D02*
X015054Y016775D01*
X015212Y016934D02*
X015448Y016934D01*
X015330Y017494D02*
X015609Y017773D01*
X015330Y018051D01*
X015051Y017773D01*
X015330Y017494D01*
X015256Y017568D02*
X015404Y017568D01*
X015562Y017726D02*
X015098Y017726D01*
X015163Y017885D02*
X015497Y017885D01*
X015338Y018043D02*
X015322Y018043D01*
X015305Y018519D02*
X015355Y018519D01*
X015513Y018677D02*
X015147Y018677D01*
X015016Y018823D02*
X014840Y018823D01*
X014840Y019263D01*
X014840Y019283D01*
X014820Y019283D01*
X014820Y019723D01*
X014644Y019723D01*
X014380Y019459D01*
X014380Y019283D01*
X014820Y019283D01*
X014820Y019263D01*
X014380Y019263D01*
X014380Y019086D01*
X014644Y018823D01*
X014820Y018823D01*
X014820Y019263D01*
X014840Y019263D01*
X015280Y019263D01*
X015280Y019086D01*
X015016Y018823D01*
X015029Y018836D02*
X015546Y018836D01*
X015387Y018994D02*
X015188Y018994D01*
X015280Y019153D02*
X015320Y019153D01*
X015280Y019283D02*
X015280Y019459D01*
X015016Y019723D01*
X014840Y019723D01*
X014840Y019283D01*
X015280Y019283D01*
X015280Y019311D02*
X015320Y019311D01*
X015320Y019470D02*
X015269Y019470D01*
X015111Y019628D02*
X015464Y019628D01*
X015283Y019945D02*
X014752Y019945D01*
X014601Y019945D02*
X012226Y019945D01*
X012246Y019896D02*
X012171Y020076D01*
X012033Y020214D01*
X011853Y020289D01*
X011658Y020289D01*
X011477Y020214D01*
X011339Y020076D01*
X011264Y019896D01*
X011264Y019701D01*
X011339Y019520D01*
X011477Y019382D01*
X011658Y019307D01*
X011853Y019307D01*
X012033Y019382D01*
X012171Y019520D01*
X012246Y019701D01*
X012246Y019896D01*
X012246Y019787D02*
X016081Y019787D01*
X016081Y019945D02*
X015805Y019945D01*
X015980Y020048D02*
X015980Y020048D01*
X016036Y020104D02*
X016081Y020104D01*
X016081Y020935D02*
X016075Y020950D01*
X016074Y020951D01*
X016071Y020958D01*
X016070Y020959D01*
X016067Y020966D01*
X016066Y020967D01*
X016063Y020974D01*
X016062Y020975D01*
X016059Y020981D01*
X016055Y020985D01*
X016054Y020987D01*
X016051Y020993D01*
X016047Y020997D01*
X016038Y021006D01*
X016035Y021013D01*
X016031Y021017D01*
X015966Y021083D01*
X016081Y021083D01*
X016081Y020935D01*
X016031Y021017D02*
X016031Y021017D01*
X015994Y021055D02*
X016081Y021055D01*
X015182Y021083D02*
X014891Y021083D01*
X014894Y021079D01*
X014901Y021076D01*
X014910Y021067D01*
X014917Y021065D01*
X014926Y021056D01*
X014932Y021053D01*
X014942Y021044D01*
X014948Y021041D01*
X014957Y021032D01*
X014964Y021029D01*
X014973Y021020D01*
X014980Y021017D01*
X014985Y021012D01*
X014992Y021010D01*
X015001Y021001D01*
X015007Y020998D01*
X015016Y020989D01*
X015023Y020986D01*
X015032Y020977D01*
X015039Y020974D01*
X015048Y020965D01*
X015055Y020962D01*
X015060Y020957D01*
X015066Y020954D01*
X015075Y020945D01*
X015082Y020943D01*
X015086Y020939D01*
X015086Y020939D01*
X015091Y020934D01*
X015092Y020933D01*
X015125Y021013D01*
X015126Y021014D01*
X015129Y021021D01*
X015130Y021022D01*
X015132Y021029D01*
X015138Y021034D01*
X015140Y021040D01*
X015182Y021083D01*
X015154Y021055D02*
X014928Y021055D01*
X014459Y021055D02*
X012618Y021055D01*
X012665Y020896D02*
X014382Y020896D01*
X014329Y020738D02*
X012660Y020738D01*
X012603Y020579D02*
X014316Y020579D01*
X014320Y020421D02*
X012467Y020421D01*
X012182Y020421D02*
X012116Y020421D01*
X012116Y020579D02*
X012182Y020579D01*
X012182Y020738D02*
X012116Y020738D01*
X011831Y020421D02*
X009711Y020421D01*
X009689Y020289D02*
X009509Y020214D01*
X009370Y020076D01*
X009296Y019896D01*
X009296Y019701D01*
X009370Y019520D01*
X009509Y019382D01*
X009689Y019307D01*
X009884Y019307D01*
X010065Y019382D01*
X010203Y019520D01*
X010278Y019701D01*
X010278Y019896D01*
X010203Y020076D01*
X010065Y020214D01*
X009884Y020289D01*
X009689Y020289D01*
X009623Y020262D02*
X002642Y020262D01*
X002704Y020421D02*
X009075Y020421D01*
X008939Y020579D02*
X002704Y020579D01*
X002673Y020738D02*
X008882Y020738D01*
X008877Y020896D02*
X002607Y020896D01*
X002448Y021055D02*
X008923Y021055D01*
X009360Y020738D02*
X009426Y020738D01*
X009426Y020579D02*
X009360Y020579D01*
X009360Y020421D02*
X009426Y020421D01*
X009398Y020104D02*
X002533Y020104D01*
X002298Y019945D02*
X009316Y019945D01*
X009296Y019787D02*
X000749Y019787D01*
X000840Y019723D02*
X000840Y019283D01*
X001280Y019283D01*
X001280Y019459D01*
X001016Y019723D01*
X000840Y019723D01*
X000840Y019628D02*
X000820Y019628D01*
X000820Y019470D02*
X000840Y019470D01*
X000840Y019311D02*
X000820Y019311D01*
X000840Y019263D02*
X001280Y019263D01*
X001280Y019086D01*
X001016Y018823D01*
X000840Y018823D01*
X000840Y019263D01*
X000840Y019153D02*
X000820Y019153D01*
X000820Y018994D02*
X000840Y018994D01*
X000840Y018836D02*
X000820Y018836D01*
X000631Y018836D02*
X000579Y018836D01*
X001029Y018836D02*
X001546Y018836D01*
X001619Y018763D02*
X002041Y018763D01*
X002231Y018953D01*
X008851Y018953D01*
X009378Y018426D01*
X009468Y018336D01*
X009585Y018287D01*
X011051Y018287D01*
X011169Y018336D01*
X011347Y018514D01*
X011407Y018514D01*
X011565Y018579D01*
X011685Y018699D01*
X011750Y018857D01*
X011750Y019027D01*
X011685Y019184D01*
X011565Y019305D01*
X011407Y019370D01*
X011237Y019370D01*
X011080Y019305D01*
X010959Y019184D01*
X010894Y019027D01*
X010894Y018966D01*
X010855Y018927D01*
X009781Y018927D01*
X009165Y019544D01*
X009047Y019593D01*
X002231Y019593D01*
X002041Y019783D01*
X001619Y019783D01*
X001320Y019484D01*
X001320Y019061D01*
X001619Y018763D01*
X001598Y018677D02*
X001147Y018677D01*
X001305Y018519D02*
X001440Y018519D01*
X001380Y018360D02*
X001340Y018360D01*
X001340Y018202D02*
X001380Y018202D01*
X001820Y018360D02*
X001840Y018360D01*
X001840Y018283D02*
X001840Y018723D01*
X002016Y018723D01*
X002280Y018459D01*
X002280Y018283D01*
X001840Y018283D01*
X001820Y018519D02*
X001840Y018519D01*
X001840Y018677D02*
X001820Y018677D01*
X002062Y018677D02*
X009127Y018677D01*
X009285Y018519D02*
X008845Y018519D01*
X008984Y018360D02*
X009444Y018360D01*
X009649Y018607D02*
X010987Y018607D01*
X011322Y018942D01*
X010946Y019153D02*
X009556Y019153D01*
X009680Y019311D02*
X009398Y019311D01*
X009421Y019470D02*
X009239Y019470D01*
X009326Y019628D02*
X002196Y019628D01*
X001842Y019945D02*
X000908Y019945D01*
X001066Y020104D02*
X001607Y020104D01*
X001498Y020262D02*
X001225Y020262D01*
X001383Y020421D02*
X001436Y020421D01*
X001464Y019628D02*
X001111Y019628D01*
X001269Y019470D02*
X001320Y019470D01*
X001320Y019311D02*
X001280Y019311D01*
X001280Y019153D02*
X001320Y019153D01*
X001387Y018994D02*
X001188Y018994D01*
X001830Y019273D02*
X008984Y019273D01*
X009649Y018607D01*
X009715Y018994D02*
X010894Y018994D01*
X011095Y019311D02*
X009894Y019311D01*
X010152Y019470D02*
X011390Y019470D01*
X011294Y019628D02*
X010248Y019628D01*
X010278Y019787D02*
X011264Y019787D01*
X011285Y019945D02*
X010257Y019945D01*
X010176Y020104D02*
X011366Y020104D01*
X011592Y020262D02*
X009950Y020262D01*
X009847Y020579D02*
X011695Y020579D01*
X011638Y020738D02*
X009904Y020738D01*
X009909Y020896D02*
X011633Y020896D01*
X011679Y021055D02*
X009863Y021055D01*
X008968Y018836D02*
X002114Y018836D01*
X002220Y018519D02*
X008366Y018519D01*
X008227Y018360D02*
X002280Y018360D01*
X002280Y018202D02*
X002299Y018202D01*
X002340Y017409D02*
X007487Y017409D01*
X007469Y017251D02*
X002340Y017251D01*
X002340Y017092D02*
X007469Y017092D01*
X007469Y016934D02*
X002212Y016934D01*
X002876Y017568D02*
X007608Y017568D01*
X007767Y017726D02*
X002982Y017726D01*
X008006Y010885D02*
X008009Y010882D01*
X008166Y010817D01*
X008296Y010817D01*
X008296Y010775D01*
X007796Y010275D01*
X006292Y010275D01*
X006427Y010331D01*
X006547Y010451D01*
X006612Y010609D01*
X006612Y010640D01*
X007583Y010640D01*
X007699Y010640D01*
X007805Y010684D01*
X007923Y010802D01*
X008005Y010884D01*
X008006Y010885D01*
X007873Y010752D02*
X008273Y010752D01*
X008115Y010594D02*
X006606Y010594D01*
X006531Y010435D02*
X007956Y010435D01*
X007798Y010277D02*
X006295Y010277D01*
X006344Y009695D02*
X007974Y009695D01*
X008081Y009739D01*
X008750Y010409D01*
X008832Y010490D01*
X008876Y010597D01*
X008876Y011014D01*
X008986Y011014D01*
X009024Y011030D01*
X009024Y009239D01*
X008800Y009015D01*
X007983Y009015D01*
X007876Y008971D01*
X007314Y008408D01*
X007298Y008415D01*
X007083Y008415D01*
X006884Y008333D01*
X006732Y008181D01*
X006690Y008079D01*
X006648Y008181D01*
X006496Y008333D01*
X006298Y008415D01*
X006083Y008415D01*
X005884Y008333D01*
X005732Y008181D01*
X005690Y008079D01*
X005648Y008181D01*
X005496Y008333D01*
X005470Y008343D01*
X005470Y008822D01*
X006344Y009695D01*
X006291Y009643D02*
X009024Y009643D01*
X009024Y009801D02*
X008143Y009801D01*
X008301Y009960D02*
X009024Y009960D01*
X009024Y010118D02*
X008460Y010118D01*
X008618Y010277D02*
X009024Y010277D01*
X009024Y010435D02*
X008777Y010435D01*
X008875Y010594D02*
X009024Y010594D01*
X009024Y010752D02*
X008876Y010752D01*
X008876Y010911D02*
X009024Y010911D01*
X009604Y010911D02*
X010653Y010911D01*
X010599Y010752D02*
X009604Y010752D01*
X009604Y010594D02*
X010605Y010594D01*
X010680Y010435D02*
X009604Y010435D01*
X009604Y010277D02*
X010737Y010277D01*
X010737Y010118D02*
X009604Y010118D01*
X009604Y009960D02*
X010737Y009960D01*
X010737Y009801D02*
X009604Y009801D01*
X009604Y009643D02*
X010737Y009643D01*
X010737Y009484D02*
X009604Y009484D01*
X009604Y009326D02*
X010737Y009326D01*
X010737Y009167D02*
X009604Y009167D01*
X009582Y009009D02*
X010737Y009009D01*
X010737Y008850D02*
X009455Y008850D01*
X009297Y008692D02*
X010737Y008692D01*
X010737Y008533D02*
X009138Y008533D01*
X008952Y009167D02*
X005816Y009167D01*
X005974Y009326D02*
X009024Y009326D01*
X009024Y009484D02*
X006133Y009484D01*
X005657Y009009D02*
X007966Y009009D01*
X007755Y008850D02*
X005499Y008850D01*
X005470Y008692D02*
X007597Y008692D01*
X007438Y008533D02*
X005470Y008533D01*
X005470Y008375D02*
X005985Y008375D01*
X005768Y008216D02*
X005613Y008216D01*
X005653Y007582D02*
X005727Y007582D01*
X005878Y007424D02*
X005502Y007424D01*
X005317Y007265D02*
X005213Y007265D01*
X005208Y006473D02*
X005329Y006473D01*
X006051Y006473D02*
X006329Y006473D01*
X006207Y006631D02*
X006174Y006631D01*
X006179Y007107D02*
X006202Y007107D01*
X006317Y007265D02*
X006064Y007265D01*
X006502Y007424D02*
X006878Y007424D01*
X006727Y007582D02*
X006653Y007582D01*
X007064Y007265D02*
X007317Y007265D01*
X007202Y007107D02*
X007179Y007107D01*
X007502Y007424D02*
X008026Y007424D01*
X008064Y007265D02*
X010737Y007265D01*
X010737Y007107D02*
X008179Y007107D01*
X008230Y006948D02*
X010737Y006948D01*
X010737Y006790D02*
X008230Y006790D01*
X008174Y006631D02*
X010737Y006631D01*
X010737Y006473D02*
X008051Y006473D01*
X008190Y007395D02*
X008228Y007395D01*
X008303Y007407D01*
X008374Y007430D01*
X008442Y007464D01*
X008503Y007509D01*
X008556Y007562D01*
X008601Y007623D01*
X008635Y007691D01*
X008658Y007763D01*
X008670Y007837D01*
X008670Y007875D01*
X008190Y007875D01*
X008190Y007875D01*
X008190Y007875D01*
X008190Y008355D01*
X008228Y008355D01*
X008303Y008343D01*
X008374Y008320D01*
X008442Y008286D01*
X008503Y008241D01*
X008556Y008188D01*
X008601Y008127D01*
X008635Y008059D01*
X008658Y007987D01*
X008670Y007913D01*
X008670Y007875D01*
X008190Y007875D01*
X008190Y007395D01*
X008190Y007424D02*
X008190Y007424D01*
X008190Y007582D02*
X008190Y007582D01*
X008190Y007741D02*
X008190Y007741D01*
X008190Y007875D02*
X008190Y007875D01*
X008190Y007899D02*
X008190Y007899D01*
X008190Y008058D02*
X008190Y008058D01*
X008190Y008216D02*
X008190Y008216D01*
X008100Y008375D02*
X010737Y008375D01*
X010737Y008216D02*
X008528Y008216D01*
X008636Y008058D02*
X010737Y008058D01*
X010737Y007899D02*
X008670Y007899D01*
X008651Y007741D02*
X010737Y007741D01*
X010737Y007582D02*
X008571Y007582D01*
X008354Y007424D02*
X010737Y007424D01*
X011317Y007904D02*
X011317Y010378D01*
X011367Y010428D01*
X011367Y007925D01*
X011317Y007904D01*
X011317Y008058D02*
X011367Y008058D01*
X011367Y008216D02*
X011317Y008216D01*
X011317Y008375D02*
X011367Y008375D01*
X011367Y008533D02*
X011317Y008533D01*
X011317Y008692D02*
X011367Y008692D01*
X011367Y008850D02*
X011317Y008850D01*
X011317Y009009D02*
X011367Y009009D01*
X011367Y009167D02*
X011317Y009167D01*
X011317Y009326D02*
X011367Y009326D01*
X011367Y009484D02*
X011317Y009484D01*
X011317Y009643D02*
X011367Y009643D01*
X011367Y009801D02*
X011317Y009801D01*
X011317Y009960D02*
X011367Y009960D01*
X011367Y010118D02*
X011317Y010118D01*
X011317Y010277D02*
X011367Y010277D01*
X011367Y011069D02*
X011240Y011069D01*
X011367Y011228D02*
X009604Y011228D01*
X009604Y011386D02*
X011367Y011386D01*
X010791Y011545D02*
X009604Y011545D01*
X009604Y011703D02*
X010697Y011703D01*
X010677Y011862D02*
X009604Y011862D01*
X009604Y012020D02*
X010719Y012020D01*
X010843Y012179D02*
X009604Y012179D01*
X009604Y012337D02*
X011367Y012337D01*
X011367Y012496D02*
X009604Y012496D01*
X009604Y012654D02*
X011367Y012654D01*
X011367Y012813D02*
X009604Y012813D01*
X009604Y012971D02*
X011367Y012971D01*
X011367Y013130D02*
X009604Y013130D01*
X009604Y013288D02*
X011367Y013288D01*
X011367Y013447D02*
X009604Y013447D01*
X009604Y013605D02*
X011367Y013605D01*
X011367Y013764D02*
X009604Y013764D01*
X009604Y013922D02*
X011367Y013922D01*
X011367Y014081D02*
X009604Y014081D01*
X009604Y014239D02*
X011367Y014239D01*
X011367Y014398D02*
X009604Y014398D01*
X009604Y014556D02*
X011367Y014556D01*
X011947Y016300D02*
X014320Y016300D01*
X014320Y016458D02*
X011947Y016458D01*
X012004Y016617D02*
X014453Y016617D01*
X014606Y016775D02*
X012079Y016775D01*
X012085Y016934D02*
X014448Y016934D01*
X014320Y017092D02*
X012030Y017092D01*
X011869Y017251D02*
X014320Y017251D01*
X014320Y017409D02*
X009084Y017409D01*
X009112Y017568D02*
X014404Y017568D01*
X014562Y017726D02*
X009081Y017726D01*
X008969Y017885D02*
X014497Y017885D01*
X014338Y018043D02*
X009023Y018043D01*
X009034Y018202D02*
X014320Y018202D01*
X014320Y018360D02*
X011193Y018360D01*
X011419Y018519D02*
X014355Y018519D01*
X014513Y018677D02*
X011663Y018677D01*
X011741Y018836D02*
X014631Y018836D01*
X014820Y018836D02*
X014840Y018836D01*
X014840Y018994D02*
X014820Y018994D01*
X014820Y019153D02*
X014840Y019153D01*
X014840Y019311D02*
X014820Y019311D01*
X014820Y019470D02*
X014840Y019470D01*
X014840Y019628D02*
X014820Y019628D01*
X014549Y019628D02*
X012216Y019628D01*
X012121Y019470D02*
X014391Y019470D01*
X014380Y019311D02*
X011862Y019311D01*
X011698Y019153D02*
X014380Y019153D01*
X014472Y018994D02*
X011750Y018994D01*
X011648Y019311D02*
X011550Y019311D01*
X012144Y020104D02*
X014432Y020104D01*
X014363Y020262D02*
X011918Y020262D01*
X011445Y017251D02*
X008976Y017251D01*
X008876Y017092D02*
X011283Y017092D01*
X011229Y016934D02*
X008876Y016934D01*
X008876Y016775D02*
X011235Y016775D01*
X011068Y016617D02*
X008876Y016617D01*
X009604Y011069D02*
X010814Y011069D01*
X007727Y008001D02*
X007725Y007996D01*
X007724Y007998D01*
X007727Y008001D01*
X007719Y007741D02*
X007729Y007741D01*
X007653Y007582D02*
X007810Y007582D01*
X007207Y006631D02*
X007174Y006631D01*
X007051Y006473D02*
X007329Y006473D01*
X006768Y008216D02*
X006613Y008216D01*
X006395Y008375D02*
X006985Y008375D01*
X015202Y009009D02*
X015373Y009009D01*
X015320Y009167D02*
X015280Y009167D01*
X015280Y009326D02*
X015320Y009326D01*
X015320Y009484D02*
X015255Y009484D01*
X016051Y009773D02*
X016081Y009802D01*
X016081Y009743D01*
X016051Y009773D01*
X016080Y009801D02*
X016081Y009801D01*
X016081Y010743D02*
X016081Y010802D01*
X016051Y010773D01*
X016081Y010743D01*
X016081Y010752D02*
X016072Y010752D01*
X016081Y011743D02*
X016081Y011802D01*
X016051Y011773D01*
X016081Y011743D01*
X016081Y012743D02*
X016081Y012802D01*
X016051Y012773D01*
X016081Y012743D01*
X016081Y013743D02*
X016081Y013802D01*
X016051Y013773D01*
X016081Y013743D01*
X016081Y013764D02*
X016060Y013764D01*
X016081Y014743D02*
X016081Y014802D01*
X016051Y014773D01*
X016081Y014743D01*
X016081Y015743D02*
X016081Y015802D01*
X016051Y015773D01*
X016081Y015743D01*
X016081Y016743D02*
X016081Y016802D01*
X016051Y016773D01*
X016081Y016743D01*
X016081Y016775D02*
X016054Y016775D01*
X016081Y017743D02*
X016081Y017802D01*
X016051Y017773D01*
X016081Y017743D01*
X016081Y018743D02*
X016081Y018802D01*
X016051Y018773D01*
X016081Y018743D01*
X015145Y020104D02*
X014992Y020104D01*
X014944Y020067D02*
X014944Y020067D01*
X015086Y020174D02*
X015086Y020174D01*
X016081Y008802D02*
X016081Y008743D01*
X016051Y008773D01*
X016081Y008802D01*
X016081Y007802D02*
X016081Y007743D01*
X016051Y007773D01*
X016081Y007802D01*
X016081Y006802D02*
X016081Y006743D01*
X016051Y006773D01*
X016081Y006802D01*
X016081Y006790D02*
X016068Y006790D01*
X016081Y005802D02*
X016081Y005743D01*
X016051Y005773D01*
X016081Y005802D01*
X016081Y004802D02*
X016081Y004743D01*
X016051Y004773D01*
X016081Y004802D01*
X016081Y003802D02*
X016081Y003743D01*
X016051Y003773D01*
X016081Y003802D01*
X016081Y003778D02*
X016057Y003778D01*
X016081Y002802D02*
X016081Y002743D01*
X016051Y002773D01*
X016081Y002802D01*
D11*
X007990Y004375D02*
X007992Y004427D01*
X007998Y004479D01*
X008008Y004531D01*
X008021Y004581D01*
X008038Y004631D01*
X008059Y004679D01*
X008084Y004725D01*
X008112Y004769D01*
X008143Y004811D01*
X008177Y004851D01*
X008214Y004888D01*
X008254Y004922D01*
X008296Y004953D01*
X008340Y004981D01*
X008386Y005006D01*
X008434Y005027D01*
X008484Y005044D01*
X008534Y005057D01*
X008586Y005067D01*
X008638Y005073D01*
X008690Y005075D01*
X008742Y005073D01*
X008794Y005067D01*
X008846Y005057D01*
X008896Y005044D01*
X008946Y005027D01*
X008994Y005006D01*
X009040Y004981D01*
X009084Y004953D01*
X009126Y004922D01*
X009166Y004888D01*
X009203Y004851D01*
X009237Y004811D01*
X009268Y004769D01*
X009296Y004725D01*
X009321Y004679D01*
X009342Y004631D01*
X009359Y004581D01*
X009372Y004531D01*
X009382Y004479D01*
X009388Y004427D01*
X009390Y004375D01*
X009388Y004323D01*
X009382Y004271D01*
X009372Y004219D01*
X009359Y004169D01*
X009342Y004119D01*
X009321Y004071D01*
X009296Y004025D01*
X009268Y003981D01*
X009237Y003939D01*
X009203Y003899D01*
X009166Y003862D01*
X009126Y003828D01*
X009084Y003797D01*
X009040Y003769D01*
X008994Y003744D01*
X008946Y003723D01*
X008896Y003706D01*
X008846Y003693D01*
X008794Y003683D01*
X008742Y003677D01*
X008690Y003675D01*
X008638Y003677D01*
X008586Y003683D01*
X008534Y003693D01*
X008484Y003706D01*
X008434Y003723D01*
X008386Y003744D01*
X008340Y003769D01*
X008296Y003797D01*
X008254Y003828D01*
X008214Y003862D01*
X008177Y003899D01*
X008143Y003939D01*
X008112Y003981D01*
X008084Y004025D01*
X008059Y004071D01*
X008038Y004119D01*
X008021Y004169D01*
X008008Y004219D01*
X007998Y004271D01*
X007992Y004323D01*
X007990Y004375D01*
X003490Y004375D02*
X003492Y004427D01*
X003498Y004479D01*
X003508Y004531D01*
X003521Y004581D01*
X003538Y004631D01*
X003559Y004679D01*
X003584Y004725D01*
X003612Y004769D01*
X003643Y004811D01*
X003677Y004851D01*
X003714Y004888D01*
X003754Y004922D01*
X003796Y004953D01*
X003840Y004981D01*
X003886Y005006D01*
X003934Y005027D01*
X003984Y005044D01*
X004034Y005057D01*
X004086Y005067D01*
X004138Y005073D01*
X004190Y005075D01*
X004242Y005073D01*
X004294Y005067D01*
X004346Y005057D01*
X004396Y005044D01*
X004446Y005027D01*
X004494Y005006D01*
X004540Y004981D01*
X004584Y004953D01*
X004626Y004922D01*
X004666Y004888D01*
X004703Y004851D01*
X004737Y004811D01*
X004768Y004769D01*
X004796Y004725D01*
X004821Y004679D01*
X004842Y004631D01*
X004859Y004581D01*
X004872Y004531D01*
X004882Y004479D01*
X004888Y004427D01*
X004890Y004375D01*
X004888Y004323D01*
X004882Y004271D01*
X004872Y004219D01*
X004859Y004169D01*
X004842Y004119D01*
X004821Y004071D01*
X004796Y004025D01*
X004768Y003981D01*
X004737Y003939D01*
X004703Y003899D01*
X004666Y003862D01*
X004626Y003828D01*
X004584Y003797D01*
X004540Y003769D01*
X004494Y003744D01*
X004446Y003723D01*
X004396Y003706D01*
X004346Y003693D01*
X004294Y003683D01*
X004242Y003677D01*
X004190Y003675D01*
X004138Y003677D01*
X004086Y003683D01*
X004034Y003693D01*
X003984Y003706D01*
X003934Y003723D01*
X003886Y003744D01*
X003840Y003769D01*
X003796Y003797D01*
X003754Y003828D01*
X003714Y003862D01*
X003677Y003899D01*
X003643Y003939D01*
X003612Y003981D01*
X003584Y004025D01*
X003559Y004071D01*
X003538Y004119D01*
X003521Y004169D01*
X003508Y004219D01*
X003498Y004271D01*
X003492Y004323D01*
X003490Y004375D01*
X001676Y020536D02*
X001678Y020575D01*
X001684Y020614D01*
X001694Y020652D01*
X001707Y020689D01*
X001724Y020724D01*
X001744Y020758D01*
X001768Y020789D01*
X001795Y020818D01*
X001824Y020844D01*
X001856Y020867D01*
X001890Y020887D01*
X001926Y020903D01*
X001963Y020915D01*
X002002Y020924D01*
X002041Y020929D01*
X002080Y020930D01*
X002119Y020927D01*
X002158Y020920D01*
X002195Y020909D01*
X002232Y020895D01*
X002267Y020877D01*
X002300Y020856D01*
X002331Y020831D01*
X002359Y020804D01*
X002384Y020774D01*
X002406Y020741D01*
X002425Y020707D01*
X002440Y020671D01*
X002452Y020633D01*
X002460Y020595D01*
X002464Y020556D01*
X002464Y020516D01*
X002460Y020477D01*
X002452Y020439D01*
X002440Y020401D01*
X002425Y020365D01*
X002406Y020331D01*
X002384Y020298D01*
X002359Y020268D01*
X002331Y020241D01*
X002300Y020216D01*
X002267Y020195D01*
X002232Y020177D01*
X002195Y020163D01*
X002158Y020152D01*
X002119Y020145D01*
X002080Y020142D01*
X002041Y020143D01*
X002002Y020148D01*
X001963Y020157D01*
X001926Y020169D01*
X001890Y020185D01*
X001856Y020205D01*
X001824Y020228D01*
X001795Y020254D01*
X001768Y020283D01*
X001744Y020314D01*
X001724Y020348D01*
X001707Y020383D01*
X001694Y020420D01*
X001684Y020458D01*
X001678Y020497D01*
X001676Y020536D01*
D12*
X000830Y002273D03*
X014830Y002273D03*
D13*
X014830Y003273D03*
X014830Y004273D03*
X014830Y005273D03*
X014830Y006273D03*
X014830Y007273D03*
X014830Y008273D03*
X014830Y009273D03*
X014830Y010273D03*
X014830Y011273D03*
X014830Y012273D03*
X014830Y013273D03*
X014830Y014273D03*
X014830Y015273D03*
X014830Y016273D03*
X014830Y017273D03*
X014830Y018273D03*
X014830Y019273D03*
X015830Y019273D03*
X015830Y018273D03*
X015830Y017273D03*
X015830Y016273D03*
X015830Y015273D03*
X015830Y014273D03*
X015830Y013273D03*
X015830Y012273D03*
X015830Y011273D03*
X015830Y010273D03*
X015830Y009273D03*
X015830Y008273D03*
X015830Y007273D03*
X015830Y006273D03*
X015830Y005273D03*
X015830Y004273D03*
X015830Y003273D03*
X015830Y002273D03*
X001830Y002273D03*
X001830Y003273D03*
X001830Y004273D03*
X001830Y005273D03*
X001830Y006273D03*
X001830Y007273D03*
X001830Y008273D03*
X001830Y009273D03*
X001830Y010273D03*
X001830Y011273D03*
X001830Y012273D03*
X001830Y013273D03*
X001830Y014273D03*
X001830Y015273D03*
X001830Y016273D03*
X001830Y017273D03*
X001830Y018273D03*
X001830Y019273D03*
X000830Y019273D03*
X000830Y018273D03*
X000830Y017273D03*
X000830Y016273D03*
X000830Y015273D03*
X000830Y014273D03*
X000830Y013273D03*
X000830Y012273D03*
X000830Y011273D03*
X000830Y010273D03*
X000830Y009273D03*
X000830Y008273D03*
X000830Y007273D03*
X000830Y006273D03*
X000830Y005273D03*
X000830Y004273D03*
X000830Y003273D03*
D14*
X014905Y020556D03*
X015881Y020556D03*
D15*
X015877Y020558D03*
X015365Y020436D03*
X014877Y020554D03*
D16*
X014858Y020556D03*
X014606Y020556D03*
X015873Y020556D03*
D17*
X015869Y020556D03*
X014842Y020556D03*
X014610Y020556D03*
D18*
X014613Y020556D03*
X014830Y020556D03*
X015865Y020556D03*
D19*
X015861Y020556D03*
X015413Y020434D03*
X014617Y020556D03*
D20*
X014810Y020556D03*
X015858Y020556D03*
D21*
X015854Y020558D03*
X014802Y020554D03*
D22*
X015850Y020556D03*
D23*
X015846Y020558D03*
X014629Y020554D03*
D24*
X015842Y020556D03*
D25*
X015838Y020556D03*
X014688Y020493D03*
D26*
X014680Y020489D03*
X014676Y020489D03*
X014669Y020497D03*
X014767Y020556D03*
X015834Y020556D03*
D27*
X015830Y020558D03*
X014759Y020554D03*
D28*
X014755Y020554D03*
X014641Y020554D03*
X015826Y020558D03*
D29*
X015822Y020556D03*
X014751Y020556D03*
D30*
X015818Y020556D03*
D31*
X015814Y020556D03*
D32*
X015810Y020556D03*
X014736Y020556D03*
X014649Y020556D03*
D33*
X014732Y020554D03*
X015806Y020558D03*
D34*
X015802Y020558D03*
X014728Y020554D03*
D35*
X015799Y020556D03*
D36*
X015795Y020558D03*
X014724Y020554D03*
D37*
X015791Y020558D03*
D38*
X015787Y020556D03*
D39*
X015783Y020558D03*
D40*
X015779Y020558D03*
D41*
X015775Y020556D03*
D42*
X015771Y020558D03*
X014700Y020554D03*
D43*
X015767Y020556D03*
D44*
X015763Y020558D03*
D45*
X015759Y020556D03*
D46*
X015755Y020558D03*
D47*
X015751Y020556D03*
D48*
X015747Y020558D03*
D49*
X015743Y020556D03*
D50*
X015739Y020558D03*
X015736Y020558D03*
D51*
X015732Y020556D03*
D52*
X015728Y020558D03*
D53*
X015724Y020556D03*
D54*
X015720Y020558D03*
X015716Y020558D03*
D55*
X015712Y020556D03*
D56*
X015708Y020558D03*
D57*
X015704Y020556D03*
X015700Y020556D03*
D58*
X015696Y020558D03*
D59*
X015692Y020556D03*
X015688Y020556D03*
X015421Y020556D03*
D60*
X015424Y020554D03*
X015680Y020558D03*
X015684Y020558D03*
D61*
X015676Y020556D03*
X015432Y020556D03*
X015428Y020556D03*
D62*
X015436Y020554D03*
X015440Y020554D03*
X015669Y020558D03*
X015673Y020558D03*
D63*
X015665Y020556D03*
X015661Y020556D03*
X015452Y020556D03*
X015448Y020556D03*
X015444Y020556D03*
D64*
X015653Y020558D03*
X015657Y020558D03*
D65*
X015649Y020556D03*
D66*
X015645Y020558D03*
X015641Y020558D03*
X015637Y020558D03*
D67*
X015633Y020556D03*
X015629Y020556D03*
D68*
X015625Y020558D03*
X015621Y020558D03*
D69*
X015617Y020556D03*
X015613Y020556D03*
D70*
X015610Y020558D03*
X015606Y020558D03*
D71*
X015602Y020556D03*
X015598Y020556D03*
D72*
X015594Y020556D03*
D73*
X015590Y020554D03*
D74*
X015586Y020554D03*
D75*
X015582Y020554D03*
D76*
X015578Y020554D03*
X015499Y020554D03*
D77*
X015503Y020554D03*
X015507Y020554D03*
X015570Y020554D03*
X015574Y020554D03*
D78*
X015566Y020556D03*
X015511Y020556D03*
D79*
X015515Y020554D03*
X015519Y020554D03*
X015523Y020554D03*
X015527Y020554D03*
X015531Y020554D03*
X015535Y020554D03*
X015539Y020554D03*
X015543Y020554D03*
X015547Y020554D03*
X015550Y020554D03*
X015554Y020554D03*
X015558Y020554D03*
X015562Y020554D03*
D80*
X015495Y020556D03*
D81*
X015491Y020556D03*
D82*
X015487Y020554D03*
D83*
X015484Y020554D03*
D84*
X015338Y020777D03*
X015346Y020788D03*
X015350Y020792D03*
X015417Y020836D03*
X015035Y020556D03*
X014653Y020328D03*
D85*
X014814Y020556D03*
X015417Y020438D03*
D86*
X015326Y020753D03*
X015358Y020804D03*
X015361Y020808D03*
X015365Y020812D03*
X015369Y020816D03*
X015377Y020820D03*
X015381Y020824D03*
X015389Y020828D03*
X015397Y020832D03*
X015405Y020836D03*
X015409Y020836D03*
X015413Y020836D03*
X015039Y020556D03*
X014566Y020556D03*
D87*
X014822Y020554D03*
X015409Y020436D03*
D88*
X015405Y020434D03*
X014826Y020556D03*
D89*
X015373Y020818D03*
X015385Y020826D03*
X015393Y020830D03*
X015401Y020834D03*
D90*
X015401Y020436D03*
D91*
X015397Y020436D03*
X015393Y020436D03*
X014834Y020554D03*
D92*
X014838Y020554D03*
X015389Y020436D03*
D93*
X015385Y020436D03*
D94*
X015381Y020434D03*
X014854Y020556D03*
D95*
X014861Y020554D03*
X015377Y020432D03*
D96*
X015373Y020434D03*
D97*
X015369Y020434D03*
X014869Y020556D03*
X014602Y020556D03*
D98*
X014653Y020676D03*
X014657Y020680D03*
X015361Y020436D03*
D99*
X015358Y020471D03*
X014940Y020554D03*
D100*
X015161Y020556D03*
X015267Y020434D03*
X015358Y020245D03*
D101*
X015330Y020763D03*
X015334Y020771D03*
X015342Y020782D03*
X015354Y020798D03*
D102*
X015354Y020469D03*
X014582Y020556D03*
D103*
X015350Y020469D03*
D104*
X015346Y020466D03*
D105*
X015342Y020464D03*
D106*
X015338Y020462D03*
D107*
X015334Y020458D03*
D108*
X015330Y020460D03*
X015322Y020468D03*
D109*
X015326Y020462D03*
D110*
X015279Y020440D03*
X015322Y020818D03*
D111*
X015322Y020698D03*
X015102Y020556D03*
X014964Y020454D03*
D112*
X014889Y020556D03*
X015314Y020540D03*
X015318Y020540D03*
D113*
X015310Y020540D03*
D114*
X015306Y020542D03*
X014897Y020554D03*
D115*
X015302Y020578D03*
D116*
X015259Y020562D03*
X015271Y020436D03*
X015302Y020357D03*
D117*
X015299Y020578D03*
X015295Y020578D03*
D118*
X015169Y020558D03*
X015263Y020432D03*
X015299Y020353D03*
D119*
X015291Y020578D03*
X015287Y020578D03*
D120*
X015283Y020578D03*
D121*
X015279Y020716D03*
D122*
X015279Y020572D03*
X015070Y020556D03*
X014952Y020643D03*
X014562Y020556D03*
D123*
X015165Y020556D03*
X015275Y020721D03*
D124*
X015275Y020572D03*
X015082Y020556D03*
X014984Y020627D03*
X014976Y020635D03*
X014968Y020639D03*
X014795Y020344D03*
X014791Y020340D03*
X014787Y020336D03*
X014783Y020336D03*
D125*
X015153Y020556D03*
X015157Y020556D03*
X015275Y020438D03*
D126*
X015271Y020570D03*
X014956Y020452D03*
X014952Y020452D03*
D127*
X015267Y020566D03*
D128*
X015263Y020564D03*
X015129Y020556D03*
D129*
X015259Y020432D03*
D130*
X015255Y020430D03*
X015176Y020556D03*
D131*
X015251Y020428D03*
D132*
X015188Y020556D03*
D133*
X015184Y020556D03*
X015180Y020556D03*
D134*
X015173Y020556D03*
D135*
X015149Y020556D03*
D136*
X015145Y020556D03*
D137*
X015141Y020556D03*
X015137Y020556D03*
D138*
X015133Y020556D03*
D139*
X015125Y020556D03*
X015121Y020556D03*
X014680Y020883D03*
D140*
X014558Y020556D03*
X015117Y020556D03*
D141*
X015113Y020556D03*
D142*
X015110Y020556D03*
X015106Y020556D03*
X014980Y020462D03*
D143*
X015098Y020556D03*
D144*
X015094Y020556D03*
X015090Y020556D03*
D145*
X015086Y020556D03*
X014948Y020454D03*
D146*
X015078Y020554D03*
X014964Y020641D03*
X014779Y020334D03*
D147*
X014960Y020643D03*
X015074Y020556D03*
D148*
X015066Y020556D03*
D149*
X015062Y020554D03*
X014948Y020641D03*
D150*
X015058Y020556D03*
D151*
X015054Y020556D03*
D152*
X015050Y020556D03*
D153*
X015047Y020554D03*
D154*
X015043Y020556D03*
D155*
X015031Y020554D03*
X014657Y020322D03*
D156*
X015027Y020556D03*
X014716Y020784D03*
X014712Y020788D03*
D157*
X015023Y020556D03*
D158*
X015019Y020556D03*
X015015Y020556D03*
X014665Y020316D03*
D159*
X014570Y020556D03*
X015011Y020556D03*
D160*
X015007Y020556D03*
D161*
X015003Y020556D03*
X014999Y020556D03*
D162*
X014995Y020556D03*
D163*
X014991Y020556D03*
X014574Y020556D03*
D164*
X014987Y020554D03*
D165*
X014984Y020468D03*
X014976Y020460D03*
X014972Y020456D03*
X014968Y020456D03*
D166*
X014980Y020633D03*
X014972Y020637D03*
D167*
X014960Y020452D03*
D168*
X014956Y020641D03*
X014775Y020334D03*
D169*
X014944Y020556D03*
D170*
X014936Y020556D03*
D171*
X014932Y020556D03*
X014586Y020556D03*
D172*
X014928Y020556D03*
D173*
X014924Y020554D03*
D174*
X014921Y020556D03*
D175*
X014917Y020556D03*
X014791Y020647D03*
X014787Y020651D03*
X014590Y020556D03*
D176*
X014783Y020653D03*
X014795Y020645D03*
X014913Y020554D03*
D177*
X014909Y020554D03*
X014775Y020653D03*
D178*
X014901Y020556D03*
X014594Y020556D03*
D179*
X014893Y020554D03*
D180*
X014885Y020556D03*
X014716Y020430D03*
X014712Y020426D03*
X014598Y020556D03*
D181*
X014661Y020684D03*
X014881Y020554D03*
X014708Y020424D03*
D182*
X014873Y020556D03*
X014665Y020686D03*
D183*
X014865Y020554D03*
D184*
X014850Y020554D03*
D185*
X014846Y020556D03*
D186*
X014818Y020554D03*
D187*
X014806Y020554D03*
X014621Y020554D03*
D188*
X014799Y020556D03*
D189*
X014779Y020655D03*
D190*
X014771Y020653D03*
D191*
X014771Y020334D03*
D192*
X014763Y020556D03*
D193*
X014747Y020554D03*
D194*
X014743Y020554D03*
X014645Y020554D03*
D195*
X014739Y020554D03*
D196*
X014720Y020556D03*
D197*
X014708Y020790D03*
X014661Y020318D03*
D198*
X014704Y020790D03*
D199*
X014704Y020426D03*
D200*
X014696Y020873D03*
X014692Y020877D03*
X014688Y020881D03*
X014684Y020881D03*
D201*
X014696Y020499D03*
X014692Y020495D03*
X014684Y020491D03*
D202*
X014669Y020877D03*
X014673Y020881D03*
X014676Y020885D03*
D203*
X014637Y020554D03*
X014673Y020491D03*
D204*
X014633Y020554D03*
D205*
X014625Y020554D03*
D206*
X014578Y020556D03*
D207*
X008190Y007875D03*
X007690Y006875D03*
X007190Y007875D03*
X006690Y006875D03*
X006190Y007875D03*
X005690Y006875D03*
X005190Y007875D03*
X004840Y002425D03*
X003840Y002425D03*
X008040Y002425D03*
X009040Y002425D03*
D208*
X009590Y005525D03*
X003290Y005525D03*
D209*
X004690Y006875D03*
D210*
X009393Y020832D03*
X012149Y020832D03*
D211*
X011755Y019798D03*
X009787Y019798D03*
D212*
X008606Y018155D03*
X008684Y017564D03*
X006972Y016324D03*
X007031Y015182D03*
X008901Y013804D03*
X009688Y012840D03*
X008901Y011442D03*
X008251Y011245D03*
X008232Y012682D03*
X006184Y010694D03*
X005810Y012584D03*
X002582Y017879D03*
X006184Y018529D03*
X011322Y018942D03*
X011657Y016875D03*
X011342Y016284D03*
X012582Y015871D03*
X012110Y014296D03*
X011106Y011836D03*
X011027Y010694D03*
X012129Y010221D03*
X010692Y009218D03*
X011519Y007525D03*
X007503Y003548D03*
X013428Y018351D03*
D213*
X011657Y016875D02*
X011657Y012190D01*
X011657Y007662D01*
X011519Y007525D01*
X009314Y009119D02*
X009314Y015517D01*
X008586Y017466D02*
X008684Y017564D01*
X008586Y017466D02*
X008586Y010655D01*
X007917Y009985D01*
X006224Y009985D01*
X005180Y008942D01*
X005180Y007885D01*
X005190Y007875D01*
X007190Y007875D02*
X008041Y008725D01*
X008921Y008725D01*
X009314Y009119D01*
X008251Y011245D02*
X008251Y012662D01*
X008232Y012682D01*
X007759Y011048D02*
X007641Y010930D01*
X006184Y010930D01*
X006184Y010694D01*
X007759Y011048D02*
X007759Y017308D01*
X008606Y018155D01*
X012110Y014296D02*
X012582Y014769D01*
X012582Y015871D01*
X011657Y012190D02*
X011302Y011836D01*
X011106Y011836D01*
X011027Y010694D02*
X011027Y003647D01*
X010495Y003115D01*
X004530Y003115D01*
X004225Y002810D01*
D214*
X003840Y002425D01*
X008901Y011442D02*
X008901Y013804D01*
X009314Y015517D02*
X010082Y016284D01*
X011342Y016284D01*
M02*
