G75*
%MOIN*%
%OFA0B0*%
%FSLAX24Y24*%
%IPPOS*%
%LPD*%
%AMOC8*
5,1,8,0,0,1.08239X$1,22.5*
%
%ADD10C,0.0160*%
%ADD11C,0.0000*%
%ADD12C,0.0540*%
%ADD13OC8,0.0540*%
%ADD14R,0.0004X0.0421*%
%ADD15R,0.0004X0.0465*%
%ADD16R,0.0004X0.0492*%
%ADD17R,0.0004X0.0516*%
%ADD18R,0.0004X0.0531*%
%ADD19R,0.0004X0.0547*%
%ADD20R,0.0004X0.0563*%
%ADD21R,0.0004X0.0575*%
%ADD22R,0.0004X0.0587*%
%ADD23R,0.0004X0.0598*%
%ADD24R,0.0004X0.0610*%
%ADD25R,0.0004X0.0618*%
%ADD26R,0.0004X0.0626*%
%ADD27R,0.0004X0.0638*%
%ADD28R,0.0004X0.0646*%
%ADD29R,0.0004X0.0650*%
%ADD30R,0.0004X0.0657*%
%ADD31R,0.0004X0.0665*%
%ADD32R,0.0004X0.0673*%
%ADD33R,0.0004X0.0677*%
%ADD34R,0.0004X0.0685*%
%ADD35R,0.0004X0.0689*%
%ADD36R,0.0004X0.0693*%
%ADD37R,0.0004X0.0701*%
%ADD38R,0.0004X0.0705*%
%ADD39R,0.0004X0.0709*%
%ADD40R,0.0004X0.0717*%
%ADD41R,0.0004X0.0720*%
%ADD42R,0.0004X0.0724*%
%ADD43R,0.0004X0.0728*%
%ADD44R,0.0004X0.0732*%
%ADD45R,0.0004X0.0736*%
%ADD46R,0.0004X0.0740*%
%ADD47R,0.0004X0.0744*%
%ADD48R,0.0004X0.0748*%
%ADD49R,0.0004X0.0752*%
%ADD50R,0.0004X0.0756*%
%ADD51R,0.0004X0.0760*%
%ADD52R,0.0004X0.0764*%
%ADD53R,0.0004X0.0768*%
%ADD54R,0.0004X0.0772*%
%ADD55R,0.0004X0.0776*%
%ADD56R,0.0004X0.0780*%
%ADD57R,0.0004X0.0783*%
%ADD58R,0.0004X0.0787*%
%ADD59R,0.0004X0.0791*%
%ADD60R,0.0004X0.0795*%
%ADD61R,0.0004X0.0799*%
%ADD62R,0.0004X0.0803*%
%ADD63R,0.0004X0.0807*%
%ADD64R,0.0004X0.0811*%
%ADD65R,0.0004X0.0815*%
%ADD66R,0.0004X0.0819*%
%ADD67R,0.0004X0.0823*%
%ADD68R,0.0004X0.0827*%
%ADD69R,0.0004X0.0831*%
%ADD70R,0.0004X0.0835*%
%ADD71R,0.0004X0.0839*%
%ADD72R,0.0004X0.0909*%
%ADD73R,0.0004X0.0937*%
%ADD74R,0.0004X0.0953*%
%ADD75R,0.0004X0.0961*%
%ADD76R,0.0004X0.0969*%
%ADD77R,0.0004X0.0976*%
%ADD78R,0.0004X0.0980*%
%ADD79R,0.0004X0.0984*%
%ADD80R,0.0004X0.0965*%
%ADD81R,0.0004X0.0957*%
%ADD82R,0.0004X0.0945*%
%ADD83R,0.0004X0.0921*%
%ADD84R,0.0004X0.0232*%
%ADD85R,0.0004X0.0555*%
%ADD86R,0.0004X0.0224*%
%ADD87R,0.0004X0.0543*%
%ADD88R,0.0004X0.0539*%
%ADD89R,0.0004X0.0220*%
%ADD90R,0.0004X0.0535*%
%ADD91R,0.0004X0.0528*%
%ADD92R,0.0004X0.0520*%
%ADD93R,0.0004X0.0512*%
%ADD94R,0.0004X0.0500*%
%ADD95R,0.0004X0.0488*%
%ADD96R,0.0004X0.0484*%
%ADD97R,0.0004X0.0476*%
%ADD98R,0.0004X0.0449*%
%ADD99R,0.0004X0.0370*%
%ADD100R,0.0004X0.0043*%
%ADD101R,0.0004X0.0228*%
%ADD102R,0.0004X0.0358*%
%ADD103R,0.0004X0.0350*%
%ADD104R,0.0004X0.0343*%
%ADD105R,0.0004X0.0331*%
%ADD106R,0.0004X0.0319*%
%ADD107R,0.0004X0.0311*%
%ADD108R,0.0004X0.0307*%
%ADD109R,0.0004X0.0303*%
%ADD110R,0.0004X0.0063*%
%ADD111R,0.0004X0.0130*%
%ADD112R,0.0004X0.0445*%
%ADD113R,0.0004X0.0437*%
%ADD114R,0.0004X0.0433*%
%ADD115R,0.0004X0.0362*%
%ADD116R,0.0004X0.0047*%
%ADD117R,0.0004X0.0354*%
%ADD118R,0.0004X0.0031*%
%ADD119R,0.0004X0.0346*%
%ADD120R,0.0004X0.0339*%
%ADD121R,0.0004X0.0055*%
%ADD122R,0.0004X0.0177*%
%ADD123R,0.0004X0.0035*%
%ADD124R,0.0004X0.0161*%
%ADD125R,0.0004X0.0051*%
%ADD126R,0.0004X0.0142*%
%ADD127R,0.0004X0.0118*%
%ADD128R,0.0004X0.0091*%
%ADD129R,0.0004X0.0024*%
%ADD130R,0.0004X0.0020*%
%ADD131R,0.0004X0.0008*%
%ADD132R,0.0004X0.0004*%
%ADD133R,0.0004X0.0012*%
%ADD134R,0.0004X0.0028*%
%ADD135R,0.0004X0.0059*%
%ADD136R,0.0004X0.0067*%
%ADD137R,0.0004X0.0075*%
%ADD138R,0.0004X0.0083*%
%ADD139R,0.0004X0.0098*%
%ADD140R,0.0004X0.0106*%
%ADD141R,0.0004X0.0114*%
%ADD142R,0.0004X0.0122*%
%ADD143R,0.0004X0.0138*%
%ADD144R,0.0004X0.0146*%
%ADD145R,0.0004X0.0154*%
%ADD146R,0.0004X0.0165*%
%ADD147R,0.0004X0.0169*%
%ADD148R,0.0004X0.0185*%
%ADD149R,0.0004X0.0189*%
%ADD150R,0.0004X0.0193*%
%ADD151R,0.0004X0.0201*%
%ADD152R,0.0004X0.0209*%
%ADD153R,0.0004X0.0213*%
%ADD154R,0.0004X0.0217*%
%ADD155R,0.0004X0.0236*%
%ADD156R,0.0004X0.0240*%
%ADD157R,0.0004X0.0248*%
%ADD158R,0.0004X0.0256*%
%ADD159R,0.0004X0.0264*%
%ADD160R,0.0004X0.0272*%
%ADD161R,0.0004X0.0280*%
%ADD162R,0.0004X0.0287*%
%ADD163R,0.0004X0.0295*%
%ADD164R,0.0004X0.0299*%
%ADD165R,0.0004X0.0126*%
%ADD166R,0.0004X0.0157*%
%ADD167R,0.0004X0.0134*%
%ADD168R,0.0004X0.0173*%
%ADD169R,0.0004X0.0366*%
%ADD170R,0.0004X0.0374*%
%ADD171R,0.0004X0.0382*%
%ADD172R,0.0004X0.0390*%
%ADD173R,0.0004X0.0394*%
%ADD174R,0.0004X0.0398*%
%ADD175R,0.0004X0.0406*%
%ADD176R,0.0004X0.0409*%
%ADD177R,0.0004X0.0417*%
%ADD178R,0.0004X0.0429*%
%ADD179R,0.0004X0.0441*%
%ADD180R,0.0004X0.0453*%
%ADD181R,0.0004X0.0457*%
%ADD182R,0.0004X0.0469*%
%ADD183R,0.0004X0.0480*%
%ADD184R,0.0004X0.0504*%
%ADD185R,0.0004X0.0508*%
%ADD186R,0.0004X0.0551*%
%ADD187R,0.0004X0.0567*%
%ADD188R,0.0004X0.0579*%
%ADD189R,0.0004X0.0413*%
%ADD190R,0.0004X0.0425*%
%ADD191R,0.0004X0.0181*%
%ADD192R,0.0004X0.0634*%
%ADD193R,0.0004X0.0654*%
%ADD194R,0.0004X0.0661*%
%ADD195R,0.0004X0.0669*%
%ADD196R,0.0004X0.0697*%
%ADD197R,0.0004X0.0244*%
%ADD198R,0.0004X0.0252*%
%ADD199R,0.0004X0.0461*%
%ADD200R,0.0004X0.0094*%
%ADD201R,0.0004X0.0622*%
%ADD202R,0.0004X0.0102*%
%ADD203R,0.0004X0.0630*%
%ADD204R,0.0004X0.0614*%
%ADD205R,0.0004X0.0583*%
%ADD206R,0.0004X0.0327*%
%ADD207R,0.0550X0.0137*%
%ADD208C,0.0600*%
%ADD209C,0.0975*%
%ADD210R,0.0600X0.0600*%
%ADD211R,0.0512X0.0591*%
%ADD212R,0.0591X0.0512*%
%ADD213R,0.0700X0.2000*%
%ADD214R,0.0500X0.1000*%
%ADD215R,0.0433X0.0591*%
%ADD216R,0.0160X0.0480*%
%ADD217R,0.0157X0.0531*%
%ADD218R,0.0591X0.0748*%
%ADD219C,0.0679*%
%ADD220C,0.0502*%
%ADD221C,0.0376*%
%ADD222C,0.0100*%
%ADD223C,0.0240*%
%ADD224C,0.0120*%
%ADD225C,0.0400*%
%ADD226C,0.0700*%
%ADD227C,0.0660*%
%ADD228C,0.0320*%
D10*
X000259Y001718D02*
X016401Y001718D01*
X016401Y021403D01*
X001913Y021403D01*
X000259Y019749D01*
X000259Y001718D01*
X000569Y002673D02*
X000569Y002869D01*
X000635Y002803D01*
X001025Y002803D01*
X001300Y003078D01*
X001300Y003467D01*
X001025Y003743D01*
X000635Y003743D01*
X000569Y003676D01*
X000569Y003869D01*
X000635Y003803D01*
X001025Y003803D01*
X001300Y004078D01*
X001300Y004467D01*
X001025Y004743D01*
X000635Y004743D01*
X000569Y004676D01*
X000569Y004869D01*
X000635Y004803D01*
X001025Y004803D01*
X001300Y005078D01*
X001300Y005467D01*
X001025Y005743D01*
X000635Y005743D01*
X000569Y005676D01*
X000569Y005869D01*
X000635Y005803D01*
X001025Y005803D01*
X001300Y006078D01*
X001300Y006467D01*
X001025Y006743D01*
X000635Y006743D01*
X000569Y006676D01*
X000569Y006869D01*
X000635Y006803D01*
X001025Y006803D01*
X001300Y007078D01*
X001300Y007467D01*
X001025Y007743D01*
X000635Y007743D01*
X000569Y007676D01*
X000569Y007869D01*
X000635Y007803D01*
X001025Y007803D01*
X001300Y008078D01*
X001300Y008467D01*
X001025Y008743D01*
X000635Y008743D01*
X000569Y008676D01*
X000569Y008869D01*
X000635Y008803D01*
X001025Y008803D01*
X001300Y009078D01*
X001300Y009467D01*
X001025Y009743D01*
X000635Y009743D01*
X000569Y009676D01*
X000569Y009869D01*
X000635Y009803D01*
X001025Y009803D01*
X001300Y010078D01*
X001300Y010467D01*
X001025Y010743D01*
X000635Y010743D01*
X000569Y010676D01*
X000569Y010869D01*
X000635Y010803D01*
X001025Y010803D01*
X001300Y011078D01*
X001300Y011389D01*
X001360Y011449D01*
X001360Y011078D01*
X001635Y010803D01*
X002025Y010803D01*
X002300Y011078D01*
X002300Y011467D01*
X002025Y011743D01*
X001635Y011743D01*
X001547Y011654D01*
X001572Y011715D01*
X001572Y011866D01*
X001635Y011803D01*
X002025Y011803D01*
X002300Y012078D01*
X002300Y012467D01*
X002025Y012743D01*
X001635Y012743D01*
X001572Y012679D01*
X001572Y012866D01*
X001635Y012803D01*
X002025Y012803D01*
X002300Y013078D01*
X002300Y013467D01*
X002025Y013743D01*
X001635Y013743D01*
X001572Y013679D01*
X001572Y013866D01*
X001635Y013803D01*
X002025Y013803D01*
X002300Y014078D01*
X002300Y014467D01*
X002025Y014743D01*
X001635Y014743D01*
X001572Y014679D01*
X001572Y014866D01*
X001635Y014803D01*
X002025Y014803D01*
X002300Y015078D01*
X002300Y015467D01*
X002025Y015743D01*
X001635Y015743D01*
X001572Y015679D01*
X001572Y015866D01*
X001635Y015803D01*
X002025Y015803D01*
X002300Y016078D01*
X002300Y016467D01*
X002025Y016743D01*
X001635Y016743D01*
X001572Y016679D01*
X001572Y016866D01*
X001635Y016803D01*
X002025Y016803D01*
X002300Y017078D01*
X002300Y017467D01*
X002025Y017743D01*
X001635Y017743D01*
X001572Y017679D01*
X001572Y017866D01*
X001635Y017803D01*
X002025Y017803D01*
X002300Y018078D01*
X002300Y018467D01*
X002174Y018594D01*
X002435Y018594D01*
X002527Y018632D01*
X002597Y018702D01*
X003050Y019155D01*
X003088Y019247D01*
X003088Y020315D01*
X003473Y020700D01*
X004628Y020700D01*
X004587Y020659D01*
X004587Y019981D01*
X004638Y019930D01*
X004619Y019897D01*
X004607Y019851D01*
X004607Y019620D01*
X005034Y019620D01*
X005034Y019524D01*
X004607Y019524D01*
X004607Y019292D01*
X004619Y019246D01*
X004643Y019205D01*
X004676Y019172D01*
X004717Y019148D01*
X004763Y019136D01*
X005034Y019136D01*
X005034Y019524D01*
X005130Y019524D01*
X005130Y019620D01*
X005557Y019620D01*
X005557Y019851D01*
X005545Y019897D01*
X005526Y019930D01*
X005577Y019981D01*
X005577Y020659D01*
X005536Y020700D01*
X005956Y020700D01*
X005956Y020253D01*
X006073Y020136D01*
X006398Y020136D01*
X006486Y020223D01*
X006573Y020136D01*
X006898Y020136D01*
X006986Y020223D01*
X007073Y020136D01*
X007398Y020136D01*
X007516Y020253D01*
X007516Y020899D01*
X007398Y021016D01*
X007073Y021016D01*
X006986Y020929D01*
X006898Y021016D01*
X006573Y021016D01*
X006493Y020937D01*
X006493Y020940D01*
X006455Y021032D01*
X006395Y021093D01*
X008917Y021093D01*
X008853Y020939D01*
X008853Y020724D01*
X008936Y020526D01*
X009087Y020374D01*
X009133Y020355D01*
X009133Y020264D01*
X009175Y020161D01*
X009254Y020083D01*
X009293Y020043D01*
X009384Y020005D01*
X009336Y019888D01*
X009336Y019709D01*
X009404Y019543D01*
X009531Y019416D01*
X009697Y019347D01*
X009876Y019347D01*
X010008Y019402D01*
X010098Y019313D01*
X011003Y019313D01*
X011003Y019171D01*
X010993Y019162D01*
X010934Y019019D01*
X010934Y018865D01*
X010993Y018722D01*
X011102Y018613D01*
X011245Y018554D01*
X011399Y018554D01*
X011542Y018613D01*
X011651Y018722D01*
X011710Y018865D01*
X011710Y019019D01*
X011651Y019162D01*
X011563Y019250D01*
X011563Y019390D01*
X011665Y019347D01*
X011845Y019347D01*
X012011Y019416D01*
X012138Y019543D01*
X012206Y019709D01*
X012206Y019888D01*
X012138Y020054D01*
X012011Y020181D01*
X011845Y020249D01*
X011665Y020249D01*
X011506Y020183D01*
X011444Y020244D01*
X010512Y020244D01*
X010508Y020254D01*
X010755Y020254D01*
X010773Y020271D01*
X010787Y020258D01*
X011543Y020258D01*
X011660Y020375D01*
X011660Y020602D01*
X011691Y020526D01*
X011843Y020374D01*
X012042Y020292D01*
X012256Y020292D01*
X012455Y020374D01*
X012606Y020526D01*
X012688Y020724D01*
X012688Y020939D01*
X012625Y021093D01*
X014544Y021093D01*
X014471Y021019D01*
X014471Y021015D01*
X014463Y021007D01*
X014463Y021003D01*
X014459Y020999D01*
X014459Y020995D01*
X014455Y020991D01*
X014455Y020987D01*
X014451Y020983D01*
X014451Y020979D01*
X014443Y020972D01*
X014443Y020968D01*
X014439Y020964D01*
X014439Y020960D01*
X014435Y020956D01*
X014435Y020952D01*
X014431Y020948D01*
X014431Y020944D01*
X014427Y020940D01*
X014427Y020936D01*
X014423Y020932D01*
X014423Y020928D01*
X014419Y020924D01*
X014419Y020917D01*
X014415Y020913D01*
X014415Y020909D01*
X014411Y020905D01*
X014411Y020901D01*
X014408Y020897D01*
X014408Y020889D01*
X014404Y020885D01*
X014404Y020881D01*
X014400Y020877D01*
X014400Y020869D01*
X014396Y020865D01*
X014396Y020857D01*
X014392Y020854D01*
X014392Y020846D01*
X014388Y020842D01*
X014388Y020834D01*
X014384Y020830D01*
X014384Y020822D01*
X014380Y020818D01*
X014380Y020806D01*
X014376Y020802D01*
X014376Y020791D01*
X014372Y020787D01*
X014372Y020775D01*
X014368Y020771D01*
X014368Y020755D01*
X014364Y020751D01*
X014364Y020731D01*
X014360Y020728D01*
X014360Y020696D01*
X014356Y020692D01*
X014356Y020420D01*
X014360Y020416D01*
X014360Y020385D01*
X014364Y020381D01*
X014364Y020361D01*
X014368Y020357D01*
X014368Y020341D01*
X014372Y020337D01*
X014372Y020326D01*
X014376Y020322D01*
X014376Y020310D01*
X014380Y020306D01*
X014380Y020294D01*
X014384Y020290D01*
X014384Y020282D01*
X014388Y020278D01*
X014388Y020271D01*
X014392Y020267D01*
X014392Y020259D01*
X014396Y020255D01*
X014396Y020247D01*
X014400Y020243D01*
X014400Y020235D01*
X014404Y020231D01*
X014404Y020227D01*
X014408Y020223D01*
X014408Y020215D01*
X014411Y020211D01*
X014411Y020208D01*
X014415Y020204D01*
X014415Y020200D01*
X014419Y020196D01*
X014419Y020192D01*
X014423Y020188D01*
X014423Y020184D01*
X014427Y020180D01*
X014427Y020176D01*
X014431Y020172D01*
X014431Y020168D01*
X014435Y020164D01*
X014435Y020160D01*
X014439Y020156D01*
X014439Y020152D01*
X014443Y020148D01*
X014443Y020145D01*
X014447Y020141D01*
X014447Y020137D01*
X014451Y020133D01*
X014451Y020129D01*
X014459Y020121D01*
X014459Y020117D01*
X014463Y020113D01*
X014463Y020109D01*
X014467Y020105D01*
X014467Y020101D01*
X014471Y020097D01*
X014588Y019980D01*
X014592Y019976D01*
X014761Y019976D01*
X014769Y019984D01*
X014773Y019984D01*
X014785Y019996D01*
X014789Y019996D01*
X014801Y020008D01*
X014805Y020008D01*
X014816Y020019D01*
X014820Y020019D01*
X014832Y020031D01*
X014836Y020031D01*
X014844Y020039D01*
X014848Y020039D01*
X014856Y020047D01*
X014860Y020051D01*
X014864Y020051D01*
X014875Y020063D01*
X014879Y020063D01*
X014891Y020075D01*
X014895Y020075D01*
X014907Y020086D01*
X014911Y020086D01*
X014923Y020098D01*
X014927Y020098D01*
X014934Y020106D01*
X014938Y020106D01*
X014950Y020118D01*
X014954Y020118D01*
X014966Y020130D01*
X014970Y020130D01*
X014982Y020142D01*
X014986Y020142D01*
X014997Y020153D01*
X015001Y020153D01*
X015009Y020161D01*
X015013Y020161D01*
X015025Y020173D01*
X015029Y020173D01*
X015041Y020185D01*
X015045Y020185D01*
X015057Y020197D01*
X015060Y020197D01*
X015072Y020208D01*
X015076Y020208D01*
X015084Y020216D01*
X015088Y020216D01*
X015100Y020228D01*
X015104Y020228D01*
X015116Y020240D01*
X015120Y020240D01*
X015120Y020241D01*
X015120Y020180D01*
X015124Y020176D01*
X015124Y020164D01*
X015128Y020160D01*
X015128Y020152D01*
X015132Y020148D01*
X015132Y020145D01*
X015136Y020141D01*
X015136Y020137D01*
X015144Y020129D01*
X015144Y020125D01*
X015261Y020008D01*
X015265Y020004D01*
X015269Y020000D01*
X015273Y019996D01*
X015277Y019992D01*
X015281Y019988D01*
X015285Y019984D01*
X015288Y019984D01*
X015292Y019980D01*
X015296Y019976D01*
X015300Y019976D01*
X015304Y019972D01*
X015308Y019972D01*
X015312Y019968D01*
X015316Y019968D01*
X015411Y019874D01*
X015414Y019874D01*
X015418Y019870D01*
X015422Y019870D01*
X015426Y019866D01*
X015651Y019866D01*
X015655Y019870D01*
X015659Y019870D01*
X015738Y019949D01*
X015742Y019949D01*
X015746Y019953D01*
X015757Y019953D01*
X015761Y019956D01*
X015769Y019956D01*
X015773Y019960D01*
X015781Y019960D01*
X015785Y019964D01*
X015793Y019964D01*
X015797Y019968D01*
X015805Y019968D01*
X015809Y019972D01*
X015812Y019972D01*
X015816Y019976D01*
X015824Y019976D01*
X015828Y019980D01*
X015832Y019980D01*
X015836Y019984D01*
X015840Y019984D01*
X015844Y019988D01*
X015848Y019988D01*
X015852Y019992D01*
X015856Y019992D01*
X015860Y019996D01*
X015864Y019996D01*
X015872Y020004D01*
X015875Y020004D01*
X015883Y020012D01*
X015887Y020012D01*
X015907Y020031D01*
X015911Y020031D01*
X016028Y020148D01*
X016032Y020152D01*
X016032Y020156D01*
X016036Y020160D01*
X016040Y020164D01*
X016044Y020168D01*
X016048Y020172D01*
X016048Y020176D01*
X016052Y020180D01*
X016056Y020184D01*
X016056Y020188D01*
X016060Y020192D01*
X016060Y020196D01*
X016063Y020200D01*
X016063Y020204D01*
X016067Y020208D01*
X016067Y020211D01*
X016071Y020215D01*
X016071Y020223D01*
X016075Y020227D01*
X016075Y020235D01*
X016079Y020239D01*
X016079Y020259D01*
X016083Y020263D01*
X016083Y020850D01*
X016079Y020854D01*
X016079Y020869D01*
X016075Y020873D01*
X016075Y020885D01*
X016071Y020889D01*
X016071Y020897D01*
X016067Y020901D01*
X016067Y020905D01*
X016063Y020909D01*
X016063Y020913D01*
X016060Y020917D01*
X016060Y020920D01*
X016056Y020924D01*
X016052Y020928D01*
X016052Y020932D01*
X016048Y020936D01*
X016044Y020940D01*
X016044Y020944D01*
X016040Y020948D01*
X016036Y020952D01*
X016032Y020956D01*
X016028Y020960D01*
X016024Y020964D01*
X016020Y020968D01*
X016016Y020972D01*
X016012Y020976D01*
X015895Y021093D01*
X016091Y021093D01*
X016091Y019676D01*
X016025Y019743D01*
X015635Y019743D01*
X015360Y019467D01*
X015360Y019078D01*
X015635Y018803D01*
X016025Y018803D01*
X016091Y018869D01*
X016091Y018676D01*
X016025Y018743D01*
X015635Y018743D01*
X015360Y018467D01*
X015360Y018078D01*
X015635Y017803D01*
X016025Y017803D01*
X016091Y017869D01*
X016091Y017676D01*
X016025Y017743D01*
X015635Y017743D01*
X015360Y017467D01*
X015360Y017078D01*
X015635Y016803D01*
X016025Y016803D01*
X016091Y016869D01*
X016091Y016676D01*
X016025Y016743D01*
X015635Y016743D01*
X015360Y016467D01*
X015360Y016078D01*
X015635Y015803D01*
X016025Y015803D01*
X016091Y015869D01*
X016091Y015676D01*
X016025Y015743D01*
X015635Y015743D01*
X015360Y015467D01*
X015360Y015078D01*
X015635Y014803D01*
X016025Y014803D01*
X016091Y014869D01*
X016091Y014676D01*
X016025Y014743D01*
X015635Y014743D01*
X015360Y014467D01*
X015360Y014078D01*
X015635Y013803D01*
X016025Y013803D01*
X016091Y013869D01*
X016091Y013676D01*
X016025Y013743D01*
X015635Y013743D01*
X015360Y013467D01*
X015360Y013078D01*
X015635Y012803D01*
X016025Y012803D01*
X016091Y012869D01*
X016091Y012676D01*
X016025Y012743D01*
X015635Y012743D01*
X015360Y012467D01*
X015360Y012078D01*
X015635Y011803D01*
X016025Y011803D01*
X016091Y011869D01*
X016091Y011676D01*
X016025Y011743D01*
X015635Y011743D01*
X015360Y011467D01*
X015360Y011078D01*
X015635Y010803D01*
X016025Y010803D01*
X016091Y010869D01*
X016091Y010676D01*
X016025Y010743D01*
X015635Y010743D01*
X015360Y010467D01*
X015360Y010078D01*
X015635Y009803D01*
X016025Y009803D01*
X016091Y009869D01*
X016091Y009676D01*
X016025Y009743D01*
X015635Y009743D01*
X015360Y009467D01*
X015360Y009078D01*
X015635Y008803D01*
X016025Y008803D01*
X016091Y008869D01*
X016091Y008676D01*
X016025Y008743D01*
X015635Y008743D01*
X015360Y008467D01*
X015360Y008078D01*
X015635Y007803D01*
X016025Y007803D01*
X016091Y007869D01*
X016091Y007676D01*
X016025Y007743D01*
X015635Y007743D01*
X015360Y007467D01*
X015360Y007078D01*
X015635Y006803D01*
X016025Y006803D01*
X016091Y006869D01*
X016091Y006676D01*
X016025Y006743D01*
X015635Y006743D01*
X015360Y006467D01*
X015360Y006129D01*
X015274Y006042D01*
X015264Y006042D01*
X015300Y006078D01*
X015300Y006467D01*
X015025Y006743D01*
X014635Y006743D01*
X014407Y006515D01*
X013945Y006515D01*
X013816Y006644D01*
X013816Y008220D01*
X013976Y008061D01*
X014068Y008023D01*
X014415Y008023D01*
X014635Y007803D01*
X015025Y007803D01*
X015300Y008078D01*
X015300Y008467D01*
X015025Y008743D01*
X014635Y008743D01*
X014415Y008523D01*
X014221Y008523D01*
X014033Y008711D01*
X014033Y014720D01*
X013995Y014812D01*
X013924Y014882D01*
X012970Y015837D01*
X012970Y015948D01*
X012911Y016091D01*
X012802Y016200D01*
X012701Y016242D01*
X013078Y016242D01*
X013129Y016293D01*
X013162Y016274D01*
X013208Y016262D01*
X013440Y016262D01*
X013440Y016689D01*
X013535Y016689D01*
X013535Y016262D01*
X013767Y016262D01*
X013813Y016274D01*
X013854Y016298D01*
X013887Y016331D01*
X013911Y016372D01*
X013923Y016418D01*
X013923Y016689D01*
X013535Y016689D01*
X013535Y016785D01*
X013923Y016785D01*
X013923Y017056D01*
X013911Y017102D01*
X013887Y017143D01*
X013864Y017166D01*
X013943Y017245D01*
X013943Y018001D01*
X013826Y018118D01*
X013744Y018118D01*
X013757Y018132D01*
X013817Y018274D01*
X013817Y018429D01*
X013757Y018571D01*
X013648Y018680D01*
X013506Y018739D01*
X013351Y018739D01*
X013209Y018680D01*
X013099Y018571D01*
X013040Y018429D01*
X013040Y018274D01*
X013099Y018132D01*
X013131Y018100D01*
X013113Y018083D01*
X013078Y018118D01*
X012401Y018118D01*
X012284Y018001D01*
X012284Y017883D01*
X011152Y017883D01*
X011057Y017843D01*
X010905Y017692D01*
X010865Y017596D01*
X010865Y017061D01*
X010859Y017055D01*
X010278Y017055D01*
X010161Y016938D01*
X010161Y016279D01*
X009131Y016279D01*
X009369Y016517D01*
X009407Y016609D01*
X009407Y017988D01*
X009369Y018080D01*
X009298Y018150D01*
X009082Y018366D01*
X008990Y018405D01*
X008904Y018405D01*
X008825Y018484D01*
X008683Y018543D01*
X008528Y018543D01*
X008386Y018484D01*
X008277Y018374D01*
X008217Y018232D01*
X008217Y018077D01*
X008277Y017935D01*
X008386Y017826D01*
X008394Y017822D01*
X008355Y017784D01*
X008301Y017652D01*
X008246Y017598D01*
X008222Y017588D01*
X008149Y017514D01*
X008109Y017419D01*
X008109Y017018D01*
X008101Y017023D01*
X008055Y017035D01*
X007757Y017035D01*
X007757Y016799D01*
X007757Y016799D01*
X007757Y017035D01*
X007458Y017035D01*
X007412Y017023D01*
X007371Y016999D01*
X007338Y016965D01*
X007314Y016924D01*
X007302Y016879D01*
X007302Y016786D01*
X007302Y016702D01*
X007282Y016682D01*
X007282Y016563D01*
X007192Y016653D01*
X007049Y016712D01*
X006895Y016712D01*
X006752Y016653D01*
X006643Y016544D01*
X006584Y016401D01*
X006584Y016247D01*
X006643Y016104D01*
X006752Y015995D01*
X006895Y015936D01*
X006992Y015936D01*
X007130Y015798D01*
X007225Y015759D01*
X007302Y015759D01*
X007302Y015671D01*
X007311Y015635D01*
X007302Y015599D01*
X007302Y015511D01*
X007251Y015511D01*
X007251Y015511D01*
X007108Y015570D01*
X006954Y015570D01*
X006811Y015511D01*
X006702Y015402D01*
X006643Y015259D01*
X006643Y015166D01*
X006541Y015166D01*
X006541Y015351D01*
X006154Y015351D01*
X006154Y015447D01*
X006541Y015447D01*
X006541Y015718D01*
X006529Y015763D01*
X006507Y015802D01*
X006529Y015841D01*
X006541Y015887D01*
X006541Y016158D01*
X006154Y016158D01*
X006154Y016254D01*
X006541Y016254D01*
X006541Y016525D01*
X006529Y016570D01*
X006506Y016612D01*
X006472Y016645D01*
X006431Y016669D01*
X006385Y016681D01*
X006154Y016681D01*
X006154Y016254D01*
X006058Y016254D01*
X006058Y016681D01*
X005826Y016681D01*
X005780Y016669D01*
X005747Y016650D01*
X005696Y016701D01*
X005678Y016701D01*
X005678Y016734D01*
X005696Y016734D01*
X005747Y016785D01*
X005780Y016766D01*
X005826Y016754D01*
X006058Y016754D01*
X006058Y017181D01*
X006154Y017181D01*
X006154Y017277D01*
X006541Y017277D01*
X006541Y017548D01*
X006529Y017594D01*
X006506Y017635D01*
X006472Y017669D01*
X006431Y017692D01*
X006385Y017705D01*
X006154Y017705D01*
X006154Y017277D01*
X006058Y017277D01*
X006058Y017705D01*
X005826Y017705D01*
X005780Y017692D01*
X005747Y017673D01*
X005696Y017725D01*
X005638Y017725D01*
X005638Y017738D01*
X005657Y017738D01*
X005774Y017855D01*
X005774Y018209D01*
X005955Y018209D01*
X005964Y018200D01*
X006107Y018140D01*
X006262Y018140D01*
X006404Y018200D01*
X006513Y018309D01*
X006572Y018451D01*
X006572Y018606D01*
X006513Y018748D01*
X006486Y018776D01*
X006486Y018963D01*
X006573Y018876D01*
X006898Y018876D01*
X006986Y018963D01*
X007073Y018876D01*
X007398Y018876D01*
X007516Y018993D01*
X007516Y019639D01*
X007398Y019756D01*
X007073Y019756D01*
X006986Y019669D01*
X006898Y019756D01*
X006573Y019756D01*
X006486Y019669D01*
X006398Y019756D01*
X006073Y019756D01*
X005956Y019639D01*
X005956Y018993D01*
X005986Y018963D01*
X005986Y018866D01*
X005964Y018858D01*
X005955Y018849D01*
X005550Y018849D01*
X005432Y018800D01*
X005361Y018729D01*
X004979Y018729D01*
X004944Y018693D01*
X004909Y018729D01*
X004231Y018729D01*
X004114Y018611D01*
X004114Y018513D01*
X003688Y018513D01*
X003585Y018471D01*
X003486Y018372D01*
X003408Y018293D01*
X003365Y018191D01*
X003365Y018066D01*
X003192Y018066D01*
X003075Y017948D01*
X003075Y015783D01*
X003192Y015666D01*
X003365Y015666D01*
X003365Y015012D01*
X003405Y014917D01*
X003478Y014844D01*
X003553Y014769D01*
X003458Y014674D01*
X003385Y014601D01*
X003346Y014505D01*
X003346Y014266D01*
X003192Y014266D01*
X003075Y014148D01*
X003075Y011983D01*
X003192Y011866D01*
X003345Y011866D01*
X003345Y011839D01*
X003388Y011736D01*
X003467Y011657D01*
X003585Y011539D01*
X003688Y011497D01*
X004528Y011497D01*
X004528Y011398D01*
X004645Y011281D01*
X005322Y011281D01*
X005358Y011317D01*
X005393Y011281D01*
X006070Y011281D01*
X006187Y011398D01*
X006187Y012155D01*
X006130Y012212D01*
X006130Y012355D01*
X006139Y012364D01*
X006198Y012506D01*
X006198Y012661D01*
X006139Y012804D01*
X006030Y012913D01*
X006018Y012918D01*
X006018Y013264D01*
X006114Y013264D01*
X006114Y012837D01*
X006346Y012837D01*
X006392Y012849D01*
X006433Y012873D01*
X006466Y012906D01*
X006490Y012947D01*
X006502Y012993D01*
X006502Y013264D01*
X006114Y013264D01*
X006114Y013360D01*
X006018Y013360D01*
X006018Y013664D01*
X006038Y013664D01*
X006038Y014091D01*
X006134Y014091D01*
X006134Y014187D01*
X006522Y014187D01*
X006522Y014300D01*
X006559Y014263D01*
X006654Y014223D01*
X007302Y014223D01*
X007302Y014143D01*
X007282Y014123D01*
X007282Y013564D01*
X007302Y013544D01*
X007302Y013460D01*
X007386Y013460D01*
X007386Y013460D01*
X007302Y013460D01*
X007302Y013367D01*
X007314Y013322D01*
X007338Y013281D01*
X007371Y013247D01*
X007412Y013223D01*
X007458Y013211D01*
X007757Y013211D01*
X008055Y013211D01*
X008101Y013223D01*
X008142Y013247D01*
X008168Y013273D01*
X008168Y013070D01*
X008154Y013070D01*
X008012Y013011D01*
X007903Y012902D01*
X007843Y012759D01*
X007843Y012605D01*
X007903Y012462D01*
X008012Y012353D01*
X008154Y012294D01*
X008309Y012294D01*
X008451Y012353D01*
X008561Y012462D01*
X008620Y012605D01*
X008620Y012683D01*
X008649Y012712D01*
X008688Y012808D01*
X008688Y013472D01*
X008824Y013416D01*
X008978Y013416D01*
X009121Y013475D01*
X009230Y013584D01*
X009289Y013727D01*
X009289Y013881D01*
X009230Y014024D01*
X009121Y014133D01*
X008978Y014192D01*
X008880Y014192D01*
X008785Y014231D01*
X008212Y014231D01*
X008212Y014312D01*
X008232Y014332D01*
X008232Y015402D01*
X008212Y015422D01*
X008212Y015507D01*
X010161Y015507D01*
X010161Y015349D02*
X008232Y015349D01*
X008232Y015190D02*
X010161Y015190D01*
X010161Y015032D02*
X008232Y015032D01*
X008232Y014873D02*
X010161Y014873D01*
X010161Y014715D02*
X008232Y014715D01*
X008232Y014556D02*
X010161Y014556D01*
X010161Y014398D02*
X008232Y014398D01*
X008212Y014239D02*
X010161Y014239D01*
X010161Y014081D02*
X009173Y014081D01*
X009272Y013922D02*
X009824Y013922D01*
X009854Y013953D02*
X009530Y013628D01*
X009451Y013549D01*
X009408Y013446D01*
X009408Y013108D01*
X009359Y013059D01*
X009300Y012917D01*
X009300Y012762D01*
X009359Y012620D01*
X009468Y012511D01*
X009611Y012451D01*
X009765Y012451D01*
X009908Y012511D01*
X010017Y012620D01*
X010076Y012762D01*
X010076Y012917D01*
X010017Y013059D01*
X009968Y013108D01*
X009968Y013275D01*
X010129Y013436D01*
X010161Y013436D01*
X010161Y013308D01*
X010278Y013191D01*
X010993Y013191D01*
X011012Y013210D01*
X011151Y013210D01*
X011151Y012376D01*
X011189Y012285D01*
X011297Y012176D01*
X011183Y012224D01*
X011028Y012224D01*
X010886Y012165D01*
X010807Y012086D01*
X007729Y012086D01*
X007637Y012048D01*
X007567Y011977D01*
X007232Y011643D01*
X007194Y011551D01*
X007194Y010599D01*
X007105Y010599D01*
X006988Y010481D01*
X006988Y009725D01*
X007043Y009670D01*
X006988Y009615D01*
X006988Y008859D01*
X007105Y008742D01*
X007124Y008742D01*
X007124Y008375D01*
X007091Y008375D01*
X006966Y008323D01*
X006966Y008598D01*
X006928Y008690D01*
X006502Y009115D01*
X006502Y009596D01*
X006385Y009713D01*
X006364Y009713D01*
X006364Y009977D01*
X005996Y009977D01*
X005996Y010033D01*
X006364Y010033D01*
X006364Y010324D01*
X006358Y010346D01*
X006404Y010365D01*
X006513Y010474D01*
X006572Y010617D01*
X006572Y010771D01*
X006513Y010914D01*
X006404Y011023D01*
X006262Y011082D01*
X006249Y011082D01*
X006188Y011142D01*
X006071Y011191D01*
X003227Y011191D01*
X003109Y011142D01*
X003019Y011052D01*
X002567Y010600D01*
X002518Y010482D01*
X002518Y006949D01*
X002567Y006832D01*
X002657Y006742D01*
X002794Y006604D01*
X002912Y006555D01*
X004190Y006555D01*
X004190Y006492D01*
X004307Y006375D01*
X005073Y006375D01*
X005190Y006492D01*
X005190Y007258D01*
X005073Y007375D01*
X004307Y007375D01*
X004190Y007258D01*
X004190Y007195D01*
X003158Y007195D01*
X003158Y009705D01*
X003189Y009705D01*
X003189Y009646D01*
X003214Y009621D01*
X003189Y009596D01*
X003189Y008839D01*
X003286Y008743D01*
X003286Y008091D01*
X003334Y007973D01*
X003670Y007637D01*
X003788Y007588D01*
X004770Y007588D01*
X004907Y007451D01*
X005091Y007375D01*
X005290Y007375D01*
X005473Y007451D01*
X005614Y007592D01*
X005690Y007776D01*
X005766Y007592D01*
X005907Y007451D01*
X006091Y007375D01*
X006290Y007375D01*
X006473Y007451D01*
X006498Y007476D01*
X006504Y007462D01*
X006574Y007391D01*
X006591Y007375D01*
X006407Y007299D01*
X006266Y007158D01*
X006190Y006974D01*
X006114Y007158D01*
X005973Y007299D01*
X005790Y007375D01*
X005591Y007375D01*
X005407Y007299D01*
X005266Y007158D01*
X005190Y006974D01*
X005190Y006776D01*
X005266Y006592D01*
X005407Y006451D01*
X005478Y006422D01*
X005478Y006420D01*
X005697Y006202D01*
X005767Y006132D01*
X005859Y006094D01*
X009186Y006094D01*
X009007Y005914D01*
X008903Y005662D01*
X008903Y005388D01*
X008950Y005274D01*
X008875Y005305D01*
X008505Y005305D01*
X008163Y005163D01*
X007902Y004902D01*
X007760Y004560D01*
X007760Y004190D01*
X007866Y003935D01*
X007803Y003998D01*
X007609Y004078D01*
X007398Y004078D01*
X007203Y003998D01*
X007054Y003848D01*
X006973Y003654D01*
X006973Y003443D01*
X007054Y003248D01*
X007490Y002812D01*
X007490Y002316D01*
X007574Y002113D01*
X007660Y002028D01*
X005150Y002028D01*
X005264Y002142D01*
X005340Y002326D01*
X005340Y002524D01*
X005264Y002708D01*
X005123Y002849D01*
X004940Y002925D01*
X004741Y002925D01*
X004557Y002849D01*
X004416Y002708D01*
X004340Y002524D01*
X004264Y002708D01*
X004123Y002849D01*
X003940Y002925D01*
X003741Y002925D01*
X003557Y002849D01*
X003416Y002708D01*
X003340Y002524D01*
X003340Y002326D01*
X003416Y002142D01*
X003531Y002028D01*
X002250Y002028D01*
X002300Y002078D01*
X002300Y002467D01*
X002025Y002743D01*
X001635Y002743D01*
X001360Y002467D01*
X001360Y002078D01*
X001410Y002028D01*
X001237Y002028D01*
X001300Y002179D01*
X001300Y002366D01*
X001228Y002539D01*
X001096Y002671D01*
X000923Y002743D01*
X000737Y002743D01*
X000569Y002673D01*
X000569Y002827D02*
X000611Y002827D01*
X001049Y002827D02*
X001611Y002827D01*
X001635Y002803D02*
X002025Y002803D01*
X002300Y003078D01*
X002300Y003467D01*
X002025Y003743D01*
X001635Y003743D01*
X001360Y003467D01*
X001360Y003078D01*
X001635Y002803D01*
X001561Y002669D02*
X001099Y002669D01*
X001240Y002510D02*
X001403Y002510D01*
X001360Y002352D02*
X001300Y002352D01*
X001300Y002193D02*
X001360Y002193D01*
X001403Y002035D02*
X001240Y002035D01*
X001208Y002986D02*
X001452Y002986D01*
X001360Y003144D02*
X001300Y003144D01*
X001300Y003303D02*
X001360Y003303D01*
X001360Y003461D02*
X001300Y003461D01*
X001148Y003620D02*
X001512Y003620D01*
X001635Y003803D02*
X002025Y003803D01*
X002300Y004078D01*
X002300Y004467D01*
X002025Y004743D01*
X001635Y004743D01*
X001360Y004467D01*
X001360Y004078D01*
X001635Y003803D01*
X001501Y003937D02*
X001159Y003937D01*
X001300Y004095D02*
X001360Y004095D01*
X001360Y004254D02*
X001300Y004254D01*
X001300Y004412D02*
X001360Y004412D01*
X001463Y004571D02*
X001197Y004571D01*
X001038Y004729D02*
X001622Y004729D01*
X001635Y004803D02*
X002025Y004803D01*
X002300Y005078D01*
X002300Y005467D01*
X002025Y005743D01*
X001635Y005743D01*
X001360Y005467D01*
X001360Y005078D01*
X001635Y004803D01*
X001550Y004888D02*
X001110Y004888D01*
X001268Y005046D02*
X001392Y005046D01*
X001360Y005205D02*
X001300Y005205D01*
X001300Y005363D02*
X001360Y005363D01*
X001414Y005522D02*
X001246Y005522D01*
X001087Y005680D02*
X001573Y005680D01*
X001635Y005803D02*
X002025Y005803D01*
X002300Y006078D01*
X002300Y006467D01*
X002025Y006743D01*
X001635Y006743D01*
X001360Y006467D01*
X001360Y006078D01*
X001635Y005803D01*
X001599Y005839D02*
X001061Y005839D01*
X001219Y005997D02*
X001441Y005997D01*
X001360Y006156D02*
X001300Y006156D01*
X001300Y006314D02*
X001360Y006314D01*
X001365Y006473D02*
X001295Y006473D01*
X001136Y006631D02*
X001524Y006631D01*
X001635Y006803D02*
X002025Y006803D01*
X002300Y007078D01*
X002300Y007467D01*
X002025Y007743D01*
X001635Y007743D01*
X001360Y007467D01*
X001360Y007078D01*
X001635Y006803D01*
X001490Y006948D02*
X001170Y006948D01*
X001300Y007107D02*
X001360Y007107D01*
X001360Y007265D02*
X001300Y007265D01*
X001300Y007424D02*
X001360Y007424D01*
X001475Y007582D02*
X001185Y007582D01*
X001027Y007741D02*
X001633Y007741D01*
X001635Y007803D02*
X002025Y007803D01*
X002300Y008078D01*
X002300Y008467D01*
X002025Y008743D01*
X001635Y008743D01*
X001360Y008467D01*
X001360Y008078D01*
X001635Y007803D01*
X001539Y007899D02*
X001121Y007899D01*
X001280Y008058D02*
X001380Y008058D01*
X001360Y008216D02*
X001300Y008216D01*
X001300Y008375D02*
X001360Y008375D01*
X001426Y008533D02*
X001234Y008533D01*
X001076Y008692D02*
X001584Y008692D01*
X001635Y008803D02*
X002025Y008803D01*
X002300Y009078D01*
X002300Y009467D01*
X002025Y009743D01*
X001635Y009743D01*
X001360Y009467D01*
X001360Y009078D01*
X001635Y008803D01*
X001588Y008850D02*
X001072Y008850D01*
X001231Y009009D02*
X001429Y009009D01*
X001360Y009167D02*
X001300Y009167D01*
X001300Y009326D02*
X001360Y009326D01*
X001377Y009484D02*
X001283Y009484D01*
X001125Y009643D02*
X001535Y009643D01*
X001635Y009803D02*
X002025Y009803D01*
X002300Y010078D01*
X002300Y010467D01*
X002025Y010743D01*
X001635Y010743D01*
X001360Y010467D01*
X001360Y010078D01*
X001635Y009803D01*
X001478Y009960D02*
X001182Y009960D01*
X001300Y010118D02*
X001360Y010118D01*
X001360Y010277D02*
X001300Y010277D01*
X001300Y010435D02*
X001360Y010435D01*
X001486Y010594D02*
X001174Y010594D01*
X001133Y010911D02*
X001527Y010911D01*
X001369Y011069D02*
X001291Y011069D01*
X001300Y011228D02*
X001360Y011228D01*
X001360Y011386D02*
X001300Y011386D01*
X001567Y011703D02*
X001596Y011703D01*
X001572Y011862D02*
X001576Y011862D01*
X002084Y011862D02*
X003345Y011862D01*
X003421Y011703D02*
X002064Y011703D01*
X002223Y011545D02*
X003579Y011545D01*
X003743Y011777D02*
X003625Y011895D01*
X003625Y013066D01*
X003075Y013130D02*
X002300Y013130D01*
X002300Y013288D02*
X003075Y013288D01*
X003075Y013447D02*
X002300Y013447D01*
X002162Y013605D02*
X003075Y013605D01*
X003075Y013764D02*
X001572Y013764D01*
X001072Y013764D02*
X000569Y013764D01*
X000635Y013743D02*
X000569Y013676D01*
X000569Y013869D01*
X000635Y013803D01*
X001025Y013803D01*
X001072Y013850D01*
X001072Y013695D01*
X001025Y013743D01*
X000635Y013743D01*
X000569Y012869D02*
X000635Y012803D01*
X001025Y012803D01*
X001072Y012850D01*
X001072Y012695D01*
X001025Y012743D01*
X000635Y012743D01*
X000569Y012676D01*
X000569Y012869D01*
X000569Y012813D02*
X000625Y012813D01*
X001035Y012813D02*
X001072Y012813D01*
X001572Y012813D02*
X001625Y012813D01*
X002035Y012813D02*
X003075Y012813D01*
X003075Y012971D02*
X002193Y012971D01*
X002113Y012654D02*
X003075Y012654D01*
X003075Y012496D02*
X002272Y012496D01*
X002300Y012337D02*
X003075Y012337D01*
X003075Y012179D02*
X002300Y012179D01*
X002242Y012020D02*
X003075Y012020D01*
X003743Y011777D02*
X004984Y011777D01*
X004528Y012057D02*
X004528Y012155D01*
X004645Y012272D01*
X005322Y012272D01*
X005358Y012237D01*
X005393Y012272D01*
X005490Y012272D01*
X005490Y012355D01*
X005481Y012364D01*
X005422Y012506D01*
X005422Y012519D01*
X005125Y012817D01*
X004979Y012817D01*
X004862Y012934D01*
X004862Y013690D01*
X004907Y013735D01*
X004882Y013761D01*
X004882Y014351D01*
X003871Y014351D01*
X003866Y014346D01*
X003866Y014266D01*
X004058Y014266D01*
X004175Y014148D01*
X004175Y012057D01*
X004528Y012057D01*
X004551Y012179D02*
X004175Y012179D01*
X004175Y012337D02*
X005490Y012337D01*
X005427Y012496D02*
X004175Y012496D01*
X004175Y012654D02*
X005287Y012654D01*
X005129Y012813D02*
X004175Y012813D01*
X004175Y012971D02*
X004862Y012971D01*
X004862Y013130D02*
X004175Y013130D01*
X004175Y013288D02*
X004862Y013288D01*
X004862Y013447D02*
X004175Y013447D01*
X004175Y013605D02*
X004862Y013605D01*
X004882Y013764D02*
X004175Y013764D01*
X004175Y013922D02*
X004882Y013922D01*
X004882Y014081D02*
X004175Y014081D01*
X004085Y014239D02*
X004882Y014239D01*
X004902Y015166D02*
X003890Y015166D01*
X003885Y015172D01*
X003885Y015666D01*
X004058Y015666D01*
X004175Y015783D01*
X004175Y017794D01*
X004231Y017738D01*
X004909Y017738D01*
X004944Y017773D01*
X004979Y017738D01*
X004998Y017738D01*
X004998Y017704D01*
X004902Y017607D01*
X004902Y016851D01*
X005019Y016734D01*
X005038Y016734D01*
X005038Y016701D01*
X005019Y016701D01*
X004902Y016584D01*
X004902Y015828D01*
X004927Y015802D01*
X004902Y015777D01*
X004902Y015166D01*
X004902Y015190D02*
X003885Y015190D01*
X003885Y015349D02*
X004902Y015349D01*
X004902Y015507D02*
X003885Y015507D01*
X003885Y015666D02*
X004902Y015666D01*
X004905Y015824D02*
X004175Y015824D01*
X004175Y015983D02*
X004902Y015983D01*
X004902Y016141D02*
X004175Y016141D01*
X004175Y016300D02*
X004902Y016300D01*
X004902Y016458D02*
X004175Y016458D01*
X004175Y016617D02*
X004934Y016617D01*
X004978Y016775D02*
X004175Y016775D01*
X004175Y016934D02*
X004902Y016934D01*
X004902Y017092D02*
X004175Y017092D01*
X004175Y017251D02*
X004902Y017251D01*
X004902Y017409D02*
X004175Y017409D01*
X004175Y017568D02*
X004902Y017568D01*
X004998Y017726D02*
X004175Y017726D01*
X004570Y018233D02*
X003743Y018233D01*
X003645Y018135D01*
X003645Y016885D01*
X003075Y016934D02*
X002156Y016934D01*
X002300Y017092D02*
X003075Y017092D01*
X003075Y017251D02*
X002300Y017251D01*
X002300Y017409D02*
X003075Y017409D01*
X003075Y017568D02*
X002200Y017568D01*
X002041Y017726D02*
X003075Y017726D01*
X003075Y017885D02*
X002107Y017885D01*
X002265Y018043D02*
X003170Y018043D01*
X003370Y018202D02*
X002300Y018202D01*
X002300Y018360D02*
X003474Y018360D01*
X002889Y018994D02*
X005956Y018994D01*
X005956Y019153D02*
X005454Y019153D01*
X005447Y019148D02*
X005488Y019172D01*
X005521Y019205D01*
X005545Y019246D01*
X005557Y019292D01*
X005557Y019524D01*
X005130Y019524D01*
X005130Y019136D01*
X005401Y019136D01*
X005447Y019148D01*
X005557Y019311D02*
X005956Y019311D01*
X005956Y019470D02*
X005557Y019470D01*
X005557Y019628D02*
X005956Y019628D01*
X005557Y019787D02*
X009336Y019787D01*
X009359Y019945D02*
X005541Y019945D01*
X005577Y020104D02*
X009233Y020104D01*
X009134Y020262D02*
X007516Y020262D01*
X007516Y020421D02*
X009041Y020421D01*
X008914Y020579D02*
X007516Y020579D01*
X007516Y020738D02*
X008853Y020738D01*
X008853Y020896D02*
X007516Y020896D01*
X007516Y019628D02*
X009369Y019628D01*
X009478Y019470D02*
X007516Y019470D01*
X007516Y019311D02*
X011003Y019311D01*
X010989Y019153D02*
X007516Y019153D01*
X007516Y018994D02*
X010934Y018994D01*
X010946Y018836D02*
X006486Y018836D01*
X006543Y018677D02*
X011038Y018677D01*
X011283Y018981D02*
X011283Y019779D01*
X011563Y019311D02*
X014360Y019311D01*
X014360Y019467D02*
X014360Y019078D01*
X014635Y018803D01*
X015025Y018803D01*
X015300Y019078D01*
X015300Y019467D01*
X015025Y019743D01*
X014635Y019743D01*
X014360Y019467D01*
X014362Y019470D02*
X012064Y019470D01*
X012173Y019628D02*
X014521Y019628D01*
X014471Y020097D02*
X014471Y020097D01*
X014467Y020104D02*
X012088Y020104D01*
X012183Y019945D02*
X015339Y019945D01*
X015281Y019988D02*
X015281Y019988D01*
X015277Y019992D02*
X015277Y019992D01*
X015269Y020000D02*
X015269Y020000D01*
X015165Y020104D02*
X014932Y020104D01*
X014856Y020047D02*
X014856Y020047D01*
X015139Y019628D02*
X015521Y019628D01*
X015362Y019470D02*
X015298Y019470D01*
X015300Y019311D02*
X015360Y019311D01*
X015360Y019153D02*
X015300Y019153D01*
X015216Y018994D02*
X015444Y018994D01*
X015602Y018836D02*
X015058Y018836D01*
X015025Y018743D02*
X014635Y018743D01*
X014360Y018467D01*
X014360Y018078D01*
X014635Y017803D01*
X015025Y017803D01*
X015300Y018078D01*
X015300Y018467D01*
X015025Y018743D01*
X015090Y018677D02*
X015570Y018677D01*
X015411Y018519D02*
X015249Y018519D01*
X015300Y018360D02*
X015360Y018360D01*
X015360Y018202D02*
X015300Y018202D01*
X015265Y018043D02*
X015395Y018043D01*
X015553Y017885D02*
X015107Y017885D01*
X015025Y017743D02*
X014635Y017743D01*
X014360Y017467D01*
X014360Y017078D01*
X014635Y016803D01*
X015025Y016803D01*
X015300Y017078D01*
X015300Y017467D01*
X015025Y017743D01*
X015041Y017726D02*
X015619Y017726D01*
X015460Y017568D02*
X015200Y017568D01*
X015300Y017409D02*
X015360Y017409D01*
X015360Y017251D02*
X015300Y017251D01*
X015300Y017092D02*
X015360Y017092D01*
X015504Y016934D02*
X015156Y016934D01*
X015025Y016743D02*
X014635Y016743D01*
X014360Y016467D01*
X014360Y016078D01*
X014635Y015803D01*
X015025Y015803D01*
X015300Y016078D01*
X015300Y016467D01*
X015025Y016743D01*
X015151Y016617D02*
X015509Y016617D01*
X015360Y016458D02*
X015300Y016458D01*
X015300Y016300D02*
X015360Y016300D01*
X015360Y016141D02*
X015300Y016141D01*
X015205Y015983D02*
X015455Y015983D01*
X015614Y015824D02*
X015046Y015824D01*
X015025Y015743D02*
X014635Y015743D01*
X014360Y015467D01*
X014360Y015078D01*
X014635Y014803D01*
X015025Y014803D01*
X015300Y015078D01*
X015300Y015467D01*
X015025Y015743D01*
X015102Y015666D02*
X015558Y015666D01*
X015400Y015507D02*
X015260Y015507D01*
X015300Y015349D02*
X015360Y015349D01*
X015360Y015190D02*
X015300Y015190D01*
X015254Y015032D02*
X015406Y015032D01*
X015565Y014873D02*
X015095Y014873D01*
X015025Y014743D02*
X014635Y014743D01*
X014360Y014467D01*
X014360Y014078D01*
X014635Y013803D01*
X015025Y013803D01*
X015300Y014078D01*
X015300Y014467D01*
X015025Y014743D01*
X015053Y014715D02*
X015607Y014715D01*
X015449Y014556D02*
X015211Y014556D01*
X015300Y014398D02*
X015360Y014398D01*
X015360Y014239D02*
X015300Y014239D01*
X015300Y014081D02*
X015360Y014081D01*
X015516Y013922D02*
X015144Y013922D01*
X015025Y013743D02*
X014635Y013743D01*
X014360Y013467D01*
X014360Y013078D01*
X014635Y012803D01*
X015025Y012803D01*
X015300Y013078D01*
X015300Y013467D01*
X015025Y013743D01*
X015162Y013605D02*
X015498Y013605D01*
X015360Y013447D02*
X015300Y013447D01*
X015300Y013288D02*
X015360Y013288D01*
X015360Y013130D02*
X015300Y013130D01*
X015193Y012971D02*
X015467Y012971D01*
X015625Y012813D02*
X015035Y012813D01*
X015025Y012743D02*
X014635Y012743D01*
X014360Y012467D01*
X014360Y012078D01*
X014635Y011803D01*
X015025Y011803D01*
X015300Y012078D01*
X015300Y012467D01*
X015025Y012743D01*
X015113Y012654D02*
X015547Y012654D01*
X015388Y012496D02*
X015272Y012496D01*
X015300Y012337D02*
X015360Y012337D01*
X015360Y012179D02*
X015300Y012179D01*
X015242Y012020D02*
X015418Y012020D01*
X015576Y011862D02*
X015084Y011862D01*
X015025Y011743D02*
X014635Y011743D01*
X014360Y011467D01*
X014360Y011078D01*
X014635Y010803D01*
X015025Y010803D01*
X015300Y011078D01*
X015300Y011467D01*
X015025Y011743D01*
X015064Y011703D02*
X015596Y011703D01*
X015437Y011545D02*
X015223Y011545D01*
X015300Y011386D02*
X015360Y011386D01*
X015360Y011228D02*
X015300Y011228D01*
X015291Y011069D02*
X015369Y011069D01*
X015527Y010911D02*
X015133Y010911D01*
X015025Y010743D02*
X014635Y010743D01*
X014360Y010467D01*
X014360Y010078D01*
X014635Y009803D01*
X015025Y009803D01*
X015300Y010078D01*
X015300Y010467D01*
X015025Y010743D01*
X015174Y010594D02*
X015486Y010594D01*
X015360Y010435D02*
X015300Y010435D01*
X015300Y010277D02*
X015360Y010277D01*
X015360Y010118D02*
X015300Y010118D01*
X015182Y009960D02*
X015478Y009960D01*
X015535Y009643D02*
X015125Y009643D01*
X015025Y009743D02*
X014635Y009743D01*
X014360Y009467D01*
X014360Y009078D01*
X014635Y008803D01*
X015025Y008803D01*
X015300Y009078D01*
X015300Y009467D01*
X015025Y009743D01*
X015283Y009484D02*
X015377Y009484D01*
X015360Y009326D02*
X015300Y009326D01*
X015300Y009167D02*
X015360Y009167D01*
X015429Y009009D02*
X015231Y009009D01*
X015072Y008850D02*
X015588Y008850D01*
X015584Y008692D02*
X015076Y008692D01*
X015234Y008533D02*
X015426Y008533D01*
X015360Y008375D02*
X015300Y008375D01*
X015300Y008216D02*
X015360Y008216D01*
X015380Y008058D02*
X015280Y008058D01*
X015121Y007899D02*
X015539Y007899D01*
X015633Y007741D02*
X015027Y007741D01*
X015025Y007743D02*
X014635Y007743D01*
X014360Y007467D01*
X014360Y007078D01*
X014635Y006803D01*
X015025Y006803D01*
X015300Y007078D01*
X015300Y007467D01*
X015025Y007743D01*
X015185Y007582D02*
X015475Y007582D01*
X015360Y007424D02*
X015300Y007424D01*
X015300Y007265D02*
X015360Y007265D01*
X015360Y007107D02*
X015300Y007107D01*
X015170Y006948D02*
X015490Y006948D01*
X015524Y006631D02*
X015136Y006631D01*
X015295Y006473D02*
X015365Y006473D01*
X015360Y006314D02*
X015300Y006314D01*
X015300Y006156D02*
X015360Y006156D01*
X015741Y005803D02*
X015681Y005743D01*
X016025Y005743D01*
X016091Y005676D01*
X016091Y005869D01*
X016025Y005803D01*
X015741Y005803D01*
X016061Y005839D02*
X016091Y005839D01*
X016087Y005680D02*
X016091Y005680D01*
X016091Y004869D02*
X016091Y004676D01*
X016025Y004743D01*
X015654Y004743D01*
X015714Y004803D01*
X016025Y004803D01*
X016091Y004869D01*
X016091Y004729D02*
X016038Y004729D01*
X015397Y004505D02*
X015360Y004467D01*
X015360Y004078D01*
X015635Y003803D01*
X016025Y003803D01*
X016091Y003869D01*
X016091Y003676D01*
X016025Y003743D01*
X015635Y003743D01*
X015360Y003467D01*
X015360Y003078D01*
X015635Y002803D01*
X016025Y002803D01*
X016091Y002869D01*
X016091Y002676D01*
X016025Y002743D01*
X015635Y002743D01*
X015360Y002467D01*
X015360Y002078D01*
X015410Y002028D01*
X015237Y002028D01*
X015300Y002179D01*
X015300Y002366D01*
X015228Y002539D01*
X015096Y002671D01*
X014923Y002743D01*
X014737Y002743D01*
X014564Y002671D01*
X014432Y002539D01*
X014360Y002366D01*
X014360Y002179D01*
X014423Y002028D01*
X009350Y002028D01*
X009464Y002142D01*
X009478Y002175D01*
X010938Y002175D01*
X011029Y002213D01*
X012330Y003513D01*
X012400Y003584D01*
X012438Y003676D01*
X012438Y008992D01*
X012400Y009084D01*
X011278Y010206D01*
X011208Y010276D01*
X011120Y010312D01*
X011247Y010365D01*
X011356Y010474D01*
X011415Y010617D01*
X011415Y010771D01*
X011356Y010914D01*
X011247Y011023D01*
X011104Y011082D01*
X010950Y011082D01*
X010901Y011062D01*
X010459Y011062D01*
X010459Y011269D01*
X010342Y011386D01*
X009664Y011386D01*
X009629Y011351D01*
X009594Y011386D01*
X009289Y011386D01*
X009289Y011519D01*
X009261Y011586D01*
X010807Y011586D01*
X010886Y011507D01*
X011028Y011448D01*
X011183Y011448D01*
X011325Y011507D01*
X011435Y011616D01*
X011476Y011717D01*
X011476Y011241D01*
X011512Y011206D01*
X011476Y011170D01*
X011476Y010493D01*
X011594Y010376D01*
X011722Y010376D01*
X011722Y010329D01*
X011741Y010282D01*
X011741Y010144D01*
X011800Y010002D01*
X011909Y009892D01*
X012052Y009833D01*
X012206Y009833D01*
X012349Y009892D01*
X012458Y010002D01*
X012517Y010144D01*
X012517Y010299D01*
X012458Y010441D01*
X012437Y010463D01*
X012467Y010493D01*
X012467Y011170D01*
X012432Y011206D01*
X012467Y011241D01*
X012467Y011918D01*
X012350Y012036D01*
X012145Y012036D01*
X012113Y012067D01*
X011864Y012317D01*
X012285Y012317D01*
X012402Y012434D01*
X012402Y013600D01*
X012285Y013717D01*
X012112Y013717D01*
X011851Y013977D01*
X011880Y013977D01*
X011890Y013967D01*
X012032Y013908D01*
X012187Y013908D01*
X012329Y013967D01*
X012439Y014076D01*
X012476Y014167D01*
X012686Y013956D01*
X012686Y005270D01*
X012724Y005178D01*
X012795Y005108D01*
X013315Y004588D01*
X013315Y004588D01*
X013385Y004517D01*
X013477Y004479D01*
X014372Y004479D01*
X014360Y004467D01*
X014360Y004078D01*
X014635Y003803D01*
X015025Y003803D01*
X015300Y004078D01*
X015300Y004467D01*
X015288Y004479D01*
X015336Y004479D01*
X015397Y004505D01*
X015360Y004412D02*
X015300Y004412D01*
X015300Y004254D02*
X015360Y004254D01*
X015360Y004095D02*
X015300Y004095D01*
X015159Y003937D02*
X015501Y003937D01*
X015512Y003620D02*
X015148Y003620D01*
X015025Y003743D02*
X014635Y003743D01*
X014360Y003467D01*
X014360Y003078D01*
X014635Y002803D01*
X015025Y002803D01*
X015300Y003078D01*
X015300Y003467D01*
X015025Y003743D01*
X015300Y003461D02*
X015360Y003461D01*
X015360Y003303D02*
X015300Y003303D01*
X015300Y003144D02*
X015360Y003144D01*
X015452Y002986D02*
X015208Y002986D01*
X015049Y002827D02*
X015611Y002827D01*
X015561Y002669D02*
X015099Y002669D01*
X015240Y002510D02*
X015403Y002510D01*
X015360Y002352D02*
X015300Y002352D01*
X015300Y002193D02*
X015360Y002193D01*
X015403Y002035D02*
X015240Y002035D01*
X014561Y002669D02*
X011485Y002669D01*
X011643Y002827D02*
X014611Y002827D01*
X014452Y002986D02*
X011802Y002986D01*
X011960Y003144D02*
X014360Y003144D01*
X014360Y003303D02*
X012119Y003303D01*
X012277Y003461D02*
X014360Y003461D01*
X014512Y003620D02*
X012415Y003620D01*
X012438Y003778D02*
X016091Y003778D01*
X016049Y002827D02*
X016091Y002827D01*
X014501Y003937D02*
X012438Y003937D01*
X012438Y004095D02*
X014360Y004095D01*
X014360Y004254D02*
X012438Y004254D01*
X012438Y004412D02*
X014360Y004412D01*
X014459Y004979D02*
X014407Y005031D01*
X013579Y005031D01*
X013630Y004979D01*
X014459Y004979D01*
X014423Y005531D02*
X013630Y005531D01*
X013607Y005554D01*
X013635Y005542D01*
X014435Y005542D01*
X014423Y005531D01*
X015225Y005542D02*
X015300Y005467D01*
X015300Y005096D01*
X015360Y005156D01*
X015360Y005467D01*
X015441Y005548D01*
X015427Y005542D01*
X015225Y005542D01*
X015246Y005522D02*
X015414Y005522D01*
X015360Y005363D02*
X015300Y005363D01*
X015300Y005205D02*
X015360Y005205D01*
X014524Y006631D02*
X013829Y006631D01*
X013816Y006790D02*
X016091Y006790D01*
X016091Y007741D02*
X016027Y007741D01*
X016076Y008692D02*
X016091Y008692D01*
X016091Y008850D02*
X016072Y008850D01*
X016091Y009801D02*
X014033Y009801D01*
X014033Y009643D02*
X014535Y009643D01*
X014377Y009484D02*
X014033Y009484D01*
X014033Y009326D02*
X014360Y009326D01*
X014360Y009167D02*
X014033Y009167D01*
X014033Y009009D02*
X014429Y009009D01*
X014588Y008850D02*
X014033Y008850D01*
X014052Y008692D02*
X014584Y008692D01*
X014426Y008533D02*
X014211Y008533D01*
X013983Y008058D02*
X013816Y008058D01*
X013816Y008216D02*
X013820Y008216D01*
X013816Y007899D02*
X014539Y007899D01*
X014633Y007741D02*
X013816Y007741D01*
X013816Y007582D02*
X014475Y007582D01*
X014360Y007424D02*
X013816Y007424D01*
X013816Y007265D02*
X014360Y007265D01*
X014360Y007107D02*
X013816Y007107D01*
X013816Y006948D02*
X014490Y006948D01*
X012857Y005046D02*
X012438Y005046D01*
X012438Y004888D02*
X013015Y004888D01*
X013174Y004729D02*
X012438Y004729D01*
X012438Y004571D02*
X013332Y004571D01*
X012795Y005108D02*
X012795Y005108D01*
X012713Y005205D02*
X012438Y005205D01*
X012438Y005363D02*
X012686Y005363D01*
X012686Y005522D02*
X012438Y005522D01*
X012438Y005680D02*
X012686Y005680D01*
X012686Y005839D02*
X012438Y005839D01*
X012438Y005997D02*
X012686Y005997D01*
X012686Y006156D02*
X012438Y006156D01*
X012438Y006314D02*
X012686Y006314D01*
X012686Y006473D02*
X012438Y006473D01*
X012438Y006631D02*
X012686Y006631D01*
X012686Y006790D02*
X012438Y006790D01*
X012438Y006948D02*
X012686Y006948D01*
X012686Y007107D02*
X012438Y007107D01*
X012438Y007265D02*
X012686Y007265D01*
X012686Y007424D02*
X012438Y007424D01*
X012438Y007582D02*
X012686Y007582D01*
X012686Y007741D02*
X012438Y007741D01*
X012438Y007899D02*
X012686Y007899D01*
X012686Y008058D02*
X012438Y008058D01*
X012438Y008216D02*
X012686Y008216D01*
X012686Y008375D02*
X012438Y008375D01*
X012438Y008533D02*
X012686Y008533D01*
X012686Y008692D02*
X012438Y008692D01*
X012438Y008850D02*
X012686Y008850D01*
X012686Y009009D02*
X012431Y009009D01*
X012317Y009167D02*
X012686Y009167D01*
X012686Y009326D02*
X012158Y009326D01*
X012000Y009484D02*
X012686Y009484D01*
X012686Y009643D02*
X011841Y009643D01*
X011683Y009801D02*
X012686Y009801D01*
X012686Y009960D02*
X012416Y009960D01*
X012506Y010118D02*
X012686Y010118D01*
X012686Y010277D02*
X012517Y010277D01*
X012461Y010435D02*
X012686Y010435D01*
X012686Y010594D02*
X012467Y010594D01*
X012467Y010752D02*
X012686Y010752D01*
X012686Y010911D02*
X012467Y010911D01*
X012467Y011069D02*
X012686Y011069D01*
X012686Y011228D02*
X012454Y011228D01*
X012467Y011386D02*
X012686Y011386D01*
X012686Y011545D02*
X012467Y011545D01*
X012467Y011703D02*
X012686Y011703D01*
X012686Y011862D02*
X012467Y011862D01*
X012365Y012020D02*
X012686Y012020D01*
X012686Y012179D02*
X012002Y012179D01*
X012113Y012067D02*
X012113Y012067D01*
X012305Y012337D02*
X012686Y012337D01*
X012686Y012496D02*
X012402Y012496D01*
X012402Y012654D02*
X012686Y012654D01*
X012686Y012813D02*
X012402Y012813D01*
X012402Y012971D02*
X012686Y012971D01*
X012686Y013130D02*
X012402Y013130D01*
X012402Y013288D02*
X012686Y013288D01*
X012686Y013447D02*
X012402Y013447D01*
X012397Y013605D02*
X012686Y013605D01*
X012686Y013764D02*
X012065Y013764D01*
X011999Y013922D02*
X011907Y013922D01*
X012220Y013922D02*
X012686Y013922D01*
X012562Y014081D02*
X012440Y014081D01*
X011764Y014477D02*
X011111Y014477D01*
X011111Y014489D01*
X011769Y014489D01*
X011764Y014477D01*
X011382Y013711D02*
X011502Y013591D01*
X011502Y013584D01*
X011415Y013672D01*
X011323Y013710D01*
X011111Y013710D01*
X011111Y013711D01*
X011382Y013711D01*
X011481Y013605D02*
X011488Y013605D01*
X011151Y013130D02*
X009968Y013130D01*
X009982Y013288D02*
X010181Y013288D01*
X010054Y012971D02*
X011151Y012971D01*
X011151Y012813D02*
X010076Y012813D01*
X010032Y012654D02*
X011151Y012654D01*
X011151Y012496D02*
X009872Y012496D01*
X009505Y012496D02*
X008574Y012496D01*
X008620Y012654D02*
X009345Y012654D01*
X009300Y012813D02*
X008688Y012813D01*
X008688Y012971D02*
X009323Y012971D01*
X009408Y013130D02*
X008688Y013130D01*
X008688Y013288D02*
X009408Y013288D01*
X009408Y013447D02*
X009052Y013447D01*
X009238Y013605D02*
X009507Y013605D01*
X009665Y013764D02*
X009289Y013764D01*
X009688Y013391D02*
X009688Y012840D01*
X009688Y013391D02*
X010013Y013716D01*
X010636Y013716D01*
X010161Y013996D02*
X009957Y013996D01*
X009854Y013953D01*
X010161Y013996D02*
X010161Y015759D01*
X008212Y015759D01*
X008212Y015671D01*
X008202Y015635D01*
X008212Y015599D01*
X008212Y015507D01*
X008127Y015507D01*
X008127Y015507D01*
X008212Y015507D01*
X008210Y015666D02*
X010161Y015666D01*
X010161Y016300D02*
X009151Y016300D01*
X009310Y016458D02*
X010161Y016458D01*
X010161Y016617D02*
X009407Y016617D01*
X009407Y016775D02*
X010161Y016775D01*
X010161Y016934D02*
X009407Y016934D01*
X009407Y017092D02*
X010865Y017092D01*
X010865Y017251D02*
X009407Y017251D01*
X009407Y017409D02*
X010865Y017409D01*
X010865Y017568D02*
X009407Y017568D01*
X009407Y017726D02*
X010939Y017726D01*
X011385Y017363D02*
X011385Y017152D01*
X011437Y017204D01*
X011580Y017263D01*
X011734Y017263D01*
X011877Y017204D01*
X011986Y017095D01*
X012045Y016952D01*
X012045Y016804D01*
X012198Y016958D01*
X012284Y016993D01*
X012284Y017115D01*
X012348Y017180D01*
X012284Y017245D01*
X012284Y017363D01*
X011385Y017363D01*
X011385Y017251D02*
X011549Y017251D01*
X011764Y017251D02*
X012284Y017251D01*
X012284Y017092D02*
X011987Y017092D01*
X012045Y016934D02*
X012174Y016934D01*
X012309Y016333D02*
X012401Y016242D01*
X012463Y016242D01*
X012362Y016200D01*
X012253Y016091D01*
X012194Y015948D01*
X012194Y015794D01*
X012209Y015757D01*
X011733Y015757D01*
X012309Y016333D01*
X012276Y016300D02*
X012343Y016300D01*
X012303Y016141D02*
X012117Y016141D01*
X012208Y015983D02*
X011959Y015983D01*
X011800Y015824D02*
X012194Y015824D01*
X011693Y016452D02*
X011678Y016487D01*
X011728Y016487D01*
X011693Y016452D01*
X011690Y016458D02*
X011699Y016458D01*
X012284Y017885D02*
X009407Y017885D01*
X009384Y018043D02*
X012325Y018043D01*
X011606Y018677D02*
X013205Y018677D01*
X013078Y018519D02*
X008741Y018519D01*
X008470Y018519D02*
X006572Y018519D01*
X006535Y018360D02*
X008271Y018360D01*
X008217Y018202D02*
X006406Y018202D01*
X005962Y018202D02*
X005774Y018202D01*
X005774Y018043D02*
X008232Y018043D01*
X008327Y017885D02*
X005774Y017885D01*
X005638Y017726D02*
X008331Y017726D01*
X008202Y017568D02*
X006536Y017568D01*
X006541Y017409D02*
X008109Y017409D01*
X008109Y017251D02*
X006154Y017251D01*
X006154Y017181D02*
X006541Y017181D01*
X006541Y016910D01*
X006529Y016865D01*
X006506Y016824D01*
X006472Y016790D01*
X006431Y016766D01*
X006385Y016754D01*
X006154Y016754D01*
X006154Y017181D01*
X006154Y017092D02*
X006058Y017092D01*
X006058Y016934D02*
X006154Y016934D01*
X006154Y016775D02*
X006058Y016775D01*
X006058Y016617D02*
X006154Y016617D01*
X006154Y016458D02*
X006058Y016458D01*
X006058Y016300D02*
X006154Y016300D01*
X006154Y016158D02*
X006154Y015730D01*
X006154Y015447D01*
X006058Y015447D01*
X006058Y016158D01*
X006154Y016158D01*
X006154Y016141D02*
X006058Y016141D01*
X006058Y015983D02*
X006154Y015983D01*
X006154Y015824D02*
X006058Y015824D01*
X006058Y015666D02*
X006154Y015666D01*
X006154Y015507D02*
X006058Y015507D01*
X006541Y015507D02*
X006807Y015507D01*
X006680Y015349D02*
X006541Y015349D01*
X006541Y015190D02*
X006643Y015190D01*
X006541Y015666D02*
X007303Y015666D01*
X007104Y015824D02*
X006519Y015824D01*
X006541Y015983D02*
X006781Y015983D01*
X006627Y016141D02*
X006541Y016141D01*
X006541Y016300D02*
X006584Y016300D01*
X006607Y016458D02*
X006541Y016458D01*
X006500Y016617D02*
X006716Y016617D01*
X006541Y016934D02*
X007319Y016934D01*
X007302Y016786D02*
X007386Y016786D01*
X007302Y016786D01*
X007302Y016775D02*
X006446Y016775D01*
X006541Y017092D02*
X008109Y017092D01*
X007757Y016934D02*
X007757Y016934D01*
X007386Y016786D02*
X007386Y016786D01*
X007282Y016617D02*
X007228Y016617D01*
X007757Y015750D02*
X007757Y015750D01*
X007757Y015519D01*
X007757Y015519D01*
X007757Y015750D01*
X007757Y015666D02*
X007757Y015666D01*
X008544Y016525D02*
X008590Y016570D01*
X008629Y016666D01*
X008629Y017176D01*
X008762Y017176D01*
X008904Y017235D01*
X008907Y017238D01*
X008907Y016762D01*
X008669Y016525D01*
X008544Y016525D01*
X008609Y016617D02*
X008761Y016617D01*
X008629Y016775D02*
X008907Y016775D01*
X008907Y016934D02*
X008629Y016934D01*
X008629Y017092D02*
X008907Y017092D01*
X009247Y018202D02*
X013070Y018202D01*
X013040Y018360D02*
X009088Y018360D01*
X010259Y019779D02*
X010259Y020123D01*
X010102Y020281D01*
X009452Y020281D01*
X009413Y020320D01*
X009413Y020812D01*
X009882Y020602D02*
X009865Y020561D01*
X009882Y020561D01*
X009882Y020602D01*
X009882Y020579D02*
X009872Y020579D01*
X009882Y021061D02*
X009869Y021093D01*
X009882Y021093D01*
X009882Y021061D01*
X010764Y020262D02*
X010782Y020262D01*
X011547Y020262D02*
X014392Y020262D01*
X014356Y020421D02*
X012501Y020421D01*
X012628Y020579D02*
X014356Y020579D01*
X014364Y020738D02*
X012688Y020738D01*
X012688Y020896D02*
X014408Y020896D01*
X014506Y021055D02*
X012641Y021055D01*
X011673Y021093D02*
X011660Y021061D01*
X011660Y021093D01*
X011673Y021093D01*
X011660Y020579D02*
X011670Y020579D01*
X011660Y020421D02*
X011797Y020421D01*
X012206Y019787D02*
X016091Y019787D01*
X016091Y019945D02*
X015734Y019945D01*
X015983Y020104D02*
X016091Y020104D01*
X016083Y020262D02*
X016091Y020262D01*
X016083Y020421D02*
X016091Y020421D01*
X016083Y020579D02*
X016091Y020579D01*
X016083Y020738D02*
X016091Y020738D01*
X016091Y020896D02*
X016071Y020896D01*
X016091Y021055D02*
X015933Y021055D01*
X015261Y021093D02*
X014824Y021093D01*
X014836Y021081D01*
X014840Y021081D01*
X014852Y021069D01*
X014856Y021069D01*
X014868Y021057D01*
X014872Y021057D01*
X014883Y021045D01*
X014887Y021045D01*
X014899Y021034D01*
X014903Y021034D01*
X014915Y021022D01*
X014919Y021022D01*
X014931Y021010D01*
X014934Y021010D01*
X014942Y021002D01*
X014946Y021002D01*
X014958Y020990D01*
X014962Y020990D01*
X014970Y020982D01*
X014970Y020982D01*
X014974Y020979D01*
X014978Y020979D01*
X014990Y020967D01*
X014994Y020967D01*
X015005Y020955D01*
X015009Y020955D01*
X015021Y020943D01*
X015025Y020943D01*
X015037Y020931D01*
X015041Y020931D01*
X015053Y020919D01*
X015057Y020919D01*
X015068Y020908D01*
X015072Y020908D01*
X015084Y020896D01*
X015131Y020896D01*
X015111Y020876D02*
X015104Y020884D01*
X015100Y020884D01*
X015088Y020896D01*
X015084Y020896D01*
X015111Y020876D02*
X015156Y020920D01*
X015156Y020972D01*
X015160Y020976D01*
X015160Y020983D01*
X015163Y020987D01*
X015163Y020991D01*
X015167Y020995D01*
X015167Y020999D01*
X015171Y021003D01*
X015171Y021003D01*
X015261Y021093D01*
X015223Y021055D02*
X014874Y021055D01*
X014360Y019153D02*
X011655Y019153D01*
X011710Y018994D02*
X014444Y018994D01*
X014602Y018836D02*
X011698Y018836D01*
X013487Y016737D02*
X013487Y016521D01*
X013440Y016458D02*
X013535Y016458D01*
X013535Y016300D02*
X013440Y016300D01*
X013440Y016617D02*
X013535Y016617D01*
X013535Y016775D02*
X016091Y016775D01*
X016091Y015824D02*
X016046Y015824D01*
X016053Y014715D02*
X016091Y014715D01*
X016091Y013764D02*
X014033Y013764D01*
X014033Y013922D02*
X014516Y013922D01*
X014360Y014081D02*
X014033Y014081D01*
X014033Y014239D02*
X014360Y014239D01*
X014360Y014398D02*
X014033Y014398D01*
X014033Y014556D02*
X014449Y014556D01*
X014607Y014715D02*
X014033Y014715D01*
X013934Y014873D02*
X014565Y014873D01*
X014406Y015032D02*
X013775Y015032D01*
X013617Y015190D02*
X014360Y015190D01*
X014360Y015349D02*
X013458Y015349D01*
X013300Y015507D02*
X014400Y015507D01*
X014558Y015666D02*
X013141Y015666D01*
X012983Y015824D02*
X014614Y015824D01*
X014455Y015983D02*
X012956Y015983D01*
X012861Y016141D02*
X014360Y016141D01*
X014360Y016300D02*
X013856Y016300D01*
X013923Y016458D02*
X014360Y016458D01*
X014509Y016617D02*
X013923Y016617D01*
X013923Y016934D02*
X014504Y016934D01*
X014360Y017092D02*
X013914Y017092D01*
X013943Y017251D02*
X014360Y017251D01*
X014360Y017409D02*
X013943Y017409D01*
X013943Y017568D02*
X014460Y017568D01*
X014619Y017726D02*
X013943Y017726D01*
X013943Y017885D02*
X014553Y017885D01*
X014395Y018043D02*
X013901Y018043D01*
X013786Y018202D02*
X014360Y018202D01*
X014360Y018360D02*
X013817Y018360D01*
X013779Y018519D02*
X014411Y018519D01*
X014570Y018677D02*
X013652Y018677D01*
X016058Y018836D02*
X016091Y018836D01*
X016090Y018677D02*
X016091Y018677D01*
X016091Y017726D02*
X016041Y017726D01*
X014498Y013605D02*
X014033Y013605D01*
X014033Y013447D02*
X014360Y013447D01*
X014360Y013288D02*
X014033Y013288D01*
X014033Y013130D02*
X014360Y013130D01*
X014467Y012971D02*
X014033Y012971D01*
X014033Y012813D02*
X014625Y012813D01*
X014547Y012654D02*
X014033Y012654D01*
X014033Y012496D02*
X014388Y012496D01*
X014360Y012337D02*
X014033Y012337D01*
X014033Y012179D02*
X014360Y012179D01*
X014418Y012020D02*
X014033Y012020D01*
X014033Y011862D02*
X014576Y011862D01*
X014596Y011703D02*
X014033Y011703D01*
X014033Y011545D02*
X014437Y011545D01*
X014360Y011386D02*
X014033Y011386D01*
X014033Y011228D02*
X014360Y011228D01*
X014369Y011069D02*
X014033Y011069D01*
X014033Y010911D02*
X014527Y010911D01*
X014486Y010594D02*
X014033Y010594D01*
X014033Y010752D02*
X016091Y010752D01*
X016064Y011703D02*
X016091Y011703D01*
X016084Y011862D02*
X016091Y011862D01*
X016091Y012813D02*
X016035Y012813D01*
X014360Y010435D02*
X014033Y010435D01*
X014033Y010277D02*
X014360Y010277D01*
X014360Y010118D02*
X014033Y010118D01*
X014033Y009960D02*
X014478Y009960D01*
X011842Y009960D02*
X011524Y009960D01*
X011366Y010118D02*
X011752Y010118D01*
X011741Y010277D02*
X011206Y010277D01*
X011317Y010435D02*
X011534Y010435D01*
X011476Y010594D02*
X011405Y010594D01*
X011415Y010752D02*
X011476Y010752D01*
X011476Y010911D02*
X011357Y010911D01*
X011476Y011069D02*
X011135Y011069D01*
X010918Y011069D02*
X010459Y011069D01*
X010459Y011228D02*
X011490Y011228D01*
X011476Y011386D02*
X009289Y011386D01*
X009278Y011545D02*
X010848Y011545D01*
X011363Y011545D02*
X011476Y011545D01*
X011471Y011703D02*
X011476Y011703D01*
X011487Y011929D02*
X011516Y011958D01*
X011446Y012027D01*
X011487Y011929D01*
X011453Y012020D02*
X011449Y012020D01*
X011295Y012179D02*
X011292Y012179D01*
X011167Y012337D02*
X008413Y012337D01*
X008050Y012337D02*
X006130Y012337D01*
X006164Y012179D02*
X010919Y012179D01*
X010661Y010562D02*
X010459Y010562D01*
X010459Y010513D01*
X010434Y010487D01*
X010459Y010462D01*
X010459Y010314D01*
X010930Y010314D01*
X010807Y010365D01*
X010698Y010474D01*
X010661Y010562D01*
X010737Y010435D02*
X010459Y010435D01*
X010459Y009814D02*
X010963Y009814D01*
X011938Y008838D01*
X011938Y003829D01*
X010784Y002675D01*
X009478Y002675D01*
X009464Y002708D01*
X009323Y002849D01*
X009140Y002925D01*
X008941Y002925D01*
X008757Y002849D01*
X008616Y002708D01*
X008590Y002645D01*
X008590Y003121D01*
X008507Y003323D01*
X008352Y003477D01*
X008304Y003497D01*
X008250Y003551D01*
X008505Y003445D01*
X008875Y003445D01*
X009217Y003587D01*
X009479Y003848D01*
X009620Y004190D01*
X009620Y004560D01*
X009505Y004838D01*
X009727Y004838D01*
X009980Y004942D01*
X010173Y005136D01*
X010278Y005388D01*
X010278Y005662D01*
X010173Y005914D01*
X009994Y006094D01*
X010388Y006094D01*
X010479Y006132D01*
X011484Y007136D01*
X011596Y007136D01*
X011739Y007196D01*
X011848Y007305D01*
X011907Y007447D01*
X011907Y007602D01*
X011848Y007744D01*
X011739Y007854D01*
X011596Y007913D01*
X011442Y007913D01*
X011299Y007854D01*
X011190Y007744D01*
X011131Y007602D01*
X011131Y007490D01*
X010234Y006594D01*
X008115Y006594D01*
X008190Y006776D01*
X008190Y006974D01*
X008114Y007158D01*
X007973Y007299D01*
X007969Y007301D01*
X008058Y007389D01*
X008091Y007375D01*
X008290Y007375D01*
X008473Y007451D01*
X008482Y007459D01*
X009768Y007459D01*
X009915Y007520D01*
X010342Y007948D01*
X010403Y008095D01*
X010403Y008783D01*
X010459Y008839D01*
X010459Y008902D01*
X010472Y008888D01*
X010615Y008829D01*
X010769Y008829D01*
X010912Y008888D01*
X011021Y008998D01*
X011080Y009140D01*
X011080Y009295D01*
X011021Y009437D01*
X010912Y009547D01*
X010769Y009606D01*
X010615Y009606D01*
X010472Y009547D01*
X010459Y009533D01*
X010459Y009596D01*
X010404Y009651D01*
X010459Y009706D01*
X010459Y009814D01*
X010459Y009801D02*
X010976Y009801D01*
X011134Y009643D02*
X010412Y009643D01*
X010975Y009484D02*
X011293Y009484D01*
X011451Y009326D02*
X011068Y009326D01*
X011080Y009167D02*
X011610Y009167D01*
X011768Y009009D02*
X011026Y009009D01*
X010819Y008850D02*
X011927Y008850D01*
X011938Y008692D02*
X010403Y008692D01*
X010403Y008533D02*
X011938Y008533D01*
X011938Y008375D02*
X010403Y008375D01*
X010403Y008216D02*
X011938Y008216D01*
X011938Y008058D02*
X010388Y008058D01*
X010294Y007899D02*
X011409Y007899D01*
X011629Y007899D02*
X011938Y007899D01*
X011938Y007741D02*
X011850Y007741D01*
X011907Y007582D02*
X011938Y007582D01*
X011938Y007424D02*
X011897Y007424D01*
X011938Y007265D02*
X011808Y007265D01*
X011938Y007107D02*
X011454Y007107D01*
X011296Y006948D02*
X011938Y006948D01*
X011938Y006790D02*
X011137Y006790D01*
X010979Y006631D02*
X011938Y006631D01*
X011938Y006473D02*
X010820Y006473D01*
X010662Y006314D02*
X011938Y006314D01*
X011938Y006156D02*
X010503Y006156D01*
X010205Y005839D02*
X011938Y005839D01*
X011938Y005997D02*
X010090Y005997D01*
X010270Y005680D02*
X011938Y005680D01*
X011938Y005522D02*
X010278Y005522D01*
X010267Y005363D02*
X011938Y005363D01*
X011938Y005205D02*
X010202Y005205D01*
X010084Y005046D02*
X011938Y005046D01*
X011938Y004888D02*
X009848Y004888D01*
X009550Y004729D02*
X011938Y004729D01*
X011938Y004571D02*
X009616Y004571D01*
X009620Y004412D02*
X011938Y004412D01*
X011938Y004254D02*
X009620Y004254D01*
X009581Y004095D02*
X011938Y004095D01*
X011938Y003937D02*
X009515Y003937D01*
X009408Y003778D02*
X011887Y003778D01*
X011729Y003620D02*
X009250Y003620D01*
X008914Y003461D02*
X011570Y003461D01*
X011412Y003303D02*
X008515Y003303D01*
X008467Y003461D02*
X008368Y003461D01*
X008581Y003144D02*
X011253Y003144D01*
X011095Y002986D02*
X008590Y002986D01*
X008590Y002827D02*
X008735Y002827D01*
X008600Y002669D02*
X008590Y002669D01*
X008567Y002260D02*
X008616Y002142D01*
X008731Y002028D01*
X008421Y002028D01*
X008507Y002113D01*
X008567Y002260D01*
X008539Y002193D02*
X008595Y002193D01*
X008724Y002035D02*
X008428Y002035D01*
X007653Y002035D02*
X005157Y002035D01*
X005285Y002193D02*
X007541Y002193D01*
X007490Y002352D02*
X005340Y002352D01*
X005340Y002510D02*
X007490Y002510D01*
X007490Y002669D02*
X005281Y002669D01*
X005145Y002827D02*
X007475Y002827D01*
X007316Y002986D02*
X002208Y002986D01*
X002300Y003144D02*
X007158Y003144D01*
X007031Y003303D02*
X002300Y003303D01*
X002300Y003461D02*
X003967Y003461D01*
X004005Y003445D02*
X004375Y003445D01*
X004717Y003587D01*
X004979Y003848D01*
X005120Y004190D01*
X005120Y004560D01*
X004979Y004902D01*
X004717Y005163D01*
X004375Y005305D01*
X004005Y005305D01*
X003930Y005274D01*
X003978Y005388D01*
X003978Y005662D01*
X003873Y005914D01*
X003680Y006108D01*
X003427Y006212D01*
X003153Y006212D01*
X002901Y006108D01*
X002707Y005914D01*
X002603Y005662D01*
X002603Y005388D01*
X002707Y005136D01*
X002901Y004942D01*
X003153Y004838D01*
X003375Y004838D01*
X003260Y004560D01*
X003260Y004190D01*
X003402Y003848D01*
X003663Y003587D01*
X004005Y003445D01*
X004414Y003461D02*
X006973Y003461D01*
X006973Y003620D02*
X004750Y003620D01*
X004908Y003778D02*
X007025Y003778D01*
X007142Y003937D02*
X005015Y003937D01*
X005081Y004095D02*
X007800Y004095D01*
X007760Y004254D02*
X005120Y004254D01*
X005120Y004412D02*
X007760Y004412D01*
X007765Y004571D02*
X005116Y004571D01*
X005050Y004729D02*
X007830Y004729D01*
X007896Y004888D02*
X004985Y004888D01*
X004834Y005046D02*
X008046Y005046D01*
X008263Y005205D02*
X004618Y005205D01*
X003967Y005363D02*
X008913Y005363D01*
X008903Y005522D02*
X003978Y005522D01*
X003970Y005680D02*
X008910Y005680D01*
X008976Y005839D02*
X003905Y005839D01*
X003790Y005997D02*
X009090Y005997D01*
X008190Y006790D02*
X010430Y006790D01*
X010589Y006948D02*
X008190Y006948D01*
X008136Y007107D02*
X010747Y007107D01*
X010906Y007265D02*
X008007Y007265D01*
X008407Y007424D02*
X011064Y007424D01*
X011131Y007582D02*
X009977Y007582D01*
X010135Y007741D02*
X011188Y007741D01*
X010565Y008850D02*
X010459Y008850D01*
X009603Y008732D02*
X009603Y008340D01*
X009523Y008259D01*
X008513Y008259D01*
X008473Y008299D01*
X008290Y008375D01*
X008091Y008375D01*
X007907Y008299D01*
X007766Y008158D01*
X007764Y008153D01*
X007764Y008742D01*
X007783Y008742D01*
X007818Y008777D01*
X007853Y008742D01*
X008531Y008742D01*
X008626Y008837D01*
X008801Y008837D01*
X008916Y008722D01*
X009594Y008722D01*
X009603Y008732D01*
X009603Y008692D02*
X007764Y008692D01*
X007764Y008533D02*
X009603Y008533D01*
X009603Y008375D02*
X008291Y008375D01*
X008090Y008375D02*
X007764Y008375D01*
X007764Y008216D02*
X007824Y008216D01*
X007690Y007922D02*
X007690Y007776D01*
X007690Y007922D01*
X007690Y007922D01*
X007690Y007899D02*
X007690Y007899D01*
X007690Y007776D02*
X007657Y007695D01*
X007704Y007742D01*
X007690Y007776D01*
X007676Y007741D02*
X007702Y007741D01*
X007257Y007137D02*
X007190Y006974D01*
X007190Y006776D01*
X007115Y006594D01*
X007266Y006594D01*
X007190Y006776D01*
X007190Y006974D01*
X007123Y007137D01*
X007257Y007137D01*
X007245Y007107D02*
X007136Y007107D01*
X007190Y006948D02*
X007190Y006948D01*
X007190Y006790D02*
X007190Y006790D01*
X007130Y006631D02*
X007250Y006631D01*
X006542Y007424D02*
X006407Y007424D01*
X006373Y007265D02*
X006007Y007265D01*
X005974Y007424D02*
X005407Y007424D01*
X005373Y007265D02*
X005183Y007265D01*
X005190Y007107D02*
X005245Y007107D01*
X005190Y006948D02*
X005190Y006948D01*
X005190Y006790D02*
X005190Y006790D01*
X005190Y006631D02*
X005250Y006631D01*
X005171Y006473D02*
X005386Y006473D01*
X005585Y006314D02*
X002300Y006314D01*
X002300Y006156D02*
X003016Y006156D01*
X002790Y005997D02*
X002219Y005997D01*
X002061Y005839D02*
X002676Y005839D01*
X002610Y005680D02*
X002087Y005680D01*
X002246Y005522D02*
X002603Y005522D01*
X002613Y005363D02*
X002300Y005363D01*
X002300Y005205D02*
X002679Y005205D01*
X002797Y005046D02*
X002268Y005046D01*
X002110Y004888D02*
X003033Y004888D01*
X003330Y004729D02*
X002038Y004729D01*
X002197Y004571D02*
X003265Y004571D01*
X003260Y004412D02*
X002300Y004412D01*
X002300Y004254D02*
X003260Y004254D01*
X003300Y004095D02*
X002300Y004095D01*
X002159Y003937D02*
X003365Y003937D01*
X003472Y003778D02*
X000569Y003778D01*
X000569Y004729D02*
X000622Y004729D01*
X000569Y005680D02*
X000573Y005680D01*
X000569Y005839D02*
X000599Y005839D01*
X000569Y006790D02*
X002609Y006790D01*
X002518Y006948D02*
X002170Y006948D01*
X002300Y007107D02*
X002518Y007107D01*
X002518Y007265D02*
X002300Y007265D01*
X002300Y007424D02*
X002518Y007424D01*
X002518Y007582D02*
X002185Y007582D01*
X002027Y007741D02*
X002518Y007741D01*
X002518Y007899D02*
X002121Y007899D01*
X002280Y008058D02*
X002518Y008058D01*
X002518Y008216D02*
X002300Y008216D01*
X002300Y008375D02*
X002518Y008375D01*
X002518Y008533D02*
X002234Y008533D01*
X002076Y008692D02*
X002518Y008692D01*
X002518Y008850D02*
X002072Y008850D01*
X002231Y009009D02*
X002518Y009009D01*
X002518Y009167D02*
X002300Y009167D01*
X002300Y009326D02*
X002518Y009326D01*
X002518Y009484D02*
X002283Y009484D01*
X002125Y009643D02*
X002518Y009643D01*
X002518Y009801D02*
X000569Y009801D01*
X000569Y008850D02*
X000588Y008850D01*
X000584Y008692D02*
X000569Y008692D01*
X000569Y007741D02*
X000633Y007741D01*
X002136Y006631D02*
X002767Y006631D01*
X003158Y007265D02*
X004197Y007265D01*
X004776Y007582D02*
X003158Y007582D01*
X003158Y007424D02*
X004974Y007424D01*
X005604Y007582D02*
X005776Y007582D01*
X005705Y007741D02*
X005676Y007741D01*
X005690Y007776D02*
X005690Y007974D01*
X005721Y008048D01*
X005617Y008151D01*
X005690Y007974D01*
X005690Y007776D01*
X005690Y007899D02*
X005690Y007899D01*
X005711Y008058D02*
X005656Y008058D01*
X006140Y008533D02*
X006377Y008533D01*
X006466Y008445D02*
X006466Y008302D01*
X006304Y008369D01*
X005963Y008710D01*
X005951Y008722D01*
X006188Y008722D01*
X006466Y008445D01*
X006466Y008375D02*
X006299Y008375D01*
X006219Y008692D02*
X005982Y008692D01*
X006609Y009009D02*
X006988Y009009D01*
X006988Y009167D02*
X006502Y009167D01*
X006502Y009326D02*
X006988Y009326D01*
X006988Y009484D02*
X006502Y009484D01*
X006456Y009643D02*
X007015Y009643D01*
X006988Y009801D02*
X006364Y009801D01*
X006364Y009960D02*
X006988Y009960D01*
X006988Y010118D02*
X006364Y010118D01*
X006364Y010277D02*
X006988Y010277D01*
X006988Y010435D02*
X006474Y010435D01*
X006563Y010594D02*
X007100Y010594D01*
X007194Y010752D02*
X006572Y010752D01*
X006515Y010911D02*
X007194Y010911D01*
X007194Y011069D02*
X006293Y011069D01*
X006175Y011386D02*
X007194Y011386D01*
X007194Y011228D02*
X002300Y011228D01*
X002300Y011386D02*
X004540Y011386D01*
X004040Y010551D02*
X003996Y010507D01*
X003984Y010520D01*
X003392Y010520D01*
X003423Y010551D01*
X004040Y010551D01*
X003193Y009643D02*
X003158Y009643D01*
X003158Y009484D02*
X003189Y009484D01*
X003189Y009326D02*
X003158Y009326D01*
X003158Y009167D02*
X003189Y009167D01*
X003189Y009009D02*
X003158Y009009D01*
X003158Y008850D02*
X003189Y008850D01*
X003158Y008692D02*
X003286Y008692D01*
X003286Y008533D02*
X003158Y008533D01*
X003158Y008375D02*
X003286Y008375D01*
X003286Y008216D02*
X003158Y008216D01*
X003158Y008058D02*
X003299Y008058D01*
X003409Y007899D02*
X003158Y007899D01*
X003158Y007741D02*
X003567Y007741D01*
X003984Y008228D02*
X003926Y008287D01*
X003926Y008722D01*
X003984Y008722D01*
X004019Y008758D01*
X004054Y008722D01*
X004088Y008722D01*
X004184Y008682D01*
X004542Y008682D01*
X004574Y008603D01*
X004664Y008513D01*
X004893Y008285D01*
X004837Y008228D01*
X003984Y008228D01*
X003926Y008375D02*
X004803Y008375D01*
X004645Y008533D02*
X003926Y008533D01*
X003926Y008692D02*
X004161Y008692D01*
X004088Y008722D02*
X004088Y008722D01*
X002518Y009960D02*
X002182Y009960D01*
X002300Y010118D02*
X002518Y010118D01*
X002518Y010277D02*
X002300Y010277D01*
X002300Y010435D02*
X002518Y010435D01*
X002564Y010594D02*
X002174Y010594D01*
X002133Y010911D02*
X002878Y010911D01*
X003036Y011069D02*
X002291Y011069D01*
X002719Y010752D02*
X000569Y010752D01*
X000569Y011676D02*
X000569Y011869D01*
X000635Y011803D01*
X001006Y011803D01*
X000946Y011743D01*
X000635Y011743D01*
X000569Y011676D01*
X000569Y011703D02*
X000596Y011703D01*
X000576Y011862D02*
X000569Y011862D01*
X002144Y013922D02*
X003075Y013922D01*
X003075Y014081D02*
X002300Y014081D01*
X002300Y014239D02*
X003166Y014239D01*
X003346Y014398D02*
X002300Y014398D01*
X002211Y014556D02*
X003367Y014556D01*
X003499Y014715D02*
X002053Y014715D01*
X002095Y014873D02*
X003449Y014873D01*
X003365Y015032D02*
X002254Y015032D01*
X002300Y015190D02*
X003365Y015190D01*
X003365Y015349D02*
X002300Y015349D01*
X002260Y015507D02*
X003365Y015507D01*
X003365Y015666D02*
X002102Y015666D01*
X002046Y015824D02*
X003075Y015824D01*
X003075Y015983D02*
X002205Y015983D01*
X002300Y016141D02*
X003075Y016141D01*
X003075Y016300D02*
X002300Y016300D01*
X002300Y016458D02*
X003075Y016458D01*
X003075Y016617D02*
X002151Y016617D01*
X001572Y016775D02*
X003075Y016775D01*
X002562Y017485D02*
X002582Y017505D01*
X002582Y017879D01*
X002249Y018519D02*
X004114Y018519D01*
X004180Y018677D02*
X002572Y018677D01*
X002597Y018702D02*
X002597Y018702D01*
X002731Y018836D02*
X005518Y018836D01*
X005130Y019153D02*
X005034Y019153D01*
X005034Y019311D02*
X005130Y019311D01*
X005130Y019470D02*
X005034Y019470D01*
X004710Y019153D02*
X003048Y019153D01*
X003088Y019311D02*
X004607Y019311D01*
X004607Y019470D02*
X003088Y019470D01*
X003088Y019628D02*
X004607Y019628D01*
X004607Y019787D02*
X003088Y019787D01*
X003088Y019945D02*
X004623Y019945D01*
X004587Y020104D02*
X003088Y020104D01*
X003088Y020262D02*
X004587Y020262D01*
X004587Y020421D02*
X003194Y020421D01*
X003352Y020579D02*
X004587Y020579D01*
X005577Y020579D02*
X005956Y020579D01*
X005956Y020421D02*
X005577Y020421D01*
X005577Y020262D02*
X005956Y020262D01*
X006433Y021055D02*
X008901Y021055D01*
X006154Y017568D02*
X006058Y017568D01*
X006058Y017409D02*
X006154Y017409D01*
X005765Y016775D02*
X005737Y016775D01*
X006522Y014239D02*
X006616Y014239D01*
X006522Y014091D02*
X006134Y014091D01*
X006134Y013787D01*
X006114Y013787D01*
X006114Y013360D01*
X006502Y013360D01*
X006502Y013631D01*
X006490Y013677D01*
X006468Y013715D01*
X006486Y013733D01*
X006510Y013774D01*
X006522Y013820D01*
X006522Y014091D01*
X006522Y014081D02*
X007282Y014081D01*
X007282Y013922D02*
X006522Y013922D01*
X006503Y013764D02*
X007282Y013764D01*
X007282Y013605D02*
X006502Y013605D01*
X006502Y013447D02*
X007302Y013447D01*
X007333Y013288D02*
X006114Y013288D01*
X006114Y013130D02*
X006018Y013130D01*
X006018Y012971D02*
X006114Y012971D01*
X006130Y012813D02*
X007866Y012813D01*
X007843Y012654D02*
X006198Y012654D01*
X006194Y012496D02*
X007889Y012496D01*
X007972Y012971D02*
X006496Y012971D01*
X006502Y013130D02*
X008168Y013130D01*
X007757Y013211D02*
X007757Y013447D01*
X007757Y013447D01*
X007757Y013211D01*
X007757Y013288D02*
X007757Y013288D01*
X007757Y013447D02*
X007757Y013447D01*
X008688Y013447D02*
X008750Y013447D01*
X007610Y012020D02*
X006187Y012020D01*
X006187Y011862D02*
X007451Y011862D01*
X007293Y011703D02*
X006187Y011703D01*
X006187Y011545D02*
X007194Y011545D01*
X007694Y011397D02*
X007882Y011586D01*
X008059Y011586D01*
X008031Y011574D01*
X007922Y011465D01*
X007863Y011322D01*
X007863Y011168D01*
X007922Y011025D01*
X008031Y010916D01*
X008174Y010857D01*
X008286Y010857D01*
X008474Y010669D01*
X008474Y010599D01*
X007853Y010599D01*
X007818Y010563D01*
X007783Y010599D01*
X007694Y010599D01*
X007694Y011397D01*
X007694Y011386D02*
X007890Y011386D01*
X007863Y011228D02*
X007694Y011228D01*
X007694Y011069D02*
X007904Y011069D01*
X008045Y010911D02*
X007694Y010911D01*
X007694Y010752D02*
X008391Y010752D01*
X007848Y010594D02*
X007788Y010594D01*
X007841Y011545D02*
X008002Y011545D01*
X008443Y011586D02*
X008540Y011586D01*
X008517Y011529D01*
X008471Y011574D01*
X008443Y011586D01*
X008501Y011545D02*
X008523Y011545D01*
X008648Y009884D02*
X008661Y009872D01*
X008753Y009834D01*
X008799Y009834D01*
X008799Y009706D01*
X008854Y009651D01*
X008841Y009637D01*
X008626Y009637D01*
X008593Y009670D01*
X008648Y009725D01*
X008648Y009884D01*
X008648Y009801D02*
X008799Y009801D01*
X008846Y009643D02*
X008621Y009643D01*
X007124Y008692D02*
X006926Y008692D01*
X006966Y008533D02*
X007124Y008533D01*
X007090Y008375D02*
X006966Y008375D01*
X006997Y008850D02*
X006768Y008850D01*
X005853Y010480D02*
X005823Y010551D01*
X005789Y010551D01*
X005834Y010507D01*
X005845Y010480D01*
X005853Y010480D01*
X006018Y013447D02*
X006114Y013447D01*
X006114Y013605D02*
X006018Y013605D01*
X006038Y013764D02*
X006114Y013764D01*
X006134Y013922D02*
X006038Y013922D01*
X006038Y014081D02*
X006134Y014081D01*
X002300Y019112D02*
X002300Y019467D01*
X002025Y019743D01*
X001635Y019743D01*
X001360Y019467D01*
X001360Y019078D01*
X001364Y019074D01*
X001318Y019055D01*
X001110Y018847D01*
X001072Y018755D01*
X001072Y018695D01*
X001025Y018743D01*
X000635Y018743D01*
X000569Y018676D01*
X000569Y018869D01*
X000635Y018803D01*
X001025Y018803D01*
X001300Y019078D01*
X001300Y019467D01*
X001025Y019743D01*
X000691Y019743D01*
X001446Y020498D01*
X001446Y020412D01*
X001541Y020183D01*
X001717Y020008D01*
X001946Y019913D01*
X002194Y019913D01*
X002423Y020008D01*
X002588Y020172D01*
X002588Y019400D01*
X002300Y019112D01*
X002300Y019153D02*
X002341Y019153D01*
X002300Y019311D02*
X002499Y019311D01*
X002588Y019470D02*
X002298Y019470D01*
X002139Y019628D02*
X002588Y019628D01*
X002588Y019787D02*
X000735Y019787D01*
X000894Y019945D02*
X001868Y019945D01*
X001621Y020104D02*
X001052Y020104D01*
X001211Y020262D02*
X001509Y020262D01*
X001446Y020421D02*
X001369Y020421D01*
X001521Y019628D02*
X001139Y019628D01*
X001298Y019470D02*
X001362Y019470D01*
X001360Y019311D02*
X001300Y019311D01*
X001300Y019153D02*
X001360Y019153D01*
X001257Y018994D02*
X001216Y018994D01*
X001105Y018836D02*
X001058Y018836D01*
X000602Y018836D02*
X000569Y018836D01*
X000569Y018677D02*
X000570Y018677D01*
X000569Y017869D02*
X000635Y017803D01*
X001025Y017803D01*
X001072Y017850D01*
X001072Y017667D01*
X001016Y017723D01*
X000840Y017723D01*
X000840Y017283D01*
X000820Y017283D01*
X000820Y017723D01*
X000644Y017723D01*
X000569Y017648D01*
X000569Y017869D01*
X000569Y017726D02*
X001072Y017726D01*
X000840Y017568D02*
X000820Y017568D01*
X000820Y017409D02*
X000840Y017409D01*
X000840Y017263D02*
X000840Y016823D01*
X001016Y016823D01*
X001072Y016878D01*
X001072Y016695D01*
X001025Y016743D01*
X000635Y016743D01*
X000569Y016676D01*
X000569Y016897D01*
X000644Y016823D01*
X000820Y016823D01*
X000820Y017263D01*
X000840Y017263D01*
X000840Y017251D02*
X000820Y017251D01*
X000820Y017092D02*
X000840Y017092D01*
X000840Y016934D02*
X000820Y016934D01*
X000569Y016775D02*
X001072Y016775D01*
X001072Y015850D02*
X001072Y015695D01*
X001025Y015743D01*
X000635Y015743D01*
X000569Y015676D01*
X000569Y015869D01*
X000635Y015803D01*
X001025Y015803D01*
X001072Y015850D01*
X001072Y015824D02*
X001046Y015824D01*
X000614Y015824D02*
X000569Y015824D01*
X000569Y014869D02*
X000635Y014803D01*
X001025Y014803D01*
X001072Y014850D01*
X001072Y014695D01*
X001025Y014743D01*
X000635Y014743D01*
X000569Y014676D01*
X000569Y014869D01*
X000569Y014715D02*
X000607Y014715D01*
X001053Y014715D02*
X001072Y014715D01*
X001572Y014715D02*
X001607Y014715D01*
X001572Y015824D02*
X001614Y015824D01*
X001572Y017726D02*
X001619Y017726D01*
X002272Y019945D02*
X002588Y019945D01*
X002588Y020104D02*
X002519Y020104D01*
X002694Y020628D02*
X002694Y020660D01*
X002599Y020890D01*
X002423Y021065D01*
X002357Y021093D01*
X003159Y021093D01*
X003157Y021091D01*
X002696Y020630D01*
X002694Y020628D01*
X002696Y020630D02*
X002696Y020630D01*
X002662Y020738D02*
X002804Y020738D01*
X002962Y020896D02*
X002593Y020896D01*
X002434Y021055D02*
X003121Y021055D01*
X003157Y021091D02*
X003157Y021091D01*
X006136Y007107D02*
X006245Y007107D01*
X006190Y006974D02*
X006190Y006776D01*
X006115Y006594D01*
X006266Y006594D01*
X006190Y006776D01*
X006190Y006974D01*
X006190Y006948D02*
X006190Y006948D01*
X006190Y006790D02*
X006190Y006790D01*
X006130Y006631D02*
X006250Y006631D01*
X005743Y006156D02*
X003565Y006156D01*
X004210Y006473D02*
X002295Y006473D01*
X002148Y003620D02*
X003630Y003620D01*
X003535Y002827D02*
X002049Y002827D01*
X002099Y002669D02*
X003400Y002669D01*
X003340Y002510D02*
X002257Y002510D01*
X002300Y002352D02*
X003340Y002352D01*
X003395Y002193D02*
X002300Y002193D01*
X002257Y002035D02*
X003524Y002035D01*
X004150Y002028D02*
X004264Y002142D01*
X004340Y002326D01*
X004340Y002524D01*
X004340Y002326D01*
X004416Y002142D01*
X004531Y002028D01*
X004150Y002028D01*
X004157Y002035D02*
X004524Y002035D01*
X004395Y002193D02*
X004285Y002193D01*
X004340Y002352D02*
X004340Y002352D01*
X004340Y002510D02*
X004340Y002510D01*
X004281Y002669D02*
X004400Y002669D01*
X004535Y002827D02*
X004145Y002827D01*
X007864Y003937D02*
X007865Y003937D01*
X009345Y002827D02*
X010936Y002827D01*
X011326Y002510D02*
X014420Y002510D01*
X014360Y002352D02*
X011168Y002352D01*
X010981Y002193D02*
X014360Y002193D01*
X014420Y002035D02*
X009357Y002035D01*
X010272Y006631D02*
X008130Y006631D01*
D11*
X007990Y004375D02*
X007992Y004427D01*
X007998Y004479D01*
X008008Y004531D01*
X008021Y004581D01*
X008038Y004631D01*
X008059Y004679D01*
X008084Y004725D01*
X008112Y004769D01*
X008143Y004811D01*
X008177Y004851D01*
X008214Y004888D01*
X008254Y004922D01*
X008296Y004953D01*
X008340Y004981D01*
X008386Y005006D01*
X008434Y005027D01*
X008484Y005044D01*
X008534Y005057D01*
X008586Y005067D01*
X008638Y005073D01*
X008690Y005075D01*
X008742Y005073D01*
X008794Y005067D01*
X008846Y005057D01*
X008896Y005044D01*
X008946Y005027D01*
X008994Y005006D01*
X009040Y004981D01*
X009084Y004953D01*
X009126Y004922D01*
X009166Y004888D01*
X009203Y004851D01*
X009237Y004811D01*
X009268Y004769D01*
X009296Y004725D01*
X009321Y004679D01*
X009342Y004631D01*
X009359Y004581D01*
X009372Y004531D01*
X009382Y004479D01*
X009388Y004427D01*
X009390Y004375D01*
X009388Y004323D01*
X009382Y004271D01*
X009372Y004219D01*
X009359Y004169D01*
X009342Y004119D01*
X009321Y004071D01*
X009296Y004025D01*
X009268Y003981D01*
X009237Y003939D01*
X009203Y003899D01*
X009166Y003862D01*
X009126Y003828D01*
X009084Y003797D01*
X009040Y003769D01*
X008994Y003744D01*
X008946Y003723D01*
X008896Y003706D01*
X008846Y003693D01*
X008794Y003683D01*
X008742Y003677D01*
X008690Y003675D01*
X008638Y003677D01*
X008586Y003683D01*
X008534Y003693D01*
X008484Y003706D01*
X008434Y003723D01*
X008386Y003744D01*
X008340Y003769D01*
X008296Y003797D01*
X008254Y003828D01*
X008214Y003862D01*
X008177Y003899D01*
X008143Y003939D01*
X008112Y003981D01*
X008084Y004025D01*
X008059Y004071D01*
X008038Y004119D01*
X008021Y004169D01*
X008008Y004219D01*
X007998Y004271D01*
X007992Y004323D01*
X007990Y004375D01*
X003490Y004375D02*
X003492Y004427D01*
X003498Y004479D01*
X003508Y004531D01*
X003521Y004581D01*
X003538Y004631D01*
X003559Y004679D01*
X003584Y004725D01*
X003612Y004769D01*
X003643Y004811D01*
X003677Y004851D01*
X003714Y004888D01*
X003754Y004922D01*
X003796Y004953D01*
X003840Y004981D01*
X003886Y005006D01*
X003934Y005027D01*
X003984Y005044D01*
X004034Y005057D01*
X004086Y005067D01*
X004138Y005073D01*
X004190Y005075D01*
X004242Y005073D01*
X004294Y005067D01*
X004346Y005057D01*
X004396Y005044D01*
X004446Y005027D01*
X004494Y005006D01*
X004540Y004981D01*
X004584Y004953D01*
X004626Y004922D01*
X004666Y004888D01*
X004703Y004851D01*
X004737Y004811D01*
X004768Y004769D01*
X004796Y004725D01*
X004821Y004679D01*
X004842Y004631D01*
X004859Y004581D01*
X004872Y004531D01*
X004882Y004479D01*
X004888Y004427D01*
X004890Y004375D01*
X004888Y004323D01*
X004882Y004271D01*
X004872Y004219D01*
X004859Y004169D01*
X004842Y004119D01*
X004821Y004071D01*
X004796Y004025D01*
X004768Y003981D01*
X004737Y003939D01*
X004703Y003899D01*
X004666Y003862D01*
X004626Y003828D01*
X004584Y003797D01*
X004540Y003769D01*
X004494Y003744D01*
X004446Y003723D01*
X004396Y003706D01*
X004346Y003693D01*
X004294Y003683D01*
X004242Y003677D01*
X004190Y003675D01*
X004138Y003677D01*
X004086Y003683D01*
X004034Y003693D01*
X003984Y003706D01*
X003934Y003723D01*
X003886Y003744D01*
X003840Y003769D01*
X003796Y003797D01*
X003754Y003828D01*
X003714Y003862D01*
X003677Y003899D01*
X003643Y003939D01*
X003612Y003981D01*
X003584Y004025D01*
X003559Y004071D01*
X003538Y004119D01*
X003521Y004169D01*
X003508Y004219D01*
X003498Y004271D01*
X003492Y004323D01*
X003490Y004375D01*
X001676Y020536D02*
X001678Y020575D01*
X001684Y020614D01*
X001694Y020652D01*
X001707Y020689D01*
X001724Y020724D01*
X001744Y020758D01*
X001768Y020789D01*
X001795Y020818D01*
X001824Y020844D01*
X001856Y020867D01*
X001890Y020887D01*
X001926Y020903D01*
X001963Y020915D01*
X002002Y020924D01*
X002041Y020929D01*
X002080Y020930D01*
X002119Y020927D01*
X002158Y020920D01*
X002195Y020909D01*
X002232Y020895D01*
X002267Y020877D01*
X002300Y020856D01*
X002331Y020831D01*
X002359Y020804D01*
X002384Y020774D01*
X002406Y020741D01*
X002425Y020707D01*
X002440Y020671D01*
X002452Y020633D01*
X002460Y020595D01*
X002464Y020556D01*
X002464Y020516D01*
X002460Y020477D01*
X002452Y020439D01*
X002440Y020401D01*
X002425Y020365D01*
X002406Y020331D01*
X002384Y020298D01*
X002359Y020268D01*
X002331Y020241D01*
X002300Y020216D01*
X002267Y020195D01*
X002232Y020177D01*
X002195Y020163D01*
X002158Y020152D01*
X002119Y020145D01*
X002080Y020142D01*
X002041Y020143D01*
X002002Y020148D01*
X001963Y020157D01*
X001926Y020169D01*
X001890Y020185D01*
X001856Y020205D01*
X001824Y020228D01*
X001795Y020254D01*
X001768Y020283D01*
X001744Y020314D01*
X001724Y020348D01*
X001707Y020383D01*
X001694Y020420D01*
X001684Y020458D01*
X001678Y020497D01*
X001676Y020536D01*
D12*
X000830Y002273D03*
X014830Y002273D03*
D13*
X014830Y003273D03*
X014830Y004273D03*
X014830Y005273D03*
X014830Y006273D03*
X014830Y007273D03*
X014830Y008273D03*
X014830Y009273D03*
X014830Y010273D03*
X014830Y011273D03*
X014830Y012273D03*
X014830Y013273D03*
X014830Y014273D03*
X014830Y015273D03*
X014830Y016273D03*
X014830Y017273D03*
X014830Y018273D03*
X014830Y019273D03*
X015830Y019273D03*
X015830Y018273D03*
X015830Y017273D03*
X015830Y016273D03*
X015830Y015273D03*
X015830Y014273D03*
X015830Y013273D03*
X015830Y012273D03*
X015830Y011273D03*
X015830Y010273D03*
X015830Y009273D03*
X015830Y008273D03*
X015830Y007273D03*
X015830Y006273D03*
X015830Y005273D03*
X015830Y004273D03*
X015830Y003273D03*
X015830Y002273D03*
X001830Y002273D03*
X001830Y003273D03*
X001830Y004273D03*
X001830Y005273D03*
X001830Y006273D03*
X001830Y007273D03*
X001830Y008273D03*
X001830Y009273D03*
X001830Y010273D03*
X001830Y011273D03*
X001830Y012273D03*
X001830Y013273D03*
X001830Y014273D03*
X001830Y015273D03*
X001830Y016273D03*
X001830Y017273D03*
X001830Y018273D03*
X001830Y019273D03*
X000830Y019273D03*
X000830Y018273D03*
X000830Y017273D03*
X000830Y016273D03*
X000830Y015273D03*
X000830Y014273D03*
X000830Y013273D03*
X000830Y012273D03*
X000830Y011273D03*
X000830Y010273D03*
X000830Y009273D03*
X000830Y008273D03*
X000830Y007273D03*
X000830Y006273D03*
X000830Y005273D03*
X000830Y004273D03*
X000830Y003273D03*
D14*
X014905Y020556D03*
X015881Y020556D03*
D15*
X015877Y020554D03*
X015365Y020676D03*
X014877Y020558D03*
D16*
X014858Y020556D03*
X014606Y020556D03*
X015873Y020556D03*
D17*
X015869Y020556D03*
X014842Y020556D03*
X014610Y020556D03*
D18*
X014613Y020556D03*
X014830Y020556D03*
X015865Y020556D03*
D19*
X015861Y020556D03*
X015413Y020678D03*
X014617Y020556D03*
D20*
X014810Y020556D03*
X015858Y020556D03*
D21*
X015854Y020554D03*
X014802Y020558D03*
D22*
X015850Y020556D03*
D23*
X015846Y020554D03*
X014629Y020558D03*
D24*
X015842Y020556D03*
D25*
X015838Y020556D03*
X014688Y020619D03*
D26*
X014680Y020623D03*
X014676Y020623D03*
X014669Y020615D03*
X014767Y020556D03*
X015834Y020556D03*
D27*
X015830Y020554D03*
X014759Y020558D03*
D28*
X014755Y020558D03*
X014641Y020558D03*
X015826Y020554D03*
D29*
X015822Y020556D03*
X014751Y020556D03*
D30*
X015818Y020556D03*
D31*
X015814Y020556D03*
D32*
X015810Y020556D03*
X014736Y020556D03*
X014649Y020556D03*
D33*
X014732Y020558D03*
X015806Y020554D03*
D34*
X015802Y020554D03*
X014728Y020558D03*
D35*
X015799Y020556D03*
D36*
X015795Y020554D03*
X014724Y020558D03*
D37*
X015791Y020554D03*
D38*
X015787Y020556D03*
D39*
X015783Y020554D03*
D40*
X015779Y020554D03*
D41*
X015775Y020556D03*
D42*
X015771Y020554D03*
X014700Y020558D03*
D43*
X015767Y020556D03*
D44*
X015763Y020554D03*
D45*
X015759Y020556D03*
D46*
X015755Y020554D03*
D47*
X015751Y020556D03*
D48*
X015747Y020554D03*
D49*
X015743Y020556D03*
D50*
X015739Y020554D03*
X015736Y020554D03*
D51*
X015732Y020556D03*
D52*
X015728Y020554D03*
D53*
X015724Y020556D03*
D54*
X015720Y020554D03*
X015716Y020554D03*
D55*
X015712Y020556D03*
D56*
X015708Y020554D03*
D57*
X015704Y020556D03*
X015700Y020556D03*
D58*
X015696Y020554D03*
D59*
X015692Y020556D03*
X015688Y020556D03*
X015421Y020556D03*
D60*
X015424Y020558D03*
X015680Y020554D03*
X015684Y020554D03*
D61*
X015676Y020556D03*
X015432Y020556D03*
X015428Y020556D03*
D62*
X015436Y020558D03*
X015440Y020558D03*
X015669Y020554D03*
X015673Y020554D03*
D63*
X015665Y020556D03*
X015661Y020556D03*
X015452Y020556D03*
X015448Y020556D03*
X015444Y020556D03*
D64*
X015653Y020554D03*
X015657Y020554D03*
D65*
X015649Y020556D03*
D66*
X015645Y020554D03*
X015641Y020554D03*
X015637Y020554D03*
D67*
X015633Y020556D03*
X015629Y020556D03*
D68*
X015625Y020554D03*
X015621Y020554D03*
D69*
X015617Y020556D03*
X015613Y020556D03*
D70*
X015610Y020554D03*
X015606Y020554D03*
D71*
X015602Y020556D03*
X015598Y020556D03*
D72*
X015594Y020556D03*
D73*
X015590Y020558D03*
D74*
X015586Y020558D03*
D75*
X015582Y020558D03*
D76*
X015578Y020558D03*
X015499Y020558D03*
D77*
X015503Y020558D03*
X015507Y020558D03*
X015570Y020558D03*
X015574Y020558D03*
D78*
X015566Y020556D03*
X015511Y020556D03*
D79*
X015515Y020558D03*
X015519Y020558D03*
X015523Y020558D03*
X015527Y020558D03*
X015531Y020558D03*
X015535Y020558D03*
X015539Y020558D03*
X015543Y020558D03*
X015547Y020558D03*
X015550Y020558D03*
X015554Y020558D03*
X015558Y020558D03*
X015562Y020558D03*
D80*
X015495Y020556D03*
D81*
X015491Y020556D03*
D82*
X015487Y020558D03*
D83*
X015484Y020558D03*
D84*
X015338Y020336D03*
X015346Y020324D03*
X015350Y020320D03*
X015417Y020277D03*
X015035Y020556D03*
X014653Y020784D03*
D85*
X014814Y020556D03*
X015417Y020674D03*
D86*
X015326Y020359D03*
X015358Y020308D03*
X015361Y020304D03*
X015365Y020300D03*
X015369Y020296D03*
X015377Y020292D03*
X015381Y020288D03*
X015389Y020284D03*
X015397Y020281D03*
X015405Y020277D03*
X015409Y020277D03*
X015413Y020277D03*
X015039Y020556D03*
X014566Y020556D03*
D87*
X014822Y020558D03*
X015409Y020676D03*
D88*
X015405Y020678D03*
X014826Y020556D03*
D89*
X015373Y020294D03*
X015385Y020286D03*
X015393Y020282D03*
X015401Y020279D03*
D90*
X015401Y020676D03*
D91*
X015397Y020676D03*
X015393Y020676D03*
X014834Y020558D03*
D92*
X014838Y020558D03*
X015389Y020676D03*
D93*
X015385Y020676D03*
D94*
X015381Y020678D03*
X014854Y020556D03*
D95*
X014861Y020558D03*
X015377Y020680D03*
D96*
X015373Y020678D03*
D97*
X015369Y020678D03*
X014869Y020556D03*
X014602Y020556D03*
D98*
X014653Y020436D03*
X014657Y020432D03*
X015361Y020676D03*
D99*
X015358Y020641D03*
X014940Y020558D03*
D100*
X015161Y020556D03*
X015267Y020678D03*
X015358Y020867D03*
D101*
X015330Y020349D03*
X015334Y020342D03*
X015342Y020330D03*
X015354Y020314D03*
D102*
X015354Y020643D03*
X014582Y020556D03*
D103*
X015350Y020643D03*
D104*
X015346Y020647D03*
D105*
X015342Y020649D03*
D106*
X015338Y020651D03*
D107*
X015334Y020655D03*
D108*
X015330Y020653D03*
X015322Y020645D03*
D109*
X015326Y020651D03*
D110*
X015279Y020672D03*
X015322Y020294D03*
D111*
X015322Y020414D03*
X015102Y020556D03*
X014964Y020658D03*
D112*
X014889Y020556D03*
X015314Y020572D03*
X015318Y020572D03*
D113*
X015310Y020572D03*
D114*
X015306Y020570D03*
X014897Y020558D03*
D115*
X015302Y020534D03*
D116*
X015259Y020550D03*
X015271Y020676D03*
X015302Y020755D03*
D117*
X015299Y020534D03*
X015295Y020534D03*
D118*
X015169Y020554D03*
X015263Y020680D03*
X015299Y020759D03*
D119*
X015291Y020534D03*
X015287Y020534D03*
D120*
X015283Y020534D03*
D121*
X015279Y020397D03*
D122*
X015279Y020540D03*
X015070Y020556D03*
X014952Y020469D03*
X014562Y020556D03*
D123*
X015165Y020556D03*
X015275Y020391D03*
D124*
X015275Y020540D03*
X015082Y020556D03*
X014984Y020485D03*
X014976Y020477D03*
X014968Y020473D03*
X014795Y020769D03*
X014791Y020773D03*
X014787Y020777D03*
X014783Y020777D03*
D125*
X015153Y020556D03*
X015157Y020556D03*
X015275Y020674D03*
D126*
X015271Y020542D03*
X014956Y020660D03*
X014952Y020660D03*
D127*
X015267Y020546D03*
D128*
X015263Y020548D03*
X015129Y020556D03*
D129*
X015259Y020680D03*
D130*
X015255Y020682D03*
X015176Y020556D03*
D131*
X015251Y020684D03*
D132*
X015188Y020556D03*
D133*
X015184Y020556D03*
X015180Y020556D03*
D134*
X015173Y020556D03*
D135*
X015149Y020556D03*
D136*
X015145Y020556D03*
D137*
X015141Y020556D03*
X015137Y020556D03*
D138*
X015133Y020556D03*
D139*
X015125Y020556D03*
X015121Y020556D03*
X014680Y020229D03*
D140*
X014558Y020556D03*
X015117Y020556D03*
D141*
X015113Y020556D03*
D142*
X015110Y020556D03*
X015106Y020556D03*
X014980Y020651D03*
D143*
X015098Y020556D03*
D144*
X015094Y020556D03*
X015090Y020556D03*
D145*
X015086Y020556D03*
X014948Y020658D03*
D146*
X015078Y020558D03*
X014964Y020471D03*
X014779Y020779D03*
D147*
X014960Y020469D03*
X015074Y020556D03*
D148*
X015066Y020556D03*
D149*
X015062Y020558D03*
X014948Y020471D03*
D150*
X015058Y020556D03*
D151*
X015054Y020556D03*
D152*
X015050Y020556D03*
D153*
X015047Y020558D03*
D154*
X015043Y020556D03*
D155*
X015031Y020558D03*
X014657Y020790D03*
D156*
X015027Y020556D03*
X014716Y020328D03*
X014712Y020324D03*
D157*
X015023Y020556D03*
D158*
X015019Y020556D03*
X015015Y020556D03*
X014665Y020796D03*
D159*
X014570Y020556D03*
X015011Y020556D03*
D160*
X015007Y020556D03*
D161*
X015003Y020556D03*
X014999Y020556D03*
D162*
X014995Y020556D03*
D163*
X014991Y020556D03*
X014574Y020556D03*
D164*
X014987Y020558D03*
D165*
X014984Y020645D03*
X014976Y020653D03*
X014972Y020656D03*
X014968Y020656D03*
D166*
X014980Y020479D03*
X014972Y020475D03*
D167*
X014960Y020660D03*
D168*
X014956Y020471D03*
X014775Y020779D03*
D169*
X014944Y020556D03*
D170*
X014936Y020556D03*
D171*
X014932Y020556D03*
X014586Y020556D03*
D172*
X014928Y020556D03*
D173*
X014924Y020558D03*
D174*
X014921Y020556D03*
D175*
X014917Y020556D03*
X014791Y020466D03*
X014787Y020462D03*
X014590Y020556D03*
D176*
X014783Y020460D03*
X014795Y020468D03*
X014913Y020558D03*
D177*
X014909Y020558D03*
X014775Y020460D03*
D178*
X014901Y020556D03*
X014594Y020556D03*
D179*
X014893Y020558D03*
D180*
X014885Y020556D03*
X014716Y020682D03*
X014712Y020686D03*
X014598Y020556D03*
D181*
X014661Y020428D03*
X014881Y020558D03*
X014708Y020688D03*
D182*
X014873Y020556D03*
X014665Y020426D03*
D183*
X014865Y020558D03*
D184*
X014850Y020558D03*
D185*
X014846Y020556D03*
D186*
X014818Y020558D03*
D187*
X014806Y020558D03*
X014621Y020558D03*
D188*
X014799Y020556D03*
D189*
X014779Y020458D03*
D190*
X014771Y020460D03*
D191*
X014771Y020779D03*
D192*
X014763Y020556D03*
D193*
X014747Y020558D03*
D194*
X014743Y020558D03*
X014645Y020558D03*
D195*
X014739Y020558D03*
D196*
X014720Y020556D03*
D197*
X014661Y020794D03*
X014708Y020322D03*
D198*
X014704Y020322D03*
D199*
X014704Y020686D03*
D200*
X014696Y020239D03*
X014692Y020235D03*
X014688Y020231D03*
X014684Y020231D03*
D201*
X014696Y020613D03*
X014692Y020617D03*
X014684Y020621D03*
D202*
X014669Y020235D03*
X014673Y020231D03*
X014676Y020227D03*
D203*
X014637Y020558D03*
X014673Y020621D03*
D204*
X014633Y020558D03*
D205*
X014625Y020558D03*
D206*
X014578Y020556D03*
D207*
X010636Y016786D03*
X010636Y016531D03*
X010636Y016275D03*
X010636Y016019D03*
X010636Y015763D03*
X010636Y015507D03*
X010636Y015251D03*
X010636Y014995D03*
X010636Y014739D03*
X010636Y014483D03*
X010636Y014227D03*
X010636Y013971D03*
X010636Y013716D03*
X010636Y013460D03*
X007757Y013460D03*
X007757Y013716D03*
X007757Y013971D03*
X007757Y014227D03*
X007757Y014483D03*
X007757Y014739D03*
X007757Y014995D03*
X007757Y015251D03*
X007757Y015507D03*
X007757Y015763D03*
X007757Y016019D03*
X007757Y016275D03*
X007757Y016531D03*
X007757Y016786D03*
D208*
X008190Y007875D03*
X007690Y006875D03*
X007190Y007875D03*
X006690Y006875D03*
X006190Y007875D03*
X005690Y006875D03*
X005190Y007875D03*
X004840Y002425D03*
X003840Y002425D03*
X008040Y002425D03*
X009040Y002425D03*
D209*
X009590Y005525D03*
X003290Y005525D03*
D210*
X004690Y006875D03*
D211*
X004393Y009218D03*
X004393Y010025D03*
X003645Y010025D03*
X003645Y009218D03*
X005299Y009218D03*
X006047Y009218D03*
X007444Y009237D03*
X007444Y010103D03*
X008192Y010103D03*
X008192Y009237D03*
X009255Y009218D03*
X009255Y010084D03*
X009255Y010891D03*
X010003Y010891D03*
X010003Y010084D03*
X010003Y009218D03*
X006066Y013312D03*
X006086Y014139D03*
X005338Y014139D03*
X005318Y013312D03*
X004984Y011777D03*
X005732Y011777D03*
X006106Y015399D03*
X005358Y015399D03*
X005358Y016206D03*
X006106Y016206D03*
X006106Y017229D03*
X005358Y017229D03*
X005318Y018233D03*
X004570Y018233D03*
X012739Y017623D03*
X013487Y017623D03*
X013487Y016737D03*
X012739Y016737D03*
D212*
X011972Y011580D03*
X011972Y010832D03*
X005082Y019572D03*
X005082Y020320D03*
D213*
X003625Y016866D03*
X003625Y013066D03*
D214*
X011952Y013017D03*
D215*
X005968Y010005D03*
X005259Y010005D03*
D216*
X006236Y019316D03*
X006736Y019316D03*
X007236Y019316D03*
X007236Y020576D03*
X006736Y020576D03*
X006236Y020576D03*
D217*
X010259Y019779D03*
X010515Y019779D03*
X010771Y019779D03*
X011027Y019779D03*
X011283Y019779D03*
D218*
X011165Y020832D03*
X010377Y020828D03*
D219*
X009393Y020832D03*
X012149Y020832D03*
D220*
X011755Y019798D03*
X009787Y019798D03*
D221*
X008606Y018155D03*
X008684Y017564D03*
X006972Y016324D03*
X007031Y015182D03*
X008901Y013804D03*
X009688Y012840D03*
X008901Y011442D03*
X008251Y011245D03*
X008232Y012682D03*
X006184Y010694D03*
X005810Y012584D03*
X002582Y017879D03*
X006184Y018529D03*
X011322Y018942D03*
X011657Y016875D03*
X011342Y016284D03*
X012582Y015871D03*
X012110Y014296D03*
X011106Y011836D03*
X011027Y010694D03*
X012129Y010221D03*
X010692Y009218D03*
X011519Y007525D03*
X007503Y003548D03*
X013428Y018351D03*
D222*
X013487Y018292D01*
X013487Y017623D01*
X013487Y016521D02*
X013547Y016462D01*
X012582Y015871D02*
X013783Y014670D01*
X013783Y008607D01*
X014117Y008273D01*
X014830Y008273D01*
X013566Y006540D02*
X013566Y014552D01*
X012611Y015507D01*
X010636Y015507D01*
X010636Y015251D02*
X012493Y015251D01*
X013369Y014375D01*
X013369Y006107D01*
X013684Y005792D01*
X015377Y005792D01*
X015830Y006245D01*
X015830Y006273D01*
X015830Y005273D02*
X015287Y004729D01*
X013527Y004729D01*
X012936Y005320D01*
X012936Y014060D01*
X012257Y014739D01*
X010636Y014739D01*
X010636Y014995D02*
X012395Y014995D01*
X013153Y014237D01*
X013153Y005655D01*
X013527Y005281D01*
X014822Y005281D01*
X014830Y005273D01*
X014818Y005261D01*
X014822Y006265D02*
X013842Y006265D01*
X013566Y006540D01*
X014822Y006265D02*
X014830Y006273D01*
X012188Y003725D02*
X012188Y008942D01*
X011066Y010064D01*
X010023Y010064D01*
X010003Y010084D01*
X010082Y010812D02*
X010003Y010891D01*
X010082Y010812D02*
X010909Y010812D01*
X011027Y010694D01*
X011972Y010832D02*
X011972Y010379D01*
X012129Y010221D01*
X011972Y011580D02*
X011972Y011855D01*
X011401Y012426D01*
X011401Y013332D01*
X011273Y013460D01*
X010636Y013460D01*
X010636Y014227D02*
X012041Y014227D01*
X012110Y014296D01*
X011991Y013469D02*
X011991Y013056D01*
X011952Y013017D01*
X011106Y011836D02*
X007779Y011836D01*
X007444Y011501D01*
X007444Y010103D01*
X007405Y010143D01*
X008251Y011245D02*
X008724Y010773D01*
X008724Y010162D01*
X008802Y010084D01*
X009255Y010084D01*
X009255Y010891D02*
X009216Y010930D01*
X010003Y009218D02*
X010692Y009218D01*
X011519Y007525D02*
X010338Y006344D01*
X005909Y006344D01*
X005690Y006562D01*
X005690Y006875D01*
X006716Y007603D02*
X006716Y008548D01*
X006047Y009218D01*
X006047Y009178D01*
X005377Y009277D02*
X005299Y009218D01*
X006716Y007603D02*
X006932Y007387D01*
X007702Y007387D01*
X008190Y007875D01*
X008232Y012682D02*
X008409Y012859D01*
X008428Y012859D01*
X006214Y013460D02*
X006214Y014011D01*
X006086Y014139D01*
X006174Y014227D01*
X006214Y013460D02*
X006066Y013312D01*
X006106Y015399D02*
X006184Y015477D01*
X006106Y015556D01*
X006106Y016206D01*
X006106Y017229D01*
X006125Y017249D01*
X006184Y018529D02*
X006236Y018580D01*
X006236Y019316D01*
X006236Y020576D02*
X006243Y020584D01*
X006243Y020891D01*
X006184Y020950D01*
X005161Y020950D01*
X003369Y020950D01*
X002838Y020418D01*
X002838Y019296D01*
X002385Y018844D01*
X001460Y018844D01*
X001322Y018706D01*
X001322Y011765D01*
X000830Y011273D01*
X003606Y013085D02*
X003625Y013066D01*
X006184Y015477D02*
X006214Y015507D01*
X007757Y016275D02*
X008773Y016275D01*
X009157Y016658D01*
X009157Y017938D01*
X008940Y018155D01*
X008606Y018155D01*
X008566Y017564D02*
X008369Y017367D01*
X008566Y017564D02*
X008684Y017564D01*
X011283Y018981D02*
X011322Y018942D01*
X009413Y020812D02*
X009393Y020832D01*
X011342Y016284D02*
X011332Y016275D01*
X005082Y020320D02*
X005082Y020871D01*
X005161Y020950D01*
X003645Y016885D02*
X003625Y016866D01*
X012188Y003725D02*
X010888Y002425D01*
X009040Y002425D01*
D223*
X007190Y007875D02*
X007444Y008129D01*
X007444Y009237D01*
X006190Y008031D02*
X006190Y007875D01*
X006190Y008031D02*
X005692Y008529D01*
X005102Y008529D01*
X004846Y008784D01*
X004846Y009532D01*
X006007Y010871D02*
X006184Y010694D01*
X006007Y010871D02*
X003291Y010871D01*
X002838Y010418D01*
X002838Y010084D01*
X002897Y010025D01*
X003645Y010025D01*
X003645Y009218D02*
X003606Y009178D01*
X003606Y008155D01*
X003852Y007908D01*
X005190Y007908D01*
X004690Y006875D02*
X002976Y006875D01*
X002838Y007013D01*
X002838Y010084D01*
X005810Y012584D02*
X005318Y013076D01*
X005318Y013312D01*
X005318Y014119D01*
X005338Y014139D01*
X005358Y015399D02*
X005358Y016206D01*
X005358Y017229D01*
X005318Y017269D01*
X005318Y018233D01*
X005613Y018529D01*
X006184Y018529D01*
X005810Y012584D02*
X005810Y011855D01*
X005732Y011777D01*
D224*
X005613Y010359D02*
X005613Y008942D01*
X004236Y008942D01*
X004216Y008962D01*
X004216Y010359D01*
X005613Y010359D01*
X005613Y010250D02*
X004216Y010250D01*
X004216Y010131D02*
X005613Y010131D01*
X005613Y010013D02*
X004216Y010013D01*
X004216Y009894D02*
X005613Y009894D01*
X005613Y009776D02*
X004216Y009776D01*
X004216Y009657D02*
X005613Y009657D01*
X005613Y009539D02*
X004216Y009539D01*
X004216Y009420D02*
X005613Y009420D01*
X005613Y009302D02*
X004216Y009302D01*
X004216Y009183D02*
X005613Y009183D01*
X005613Y009065D02*
X004216Y009065D01*
X004231Y008946D02*
X005613Y008946D01*
X008190Y007875D02*
X008206Y007859D01*
X009255Y009218D02*
X009236Y009237D01*
X009255Y010891D02*
X008901Y011245D01*
X008901Y011442D01*
X008428Y012859D02*
X008428Y013627D01*
X008340Y013716D01*
X007757Y013716D01*
X007757Y013971D02*
X008734Y013971D01*
X008901Y013804D01*
X007757Y013460D02*
X006214Y013460D01*
X006174Y014227D02*
X007757Y014227D01*
X007757Y014483D02*
X006706Y014483D01*
X006578Y014611D01*
X003763Y014611D01*
X003606Y014454D01*
X003606Y013085D01*
X003783Y014906D02*
X003625Y015064D01*
X003625Y016866D01*
X003783Y014906D02*
X006696Y014906D01*
X006863Y014739D01*
X007757Y014739D01*
X007757Y015251D02*
X007100Y015251D01*
X007031Y015182D01*
X006549Y015763D02*
X006106Y016206D01*
X006549Y015763D02*
X007757Y015763D01*
X007757Y016019D02*
X007277Y016019D01*
X006972Y016324D01*
X006549Y016786D02*
X006106Y017229D01*
X006549Y016786D02*
X007757Y016786D01*
X007757Y016531D02*
X008182Y016531D01*
X008369Y016718D01*
X008369Y017367D01*
X007757Y016019D02*
X010636Y016019D01*
X010636Y016275D02*
X011332Y016275D01*
X011037Y016531D02*
X011184Y016678D01*
X011460Y016678D01*
X011657Y016875D01*
X011125Y016954D02*
X011125Y017544D01*
X011204Y017623D01*
X012739Y017623D01*
X012739Y016737D02*
X012346Y016737D01*
X011371Y015763D01*
X010636Y015763D01*
X010636Y016531D02*
X011037Y016531D01*
X010958Y016786D02*
X011125Y016954D01*
X010958Y016786D02*
X010636Y016786D01*
X010636Y013971D02*
X011489Y013971D01*
X011991Y013469D01*
X007757Y015507D02*
X006214Y015507D01*
D225*
X008192Y010103D02*
X008192Y009237D01*
X009236Y009237D01*
X010003Y009218D02*
X010003Y008174D01*
X009688Y007859D01*
X008206Y007859D01*
D226*
X008040Y003011D02*
X008040Y002425D01*
D227*
X008040Y003011D02*
X007503Y003548D01*
D228*
X005190Y007875D02*
X005190Y007908D01*
M02*
