%
M48
M72
T01C0.0236
T02C0.0320
T03C0.0335
T04C0.0360
T05C0.0453
T06C0.0650
T07C0.0787
T08C0.1400
%
T01
X7503Y3548
X11519Y7525
X10692Y9218
X11027Y10694
X11106Y11836
X12129Y10221
X9688Y12840
X8901Y13804
X8232Y12682
X8901Y11442
X8251Y11245
X6184Y10694
X5810Y12584
X7031Y15182
X6972Y16324
X6184Y18529
X8606Y18155
X8684Y17564
X11322Y18942
X11657Y16875
X11342Y16284
X12582Y15871
X12110Y14296
X13428Y18351
X2582Y17879
T02
X5190Y7875
X4690Y6875
X5690Y6875
X6190Y7875
X6690Y6875
X7190Y7875
X7690Y6875
X8190Y7875
X8040Y2425
X9040Y2425
X4840Y2425
X3840Y2425
T03
X9787Y19798
X11755Y19798
T04
X830Y2273
X830Y3273
X830Y4273
X830Y5273
X830Y6273
X830Y7273
X830Y8273
X830Y9273
X830Y10273
X830Y11273
X830Y12273
X830Y13273
X830Y14273
X830Y15273
X830Y16273
X830Y17273
X830Y18273
X830Y19273
X1830Y19273
X1830Y18273
X1830Y17273
X1830Y16273
X1830Y15273
X1830Y14273
X1830Y13273
X1830Y12273
X1830Y11273
X1830Y10273
X1830Y9273
X1830Y8273
X1830Y7273
X1830Y6273
X1830Y5273
X1830Y4273
X1830Y3273
X1830Y2273
X14830Y2273
X14830Y3273
X14830Y4273
X14830Y5273
X14830Y6273
X14830Y7273
X14830Y8273
X14830Y9273
X14830Y10273
X14830Y11273
X14830Y12273
X14830Y13273
X14830Y14273
X14830Y15273
X14830Y16273
X14830Y17273
X14830Y18273
X14830Y19273
X15830Y19273
X15830Y18273
X15830Y17273
X15830Y16273
X15830Y15273
X15830Y14273
X15830Y13273
X15830Y12273
X15830Y11273
X15830Y10273
X15830Y9273
X15830Y8273
X15830Y7273
X15830Y6273
X15830Y5273
X15830Y4273
X15830Y3273
X15830Y2273
T05
X12149Y20832
X9393Y20832
T06
X9590Y5525
X3290Y5525
T07
X2070Y20536
T08
X4190Y4375
X8690Y4375
M30
