G75*
%MOIN*%
%OFA0B0*%
%FSLAX24Y24*%
%IPPOS*%
%LPD*%
%AMOC8*
5,1,8,0,0,1.08239X$1,22.5*
%
%ADD10C,0.0160*%
%ADD11C,0.0540*%
%ADD12OC8,0.0540*%
%ADD13R,0.0004X0.0421*%
%ADD14R,0.0004X0.0465*%
%ADD15R,0.0004X0.0492*%
%ADD16R,0.0004X0.0516*%
%ADD17R,0.0004X0.0531*%
%ADD18R,0.0004X0.0547*%
%ADD19R,0.0004X0.0563*%
%ADD20R,0.0004X0.0575*%
%ADD21R,0.0004X0.0587*%
%ADD22R,0.0004X0.0598*%
%ADD23R,0.0004X0.0610*%
%ADD24R,0.0004X0.0618*%
%ADD25R,0.0004X0.0626*%
%ADD26R,0.0004X0.0638*%
%ADD27R,0.0004X0.0646*%
%ADD28R,0.0004X0.0650*%
%ADD29R,0.0004X0.0657*%
%ADD30R,0.0004X0.0665*%
%ADD31R,0.0004X0.0673*%
%ADD32R,0.0004X0.0677*%
%ADD33R,0.0004X0.0685*%
%ADD34R,0.0004X0.0689*%
%ADD35R,0.0004X0.0693*%
%ADD36R,0.0004X0.0701*%
%ADD37R,0.0004X0.0705*%
%ADD38R,0.0004X0.0709*%
%ADD39R,0.0004X0.0717*%
%ADD40R,0.0004X0.0720*%
%ADD41R,0.0004X0.0724*%
%ADD42R,0.0004X0.0728*%
%ADD43R,0.0004X0.0732*%
%ADD44R,0.0004X0.0736*%
%ADD45R,0.0004X0.0740*%
%ADD46R,0.0004X0.0744*%
%ADD47R,0.0004X0.0748*%
%ADD48R,0.0004X0.0752*%
%ADD49R,0.0004X0.0756*%
%ADD50R,0.0004X0.0760*%
%ADD51R,0.0004X0.0764*%
%ADD52R,0.0004X0.0768*%
%ADD53R,0.0004X0.0772*%
%ADD54R,0.0004X0.0776*%
%ADD55R,0.0004X0.0780*%
%ADD56R,0.0004X0.0783*%
%ADD57R,0.0004X0.0787*%
%ADD58R,0.0004X0.0791*%
%ADD59R,0.0004X0.0795*%
%ADD60R,0.0004X0.0799*%
%ADD61R,0.0004X0.0803*%
%ADD62R,0.0004X0.0807*%
%ADD63R,0.0004X0.0811*%
%ADD64R,0.0004X0.0815*%
%ADD65R,0.0004X0.0819*%
%ADD66R,0.0004X0.0823*%
%ADD67R,0.0004X0.0827*%
%ADD68R,0.0004X0.0831*%
%ADD69R,0.0004X0.0835*%
%ADD70R,0.0004X0.0839*%
%ADD71R,0.0004X0.0909*%
%ADD72R,0.0004X0.0937*%
%ADD73R,0.0004X0.0953*%
%ADD74R,0.0004X0.0961*%
%ADD75R,0.0004X0.0969*%
%ADD76R,0.0004X0.0976*%
%ADD77R,0.0004X0.0980*%
%ADD78R,0.0004X0.0984*%
%ADD79R,0.0004X0.0965*%
%ADD80R,0.0004X0.0957*%
%ADD81R,0.0004X0.0945*%
%ADD82R,0.0004X0.0921*%
%ADD83R,0.0004X0.0232*%
%ADD84R,0.0004X0.0555*%
%ADD85R,0.0004X0.0224*%
%ADD86R,0.0004X0.0543*%
%ADD87R,0.0004X0.0539*%
%ADD88R,0.0004X0.0220*%
%ADD89R,0.0004X0.0535*%
%ADD90R,0.0004X0.0528*%
%ADD91R,0.0004X0.0520*%
%ADD92R,0.0004X0.0512*%
%ADD93R,0.0004X0.0500*%
%ADD94R,0.0004X0.0488*%
%ADD95R,0.0004X0.0484*%
%ADD96R,0.0004X0.0476*%
%ADD97R,0.0004X0.0449*%
%ADD98R,0.0004X0.0370*%
%ADD99R,0.0004X0.0043*%
%ADD100R,0.0004X0.0228*%
%ADD101R,0.0004X0.0358*%
%ADD102R,0.0004X0.0350*%
%ADD103R,0.0004X0.0343*%
%ADD104R,0.0004X0.0331*%
%ADD105R,0.0004X0.0319*%
%ADD106R,0.0004X0.0311*%
%ADD107R,0.0004X0.0307*%
%ADD108R,0.0004X0.0303*%
%ADD109R,0.0004X0.0063*%
%ADD110R,0.0004X0.0130*%
%ADD111R,0.0004X0.0445*%
%ADD112R,0.0004X0.0437*%
%ADD113R,0.0004X0.0433*%
%ADD114R,0.0004X0.0362*%
%ADD115R,0.0004X0.0047*%
%ADD116R,0.0004X0.0354*%
%ADD117R,0.0004X0.0031*%
%ADD118R,0.0004X0.0346*%
%ADD119R,0.0004X0.0339*%
%ADD120R,0.0004X0.0055*%
%ADD121R,0.0004X0.0177*%
%ADD122R,0.0004X0.0035*%
%ADD123R,0.0004X0.0161*%
%ADD124R,0.0004X0.0051*%
%ADD125R,0.0004X0.0142*%
%ADD126R,0.0004X0.0118*%
%ADD127R,0.0004X0.0091*%
%ADD128R,0.0004X0.0024*%
%ADD129R,0.0004X0.0020*%
%ADD130R,0.0004X0.0008*%
%ADD131R,0.0004X0.0004*%
%ADD132R,0.0004X0.0012*%
%ADD133R,0.0004X0.0028*%
%ADD134R,0.0004X0.0059*%
%ADD135R,0.0004X0.0067*%
%ADD136R,0.0004X0.0075*%
%ADD137R,0.0004X0.0083*%
%ADD138R,0.0004X0.0098*%
%ADD139R,0.0004X0.0106*%
%ADD140R,0.0004X0.0114*%
%ADD141R,0.0004X0.0122*%
%ADD142R,0.0004X0.0138*%
%ADD143R,0.0004X0.0146*%
%ADD144R,0.0004X0.0154*%
%ADD145R,0.0004X0.0165*%
%ADD146R,0.0004X0.0169*%
%ADD147R,0.0004X0.0185*%
%ADD148R,0.0004X0.0189*%
%ADD149R,0.0004X0.0193*%
%ADD150R,0.0004X0.0201*%
%ADD151R,0.0004X0.0209*%
%ADD152R,0.0004X0.0213*%
%ADD153R,0.0004X0.0217*%
%ADD154R,0.0004X0.0236*%
%ADD155R,0.0004X0.0240*%
%ADD156R,0.0004X0.0248*%
%ADD157R,0.0004X0.0256*%
%ADD158R,0.0004X0.0264*%
%ADD159R,0.0004X0.0272*%
%ADD160R,0.0004X0.0280*%
%ADD161R,0.0004X0.0287*%
%ADD162R,0.0004X0.0295*%
%ADD163R,0.0004X0.0299*%
%ADD164R,0.0004X0.0126*%
%ADD165R,0.0004X0.0157*%
%ADD166R,0.0004X0.0134*%
%ADD167R,0.0004X0.0173*%
%ADD168R,0.0004X0.0366*%
%ADD169R,0.0004X0.0374*%
%ADD170R,0.0004X0.0382*%
%ADD171R,0.0004X0.0390*%
%ADD172R,0.0004X0.0394*%
%ADD173R,0.0004X0.0398*%
%ADD174R,0.0004X0.0406*%
%ADD175R,0.0004X0.0409*%
%ADD176R,0.0004X0.0417*%
%ADD177R,0.0004X0.0429*%
%ADD178R,0.0004X0.0441*%
%ADD179R,0.0004X0.0453*%
%ADD180R,0.0004X0.0457*%
%ADD181R,0.0004X0.0469*%
%ADD182R,0.0004X0.0480*%
%ADD183R,0.0004X0.0504*%
%ADD184R,0.0004X0.0508*%
%ADD185R,0.0004X0.0551*%
%ADD186R,0.0004X0.0567*%
%ADD187R,0.0004X0.0579*%
%ADD188R,0.0004X0.0413*%
%ADD189R,0.0004X0.0425*%
%ADD190R,0.0004X0.0181*%
%ADD191R,0.0004X0.0634*%
%ADD192R,0.0004X0.0654*%
%ADD193R,0.0004X0.0661*%
%ADD194R,0.0004X0.0669*%
%ADD195R,0.0004X0.0697*%
%ADD196R,0.0004X0.0244*%
%ADD197R,0.0004X0.0252*%
%ADD198R,0.0004X0.0461*%
%ADD199R,0.0004X0.0094*%
%ADD200R,0.0004X0.0622*%
%ADD201R,0.0004X0.0102*%
%ADD202R,0.0004X0.0630*%
%ADD203R,0.0004X0.0614*%
%ADD204R,0.0004X0.0583*%
%ADD205R,0.0004X0.0327*%
%ADD206R,0.0550X0.0137*%
%ADD207C,0.0600*%
%ADD208C,0.0975*%
%ADD209R,0.0600X0.0600*%
%ADD210C,0.0000*%
%ADD211R,0.0512X0.0591*%
%ADD212R,0.0700X0.2000*%
%ADD213R,0.1000X0.0500*%
%ADD214R,0.0433X0.0591*%
%ADD215R,0.0591X0.0512*%
%ADD216R,0.0160X0.0480*%
%ADD217C,0.0376*%
%ADD218C,0.0100*%
%ADD219C,0.0240*%
%ADD220C,0.0120*%
%ADD221C,0.0400*%
%ADD222C,0.0500*%
D10*
X000259Y000180D02*
X016401Y000180D01*
X016401Y019865D01*
X000259Y019865D01*
X000259Y000180D01*
X000569Y001136D02*
X000569Y001331D01*
X000635Y001265D01*
X001025Y001265D01*
X001300Y001540D01*
X001300Y001930D01*
X001025Y002205D01*
X000635Y002205D01*
X000569Y002139D01*
X000569Y002331D01*
X000635Y002265D01*
X001025Y002265D01*
X001300Y002540D01*
X001300Y002930D01*
X001025Y003205D01*
X000635Y003205D01*
X000569Y003139D01*
X000569Y003331D01*
X000635Y003265D01*
X001025Y003265D01*
X001300Y003540D01*
X001300Y003930D01*
X001025Y004205D01*
X000635Y004205D01*
X000569Y004139D01*
X000569Y004331D01*
X000635Y004265D01*
X001025Y004265D01*
X001300Y004540D01*
X001300Y004930D01*
X001025Y005205D01*
X000635Y005205D01*
X000569Y005139D01*
X000569Y005331D01*
X000635Y005265D01*
X001025Y005265D01*
X001300Y005540D01*
X001300Y005930D01*
X001025Y006205D01*
X000635Y006205D01*
X000569Y006139D01*
X000569Y006331D01*
X000635Y006265D01*
X001025Y006265D01*
X001300Y006540D01*
X001300Y006930D01*
X001025Y007205D01*
X000635Y007205D01*
X000569Y007139D01*
X000569Y007331D01*
X000635Y007265D01*
X001025Y007265D01*
X001300Y007540D01*
X001300Y007930D01*
X001025Y008205D01*
X000635Y008205D01*
X000569Y008139D01*
X000569Y008331D01*
X000635Y008265D01*
X001025Y008265D01*
X001300Y008540D01*
X001300Y008930D01*
X001025Y009205D01*
X000635Y009205D01*
X000569Y009139D01*
X000569Y009331D01*
X000635Y009265D01*
X001025Y009265D01*
X001300Y009540D01*
X001300Y009930D01*
X001025Y010205D01*
X000635Y010205D01*
X000569Y010139D01*
X000569Y010331D01*
X000635Y010265D01*
X001025Y010265D01*
X001300Y010540D01*
X001300Y010930D01*
X001025Y011205D01*
X000635Y011205D01*
X000569Y011139D01*
X000569Y011331D01*
X000635Y011265D01*
X001025Y011265D01*
X001300Y011540D01*
X001300Y011930D01*
X001025Y012205D01*
X000635Y012205D01*
X000569Y012139D01*
X000569Y012331D01*
X000635Y012265D01*
X001025Y012265D01*
X001300Y012540D01*
X001300Y012930D01*
X001025Y013205D01*
X000635Y013205D01*
X000569Y013139D01*
X000569Y013331D01*
X000635Y013265D01*
X001025Y013265D01*
X001300Y013540D01*
X001300Y013930D01*
X001025Y014205D01*
X000635Y014205D01*
X000569Y014139D01*
X000569Y014331D01*
X000635Y014265D01*
X001025Y014265D01*
X001300Y014540D01*
X001300Y014930D01*
X001025Y015205D01*
X000635Y015205D01*
X000569Y015139D01*
X000569Y015360D01*
X000644Y015285D01*
X000820Y015285D01*
X000820Y015725D01*
X000840Y015725D01*
X000840Y015285D01*
X001016Y015285D01*
X001280Y015549D01*
X001280Y015725D01*
X000840Y015725D01*
X000840Y015745D01*
X001280Y015745D01*
X001280Y015922D01*
X001016Y016185D01*
X000840Y016185D01*
X000840Y015745D01*
X000820Y015745D01*
X000820Y016185D01*
X000644Y016185D01*
X000569Y016111D01*
X000569Y016331D01*
X000635Y016265D01*
X001025Y016265D01*
X001300Y016540D01*
X001300Y016930D01*
X001025Y017205D01*
X000635Y017205D01*
X000569Y017139D01*
X000569Y017331D01*
X000635Y017265D01*
X001025Y017265D01*
X001300Y017540D01*
X001300Y017930D01*
X001025Y018205D01*
X000635Y018205D01*
X000569Y018139D01*
X000569Y019555D01*
X007206Y019555D01*
X007139Y019395D01*
X007139Y019196D01*
X007216Y019012D01*
X007356Y018871D01*
X007540Y018795D01*
X007739Y018795D01*
X007923Y018871D01*
X008063Y019012D01*
X008139Y019196D01*
X008139Y019395D01*
X008073Y019555D01*
X008206Y019555D01*
X008139Y019395D01*
X008139Y019196D01*
X008216Y019012D01*
X008356Y018871D01*
X008540Y018795D01*
X008739Y018795D01*
X008923Y018871D01*
X009063Y019012D01*
X009139Y019196D01*
X009139Y019395D01*
X009073Y019555D01*
X011406Y019555D01*
X011339Y019395D01*
X011339Y019196D01*
X011416Y019012D01*
X011556Y018871D01*
X011740Y018795D01*
X011939Y018795D01*
X012123Y018871D01*
X012263Y019012D01*
X012339Y019196D01*
X012339Y019395D01*
X012273Y019555D01*
X012406Y019555D01*
X012339Y019395D01*
X012339Y019196D01*
X012416Y019012D01*
X012556Y018871D01*
X012740Y018795D01*
X012939Y018795D01*
X013123Y018871D01*
X013263Y019012D01*
X013339Y019196D01*
X013339Y019395D01*
X013273Y019555D01*
X014544Y019555D01*
X014471Y019481D01*
X014471Y019477D01*
X014467Y019473D01*
X014463Y019470D01*
X014463Y019466D01*
X014459Y019462D01*
X014459Y019458D01*
X014455Y019454D01*
X014455Y019450D01*
X014451Y019446D01*
X014451Y019442D01*
X014443Y019434D01*
X014443Y019430D01*
X014439Y019426D01*
X014439Y019422D01*
X014435Y019418D01*
X014435Y019414D01*
X014431Y019410D01*
X014431Y019407D01*
X014427Y019403D01*
X014427Y019399D01*
X014423Y019395D01*
X014423Y019391D01*
X014419Y019387D01*
X014419Y019379D01*
X014415Y019375D01*
X014415Y019371D01*
X014411Y019367D01*
X014411Y019363D01*
X014408Y019359D01*
X014408Y019351D01*
X014404Y019347D01*
X014404Y019344D01*
X014400Y019340D01*
X014400Y019332D01*
X014396Y019328D01*
X014396Y019320D01*
X014392Y019316D01*
X014392Y019308D01*
X014388Y019304D01*
X014388Y019296D01*
X014384Y019292D01*
X014384Y019284D01*
X014380Y019281D01*
X014380Y019269D01*
X014376Y019265D01*
X014376Y019253D01*
X014372Y019249D01*
X014372Y019237D01*
X014368Y019233D01*
X014368Y019218D01*
X014364Y019214D01*
X014364Y019194D01*
X014360Y019190D01*
X014360Y019159D01*
X014356Y019155D01*
X014356Y018883D01*
X013134Y018883D01*
X013276Y019042D02*
X014356Y019042D01*
X014364Y019200D02*
X013339Y019200D01*
X013339Y019359D02*
X014408Y019359D01*
X014467Y019473D02*
X014467Y019473D01*
X014506Y019517D02*
X013289Y019517D01*
X012545Y018883D02*
X012134Y018883D01*
X012276Y019042D02*
X012403Y019042D01*
X012339Y019200D02*
X012339Y019200D01*
X012339Y019359D02*
X012339Y019359D01*
X012289Y019517D02*
X012390Y019517D01*
X011545Y018883D02*
X008934Y018883D01*
X009076Y019042D02*
X011403Y019042D01*
X011339Y019200D02*
X009139Y019200D01*
X009139Y019359D02*
X011339Y019359D01*
X011390Y019517D02*
X009089Y019517D01*
X008345Y018883D02*
X007934Y018883D01*
X008076Y019042D02*
X008203Y019042D01*
X008139Y019200D02*
X008139Y019200D01*
X008139Y019359D02*
X008139Y019359D01*
X008089Y019517D02*
X008190Y019517D01*
X007345Y018883D02*
X000569Y018883D01*
X000569Y018725D02*
X014392Y018725D01*
X014392Y018721D02*
X014396Y018717D01*
X014396Y018709D01*
X014400Y018705D01*
X014400Y018698D01*
X014404Y018694D01*
X014404Y018690D01*
X014408Y018686D01*
X014408Y018678D01*
X014411Y018674D01*
X014411Y018670D01*
X014415Y018666D01*
X014415Y018662D01*
X014419Y018658D01*
X014419Y018654D01*
X014423Y018650D01*
X014423Y018646D01*
X014427Y018642D01*
X014427Y018638D01*
X014431Y018635D01*
X014431Y018631D01*
X014435Y018627D01*
X014435Y018623D01*
X014439Y018619D01*
X014439Y018615D01*
X014443Y018611D01*
X014443Y018607D01*
X014447Y018603D01*
X014447Y018599D01*
X014451Y018595D01*
X014451Y018591D01*
X014459Y018583D01*
X014459Y018579D01*
X014463Y018576D01*
X014463Y018572D01*
X014467Y018568D01*
X014467Y018564D01*
X014584Y018447D01*
X014588Y018443D01*
X014592Y018439D01*
X014761Y018439D01*
X014769Y018447D01*
X014773Y018447D01*
X014785Y018458D01*
X014789Y018458D01*
X014801Y018470D01*
X014805Y018470D01*
X014816Y018482D01*
X014820Y018482D01*
X014832Y018494D01*
X014836Y018494D01*
X014844Y018502D01*
X014848Y018502D01*
X014860Y018513D01*
X014864Y018513D01*
X014875Y018525D01*
X014879Y018525D01*
X014891Y018537D01*
X014895Y018537D01*
X014907Y018549D01*
X014911Y018549D01*
X014923Y018561D01*
X014927Y018561D01*
X014934Y018569D01*
X014938Y018569D01*
X014950Y018580D01*
X014954Y018580D01*
X014962Y018588D01*
X014966Y018592D01*
X014970Y018592D01*
X014982Y018604D01*
X014986Y018604D01*
X014997Y018616D01*
X015001Y018616D01*
X015009Y018624D01*
X015013Y018624D01*
X015025Y018636D01*
X015029Y018636D01*
X015041Y018647D01*
X015045Y018647D01*
X015057Y018659D01*
X015060Y018659D01*
X015068Y018667D01*
X015068Y018667D01*
X015072Y018671D01*
X015076Y018671D01*
X015084Y018679D01*
X015088Y018679D01*
X015100Y018691D01*
X015104Y018691D01*
X015116Y018702D01*
X015120Y018702D01*
X015120Y018703D01*
X015120Y018642D01*
X015124Y018638D01*
X015124Y018627D01*
X015128Y018623D01*
X015128Y018615D01*
X015132Y018611D01*
X015132Y018607D01*
X015136Y018603D01*
X015136Y018599D01*
X015144Y018591D01*
X015144Y018587D01*
X015167Y018564D01*
X015285Y018447D01*
X015288Y018447D01*
X015292Y018443D01*
X015296Y018439D01*
X015300Y018439D01*
X015304Y018435D01*
X015308Y018435D01*
X015312Y018431D01*
X015316Y018431D01*
X015407Y018340D01*
X015411Y018336D01*
X015414Y018336D01*
X015418Y018332D01*
X015422Y018332D01*
X015426Y018328D01*
X015651Y018328D01*
X015655Y018332D01*
X015659Y018332D01*
X015738Y018411D01*
X015742Y018411D01*
X015746Y018415D01*
X015757Y018415D01*
X015761Y018419D01*
X015769Y018419D01*
X015773Y018423D01*
X015781Y018423D01*
X015785Y018427D01*
X015793Y018427D01*
X015797Y018431D01*
X015805Y018431D01*
X015809Y018435D01*
X015812Y018435D01*
X015816Y018439D01*
X015824Y018439D01*
X015828Y018443D01*
X015832Y018443D01*
X015836Y018447D01*
X015840Y018447D01*
X015844Y018450D01*
X015848Y018450D01*
X015852Y018454D01*
X015856Y018454D01*
X015860Y018458D01*
X015864Y018458D01*
X015872Y018466D01*
X015875Y018466D01*
X015883Y018474D01*
X015887Y018474D01*
X015907Y018494D01*
X015911Y018494D01*
X016028Y018611D01*
X016032Y018615D01*
X016032Y018619D01*
X016036Y018623D01*
X016040Y018627D01*
X016044Y018631D01*
X016048Y018635D01*
X016048Y018638D01*
X016052Y018642D01*
X016056Y018646D01*
X016056Y018650D01*
X016060Y018654D01*
X016060Y018658D01*
X016063Y018662D01*
X016063Y018666D01*
X016067Y018670D01*
X016067Y018674D01*
X016071Y018678D01*
X016071Y018686D01*
X016075Y018690D01*
X016075Y018698D01*
X016079Y018701D01*
X016079Y018721D01*
X016083Y018725D01*
X016083Y019312D01*
X016079Y019316D01*
X016079Y019332D01*
X016075Y019336D01*
X016075Y019347D01*
X016071Y019351D01*
X016071Y019359D01*
X016067Y019363D01*
X016067Y019367D01*
X016063Y019371D01*
X016063Y019375D01*
X016060Y019379D01*
X016060Y019383D01*
X016056Y019387D01*
X016052Y019391D01*
X016052Y019395D01*
X016048Y019399D01*
X016044Y019403D01*
X016044Y019407D01*
X016040Y019410D01*
X016036Y019414D01*
X016032Y019418D01*
X016028Y019422D01*
X016024Y019426D01*
X016020Y019430D01*
X016016Y019434D01*
X016012Y019438D01*
X015895Y019555D01*
X016091Y019555D01*
X016091Y018139D01*
X016025Y018205D01*
X015635Y018205D01*
X015360Y017930D01*
X015360Y017540D01*
X015635Y017265D01*
X016025Y017265D01*
X016091Y017331D01*
X016091Y017139D01*
X016025Y017205D01*
X015635Y017205D01*
X015360Y016930D01*
X015360Y016540D01*
X015635Y016265D01*
X016025Y016265D01*
X016091Y016331D01*
X016091Y016139D01*
X016025Y016205D01*
X015635Y016205D01*
X015360Y015930D01*
X015360Y015540D01*
X015635Y015265D01*
X016025Y015265D01*
X016091Y015331D01*
X016091Y015139D01*
X016025Y015205D01*
X015635Y015205D01*
X015360Y014930D01*
X015360Y014540D01*
X015635Y014265D01*
X016025Y014265D01*
X016091Y014331D01*
X016091Y014139D01*
X016025Y014205D01*
X015635Y014205D01*
X015360Y013930D01*
X015360Y013540D01*
X015635Y013265D01*
X016025Y013265D01*
X016091Y013331D01*
X016091Y013139D01*
X016025Y013205D01*
X015635Y013205D01*
X015360Y012930D01*
X015360Y012540D01*
X015635Y012265D01*
X016025Y012265D01*
X016091Y012331D01*
X016091Y012139D01*
X016025Y012205D01*
X015635Y012205D01*
X015360Y011930D01*
X015360Y011540D01*
X015635Y011265D01*
X016025Y011265D01*
X016091Y011331D01*
X016091Y011139D01*
X016025Y011205D01*
X015635Y011205D01*
X015360Y010930D01*
X015360Y010540D01*
X015635Y010265D01*
X016025Y010265D01*
X016091Y010331D01*
X016091Y010139D01*
X016025Y010205D01*
X015635Y010205D01*
X015360Y009930D01*
X015360Y009540D01*
X015635Y009265D01*
X016025Y009265D01*
X016091Y009331D01*
X016091Y009139D01*
X016025Y009205D01*
X015635Y009205D01*
X015360Y008930D01*
X015360Y008540D01*
X015635Y008265D01*
X016025Y008265D01*
X016091Y008331D01*
X016091Y008139D01*
X016025Y008205D01*
X015635Y008205D01*
X015360Y007930D01*
X015360Y007540D01*
X015635Y007265D01*
X016025Y007265D01*
X016091Y007331D01*
X016091Y007139D01*
X016025Y007205D01*
X015635Y007205D01*
X015360Y006930D01*
X015360Y006540D01*
X015635Y006265D01*
X016025Y006265D01*
X016091Y006331D01*
X016091Y006139D01*
X016025Y006205D01*
X015635Y006205D01*
X015360Y005930D01*
X015360Y005540D01*
X015398Y005502D01*
X015358Y005519D01*
X015278Y005519D01*
X015300Y005540D01*
X015300Y005930D01*
X015025Y006205D01*
X014635Y006205D01*
X014360Y005930D01*
X014360Y005540D01*
X014382Y005519D01*
X014381Y005519D01*
X014285Y005479D01*
X014212Y005406D01*
X014098Y005292D01*
X014055Y005292D01*
X014061Y005314D01*
X014061Y005585D01*
X013673Y005585D01*
X013673Y005681D01*
X013577Y005681D01*
X013577Y006043D01*
X013577Y006471D01*
X013673Y006471D01*
X013673Y006567D01*
X014061Y006567D01*
X014061Y006838D01*
X014049Y006883D01*
X014025Y006924D01*
X014002Y006947D01*
X014081Y007026D01*
X014081Y007144D01*
X014551Y007144D01*
X014591Y007161D01*
X014360Y006930D01*
X014360Y006540D01*
X014635Y006265D01*
X015025Y006265D01*
X015300Y006540D01*
X015300Y006930D01*
X015025Y007205D01*
X014668Y007205D01*
X014728Y007265D01*
X015025Y007265D01*
X015300Y007540D01*
X015300Y007930D01*
X015025Y008205D01*
X014635Y008205D01*
X014360Y007930D01*
X014360Y007664D01*
X014081Y007664D01*
X014081Y007783D01*
X013964Y007900D01*
X013287Y007900D01*
X013251Y007864D01*
X013216Y007900D01*
X012538Y007900D01*
X012421Y007783D01*
X012421Y007664D01*
X011290Y007664D01*
X011195Y007625D01*
X011043Y007473D01*
X011003Y007377D01*
X011003Y006843D01*
X010997Y006836D01*
X010415Y006836D01*
X010298Y006719D01*
X010298Y006060D01*
X009361Y006060D01*
X009560Y006259D01*
X009633Y006332D01*
X009673Y006427D01*
X009673Y006997D01*
X009781Y007106D01*
X009840Y007248D01*
X009840Y007403D01*
X009784Y007538D01*
X010335Y007538D01*
X010359Y007528D01*
X010513Y007528D01*
X010656Y007587D01*
X010765Y007696D01*
X010824Y007839D01*
X010824Y007993D01*
X010772Y008120D01*
X010871Y008079D01*
X011025Y008079D01*
X011168Y008138D01*
X011257Y008227D01*
X011319Y008227D01*
X011319Y008148D01*
X011436Y008031D01*
X012192Y008031D01*
X012310Y008148D01*
X012310Y008826D01*
X012274Y008861D01*
X012310Y008896D01*
X012310Y008975D01*
X013130Y008975D01*
X013154Y008965D01*
X013309Y008965D01*
X013451Y009024D01*
X013561Y009133D01*
X013620Y009276D01*
X013620Y009430D01*
X013561Y009573D01*
X013451Y009682D01*
X013309Y009741D01*
X013154Y009741D01*
X013012Y009682D01*
X012903Y009573D01*
X012870Y009495D01*
X012310Y009495D01*
X012310Y009574D01*
X012192Y009691D01*
X011436Y009691D01*
X011319Y009574D01*
X011319Y008896D01*
X011354Y008861D01*
X011319Y008826D01*
X011319Y008747D01*
X011217Y008747D01*
X011168Y008796D01*
X011025Y008856D01*
X010871Y008856D01*
X010728Y008796D01*
X010619Y008687D01*
X010560Y008545D01*
X010560Y008390D01*
X010613Y008263D01*
X010513Y008304D01*
X010359Y008304D01*
X010223Y008248D01*
X010223Y008846D01*
X010188Y008881D01*
X010223Y008916D01*
X010223Y009594D01*
X010106Y009711D01*
X009407Y009711D01*
X009329Y009789D01*
X013669Y009789D01*
X013811Y009730D01*
X013990Y009730D01*
X014156Y009799D01*
X014282Y009925D01*
X014351Y010090D01*
X014351Y010270D01*
X014282Y010435D01*
X014097Y010621D01*
X013931Y010689D01*
X013185Y010689D01*
X013187Y010693D01*
X013187Y010848D01*
X013128Y010990D01*
X013037Y011081D01*
X013047Y011081D01*
X013143Y011121D01*
X013212Y011191D01*
X013247Y011181D01*
X013459Y011181D01*
X013459Y011628D01*
X013516Y011628D01*
X013516Y011685D01*
X013884Y011685D01*
X013884Y011975D01*
X013873Y012015D01*
X013963Y012105D01*
X013963Y012626D01*
X013964Y012628D01*
X013964Y012962D01*
X014033Y013031D01*
X014092Y013174D01*
X014092Y013328D01*
X014033Y013471D01*
X013924Y013580D01*
X013781Y013639D01*
X013627Y013639D01*
X013484Y013580D01*
X013375Y013471D01*
X013316Y013328D01*
X013316Y013174D01*
X013375Y013031D01*
X013428Y012978D01*
X013168Y012978D01*
X013156Y012966D01*
X013143Y012979D01*
X013047Y013019D01*
X012606Y013019D01*
X012606Y013873D01*
X012566Y013969D01*
X012493Y014042D01*
X012190Y014345D01*
X012372Y014345D01*
X012489Y014463D01*
X012489Y015228D01*
X012372Y015345D01*
X011607Y015345D01*
X011489Y015228D01*
X011489Y014594D01*
X011426Y014594D01*
X011489Y014746D01*
X011489Y014945D01*
X011413Y015129D01*
X011273Y015269D01*
X011089Y015345D01*
X010890Y015345D01*
X010706Y015269D01*
X010566Y015129D01*
X010489Y014945D01*
X010413Y015129D01*
X010273Y015269D01*
X010089Y015345D01*
X009890Y015345D01*
X009706Y015269D01*
X009566Y015129D01*
X009489Y014945D01*
X009413Y015129D01*
X009273Y015269D01*
X009089Y015345D01*
X008890Y015345D01*
X008706Y015269D01*
X008566Y015129D01*
X008489Y014945D01*
X008489Y014746D01*
X008566Y014562D01*
X008706Y014421D01*
X008890Y014345D01*
X009089Y014345D01*
X009273Y014421D01*
X009413Y014562D01*
X009489Y014746D01*
X009489Y014945D01*
X009489Y014746D01*
X009566Y014562D01*
X009706Y014421D01*
X009890Y014345D01*
X010089Y014345D01*
X010273Y014421D01*
X010413Y014562D01*
X010489Y014746D01*
X010489Y014945D01*
X010489Y014746D01*
X010566Y014562D01*
X010638Y014490D01*
X010629Y014481D01*
X010494Y014345D01*
X010390Y014345D01*
X010206Y014269D01*
X010066Y014129D01*
X009989Y013945D01*
X009913Y014129D01*
X009773Y014269D01*
X009589Y014345D01*
X009390Y014345D01*
X009206Y014269D01*
X009066Y014129D01*
X008989Y013945D01*
X008913Y014129D01*
X008773Y014269D01*
X008589Y014345D01*
X008390Y014345D01*
X008206Y014269D01*
X008198Y014261D01*
X006912Y014261D01*
X006765Y014200D01*
X006652Y014088D01*
X006652Y014088D01*
X006450Y013885D01*
X006337Y013773D01*
X006276Y013626D01*
X006276Y012937D01*
X006221Y012881D01*
X006221Y012819D01*
X006207Y012832D01*
X006065Y012891D01*
X005910Y012891D01*
X005768Y012832D01*
X005658Y012723D01*
X005599Y012580D01*
X005599Y012426D01*
X005658Y012283D01*
X005768Y012174D01*
X005910Y012115D01*
X006065Y012115D01*
X006207Y012174D01*
X006221Y012187D01*
X006221Y012125D01*
X006276Y012070D01*
X006221Y012015D01*
X006221Y011534D01*
X006161Y011475D01*
X006123Y011383D01*
X006123Y011277D01*
X005989Y011277D01*
X005846Y011218D01*
X005737Y011109D01*
X005678Y010966D01*
X005678Y010811D01*
X005737Y010669D01*
X005846Y010560D01*
X005989Y010501D01*
X006093Y010501D01*
X006093Y010034D01*
X006210Y009917D01*
X006536Y009917D01*
X006623Y010004D01*
X006710Y009917D01*
X007036Y009917D01*
X007123Y010004D01*
X007210Y009917D01*
X007536Y009917D01*
X007653Y010034D01*
X007653Y010680D01*
X007536Y010797D01*
X007210Y010797D01*
X007123Y010710D01*
X007036Y010797D01*
X006710Y010797D01*
X006623Y010710D01*
X006623Y011141D01*
X007015Y011141D01*
X007066Y011193D01*
X007099Y011174D01*
X007145Y011161D01*
X007377Y011161D01*
X007377Y011589D01*
X007472Y011589D01*
X007472Y011161D01*
X007704Y011161D01*
X007750Y011174D01*
X007791Y011197D01*
X007824Y011231D01*
X007848Y011272D01*
X007860Y011318D01*
X007860Y011589D01*
X007472Y011589D01*
X007472Y011685D01*
X007860Y011685D01*
X007860Y011956D01*
X007848Y012001D01*
X007824Y012042D01*
X007811Y012056D01*
X007839Y012083D01*
X008053Y012083D01*
X008087Y012050D01*
X008032Y011995D01*
X008032Y011239D01*
X008149Y011122D01*
X008826Y011122D01*
X008861Y011157D01*
X008897Y011122D01*
X009027Y011122D01*
X009054Y011056D01*
X009128Y010983D01*
X009246Y010865D01*
X009341Y010826D01*
X012376Y010826D01*
X012410Y010791D01*
X012410Y010693D01*
X012412Y010689D01*
X008437Y010689D01*
X008272Y010621D01*
X008145Y010494D01*
X008077Y010329D01*
X008077Y010150D01*
X008145Y009984D01*
X008272Y009858D01*
X008437Y009789D01*
X008827Y009789D01*
X008749Y009711D01*
X008690Y009568D01*
X008690Y009414D01*
X008749Y009271D01*
X008858Y009162D01*
X009001Y009103D01*
X009098Y009103D01*
X009167Y009034D01*
X009232Y009007D01*
X009232Y008916D01*
X009268Y008881D01*
X009232Y008846D01*
X009232Y008767D01*
X008889Y008767D01*
X008818Y008737D01*
X008706Y008737D01*
X008563Y008678D01*
X008454Y008569D01*
X008395Y008426D01*
X008395Y008272D01*
X008454Y008129D01*
X008563Y008020D01*
X008588Y008010D01*
X008523Y007945D01*
X008287Y007709D01*
X008247Y007614D01*
X008247Y006799D01*
X008239Y006804D01*
X008193Y006816D01*
X007895Y006816D01*
X007895Y006580D01*
X007895Y006580D01*
X007895Y006816D01*
X007596Y006816D01*
X007550Y006804D01*
X007509Y006780D01*
X007476Y006747D01*
X007452Y006706D01*
X007440Y006660D01*
X007440Y006568D01*
X007524Y006568D01*
X007524Y006568D01*
X007440Y006568D01*
X007440Y006483D01*
X007420Y006463D01*
X007420Y006344D01*
X007329Y006434D01*
X007187Y006493D01*
X007032Y006493D01*
X006890Y006434D01*
X006781Y006325D01*
X006721Y006182D01*
X006721Y006028D01*
X006781Y005885D01*
X006890Y005776D01*
X007032Y005717D01*
X007130Y005717D01*
X007267Y005580D01*
X007363Y005540D01*
X007440Y005540D01*
X007440Y005452D01*
X007449Y005416D01*
X007440Y005380D01*
X007440Y005292D01*
X007389Y005292D01*
X007388Y005292D01*
X007246Y005352D01*
X007091Y005352D01*
X006949Y005292D01*
X006840Y005183D01*
X006780Y005041D01*
X006780Y004948D01*
X006679Y004948D01*
X006679Y005132D01*
X006291Y005132D01*
X006291Y005228D01*
X006195Y005228D01*
X006195Y005939D01*
X006291Y005939D01*
X006291Y005512D01*
X006291Y005228D01*
X006679Y005228D01*
X006679Y005499D01*
X006667Y005545D01*
X006645Y005584D01*
X006667Y005622D01*
X006679Y005668D01*
X006679Y005939D01*
X006291Y005939D01*
X006291Y006035D01*
X006195Y006035D01*
X006195Y006462D01*
X005964Y006462D01*
X005918Y006450D01*
X005885Y006431D01*
X005834Y006482D01*
X005815Y006482D01*
X005815Y006515D01*
X005834Y006515D01*
X005885Y006567D01*
X005918Y006548D01*
X005964Y006535D01*
X006195Y006535D01*
X006195Y006963D01*
X006291Y006963D01*
X006291Y006535D01*
X006523Y006535D01*
X006569Y006548D01*
X006610Y006571D01*
X006643Y006605D01*
X006667Y006646D01*
X006679Y006692D01*
X006679Y006963D01*
X006291Y006963D01*
X006291Y007059D01*
X006195Y007059D01*
X006195Y007486D01*
X005964Y007486D01*
X005918Y007474D01*
X005885Y007455D01*
X005834Y007506D01*
X005776Y007506D01*
X005776Y007519D01*
X005795Y007519D01*
X005912Y007637D01*
X005912Y007990D01*
X006093Y007990D01*
X006102Y007981D01*
X006245Y007922D01*
X006399Y007922D01*
X006542Y007981D01*
X006651Y008090D01*
X006710Y008233D01*
X006710Y008387D01*
X006651Y008530D01*
X006623Y008558D01*
X006623Y008744D01*
X006710Y008657D01*
X007036Y008657D01*
X007123Y008744D01*
X007210Y008657D01*
X007536Y008657D01*
X007653Y008774D01*
X007653Y009420D01*
X007536Y009537D01*
X007210Y009537D01*
X007123Y009450D01*
X007036Y009537D01*
X006710Y009537D01*
X006623Y009450D01*
X006536Y009537D01*
X006210Y009537D01*
X006093Y009420D01*
X006093Y008774D01*
X006123Y008744D01*
X006123Y008648D01*
X006102Y008639D01*
X006093Y008630D01*
X005688Y008630D01*
X005570Y008581D01*
X005499Y008510D01*
X005117Y008510D01*
X005082Y008475D01*
X005047Y008510D01*
X004369Y008510D01*
X004252Y008393D01*
X004252Y008295D01*
X003825Y008295D01*
X003723Y008252D01*
X003624Y008154D01*
X003545Y008075D01*
X003503Y007972D01*
X003503Y007847D01*
X003330Y007847D01*
X003213Y007730D01*
X003213Y005564D01*
X003330Y005447D01*
X003503Y005447D01*
X003503Y004794D01*
X003543Y004698D01*
X003616Y004625D01*
X003691Y004550D01*
X003680Y004540D01*
X003596Y004456D01*
X003523Y004382D01*
X003483Y004287D01*
X003483Y004047D01*
X003330Y004047D01*
X003213Y003930D01*
X003213Y001764D01*
X003330Y001647D01*
X003483Y001647D01*
X003483Y001620D01*
X003526Y001517D01*
X003604Y001439D01*
X003723Y001321D01*
X003825Y001278D01*
X004665Y001278D01*
X004665Y001180D01*
X004783Y001063D01*
X005460Y001063D01*
X005495Y001098D01*
X005531Y001063D01*
X006208Y001063D01*
X006325Y001180D01*
X006325Y001936D01*
X006268Y001993D01*
X006268Y002136D01*
X006277Y002145D01*
X006336Y002288D01*
X006336Y002442D01*
X006277Y002585D01*
X006168Y002694D01*
X006156Y002699D01*
X006156Y003045D01*
X006252Y003045D01*
X006252Y002618D01*
X006484Y002618D01*
X006529Y002630D01*
X006570Y002654D01*
X006604Y002688D01*
X006628Y002729D01*
X006640Y002774D01*
X006640Y003045D01*
X006252Y003045D01*
X006252Y003141D01*
X006640Y003141D01*
X006640Y003412D01*
X006628Y003458D01*
X006606Y003496D01*
X006624Y003514D01*
X006647Y003555D01*
X006660Y003601D01*
X006660Y003872D01*
X006272Y003872D01*
X006272Y003968D01*
X006660Y003968D01*
X006660Y004081D01*
X006697Y004044D01*
X006792Y004005D01*
X007440Y004005D01*
X007440Y003924D01*
X007420Y003904D01*
X007420Y003346D01*
X007440Y003326D01*
X007440Y003241D01*
X007440Y003149D01*
X007452Y003103D01*
X007476Y003062D01*
X007509Y003028D01*
X007550Y003005D01*
X007596Y002993D01*
X007895Y002993D01*
X008193Y002993D01*
X008239Y003005D01*
X008280Y003028D01*
X008306Y003055D01*
X008306Y002872D01*
X008209Y002832D01*
X008099Y002723D01*
X008040Y002580D01*
X008040Y002426D01*
X008099Y002283D01*
X008209Y002174D01*
X008351Y002115D01*
X008506Y002115D01*
X008648Y002174D01*
X008710Y002235D01*
X008710Y002209D01*
X008769Y002066D01*
X008878Y001957D01*
X009021Y001898D01*
X009175Y001898D01*
X009318Y001957D01*
X009427Y002066D01*
X009486Y002209D01*
X009486Y002363D01*
X009427Y002506D01*
X009358Y002575D01*
X009358Y003657D01*
X009318Y003752D01*
X009245Y003826D01*
X009170Y003900D01*
X009170Y003900D01*
X009097Y003973D01*
X009002Y004013D01*
X008350Y004013D01*
X008350Y004093D01*
X008370Y004113D01*
X008370Y005184D01*
X008350Y005204D01*
X008350Y005288D01*
X008265Y005288D01*
X008265Y005288D01*
X008350Y005288D01*
X008350Y005380D01*
X008340Y005416D01*
X008350Y005452D01*
X008350Y005540D01*
X010298Y005540D01*
X010298Y003777D01*
X010095Y003777D01*
X009992Y003734D01*
X009667Y003409D01*
X009589Y003331D01*
X009546Y003228D01*
X009546Y002890D01*
X009497Y002841D01*
X009438Y002698D01*
X009438Y002544D01*
X009497Y002401D01*
X009606Y002292D01*
X009749Y002233D01*
X009903Y002233D01*
X010046Y002292D01*
X010155Y002401D01*
X010214Y002544D01*
X010214Y002698D01*
X010155Y002841D01*
X010106Y002890D01*
X010106Y003056D01*
X010267Y003217D01*
X010298Y003217D01*
X010298Y003090D01*
X010415Y002973D01*
X011131Y002973D01*
X011140Y002981D01*
X011303Y002981D01*
X012165Y002119D01*
X012165Y001888D01*
X012283Y001771D01*
X012960Y001771D01*
X012995Y001807D01*
X013031Y001771D01*
X013049Y001771D01*
X013049Y001710D01*
X012981Y001642D01*
X012850Y001642D01*
X012841Y001651D01*
X012699Y001710D01*
X012544Y001710D01*
X012401Y001651D01*
X012292Y001542D01*
X012233Y001399D01*
X012233Y001245D01*
X012292Y001102D01*
X012401Y000993D01*
X012544Y000934D01*
X012699Y000934D01*
X012841Y000993D01*
X012850Y001002D01*
X013177Y001002D01*
X013295Y001050D01*
X013385Y001140D01*
X013641Y001396D01*
X013689Y001514D01*
X013689Y001771D01*
X013708Y001771D01*
X013825Y001888D01*
X013825Y002230D01*
X014015Y002041D01*
X014088Y001967D01*
X014184Y001928D01*
X014360Y001928D01*
X014360Y001540D01*
X014635Y001265D01*
X015025Y001265D01*
X015300Y001540D01*
X015300Y001928D01*
X015334Y001928D01*
X015375Y001945D01*
X015360Y001930D01*
X015360Y001540D01*
X015635Y001265D01*
X016025Y001265D01*
X016091Y001331D01*
X016091Y001139D01*
X016025Y001205D01*
X015635Y001205D01*
X015360Y000930D01*
X015360Y000540D01*
X015410Y000490D01*
X015237Y000490D01*
X015300Y000642D01*
X015300Y000829D01*
X015228Y001001D01*
X015096Y001134D01*
X014923Y001205D01*
X014737Y001205D01*
X014564Y001134D01*
X014432Y001001D01*
X014360Y000829D01*
X014360Y000642D01*
X014423Y000490D01*
X002250Y000490D01*
X002300Y000540D01*
X002300Y000930D01*
X002025Y001205D01*
X001635Y001205D01*
X001360Y000930D01*
X001360Y000540D01*
X001410Y000490D01*
X001237Y000490D01*
X001300Y000642D01*
X001300Y000829D01*
X001228Y001001D01*
X001096Y001134D01*
X000923Y001205D01*
X000737Y001205D01*
X000569Y001136D01*
X000569Y001290D02*
X000611Y001290D01*
X001049Y001290D02*
X001611Y001290D01*
X001635Y001265D02*
X002025Y001265D01*
X002300Y001540D01*
X002300Y001930D01*
X002025Y002205D01*
X001635Y002205D01*
X001360Y001930D01*
X001360Y001540D01*
X001635Y001265D01*
X001561Y001131D02*
X001099Y001131D01*
X001240Y000973D02*
X001403Y000973D01*
X001360Y000814D02*
X001300Y000814D01*
X001300Y000656D02*
X001360Y000656D01*
X001403Y000497D02*
X001240Y000497D01*
X001208Y001448D02*
X001452Y001448D01*
X001360Y001607D02*
X001300Y001607D01*
X001300Y001765D02*
X001360Y001765D01*
X001360Y001924D02*
X001300Y001924D01*
X001148Y002082D02*
X001512Y002082D01*
X001635Y002265D02*
X002025Y002265D01*
X002300Y002540D01*
X002300Y002930D01*
X002025Y003205D01*
X001635Y003205D01*
X001360Y002930D01*
X001360Y002540D01*
X001635Y002265D01*
X001501Y002399D02*
X001159Y002399D01*
X001300Y002558D02*
X001360Y002558D01*
X001360Y002716D02*
X001300Y002716D01*
X001300Y002875D02*
X001360Y002875D01*
X001463Y003033D02*
X001197Y003033D01*
X001038Y003192D02*
X001622Y003192D01*
X001635Y003265D02*
X002025Y003265D01*
X002300Y003540D01*
X002300Y003930D01*
X002025Y004205D01*
X001635Y004205D01*
X001360Y003930D01*
X001360Y003540D01*
X001635Y003265D01*
X001550Y003350D02*
X001110Y003350D01*
X001268Y003509D02*
X001392Y003509D01*
X001360Y003667D02*
X001300Y003667D01*
X001300Y003826D02*
X001360Y003826D01*
X001414Y003984D02*
X001246Y003984D01*
X001087Y004143D02*
X001573Y004143D01*
X001635Y004265D02*
X002025Y004265D01*
X002300Y004540D01*
X002300Y004930D01*
X002025Y005205D01*
X001635Y005205D01*
X001360Y004930D01*
X001360Y004540D01*
X001635Y004265D01*
X001599Y004301D02*
X001061Y004301D01*
X001219Y004460D02*
X001441Y004460D01*
X001360Y004618D02*
X001300Y004618D01*
X001300Y004777D02*
X001360Y004777D01*
X001365Y004935D02*
X001295Y004935D01*
X001136Y005094D02*
X001524Y005094D01*
X001635Y005265D02*
X002025Y005265D01*
X002300Y005540D01*
X002300Y005930D01*
X002025Y006205D01*
X001635Y006205D01*
X001360Y005930D01*
X001360Y005540D01*
X001635Y005265D01*
X001490Y005411D02*
X001170Y005411D01*
X001300Y005569D02*
X001360Y005569D01*
X001360Y005728D02*
X001300Y005728D01*
X001300Y005886D02*
X001360Y005886D01*
X001475Y006045D02*
X001185Y006045D01*
X001027Y006203D02*
X001633Y006203D01*
X001635Y006265D02*
X002025Y006265D01*
X002300Y006540D01*
X002300Y006930D01*
X002025Y007205D01*
X001635Y007205D01*
X001360Y006930D01*
X001360Y006540D01*
X001635Y006265D01*
X001539Y006362D02*
X001121Y006362D01*
X001280Y006520D02*
X001380Y006520D01*
X001360Y006679D02*
X001300Y006679D01*
X001300Y006837D02*
X001360Y006837D01*
X001426Y006996D02*
X001234Y006996D01*
X001076Y007154D02*
X001584Y007154D01*
X001635Y007265D02*
X002025Y007265D01*
X002300Y007540D01*
X002300Y007930D01*
X002025Y008205D01*
X001635Y008205D01*
X001360Y007930D01*
X001360Y007540D01*
X001635Y007265D01*
X001588Y007313D02*
X001072Y007313D01*
X001231Y007471D02*
X001429Y007471D01*
X001360Y007630D02*
X001300Y007630D01*
X001300Y007788D02*
X001360Y007788D01*
X001377Y007947D02*
X001283Y007947D01*
X001125Y008105D02*
X001535Y008105D01*
X001635Y008265D02*
X002025Y008265D01*
X002300Y008540D01*
X002300Y008930D01*
X002025Y009205D01*
X001635Y009205D01*
X001360Y008930D01*
X001360Y008540D01*
X001635Y008265D01*
X001478Y008422D02*
X001182Y008422D01*
X001300Y008581D02*
X001360Y008581D01*
X001360Y008739D02*
X001300Y008739D01*
X001300Y008898D02*
X001360Y008898D01*
X001486Y009056D02*
X001174Y009056D01*
X001133Y009373D02*
X001527Y009373D01*
X001635Y009265D02*
X002025Y009265D01*
X002300Y009540D01*
X002300Y009930D01*
X002025Y010205D01*
X001635Y010205D01*
X001360Y009930D01*
X001360Y009540D01*
X001635Y009265D01*
X001369Y009532D02*
X001291Y009532D01*
X001300Y009690D02*
X001360Y009690D01*
X001360Y009849D02*
X001300Y009849D01*
X001223Y010007D02*
X001437Y010007D01*
X001596Y010166D02*
X001064Y010166D01*
X001084Y010324D02*
X001576Y010324D01*
X001635Y010265D02*
X002025Y010265D01*
X002300Y010540D01*
X002300Y010930D01*
X002025Y011205D01*
X001635Y011205D01*
X001360Y010930D01*
X001360Y010540D01*
X001635Y010265D01*
X001418Y010483D02*
X001242Y010483D01*
X001300Y010641D02*
X001360Y010641D01*
X001360Y010800D02*
X001300Y010800D01*
X001272Y010958D02*
X001388Y010958D01*
X001547Y011117D02*
X001113Y011117D01*
X001035Y011275D02*
X001625Y011275D01*
X001635Y011265D02*
X002025Y011265D01*
X002300Y011540D01*
X002300Y011930D01*
X002025Y012205D01*
X001635Y012205D01*
X001360Y011930D01*
X001360Y011540D01*
X001635Y011265D01*
X001467Y011434D02*
X001193Y011434D01*
X001300Y011592D02*
X001360Y011592D01*
X001360Y011751D02*
X001300Y011751D01*
X001300Y011909D02*
X001360Y011909D01*
X001498Y012068D02*
X001162Y012068D01*
X001144Y012385D02*
X001516Y012385D01*
X001635Y012265D02*
X002025Y012265D01*
X002300Y012540D01*
X002300Y012930D01*
X002025Y013205D01*
X001635Y013205D01*
X001360Y012930D01*
X001360Y012540D01*
X001635Y012265D01*
X001360Y012543D02*
X001300Y012543D01*
X001300Y012702D02*
X001360Y012702D01*
X001360Y012860D02*
X001300Y012860D01*
X001211Y013019D02*
X001449Y013019D01*
X001607Y013177D02*
X001053Y013177D01*
X001095Y013336D02*
X001565Y013336D01*
X001635Y013265D02*
X002025Y013265D01*
X002300Y013540D01*
X002300Y013930D01*
X002025Y014205D01*
X001635Y014205D01*
X001360Y013930D01*
X001360Y013540D01*
X001635Y013265D01*
X001406Y013494D02*
X001254Y013494D01*
X001300Y013653D02*
X001360Y013653D01*
X001360Y013811D02*
X001300Y013811D01*
X001260Y013970D02*
X001400Y013970D01*
X001558Y014128D02*
X001102Y014128D01*
X001046Y014287D02*
X001614Y014287D01*
X001635Y014265D02*
X002025Y014265D01*
X002300Y014540D01*
X002300Y014930D01*
X002025Y015205D01*
X001635Y015205D01*
X001360Y014930D01*
X001360Y014540D01*
X001635Y014265D01*
X001455Y014445D02*
X001205Y014445D01*
X001300Y014604D02*
X001360Y014604D01*
X001360Y014762D02*
X001300Y014762D01*
X001300Y014921D02*
X001360Y014921D01*
X001509Y015079D02*
X001151Y015079D01*
X001127Y015396D02*
X001504Y015396D01*
X001635Y015265D02*
X002025Y015265D01*
X002300Y015540D01*
X002300Y015930D01*
X002025Y016205D01*
X001635Y016205D01*
X001360Y015930D01*
X001360Y015540D01*
X001635Y015265D01*
X001360Y015555D02*
X001280Y015555D01*
X001280Y015713D02*
X001360Y015713D01*
X001360Y015872D02*
X001280Y015872D01*
X001171Y016030D02*
X001460Y016030D01*
X001619Y016189D02*
X000569Y016189D01*
X000820Y016030D02*
X000840Y016030D01*
X000840Y015872D02*
X000820Y015872D01*
X000820Y015713D02*
X000840Y015713D01*
X000840Y015555D02*
X000820Y015555D01*
X000820Y015396D02*
X000840Y015396D01*
X000569Y015238D02*
X008675Y015238D01*
X008545Y015079D02*
X002151Y015079D01*
X002300Y014921D02*
X008489Y014921D01*
X008489Y014762D02*
X002300Y014762D01*
X002300Y014604D02*
X008548Y014604D01*
X008683Y014445D02*
X002205Y014445D01*
X002046Y014287D02*
X008248Y014287D01*
X008731Y014287D02*
X009248Y014287D01*
X009296Y014445D02*
X009683Y014445D01*
X009731Y014287D02*
X010248Y014287D01*
X010296Y014445D02*
X010593Y014445D01*
X010548Y014604D02*
X010430Y014604D01*
X010489Y014762D02*
X010489Y014762D01*
X010489Y014921D02*
X010489Y014921D01*
X010434Y015079D02*
X010545Y015079D01*
X010675Y015238D02*
X010304Y015238D01*
X009675Y015238D02*
X009304Y015238D01*
X009434Y015079D02*
X009545Y015079D01*
X009489Y014921D02*
X009489Y014921D01*
X009489Y014762D02*
X009489Y014762D01*
X009430Y014604D02*
X009548Y014604D01*
X009914Y014128D02*
X010065Y014128D01*
X010000Y013970D02*
X009979Y013970D01*
X009989Y013945D02*
X009989Y013911D01*
X009989Y013911D01*
X009989Y013945D01*
X010108Y013520D02*
X010206Y013421D01*
X010390Y013345D01*
X010589Y013345D01*
X010686Y013386D01*
X010686Y012937D01*
X010630Y012881D01*
X010630Y012859D01*
X010553Y012891D01*
X010398Y012891D01*
X010256Y012832D01*
X010147Y012723D01*
X010108Y012629D01*
X010108Y013520D01*
X010108Y013494D02*
X010134Y013494D01*
X010108Y013336D02*
X010686Y013336D01*
X010686Y013177D02*
X010108Y013177D01*
X010108Y013019D02*
X010686Y013019D01*
X010630Y012860D02*
X010628Y012860D01*
X010324Y012860D02*
X010108Y012860D01*
X010108Y012702D02*
X010138Y012702D01*
X010088Y012433D02*
X010088Y012426D01*
X010147Y012283D01*
X010256Y012174D01*
X010398Y012115D01*
X010553Y012115D01*
X010630Y012147D01*
X010630Y012125D01*
X010685Y012070D01*
X010630Y012015D01*
X010630Y011887D01*
X010204Y011887D01*
X010125Y011966D01*
X009982Y012025D01*
X009828Y012025D01*
X009691Y011968D01*
X009691Y011995D01*
X009636Y012050D01*
X009670Y012083D01*
X009709Y012083D01*
X009856Y012144D01*
X009935Y012223D01*
X010047Y012335D01*
X010088Y012433D01*
X010105Y012385D02*
X010067Y012385D01*
X009938Y012226D02*
X010204Y012226D01*
X010181Y011909D02*
X010630Y011909D01*
X010683Y012068D02*
X009654Y012068D01*
X010204Y011387D02*
X010162Y011346D01*
X010630Y011346D01*
X010630Y011387D01*
X010204Y011387D01*
X009153Y010958D02*
X006623Y010958D01*
X006623Y010800D02*
X012402Y010800D01*
X013141Y010958D02*
X014388Y010958D01*
X014360Y010930D02*
X014360Y010540D01*
X014635Y010265D01*
X015025Y010265D01*
X015300Y010540D01*
X015300Y010930D01*
X015025Y011205D01*
X014635Y011205D01*
X014360Y010930D01*
X014360Y010800D02*
X013187Y010800D01*
X013132Y011117D02*
X014547Y011117D01*
X014635Y011265D02*
X015025Y011265D01*
X015300Y011540D01*
X015300Y011930D01*
X015025Y012205D01*
X014635Y012205D01*
X014360Y011930D01*
X014360Y011540D01*
X014635Y011265D01*
X014625Y011275D02*
X013862Y011275D01*
X013872Y011292D02*
X013884Y011337D01*
X013884Y011628D01*
X013516Y011628D01*
X013516Y011181D01*
X013728Y011181D01*
X013773Y011193D01*
X013815Y011217D01*
X013848Y011251D01*
X013872Y011292D01*
X013884Y011434D02*
X014467Y011434D01*
X014360Y011592D02*
X013884Y011592D01*
X013884Y011751D02*
X014360Y011751D01*
X014360Y011909D02*
X013884Y011909D01*
X013926Y012068D02*
X014498Y012068D01*
X014635Y012265D02*
X015025Y012265D01*
X015300Y012540D01*
X015300Y012930D01*
X015025Y013205D01*
X014635Y013205D01*
X014360Y012930D01*
X014360Y012540D01*
X014635Y012265D01*
X014516Y012385D02*
X013963Y012385D01*
X013963Y012543D02*
X014360Y012543D01*
X014360Y012702D02*
X013964Y012702D01*
X013964Y012860D02*
X014360Y012860D01*
X014449Y013019D02*
X014021Y013019D01*
X014092Y013177D02*
X014607Y013177D01*
X014635Y013265D02*
X015025Y013265D01*
X015300Y013540D01*
X015300Y013930D01*
X015025Y014205D01*
X014635Y014205D01*
X014360Y013930D01*
X014360Y013540D01*
X014635Y013265D01*
X014565Y013336D02*
X014089Y013336D01*
X014010Y013494D02*
X014406Y013494D01*
X014360Y013653D02*
X012606Y013653D01*
X012606Y013811D02*
X014360Y013811D01*
X014400Y013970D02*
X012566Y013970D01*
X012493Y014042D02*
X012493Y014042D01*
X012407Y014128D02*
X014558Y014128D01*
X014635Y014265D02*
X015025Y014265D01*
X015300Y014540D01*
X015300Y014930D01*
X015025Y015205D01*
X014635Y015205D01*
X014360Y014930D01*
X014360Y014540D01*
X014635Y014265D01*
X014614Y014287D02*
X012249Y014287D01*
X012472Y014445D02*
X014455Y014445D01*
X014360Y014604D02*
X012489Y014604D01*
X012489Y014762D02*
X014360Y014762D01*
X014360Y014921D02*
X012489Y014921D01*
X012489Y015079D02*
X014509Y015079D01*
X014635Y015265D02*
X015025Y015265D01*
X015300Y015540D01*
X015300Y015930D01*
X015025Y016205D01*
X014635Y016205D01*
X014360Y015930D01*
X014360Y015540D01*
X014635Y015265D01*
X014504Y015396D02*
X002156Y015396D01*
X002300Y015555D02*
X006840Y015555D01*
X006953Y015508D02*
X007226Y015508D01*
X007479Y015613D01*
X007672Y015806D01*
X007777Y016059D01*
X007777Y016332D01*
X007730Y016446D01*
X007804Y016415D01*
X008174Y016415D01*
X008516Y016557D01*
X008778Y016819D01*
X008919Y017160D01*
X008919Y017530D01*
X008778Y017872D01*
X008516Y018134D01*
X008174Y018275D01*
X007804Y018275D01*
X007463Y018134D01*
X007201Y017872D01*
X007059Y017530D01*
X007059Y017160D01*
X007174Y016883D01*
X006953Y016883D01*
X006700Y016778D01*
X006507Y016585D01*
X006402Y016332D01*
X006402Y016059D01*
X006507Y015806D01*
X006700Y015613D01*
X006953Y015508D01*
X006600Y015713D02*
X002300Y015713D01*
X002300Y015872D02*
X006479Y015872D01*
X006414Y016030D02*
X002200Y016030D01*
X002041Y016189D02*
X006402Y016189D01*
X006408Y016347D02*
X002107Y016347D01*
X002025Y016265D02*
X002300Y016540D01*
X002300Y016930D01*
X002025Y017205D01*
X001635Y017205D01*
X001360Y016930D01*
X001360Y016540D01*
X001635Y016265D01*
X002025Y016265D01*
X002265Y016506D02*
X006474Y016506D01*
X006586Y016664D02*
X002300Y016664D01*
X002300Y016823D02*
X006807Y016823D01*
X007134Y016981D02*
X002249Y016981D01*
X002090Y017140D02*
X007068Y017140D01*
X007059Y017298D02*
X002058Y017298D01*
X002025Y017265D02*
X002300Y017540D01*
X002300Y017930D01*
X002025Y018205D01*
X001635Y018205D01*
X001360Y017930D01*
X001360Y017540D01*
X001635Y017265D01*
X002025Y017265D01*
X002216Y017457D02*
X007059Y017457D01*
X007095Y017615D02*
X002300Y017615D01*
X002300Y017774D02*
X007160Y017774D01*
X007261Y017932D02*
X002298Y017932D01*
X002139Y018091D02*
X007419Y018091D01*
X007741Y018249D02*
X000569Y018249D01*
X000569Y018408D02*
X015339Y018408D01*
X015167Y018564D02*
X015167Y018564D01*
X015165Y018566D02*
X014932Y018566D01*
X014962Y018588D02*
X014962Y018588D01*
X015025Y018205D02*
X014635Y018205D01*
X014360Y017930D01*
X014360Y017540D01*
X014635Y017265D01*
X015025Y017265D01*
X015300Y017540D01*
X015300Y017930D01*
X015025Y018205D01*
X015139Y018091D02*
X015521Y018091D01*
X015362Y017932D02*
X015298Y017932D01*
X015300Y017774D02*
X015360Y017774D01*
X015360Y017615D02*
X015300Y017615D01*
X015216Y017457D02*
X015444Y017457D01*
X015602Y017298D02*
X015058Y017298D01*
X015025Y017205D02*
X014635Y017205D01*
X014360Y016930D01*
X014360Y016540D01*
X014635Y016265D01*
X015025Y016265D01*
X015300Y016540D01*
X015300Y016930D01*
X015025Y017205D01*
X015090Y017140D02*
X015570Y017140D01*
X015411Y016981D02*
X015249Y016981D01*
X015300Y016823D02*
X015360Y016823D01*
X015360Y016664D02*
X015300Y016664D01*
X015265Y016506D02*
X015395Y016506D01*
X015553Y016347D02*
X015107Y016347D01*
X015041Y016189D02*
X015619Y016189D01*
X015460Y016030D02*
X015200Y016030D01*
X015300Y015872D02*
X015360Y015872D01*
X015360Y015713D02*
X015300Y015713D01*
X015300Y015555D02*
X015360Y015555D01*
X015504Y015396D02*
X015156Y015396D01*
X015151Y015079D02*
X015509Y015079D01*
X015360Y014921D02*
X015300Y014921D01*
X015300Y014762D02*
X015360Y014762D01*
X015360Y014604D02*
X015300Y014604D01*
X015205Y014445D02*
X015455Y014445D01*
X015614Y014287D02*
X015046Y014287D01*
X015102Y014128D02*
X015558Y014128D01*
X015400Y013970D02*
X015260Y013970D01*
X015300Y013811D02*
X015360Y013811D01*
X015360Y013653D02*
X015300Y013653D01*
X015254Y013494D02*
X015406Y013494D01*
X015565Y013336D02*
X015095Y013336D01*
X015053Y013177D02*
X015607Y013177D01*
X015449Y013019D02*
X015211Y013019D01*
X015300Y012860D02*
X015360Y012860D01*
X015360Y012702D02*
X015300Y012702D01*
X015300Y012543D02*
X015360Y012543D01*
X015516Y012385D02*
X015144Y012385D01*
X015162Y012068D02*
X015498Y012068D01*
X015360Y011909D02*
X015300Y011909D01*
X015300Y011751D02*
X015360Y011751D01*
X015360Y011592D02*
X015300Y011592D01*
X015193Y011434D02*
X015467Y011434D01*
X015625Y011275D02*
X015035Y011275D01*
X015113Y011117D02*
X015547Y011117D01*
X015388Y010958D02*
X015272Y010958D01*
X015300Y010800D02*
X015360Y010800D01*
X015360Y010641D02*
X015300Y010641D01*
X015242Y010483D02*
X015418Y010483D01*
X015576Y010324D02*
X015084Y010324D01*
X015025Y010205D02*
X014635Y010205D01*
X014360Y009930D01*
X014360Y009540D01*
X014635Y009265D01*
X015025Y009265D01*
X015300Y009540D01*
X015300Y009930D01*
X015025Y010205D01*
X015064Y010166D02*
X015596Y010166D01*
X015437Y010007D02*
X015223Y010007D01*
X015300Y009849D02*
X015360Y009849D01*
X015360Y009690D02*
X015300Y009690D01*
X015291Y009532D02*
X015369Y009532D01*
X015527Y009373D02*
X015133Y009373D01*
X015025Y009205D02*
X014635Y009205D01*
X014360Y008930D01*
X014360Y008540D01*
X014635Y008265D01*
X015025Y008265D01*
X015300Y008540D01*
X015300Y008930D01*
X015025Y009205D01*
X015174Y009056D02*
X015486Y009056D01*
X015360Y008898D02*
X015300Y008898D01*
X015300Y008739D02*
X015360Y008739D01*
X015360Y008581D02*
X015300Y008581D01*
X015182Y008422D02*
X015478Y008422D01*
X015535Y008105D02*
X015125Y008105D01*
X015283Y007947D02*
X015377Y007947D01*
X015360Y007788D02*
X015300Y007788D01*
X015300Y007630D02*
X015360Y007630D01*
X015429Y007471D02*
X015231Y007471D01*
X015072Y007313D02*
X015588Y007313D01*
X015584Y007154D02*
X015076Y007154D01*
X015234Y006996D02*
X015426Y006996D01*
X015360Y006837D02*
X015300Y006837D01*
X015300Y006679D02*
X015360Y006679D01*
X015380Y006520D02*
X015280Y006520D01*
X015121Y006362D02*
X015539Y006362D01*
X015633Y006203D02*
X015027Y006203D01*
X015185Y006045D02*
X015475Y006045D01*
X015360Y005886D02*
X015300Y005886D01*
X015300Y005728D02*
X015360Y005728D01*
X015360Y005569D02*
X015300Y005569D01*
X015668Y005265D02*
X015728Y005205D01*
X016025Y005205D01*
X016091Y005139D01*
X016091Y005331D01*
X016025Y005265D01*
X015668Y005265D01*
X015681Y005252D02*
X016091Y005252D01*
X015360Y004837D02*
X015360Y004540D01*
X015635Y004265D01*
X016025Y004265D01*
X016091Y004331D01*
X016091Y004139D01*
X016025Y004205D01*
X015635Y004205D01*
X015360Y003930D01*
X015360Y003633D01*
X015300Y003573D01*
X015300Y003930D01*
X015025Y004205D01*
X014728Y004205D01*
X014668Y004265D01*
X015025Y004265D01*
X015300Y004540D01*
X015300Y004897D01*
X015360Y004837D01*
X015360Y004777D02*
X015300Y004777D01*
X015300Y004618D02*
X015360Y004618D01*
X015441Y004460D02*
X015219Y004460D01*
X015061Y004301D02*
X015599Y004301D01*
X015573Y004143D02*
X015087Y004143D01*
X015246Y003984D02*
X015414Y003984D01*
X015360Y003826D02*
X015300Y003826D01*
X015300Y003667D02*
X015360Y003667D01*
X015728Y003265D02*
X015668Y003205D01*
X016025Y003205D01*
X016091Y003139D01*
X016091Y003331D01*
X016025Y003265D01*
X015728Y003265D01*
X016038Y003192D02*
X016091Y003192D01*
X015438Y003008D02*
X015360Y002930D01*
X015360Y002633D01*
X015300Y002573D01*
X015300Y002930D01*
X015239Y002991D01*
X015397Y002991D01*
X015438Y003008D01*
X015360Y002875D02*
X015300Y002875D01*
X015300Y002716D02*
X015360Y002716D01*
X015728Y002265D02*
X016025Y002265D01*
X016091Y002331D01*
X016091Y002139D01*
X016025Y002205D01*
X015668Y002205D01*
X015728Y002265D01*
X015703Y002241D02*
X016091Y002241D01*
X015360Y001924D02*
X015300Y001924D01*
X015300Y001765D02*
X015360Y001765D01*
X015360Y001607D02*
X015300Y001607D01*
X015208Y001448D02*
X015452Y001448D01*
X015611Y001290D02*
X015049Y001290D01*
X015099Y001131D02*
X015561Y001131D01*
X015403Y000973D02*
X015240Y000973D01*
X015300Y000814D02*
X015360Y000814D01*
X015360Y000656D02*
X015300Y000656D01*
X015240Y000497D02*
X015403Y000497D01*
X016049Y001290D02*
X016091Y001290D01*
X014611Y001290D02*
X013534Y001290D01*
X013662Y001448D02*
X014452Y001448D01*
X014360Y001607D02*
X013689Y001607D01*
X013689Y001765D02*
X014360Y001765D01*
X014360Y001924D02*
X013825Y001924D01*
X013825Y002082D02*
X013974Y002082D01*
X014234Y002558D02*
X014360Y002558D01*
X014360Y002540D02*
X014453Y002448D01*
X014343Y002448D01*
X014102Y002689D01*
X014102Y003391D01*
X014389Y003104D01*
X014461Y003031D01*
X014360Y002930D01*
X014360Y002540D01*
X014360Y002716D02*
X014102Y002716D01*
X014102Y002875D02*
X014360Y002875D01*
X014460Y003033D02*
X014102Y003033D01*
X014102Y003192D02*
X014301Y003192D01*
X014143Y003350D02*
X014102Y003350D01*
X013582Y002804D02*
X013582Y002762D01*
X013031Y002762D01*
X012995Y002727D01*
X012960Y002762D01*
X012283Y002762D01*
X012270Y002749D01*
X011994Y003025D01*
X012077Y002991D01*
X012295Y002991D01*
X012295Y002918D01*
X012413Y002801D01*
X013578Y002801D01*
X013582Y002804D01*
X013049Y001765D02*
X006325Y001765D01*
X006325Y001607D02*
X012357Y001607D01*
X012254Y001448D02*
X006325Y001448D01*
X006325Y001290D02*
X012233Y001290D01*
X012280Y001131D02*
X006276Y001131D01*
X006325Y001924D02*
X008959Y001924D01*
X008762Y002082D02*
X006268Y002082D01*
X006317Y002241D02*
X008142Y002241D01*
X008051Y002399D02*
X006336Y002399D01*
X006288Y002558D02*
X008040Y002558D01*
X008097Y002716D02*
X006620Y002716D01*
X006640Y002875D02*
X008306Y002875D01*
X008306Y003033D02*
X008285Y003033D01*
X007895Y003033D02*
X007895Y003033D01*
X007895Y002993D02*
X007895Y003228D01*
X007895Y003228D01*
X007895Y002993D01*
X007895Y003192D02*
X007895Y003192D01*
X007524Y003241D02*
X007440Y003241D01*
X007524Y003241D01*
X007524Y003241D01*
X007440Y003192D02*
X006640Y003192D01*
X006640Y003350D02*
X007420Y003350D01*
X007420Y003509D02*
X006618Y003509D01*
X006660Y003667D02*
X007420Y003667D01*
X007420Y003826D02*
X006660Y003826D01*
X006660Y003984D02*
X007440Y003984D01*
X007505Y003033D02*
X006640Y003033D01*
X006252Y003033D02*
X006156Y003033D01*
X006156Y003141D02*
X006156Y003445D01*
X006176Y003445D01*
X006176Y003872D01*
X006272Y003872D01*
X006272Y003569D01*
X006252Y003569D01*
X006252Y003141D01*
X006156Y003141D01*
X006156Y003192D02*
X006252Y003192D01*
X006252Y003350D02*
X006156Y003350D01*
X006176Y003509D02*
X006252Y003509D01*
X006272Y003667D02*
X006176Y003667D01*
X006176Y003826D02*
X006272Y003826D01*
X006252Y002875D02*
X006156Y002875D01*
X006156Y002716D02*
X006252Y002716D01*
X005560Y002301D02*
X005560Y002288D01*
X005619Y002145D01*
X005628Y002136D01*
X005628Y002053D01*
X005531Y002053D01*
X005495Y002018D01*
X005460Y002053D01*
X004783Y002053D01*
X004665Y001936D01*
X004665Y001838D01*
X004313Y001838D01*
X004313Y003930D01*
X004196Y004047D01*
X004003Y004047D01*
X004003Y004127D01*
X004009Y004133D01*
X005020Y004133D01*
X005020Y003542D01*
X005045Y003517D01*
X005000Y003472D01*
X005000Y002715D01*
X005117Y002598D01*
X005262Y002598D01*
X005560Y002301D01*
X005580Y002241D02*
X004313Y002241D01*
X004313Y002399D02*
X005462Y002399D01*
X005303Y002558D02*
X004313Y002558D01*
X004313Y002716D02*
X005000Y002716D01*
X005000Y002875D02*
X004313Y002875D01*
X004313Y003033D02*
X005000Y003033D01*
X005000Y003192D02*
X004313Y003192D01*
X004313Y003350D02*
X005000Y003350D01*
X005037Y003509D02*
X004313Y003509D01*
X004313Y003667D02*
X005020Y003667D01*
X005020Y003826D02*
X004313Y003826D01*
X004259Y003984D02*
X005020Y003984D01*
X005039Y004948D02*
X004028Y004948D01*
X004023Y004953D01*
X004023Y005447D01*
X004196Y005447D01*
X004313Y005564D01*
X004313Y007576D01*
X004369Y007519D01*
X005047Y007519D01*
X005082Y007555D01*
X005117Y007519D01*
X005136Y007519D01*
X005136Y007485D01*
X005039Y007389D01*
X005039Y006633D01*
X005157Y006515D01*
X005175Y006515D01*
X005175Y006482D01*
X005157Y006482D01*
X005039Y006365D01*
X005039Y005609D01*
X005065Y005584D01*
X005039Y005558D01*
X005039Y004948D01*
X005039Y005094D02*
X004023Y005094D01*
X004023Y005252D02*
X005039Y005252D01*
X005039Y005411D02*
X004023Y005411D01*
X004313Y005569D02*
X005050Y005569D01*
X005039Y005728D02*
X004313Y005728D01*
X004313Y005886D02*
X005039Y005886D01*
X005039Y006045D02*
X004313Y006045D01*
X004313Y006203D02*
X005039Y006203D01*
X005039Y006362D02*
X004313Y006362D01*
X004313Y006520D02*
X005152Y006520D01*
X005039Y006679D02*
X004313Y006679D01*
X004313Y006837D02*
X005039Y006837D01*
X005039Y006996D02*
X004313Y006996D01*
X004313Y007154D02*
X005039Y007154D01*
X005039Y007313D02*
X004313Y007313D01*
X004313Y007471D02*
X005122Y007471D01*
X004708Y008015D02*
X003881Y008015D01*
X003783Y007916D01*
X003783Y006667D01*
X003213Y006679D02*
X002300Y006679D01*
X002300Y006837D02*
X003213Y006837D01*
X003213Y006996D02*
X002234Y006996D01*
X002076Y007154D02*
X003213Y007154D01*
X003213Y007313D02*
X002072Y007313D01*
X002231Y007471D02*
X003213Y007471D01*
X003213Y007630D02*
X002300Y007630D01*
X002300Y007788D02*
X003271Y007788D01*
X003503Y007947D02*
X002283Y007947D01*
X002125Y008105D02*
X003576Y008105D01*
X003750Y008264D02*
X000569Y008264D01*
X000569Y009215D02*
X006093Y009215D01*
X006093Y009373D02*
X002133Y009373D01*
X002291Y009532D02*
X006205Y009532D01*
X006542Y009532D02*
X006705Y009532D01*
X007042Y009532D02*
X007205Y009532D01*
X007542Y009532D02*
X008690Y009532D01*
X008707Y009373D02*
X007653Y009373D01*
X007653Y009215D02*
X008806Y009215D01*
X009145Y009056D02*
X007653Y009056D01*
X007653Y008898D02*
X009251Y008898D01*
X008822Y008739D02*
X007618Y008739D01*
X007129Y008739D02*
X007118Y008739D01*
X006696Y008422D02*
X008395Y008422D01*
X008398Y008264D02*
X006710Y008264D01*
X006657Y008105D02*
X008478Y008105D01*
X008524Y007947D02*
X006459Y007947D01*
X006185Y007947D02*
X005912Y007947D01*
X005912Y007788D02*
X008366Y007788D01*
X008254Y007630D02*
X005905Y007630D01*
X005913Y007471D02*
X005869Y007471D01*
X006195Y007471D02*
X006291Y007471D01*
X006291Y007486D02*
X006291Y007059D01*
X006679Y007059D01*
X006679Y007330D01*
X006667Y007375D01*
X006643Y007417D01*
X006610Y007450D01*
X006569Y007474D01*
X006523Y007486D01*
X006291Y007486D01*
X006291Y007313D02*
X006195Y007313D01*
X006195Y007154D02*
X006291Y007154D01*
X006291Y006996D02*
X008247Y006996D01*
X008247Y007154D02*
X006679Y007154D01*
X006679Y007313D02*
X008247Y007313D01*
X008247Y007471D02*
X006573Y007471D01*
X006679Y006837D02*
X008247Y006837D01*
X007895Y006679D02*
X007895Y006679D01*
X007445Y006679D02*
X006676Y006679D01*
X006569Y006450D02*
X006523Y006462D01*
X006291Y006462D01*
X006291Y006035D01*
X006679Y006035D01*
X006679Y006306D01*
X006667Y006352D01*
X006643Y006393D01*
X006610Y006426D01*
X006569Y006450D01*
X006661Y006362D02*
X006817Y006362D01*
X006730Y006203D02*
X006679Y006203D01*
X006679Y006045D02*
X006721Y006045D01*
X006679Y005886D02*
X006780Y005886D01*
X006679Y005728D02*
X007007Y005728D01*
X007293Y005569D02*
X006653Y005569D01*
X006679Y005411D02*
X007448Y005411D01*
X007895Y005411D02*
X007895Y005411D01*
X007895Y005301D02*
X007895Y005532D01*
X007895Y005532D01*
X007895Y005301D01*
X007895Y005301D01*
X008350Y005252D02*
X010298Y005252D01*
X010298Y005094D02*
X008370Y005094D01*
X008370Y004935D02*
X010298Y004935D01*
X010298Y004777D02*
X008370Y004777D01*
X008370Y004618D02*
X010298Y004618D01*
X010298Y004460D02*
X008370Y004460D01*
X008370Y004301D02*
X010298Y004301D01*
X010298Y004143D02*
X008370Y004143D01*
X008813Y003493D02*
X008838Y003493D01*
X008838Y002575D01*
X008817Y002554D01*
X008817Y002566D01*
X008826Y002589D01*
X008826Y003460D01*
X008813Y003493D01*
X008826Y003350D02*
X008838Y003350D01*
X008826Y003192D02*
X008838Y003192D01*
X008826Y003033D02*
X008838Y003033D01*
X008826Y002875D02*
X008838Y002875D01*
X008826Y002716D02*
X008838Y002716D01*
X008817Y002558D02*
X008820Y002558D01*
X009236Y001924D02*
X012165Y001924D01*
X012165Y002082D02*
X009433Y002082D01*
X009486Y002241D02*
X009730Y002241D01*
X009922Y002241D02*
X012044Y002241D01*
X011885Y002399D02*
X010153Y002399D01*
X010214Y002558D02*
X011727Y002558D01*
X011568Y002716D02*
X010207Y002716D01*
X010121Y002875D02*
X011410Y002875D01*
X011546Y003466D02*
X011482Y003493D01*
X011520Y003493D01*
X011546Y003466D01*
X011999Y003749D02*
X013311Y003749D01*
X013359Y003701D01*
X012413Y003701D01*
X012295Y003584D01*
X012295Y003511D01*
X012237Y003511D01*
X011999Y003749D01*
X012081Y003667D02*
X012379Y003667D01*
X012339Y002875D02*
X012145Y002875D01*
X010773Y003497D02*
X010151Y003497D01*
X009826Y003172D01*
X009826Y002621D01*
X009531Y002875D02*
X009358Y002875D01*
X009358Y003033D02*
X009546Y003033D01*
X009546Y003192D02*
X009358Y003192D01*
X009358Y003350D02*
X009608Y003350D01*
X009766Y003509D02*
X009358Y003509D01*
X009354Y003667D02*
X009925Y003667D01*
X010298Y003826D02*
X009245Y003826D01*
X009245Y003826D01*
X009071Y003984D02*
X010298Y003984D01*
X010298Y003192D02*
X010241Y003192D01*
X010355Y003033D02*
X010106Y003033D01*
X009499Y002399D02*
X009471Y002399D01*
X009438Y002558D02*
X009375Y002558D01*
X009358Y002716D02*
X009445Y002716D01*
X010298Y005411D02*
X008342Y005411D01*
X008692Y006316D02*
X008728Y006352D01*
X008767Y006447D01*
X008767Y007454D01*
X008851Y007538D01*
X009120Y007538D01*
X009064Y007403D01*
X009064Y007248D01*
X009123Y007106D01*
X009153Y007076D01*
X009153Y006587D01*
X008882Y006316D01*
X008692Y006316D01*
X008732Y006362D02*
X008927Y006362D01*
X008767Y006520D02*
X009086Y006520D01*
X009153Y006679D02*
X008767Y006679D01*
X008767Y006837D02*
X009153Y006837D01*
X009153Y006996D02*
X008767Y006996D01*
X008767Y007154D02*
X009103Y007154D01*
X009064Y007313D02*
X008767Y007313D01*
X008784Y007471D02*
X009092Y007471D01*
X009040Y008058D02*
X009112Y008129D01*
X009160Y008247D01*
X009232Y008247D01*
X009232Y008168D01*
X009342Y008058D01*
X009040Y008058D01*
X009087Y008105D02*
X009295Y008105D01*
X009812Y007471D02*
X011042Y007471D01*
X011003Y007313D02*
X009840Y007313D01*
X009801Y007154D02*
X011003Y007154D01*
X011003Y006996D02*
X009673Y006996D01*
X009673Y006837D02*
X010997Y006837D01*
X011523Y006934D02*
X011523Y007144D01*
X012421Y007144D01*
X012421Y007026D01*
X012486Y006961D01*
X012421Y006897D01*
X012421Y006774D01*
X012336Y006739D01*
X012183Y006585D01*
X012183Y006734D01*
X012124Y006876D01*
X012014Y006985D01*
X011872Y007044D01*
X011717Y007044D01*
X011575Y006985D01*
X011523Y006934D01*
X011523Y006996D02*
X011599Y006996D01*
X011990Y006996D02*
X012452Y006996D01*
X012421Y006837D02*
X012140Y006837D01*
X012183Y006679D02*
X012276Y006679D01*
X011866Y006268D02*
X011830Y006233D01*
X011816Y006268D01*
X011866Y006268D01*
X012320Y005987D02*
X012447Y006115D01*
X012486Y006076D01*
X012421Y006011D01*
X012421Y005945D01*
X012320Y005987D01*
X012377Y006045D02*
X012455Y006045D01*
X013577Y006045D02*
X013673Y006045D01*
X013673Y006203D02*
X013577Y006203D01*
X013625Y006302D02*
X013625Y006519D01*
X013673Y006520D02*
X014380Y006520D01*
X014360Y006679D02*
X014061Y006679D01*
X014061Y006837D02*
X014360Y006837D01*
X014426Y006996D02*
X014050Y006996D01*
X014061Y006471D02*
X013673Y006471D01*
X013673Y005681D01*
X014061Y005681D01*
X014061Y005952D01*
X014049Y005998D01*
X014025Y006039D01*
X013992Y006072D01*
X013985Y006076D01*
X013992Y006079D01*
X014025Y006113D01*
X014049Y006154D01*
X014061Y006200D01*
X014061Y006471D01*
X014061Y006362D02*
X014539Y006362D01*
X014633Y006203D02*
X014061Y006203D01*
X014019Y006045D02*
X014475Y006045D01*
X014360Y005886D02*
X014061Y005886D01*
X014061Y005728D02*
X014360Y005728D01*
X014360Y005569D02*
X014061Y005569D01*
X014061Y005411D02*
X014216Y005411D01*
X014360Y004819D02*
X014360Y004573D01*
X014160Y004772D01*
X014258Y004772D01*
X014353Y004812D01*
X014360Y004819D01*
X014360Y004777D02*
X014268Y004777D01*
X014315Y004618D02*
X014360Y004618D01*
X013625Y005633D02*
X013625Y006302D01*
X013577Y006362D02*
X013673Y006362D01*
X013673Y005886D02*
X013577Y005886D01*
X013577Y005728D02*
X013673Y005728D01*
X014574Y007154D02*
X014584Y007154D01*
X014360Y007788D02*
X014076Y007788D01*
X014377Y007947D02*
X010824Y007947D01*
X010809Y008105D02*
X010778Y008105D01*
X010612Y008264D02*
X010612Y008264D01*
X010560Y008422D02*
X010223Y008422D01*
X010223Y008264D02*
X010261Y008264D01*
X010223Y008581D02*
X010575Y008581D01*
X010671Y008739D02*
X010223Y008739D01*
X010204Y008898D02*
X011319Y008898D01*
X011319Y009056D02*
X010223Y009056D01*
X010223Y009215D02*
X011319Y009215D01*
X011319Y009373D02*
X010223Y009373D01*
X010223Y009532D02*
X011319Y009532D01*
X011435Y009690D02*
X010126Y009690D01*
X009407Y009711D02*
X009407Y009711D01*
X008740Y009690D02*
X002300Y009690D01*
X002300Y009849D02*
X008294Y009849D01*
X008136Y010007D02*
X007626Y010007D01*
X007653Y010166D02*
X008077Y010166D01*
X008077Y010324D02*
X007653Y010324D01*
X007653Y010483D02*
X008141Y010483D01*
X008321Y010641D02*
X007653Y010641D01*
X007472Y011275D02*
X007377Y011275D01*
X007377Y011434D02*
X007472Y011434D01*
X007472Y011592D02*
X008032Y011592D01*
X008032Y011434D02*
X007860Y011434D01*
X007849Y011275D02*
X008032Y011275D01*
X008032Y011751D02*
X007860Y011751D01*
X007860Y011909D02*
X008032Y011909D01*
X008069Y012068D02*
X007823Y012068D01*
X007878Y012883D02*
X007763Y012998D01*
X007086Y012998D01*
X007076Y012989D01*
X007076Y013380D01*
X007157Y013461D01*
X008167Y013461D01*
X008206Y013421D01*
X008390Y013345D01*
X008589Y013345D01*
X008773Y013421D01*
X008913Y013562D01*
X008989Y013746D01*
X008989Y013945D01*
X008989Y013746D01*
X009066Y013562D01*
X009206Y013421D01*
X009308Y013379D01*
X009308Y012978D01*
X008897Y012978D01*
X008861Y012943D01*
X008826Y012978D01*
X008149Y012978D01*
X008053Y012883D01*
X007878Y012883D01*
X007076Y013019D02*
X009308Y013019D01*
X009308Y013177D02*
X007076Y013177D01*
X007076Y013336D02*
X009308Y013336D01*
X009134Y013494D02*
X008845Y013494D01*
X008951Y013653D02*
X009028Y013653D01*
X008989Y013811D02*
X008989Y013811D01*
X008979Y013970D02*
X009000Y013970D01*
X009065Y014128D02*
X008914Y014128D01*
X007579Y015713D02*
X012900Y015713D01*
X012807Y015806D02*
X012702Y016059D01*
X012702Y016332D01*
X012749Y016446D01*
X012674Y016415D01*
X012304Y016415D01*
X011963Y016557D01*
X011701Y016819D01*
X011559Y017160D01*
X011559Y017530D01*
X011701Y017872D01*
X011963Y018134D01*
X012304Y018275D01*
X012674Y018275D01*
X013016Y018134D01*
X013278Y017872D01*
X013419Y017530D01*
X013419Y017160D01*
X013304Y016883D01*
X013526Y016883D01*
X013779Y016778D01*
X013972Y016585D01*
X014077Y016332D01*
X014077Y016059D01*
X013972Y015806D01*
X013779Y015613D01*
X013526Y015508D01*
X013253Y015508D01*
X013000Y015613D01*
X012807Y015806D01*
X012779Y015872D02*
X007699Y015872D01*
X007765Y016030D02*
X012714Y016030D01*
X012702Y016189D02*
X007777Y016189D01*
X007771Y016347D02*
X012708Y016347D01*
X012087Y016506D02*
X008392Y016506D01*
X008623Y016664D02*
X011856Y016664D01*
X011699Y016823D02*
X008780Y016823D01*
X008845Y016981D02*
X011634Y016981D01*
X011568Y017140D02*
X008911Y017140D01*
X008919Y017298D02*
X011559Y017298D01*
X011559Y017457D02*
X008919Y017457D01*
X008884Y017615D02*
X011595Y017615D01*
X011660Y017774D02*
X008819Y017774D01*
X008718Y017932D02*
X011761Y017932D01*
X011919Y018091D02*
X008559Y018091D01*
X008238Y018249D02*
X012241Y018249D01*
X012738Y018249D02*
X016091Y018249D01*
X016091Y018408D02*
X015734Y018408D01*
X015983Y018566D02*
X016091Y018566D01*
X016083Y018725D02*
X016091Y018725D01*
X016083Y018883D02*
X016091Y018883D01*
X016083Y019042D02*
X016091Y019042D01*
X016083Y019200D02*
X016091Y019200D01*
X016091Y019359D02*
X016071Y019359D01*
X016091Y019517D02*
X015933Y019517D01*
X015261Y019555D02*
X015167Y019462D01*
X015167Y019458D01*
X015163Y019454D01*
X015163Y019450D01*
X015160Y019446D01*
X015160Y019438D01*
X015156Y019434D01*
X015156Y019383D01*
X015111Y019339D01*
X015104Y019347D01*
X015100Y019347D01*
X015088Y019358D01*
X015084Y019358D01*
X015072Y019370D01*
X015068Y019370D01*
X015057Y019382D01*
X015053Y019382D01*
X015041Y019394D01*
X015037Y019394D01*
X015025Y019406D01*
X015021Y019406D01*
X015009Y019417D01*
X015005Y019417D01*
X014994Y019429D01*
X014990Y019429D01*
X014978Y019441D01*
X014974Y019441D01*
X014962Y019453D01*
X014958Y019453D01*
X014946Y019465D01*
X014942Y019465D01*
X014934Y019473D01*
X014931Y019473D01*
X014919Y019484D01*
X014915Y019484D01*
X014903Y019496D01*
X014899Y019496D01*
X014887Y019508D01*
X014883Y019508D01*
X014872Y019520D01*
X014868Y019520D01*
X014856Y019532D01*
X014852Y019532D01*
X014848Y019536D01*
X014840Y019543D01*
X014836Y019543D01*
X014824Y019555D01*
X015261Y019555D01*
X015223Y019517D02*
X014874Y019517D01*
X014848Y019536D02*
X014848Y019536D01*
X015084Y019359D02*
X015131Y019359D01*
X014360Y018879D02*
X014360Y018847D01*
X014364Y018843D01*
X014364Y018824D01*
X014368Y018820D01*
X014368Y018804D01*
X014372Y018800D01*
X014372Y018788D01*
X014376Y018784D01*
X014376Y018772D01*
X014380Y018768D01*
X014380Y018757D01*
X014384Y018753D01*
X014384Y018745D01*
X014388Y018741D01*
X014388Y018733D01*
X014392Y018729D01*
X014392Y018721D01*
X014360Y018879D02*
X014356Y018883D01*
X014467Y018566D02*
X000569Y018566D01*
X000569Y019042D02*
X007203Y019042D01*
X007139Y019200D02*
X000569Y019200D01*
X000569Y019359D02*
X007139Y019359D01*
X007190Y019517D02*
X000569Y019517D01*
X001139Y018091D02*
X001521Y018091D01*
X001362Y017932D02*
X001298Y017932D01*
X001300Y017774D02*
X001360Y017774D01*
X001360Y017615D02*
X001300Y017615D01*
X001216Y017457D02*
X001444Y017457D01*
X001602Y017298D02*
X001058Y017298D01*
X001090Y017140D02*
X001570Y017140D01*
X001411Y016981D02*
X001249Y016981D01*
X001300Y016823D02*
X001360Y016823D01*
X001360Y016664D02*
X001300Y016664D01*
X001265Y016506D02*
X001395Y016506D01*
X001553Y016347D02*
X001107Y016347D01*
X000570Y017140D02*
X000569Y017140D01*
X000569Y017298D02*
X000602Y017298D01*
X000569Y014287D02*
X000614Y014287D01*
X000569Y013177D02*
X000607Y013177D01*
X000569Y012226D02*
X005715Y012226D01*
X005616Y012385D02*
X002144Y012385D01*
X002300Y012543D02*
X005599Y012543D01*
X005650Y012702D02*
X002300Y012702D01*
X002300Y012860D02*
X005836Y012860D01*
X006139Y012860D02*
X006221Y012860D01*
X006276Y013019D02*
X002211Y013019D01*
X002053Y013177D02*
X006276Y013177D01*
X006276Y013336D02*
X002095Y013336D01*
X002254Y013494D02*
X006276Y013494D01*
X006288Y013653D02*
X002300Y013653D01*
X002300Y013811D02*
X006376Y013811D01*
X006450Y013885D02*
X006450Y013885D01*
X006534Y013970D02*
X002260Y013970D01*
X002102Y014128D02*
X006693Y014128D01*
X007339Y015555D02*
X013140Y015555D01*
X013639Y015555D02*
X014360Y015555D01*
X014360Y015713D02*
X013879Y015713D01*
X013999Y015872D02*
X014360Y015872D01*
X014460Y016030D02*
X014065Y016030D01*
X014077Y016189D02*
X014619Y016189D01*
X014553Y016347D02*
X014071Y016347D01*
X014005Y016506D02*
X014395Y016506D01*
X014360Y016664D02*
X013893Y016664D01*
X013672Y016823D02*
X014360Y016823D01*
X014411Y016981D02*
X013345Y016981D01*
X013411Y017140D02*
X014570Y017140D01*
X014602Y017298D02*
X013419Y017298D01*
X013419Y017457D02*
X014444Y017457D01*
X014360Y017615D02*
X013384Y017615D01*
X013319Y017774D02*
X014360Y017774D01*
X014362Y017932D02*
X013218Y017932D01*
X013059Y018091D02*
X014521Y018091D01*
X016058Y017298D02*
X016091Y017298D01*
X016090Y017140D02*
X016091Y017140D01*
X016091Y016189D02*
X016041Y016189D01*
X016091Y015238D02*
X012480Y015238D01*
X011499Y015238D02*
X011304Y015238D01*
X011434Y015079D02*
X011489Y015079D01*
X011489Y014921D02*
X011489Y014921D01*
X011489Y014762D02*
X011489Y014762D01*
X011489Y014604D02*
X011430Y014604D01*
X011043Y014074D02*
X010989Y013945D01*
X010942Y014059D01*
X010957Y014074D01*
X011043Y014074D01*
X011000Y013970D02*
X010979Y013970D01*
X010989Y013945D02*
X010989Y013911D01*
X010989Y013911D01*
X010989Y013945D01*
X011555Y013345D02*
X011486Y013276D01*
X011486Y012994D01*
X011494Y012997D01*
X011495Y012998D01*
X011496Y012998D01*
X011546Y013019D01*
X011649Y013019D01*
X012086Y013019D01*
X012086Y013714D01*
X011989Y013810D01*
X011989Y013746D01*
X011913Y013562D01*
X011773Y013421D01*
X011589Y013345D01*
X011555Y013345D01*
X011545Y013336D02*
X012086Y013336D01*
X012086Y013494D02*
X011845Y013494D01*
X011951Y013653D02*
X012086Y013653D01*
X012086Y013177D02*
X011486Y013177D01*
X011486Y013019D02*
X011545Y013019D01*
X012606Y013177D02*
X013316Y013177D01*
X013319Y013336D02*
X012606Y013336D01*
X012606Y013494D02*
X013398Y013494D01*
X013387Y013019D02*
X013048Y013019D01*
X013963Y012226D02*
X016091Y012226D01*
X016053Y013177D02*
X016091Y013177D01*
X016046Y014287D02*
X016091Y014287D01*
X016035Y011275D02*
X016091Y011275D01*
X016084Y010324D02*
X016091Y010324D01*
X016091Y010166D02*
X016064Y010166D01*
X016091Y009215D02*
X013594Y009215D01*
X013620Y009373D02*
X014527Y009373D01*
X014369Y009532D02*
X013578Y009532D01*
X013433Y009690D02*
X014360Y009690D01*
X014360Y009849D02*
X014206Y009849D01*
X014316Y010007D02*
X014437Y010007D01*
X014351Y010166D02*
X014596Y010166D01*
X014576Y010324D02*
X014328Y010324D01*
X014418Y010483D02*
X014235Y010483D01*
X014360Y010641D02*
X014047Y010641D01*
X013516Y011275D02*
X013459Y011275D01*
X013459Y011434D02*
X013516Y011434D01*
X013516Y011592D02*
X013459Y011592D01*
X013030Y009690D02*
X012193Y009690D01*
X012310Y009532D02*
X012885Y009532D01*
X013483Y009056D02*
X014486Y009056D01*
X014360Y008898D02*
X012310Y008898D01*
X012310Y008739D02*
X014360Y008739D01*
X014360Y008581D02*
X012310Y008581D01*
X012310Y008422D02*
X014478Y008422D01*
X014535Y008105D02*
X012266Y008105D01*
X012310Y008264D02*
X016091Y008264D01*
X016072Y007313D02*
X016091Y007313D01*
X016076Y007154D02*
X016091Y007154D01*
X016091Y006203D02*
X016027Y006203D01*
X016061Y004301D02*
X016091Y004301D01*
X016087Y004143D02*
X016091Y004143D01*
X014561Y001131D02*
X013375Y001131D01*
X012792Y000973D02*
X014420Y000973D01*
X014360Y000814D02*
X002300Y000814D01*
X002300Y000656D02*
X014360Y000656D01*
X014420Y000497D02*
X002257Y000497D01*
X002257Y000973D02*
X012450Y000973D01*
X010298Y006203D02*
X009504Y006203D01*
X009645Y006362D02*
X010298Y006362D01*
X010298Y006520D02*
X009673Y006520D01*
X009673Y006679D02*
X010298Y006679D01*
X010698Y007630D02*
X011206Y007630D01*
X011087Y008105D02*
X011362Y008105D01*
X010803Y007788D02*
X012427Y007788D01*
X009030Y011117D02*
X006623Y011117D01*
X006623Y010710D02*
X006623Y010710D01*
X006093Y010483D02*
X002242Y010483D01*
X002300Y010641D02*
X005765Y010641D01*
X005683Y010800D02*
X002300Y010800D01*
X002272Y010958D02*
X005678Y010958D01*
X005745Y011117D02*
X002113Y011117D01*
X002035Y011275D02*
X005985Y011275D01*
X006144Y011434D02*
X002193Y011434D01*
X002300Y011592D02*
X006221Y011592D01*
X006221Y011751D02*
X002300Y011751D01*
X002300Y011909D02*
X006221Y011909D01*
X006273Y012068D02*
X002162Y012068D01*
X002084Y010324D02*
X006093Y010324D01*
X006093Y010166D02*
X002064Y010166D01*
X002223Y010007D02*
X006121Y010007D01*
X006093Y009056D02*
X002174Y009056D01*
X002300Y008898D02*
X006093Y008898D01*
X006123Y008739D02*
X002300Y008739D01*
X002300Y008581D02*
X005569Y008581D01*
X006623Y008581D02*
X008465Y008581D01*
X007440Y006520D02*
X005839Y006520D01*
X006195Y006362D02*
X006291Y006362D01*
X006291Y006203D02*
X006195Y006203D01*
X006195Y006045D02*
X006291Y006045D01*
X006291Y005886D02*
X006195Y005886D01*
X006195Y005728D02*
X006291Y005728D01*
X006291Y005569D02*
X006195Y005569D01*
X006195Y005411D02*
X006291Y005411D01*
X006291Y005252D02*
X006195Y005252D01*
X006679Y005252D02*
X006908Y005252D01*
X006802Y005094D02*
X006679Y005094D01*
X007402Y006362D02*
X007420Y006362D01*
X006291Y006679D02*
X006195Y006679D01*
X006195Y006837D02*
X006291Y006837D01*
X006623Y008739D02*
X006629Y008739D01*
X004281Y008422D02*
X002182Y008422D01*
X002280Y006520D02*
X003213Y006520D01*
X003213Y006362D02*
X002121Y006362D01*
X002027Y006203D02*
X003213Y006203D01*
X003213Y006045D02*
X002185Y006045D01*
X002300Y005886D02*
X003213Y005886D01*
X003213Y005728D02*
X002300Y005728D01*
X002300Y005569D02*
X003213Y005569D01*
X003503Y005411D02*
X002170Y005411D01*
X002136Y005094D02*
X003503Y005094D01*
X003503Y005252D02*
X000569Y005252D01*
X000569Y006203D02*
X000633Y006203D01*
X000584Y007154D02*
X000569Y007154D01*
X000569Y007313D02*
X000588Y007313D01*
X002295Y004935D02*
X003503Y004935D01*
X003510Y004777D02*
X002300Y004777D01*
X002300Y004618D02*
X003623Y004618D01*
X003680Y004540D02*
X003680Y004540D01*
X003600Y004460D02*
X002219Y004460D01*
X002061Y004301D02*
X003489Y004301D01*
X003483Y004143D02*
X002087Y004143D01*
X002246Y003984D02*
X003267Y003984D01*
X003213Y003826D02*
X002300Y003826D01*
X002300Y003667D02*
X003213Y003667D01*
X003213Y003509D02*
X002268Y003509D01*
X002110Y003350D02*
X003213Y003350D01*
X003213Y003192D02*
X002038Y003192D01*
X002197Y003033D02*
X003213Y003033D01*
X003213Y002875D02*
X002300Y002875D01*
X002300Y002716D02*
X003213Y002716D01*
X003213Y002558D02*
X002300Y002558D01*
X002159Y002399D02*
X003213Y002399D01*
X003213Y002241D02*
X000569Y002241D01*
X000569Y003192D02*
X000622Y003192D01*
X000569Y004143D02*
X000573Y004143D01*
X000569Y004301D02*
X000599Y004301D01*
X002148Y002082D02*
X003213Y002082D01*
X003213Y001924D02*
X002300Y001924D01*
X002300Y001765D02*
X003213Y001765D01*
X003489Y001607D02*
X002300Y001607D01*
X002208Y001448D02*
X003595Y001448D01*
X003798Y001290D02*
X002049Y001290D01*
X002099Y001131D02*
X004714Y001131D01*
X005121Y001558D02*
X003881Y001558D01*
X003763Y001676D01*
X003763Y002847D01*
X004313Y002082D02*
X005628Y002082D01*
X004665Y001924D02*
X004313Y001924D01*
X003596Y004456D02*
X003596Y004456D01*
X000596Y010166D02*
X000569Y010166D01*
X000569Y010324D02*
X000576Y010324D01*
X000569Y011275D02*
X000625Y011275D01*
D11*
X000830Y000735D03*
X014830Y000735D03*
D12*
X014830Y001735D03*
X014830Y002735D03*
X014830Y003735D03*
X014830Y004735D03*
X014830Y005735D03*
X014830Y006735D03*
X014830Y007735D03*
X014830Y008735D03*
X014830Y009735D03*
X014830Y010735D03*
X014830Y011735D03*
X014830Y012735D03*
X014830Y013735D03*
X014830Y014735D03*
X014830Y015735D03*
X014830Y016735D03*
X014830Y017735D03*
X015830Y017735D03*
X015830Y016735D03*
X015830Y015735D03*
X015830Y014735D03*
X015830Y013735D03*
X015830Y012735D03*
X015830Y011735D03*
X015830Y010735D03*
X015830Y009735D03*
X015830Y008735D03*
X015830Y007735D03*
X015830Y006735D03*
X015830Y005735D03*
X015830Y004735D03*
X015830Y003735D03*
X015830Y002735D03*
X015830Y001735D03*
X015830Y000735D03*
X001830Y000735D03*
X001830Y001735D03*
X001830Y002735D03*
X001830Y003735D03*
X001830Y004735D03*
X001830Y005735D03*
X001830Y006735D03*
X001830Y007735D03*
X001830Y008735D03*
X001830Y009735D03*
X001830Y010735D03*
X001830Y011735D03*
X001830Y012735D03*
X001830Y013735D03*
X001830Y014735D03*
X001830Y015735D03*
X001830Y016735D03*
X001830Y017735D03*
X000830Y017735D03*
X000830Y016735D03*
X000830Y015735D03*
X000830Y014735D03*
X000830Y013735D03*
X000830Y012735D03*
X000830Y011735D03*
X000830Y010735D03*
X000830Y009735D03*
X000830Y008735D03*
X000830Y007735D03*
X000830Y006735D03*
X000830Y005735D03*
X000830Y004735D03*
X000830Y003735D03*
X000830Y002735D03*
X000830Y001735D03*
D13*
X014905Y019019D03*
X015881Y019019D03*
D14*
X015877Y019017D03*
X015365Y019139D03*
X014877Y019021D03*
D15*
X014858Y019019D03*
X014606Y019019D03*
X015873Y019019D03*
D16*
X015869Y019019D03*
X014842Y019019D03*
X014610Y019019D03*
D17*
X014613Y019019D03*
X014830Y019019D03*
X015865Y019019D03*
D18*
X015861Y019019D03*
X015413Y019141D03*
X014617Y019019D03*
D19*
X014810Y019019D03*
X015858Y019019D03*
D20*
X015854Y019017D03*
X014802Y019021D03*
D21*
X015850Y019019D03*
D22*
X015846Y019017D03*
X014629Y019021D03*
D23*
X015842Y019019D03*
D24*
X015838Y019019D03*
X014688Y019082D03*
D25*
X014680Y019086D03*
X014676Y019086D03*
X014669Y019078D03*
X014767Y019019D03*
X015834Y019019D03*
D26*
X015830Y019017D03*
X014759Y019021D03*
D27*
X014755Y019021D03*
X014641Y019021D03*
X015826Y019017D03*
D28*
X015822Y019019D03*
X014751Y019019D03*
D29*
X015818Y019019D03*
D30*
X015814Y019019D03*
D31*
X015810Y019019D03*
X014736Y019019D03*
X014649Y019019D03*
D32*
X014732Y019021D03*
X015806Y019017D03*
D33*
X015802Y019017D03*
X014728Y019021D03*
D34*
X015799Y019019D03*
D35*
X015795Y019017D03*
X014724Y019021D03*
D36*
X015791Y019017D03*
D37*
X015787Y019019D03*
D38*
X015783Y019017D03*
D39*
X015779Y019017D03*
D40*
X015775Y019019D03*
D41*
X015771Y019017D03*
X014700Y019021D03*
D42*
X015767Y019019D03*
D43*
X015763Y019017D03*
D44*
X015759Y019019D03*
D45*
X015755Y019017D03*
D46*
X015751Y019019D03*
D47*
X015747Y019017D03*
D48*
X015743Y019019D03*
D49*
X015739Y019017D03*
X015736Y019017D03*
D50*
X015732Y019019D03*
D51*
X015728Y019017D03*
D52*
X015724Y019019D03*
D53*
X015720Y019017D03*
X015716Y019017D03*
D54*
X015712Y019019D03*
D55*
X015708Y019017D03*
D56*
X015704Y019019D03*
X015700Y019019D03*
D57*
X015696Y019017D03*
D58*
X015692Y019019D03*
X015688Y019019D03*
X015421Y019019D03*
D59*
X015424Y019021D03*
X015680Y019017D03*
X015684Y019017D03*
D60*
X015676Y019019D03*
X015432Y019019D03*
X015428Y019019D03*
D61*
X015436Y019021D03*
X015440Y019021D03*
X015669Y019017D03*
X015673Y019017D03*
D62*
X015665Y019019D03*
X015661Y019019D03*
X015452Y019019D03*
X015448Y019019D03*
X015444Y019019D03*
D63*
X015653Y019017D03*
X015657Y019017D03*
D64*
X015649Y019019D03*
D65*
X015645Y019017D03*
X015641Y019017D03*
X015637Y019017D03*
D66*
X015633Y019019D03*
X015629Y019019D03*
D67*
X015625Y019017D03*
X015621Y019017D03*
D68*
X015617Y019019D03*
X015613Y019019D03*
D69*
X015610Y019017D03*
X015606Y019017D03*
D70*
X015602Y019019D03*
X015598Y019019D03*
D71*
X015594Y019019D03*
D72*
X015590Y019021D03*
D73*
X015586Y019021D03*
D74*
X015582Y019021D03*
D75*
X015578Y019021D03*
X015499Y019021D03*
D76*
X015503Y019021D03*
X015507Y019021D03*
X015570Y019021D03*
X015574Y019021D03*
D77*
X015566Y019019D03*
X015511Y019019D03*
D78*
X015515Y019021D03*
X015519Y019021D03*
X015523Y019021D03*
X015527Y019021D03*
X015531Y019021D03*
X015535Y019021D03*
X015539Y019021D03*
X015543Y019021D03*
X015547Y019021D03*
X015550Y019021D03*
X015554Y019021D03*
X015558Y019021D03*
X015562Y019021D03*
D79*
X015495Y019019D03*
D80*
X015491Y019019D03*
D81*
X015487Y019021D03*
D82*
X015484Y019021D03*
D83*
X015338Y018798D03*
X015346Y018786D03*
X015350Y018782D03*
X015417Y018739D03*
X015035Y019019D03*
X014653Y019247D03*
D84*
X014814Y019019D03*
X015417Y019137D03*
D85*
X015326Y018822D03*
X015358Y018771D03*
X015361Y018767D03*
X015365Y018763D03*
X015369Y018759D03*
X015377Y018755D03*
X015381Y018751D03*
X015389Y018747D03*
X015397Y018743D03*
X015405Y018739D03*
X015409Y018739D03*
X015413Y018739D03*
X015039Y019019D03*
X014566Y019019D03*
D86*
X014822Y019021D03*
X015409Y019139D03*
D87*
X015405Y019141D03*
X014826Y019019D03*
D88*
X015373Y018757D03*
X015385Y018749D03*
X015393Y018745D03*
X015401Y018741D03*
D89*
X015401Y019139D03*
D90*
X015397Y019139D03*
X015393Y019139D03*
X014834Y019021D03*
D91*
X014838Y019021D03*
X015389Y019139D03*
D92*
X015385Y019139D03*
D93*
X015381Y019141D03*
X014854Y019019D03*
D94*
X014861Y019021D03*
X015377Y019143D03*
D95*
X015373Y019141D03*
D96*
X015369Y019141D03*
X014869Y019019D03*
X014602Y019019D03*
D97*
X014653Y018899D03*
X014657Y018895D03*
X015361Y019139D03*
D98*
X015358Y019103D03*
X014940Y019021D03*
D99*
X015161Y019019D03*
X015267Y019141D03*
X015358Y019330D03*
D100*
X015330Y018812D03*
X015334Y018804D03*
X015342Y018792D03*
X015354Y018776D03*
D101*
X015354Y019105D03*
X014582Y019019D03*
D102*
X015350Y019105D03*
D103*
X015346Y019109D03*
D104*
X015342Y019111D03*
D105*
X015338Y019113D03*
D106*
X015334Y019117D03*
D107*
X015330Y019115D03*
X015322Y019107D03*
D108*
X015326Y019113D03*
D109*
X015279Y019135D03*
X015322Y018757D03*
D110*
X015322Y018877D03*
X015102Y019019D03*
X014964Y019121D03*
D111*
X014889Y019019D03*
X015314Y019034D03*
X015318Y019034D03*
D112*
X015310Y019034D03*
D113*
X015306Y019032D03*
X014897Y019021D03*
D114*
X015302Y018997D03*
D115*
X015259Y019013D03*
X015271Y019139D03*
X015302Y019217D03*
D116*
X015299Y018997D03*
X015295Y018997D03*
D117*
X015169Y019017D03*
X015263Y019143D03*
X015299Y019221D03*
D118*
X015291Y018997D03*
X015287Y018997D03*
D119*
X015283Y018997D03*
D120*
X015279Y018859D03*
D121*
X015279Y019003D03*
X015070Y019019D03*
X014952Y018932D03*
X014562Y019019D03*
D122*
X015165Y019019D03*
X015275Y018853D03*
D123*
X015275Y019003D03*
X015082Y019019D03*
X014984Y018948D03*
X014976Y018940D03*
X014968Y018936D03*
X014795Y019231D03*
X014791Y019235D03*
X014787Y019239D03*
X014783Y019239D03*
D124*
X015153Y019019D03*
X015157Y019019D03*
X015275Y019137D03*
D125*
X015271Y019005D03*
X014956Y019123D03*
X014952Y019123D03*
D126*
X015267Y019009D03*
D127*
X015263Y019011D03*
X015129Y019019D03*
D128*
X015259Y019143D03*
D129*
X015255Y019145D03*
X015176Y019019D03*
D130*
X015251Y019147D03*
D131*
X015188Y019019D03*
D132*
X015184Y019019D03*
X015180Y019019D03*
D133*
X015173Y019019D03*
D134*
X015149Y019019D03*
D135*
X015145Y019019D03*
D136*
X015141Y019019D03*
X015137Y019019D03*
D137*
X015133Y019019D03*
D138*
X015125Y019019D03*
X015121Y019019D03*
X014680Y018692D03*
D139*
X014558Y019019D03*
X015117Y019019D03*
D140*
X015113Y019019D03*
D141*
X015110Y019019D03*
X015106Y019019D03*
X014980Y019113D03*
D142*
X015098Y019019D03*
D143*
X015094Y019019D03*
X015090Y019019D03*
D144*
X015086Y019019D03*
X014948Y019121D03*
D145*
X015078Y019021D03*
X014964Y018934D03*
X014779Y019241D03*
D146*
X014960Y018932D03*
X015074Y019019D03*
D147*
X015066Y019019D03*
D148*
X015062Y019021D03*
X014948Y018934D03*
D149*
X015058Y019019D03*
D150*
X015054Y019019D03*
D151*
X015050Y019019D03*
D152*
X015047Y019021D03*
D153*
X015043Y019019D03*
D154*
X015031Y019021D03*
X014657Y019253D03*
D155*
X014716Y018790D03*
X014712Y018786D03*
X015027Y019019D03*
D156*
X015023Y019019D03*
D157*
X015019Y019019D03*
X015015Y019019D03*
X014665Y019259D03*
D158*
X014570Y019019D03*
X015011Y019019D03*
D159*
X015007Y019019D03*
D160*
X015003Y019019D03*
X014999Y019019D03*
D161*
X014995Y019019D03*
D162*
X014991Y019019D03*
X014574Y019019D03*
D163*
X014987Y019021D03*
D164*
X014984Y019107D03*
X014976Y019115D03*
X014972Y019119D03*
X014968Y019119D03*
D165*
X014980Y018942D03*
X014972Y018938D03*
D166*
X014960Y019123D03*
D167*
X014956Y018934D03*
X014775Y019241D03*
D168*
X014944Y019019D03*
D169*
X014936Y019019D03*
D170*
X014932Y019019D03*
X014586Y019019D03*
D171*
X014928Y019019D03*
D172*
X014924Y019021D03*
D173*
X014921Y019019D03*
D174*
X014917Y019019D03*
X014791Y018928D03*
X014787Y018924D03*
X014590Y019019D03*
D175*
X014783Y018922D03*
X014795Y018930D03*
X014913Y019021D03*
D176*
X014909Y019021D03*
X014775Y018922D03*
D177*
X014901Y019019D03*
X014594Y019019D03*
D178*
X014893Y019021D03*
D179*
X014885Y019019D03*
X014716Y019145D03*
X014712Y019149D03*
X014598Y019019D03*
D180*
X014661Y018891D03*
X014881Y019021D03*
X014708Y019150D03*
D181*
X014873Y019019D03*
X014665Y018889D03*
D182*
X014865Y019021D03*
D183*
X014850Y019021D03*
D184*
X014846Y019019D03*
D185*
X014818Y019021D03*
D186*
X014806Y019021D03*
X014621Y019021D03*
D187*
X014799Y019019D03*
D188*
X014779Y018920D03*
D189*
X014771Y018922D03*
D190*
X014771Y019241D03*
D191*
X014763Y019019D03*
D192*
X014747Y019021D03*
D193*
X014743Y019021D03*
X014645Y019021D03*
D194*
X014739Y019021D03*
D195*
X014720Y019019D03*
D196*
X014708Y018784D03*
X014661Y019257D03*
D197*
X014704Y018784D03*
D198*
X014704Y019149D03*
D199*
X014696Y018702D03*
X014692Y018698D03*
X014688Y018694D03*
X014684Y018694D03*
D200*
X014696Y019076D03*
X014692Y019080D03*
X014684Y019084D03*
D201*
X014669Y018698D03*
X014673Y018694D03*
X014676Y018690D03*
D202*
X014637Y019021D03*
X014673Y019084D03*
D203*
X014633Y019021D03*
D204*
X014625Y019021D03*
D205*
X014578Y019019D03*
D206*
X010773Y006568D03*
X010773Y006312D03*
X010773Y006056D03*
X010773Y005800D03*
X010773Y005544D03*
X010773Y005288D03*
X010773Y005032D03*
X010773Y004776D03*
X010773Y004521D03*
X010773Y004265D03*
X010773Y004009D03*
X010773Y003753D03*
X010773Y003497D03*
X010773Y003241D03*
X007895Y003241D03*
X007895Y003497D03*
X007895Y003753D03*
X007895Y004009D03*
X007895Y004265D03*
X007895Y004521D03*
X007895Y004776D03*
X007895Y005032D03*
X007895Y005288D03*
X007895Y005544D03*
X007895Y005800D03*
X007895Y006056D03*
X007895Y006312D03*
X007895Y006568D03*
D207*
X008489Y013845D03*
X008989Y014845D03*
X009489Y013845D03*
X009989Y014845D03*
X010489Y013845D03*
X010989Y014845D03*
X011489Y013845D03*
X011839Y019295D03*
X012839Y019295D03*
X008639Y019295D03*
X007639Y019295D03*
D208*
X007089Y016195D03*
X013389Y016195D03*
D209*
X011989Y014845D03*
D210*
X011789Y017345D02*
X011791Y017397D01*
X011797Y017449D01*
X011807Y017501D01*
X011820Y017551D01*
X011837Y017601D01*
X011858Y017649D01*
X011883Y017695D01*
X011911Y017739D01*
X011942Y017781D01*
X011976Y017821D01*
X012013Y017858D01*
X012053Y017892D01*
X012095Y017923D01*
X012139Y017951D01*
X012185Y017976D01*
X012233Y017997D01*
X012283Y018014D01*
X012333Y018027D01*
X012385Y018037D01*
X012437Y018043D01*
X012489Y018045D01*
X012541Y018043D01*
X012593Y018037D01*
X012645Y018027D01*
X012695Y018014D01*
X012745Y017997D01*
X012793Y017976D01*
X012839Y017951D01*
X012883Y017923D01*
X012925Y017892D01*
X012965Y017858D01*
X013002Y017821D01*
X013036Y017781D01*
X013067Y017739D01*
X013095Y017695D01*
X013120Y017649D01*
X013141Y017601D01*
X013158Y017551D01*
X013171Y017501D01*
X013181Y017449D01*
X013187Y017397D01*
X013189Y017345D01*
X013187Y017293D01*
X013181Y017241D01*
X013171Y017189D01*
X013158Y017139D01*
X013141Y017089D01*
X013120Y017041D01*
X013095Y016995D01*
X013067Y016951D01*
X013036Y016909D01*
X013002Y016869D01*
X012965Y016832D01*
X012925Y016798D01*
X012883Y016767D01*
X012839Y016739D01*
X012793Y016714D01*
X012745Y016693D01*
X012695Y016676D01*
X012645Y016663D01*
X012593Y016653D01*
X012541Y016647D01*
X012489Y016645D01*
X012437Y016647D01*
X012385Y016653D01*
X012333Y016663D01*
X012283Y016676D01*
X012233Y016693D01*
X012185Y016714D01*
X012139Y016739D01*
X012095Y016767D01*
X012053Y016798D01*
X012013Y016832D01*
X011976Y016869D01*
X011942Y016909D01*
X011911Y016951D01*
X011883Y016995D01*
X011858Y017041D01*
X011837Y017089D01*
X011820Y017139D01*
X011807Y017189D01*
X011797Y017241D01*
X011791Y017293D01*
X011789Y017345D01*
X007289Y017345D02*
X007291Y017397D01*
X007297Y017449D01*
X007307Y017501D01*
X007320Y017551D01*
X007337Y017601D01*
X007358Y017649D01*
X007383Y017695D01*
X007411Y017739D01*
X007442Y017781D01*
X007476Y017821D01*
X007513Y017858D01*
X007553Y017892D01*
X007595Y017923D01*
X007639Y017951D01*
X007685Y017976D01*
X007733Y017997D01*
X007783Y018014D01*
X007833Y018027D01*
X007885Y018037D01*
X007937Y018043D01*
X007989Y018045D01*
X008041Y018043D01*
X008093Y018037D01*
X008145Y018027D01*
X008195Y018014D01*
X008245Y017997D01*
X008293Y017976D01*
X008339Y017951D01*
X008383Y017923D01*
X008425Y017892D01*
X008465Y017858D01*
X008502Y017821D01*
X008536Y017781D01*
X008567Y017739D01*
X008595Y017695D01*
X008620Y017649D01*
X008641Y017601D01*
X008658Y017551D01*
X008671Y017501D01*
X008681Y017449D01*
X008687Y017397D01*
X008689Y017345D01*
X008687Y017293D01*
X008681Y017241D01*
X008671Y017189D01*
X008658Y017139D01*
X008641Y017089D01*
X008620Y017041D01*
X008595Y016995D01*
X008567Y016951D01*
X008536Y016909D01*
X008502Y016869D01*
X008465Y016832D01*
X008425Y016798D01*
X008383Y016767D01*
X008339Y016739D01*
X008293Y016714D01*
X008245Y016693D01*
X008195Y016676D01*
X008145Y016663D01*
X008093Y016653D01*
X008041Y016647D01*
X007989Y016645D01*
X007937Y016647D01*
X007885Y016653D01*
X007833Y016663D01*
X007783Y016676D01*
X007733Y016693D01*
X007685Y016714D01*
X007639Y016739D01*
X007595Y016767D01*
X007553Y016798D01*
X007513Y016832D01*
X007476Y016869D01*
X007442Y016909D01*
X007411Y016951D01*
X007383Y016995D01*
X007358Y017041D01*
X007337Y017089D01*
X007320Y017139D01*
X007307Y017189D01*
X007297Y017241D01*
X007291Y017293D01*
X007289Y017345D01*
D211*
X007424Y012503D03*
X006676Y012503D03*
X006676Y011637D03*
X007424Y011637D03*
X008487Y011617D03*
X008487Y012483D03*
X009236Y012483D03*
X009236Y011617D03*
X011086Y011637D03*
X011086Y012503D03*
X011834Y012503D03*
X011834Y011637D03*
X012759Y012483D03*
X013507Y012483D03*
X013625Y007404D03*
X012877Y007404D03*
X012877Y006519D03*
X013625Y006519D03*
X013625Y005633D03*
X012877Y005633D03*
X012621Y002267D03*
X013369Y002267D03*
X006204Y003093D03*
X006224Y003920D03*
X005476Y003920D03*
X005456Y003093D03*
X005121Y001558D03*
X005869Y001558D03*
X005495Y005180D03*
X005495Y005987D03*
X006243Y005987D03*
X006243Y005180D03*
X006243Y007011D03*
X005495Y007011D03*
X005456Y008015D03*
X004708Y008015D03*
D212*
X003763Y006647D03*
X003763Y002847D03*
D213*
X012995Y003251D03*
D214*
X012779Y011656D03*
X013487Y011656D03*
D215*
X011814Y009235D03*
X011814Y008487D03*
X009728Y008507D03*
X009728Y009255D03*
D216*
X007373Y009097D03*
X006873Y009097D03*
X006373Y009097D03*
X006373Y010357D03*
X006873Y010357D03*
X007373Y010357D03*
D217*
X008527Y010239D03*
X009078Y009491D03*
X008783Y008349D03*
X009452Y007326D03*
X010436Y007916D03*
X010948Y008467D03*
X011795Y006656D03*
X011480Y006066D03*
X012208Y005613D03*
X009826Y002621D03*
X009098Y002286D03*
X008428Y002503D03*
X007169Y004963D03*
X007110Y006105D03*
X006322Y008310D03*
X006066Y010889D03*
X005987Y012503D03*
X009905Y011637D03*
X010476Y012503D03*
X012799Y010771D03*
X013232Y009353D03*
X013901Y010180D03*
X013704Y013251D03*
X005948Y002365D03*
X012621Y001322D03*
D218*
X012621Y002267D02*
X012385Y002267D01*
X012208Y005613D02*
X012228Y005633D01*
X011480Y006066D02*
X011470Y006056D01*
X010318Y007798D02*
X010436Y007916D01*
X009452Y007326D02*
X009413Y007286D01*
X007877Y007778D02*
X007129Y007030D01*
X006263Y007030D01*
X006243Y007011D01*
X006243Y005987D01*
X006243Y005337D01*
X006322Y005259D01*
X006352Y005288D01*
X006322Y005259D02*
X006243Y005180D01*
X006312Y004009D02*
X006224Y003920D01*
X006352Y003792D01*
X006352Y003241D01*
X006204Y003093D01*
X003763Y002847D02*
X003743Y002867D01*
X003763Y006647D02*
X003783Y006667D01*
X002680Y008743D02*
X005633Y008743D01*
X005830Y008940D01*
X005830Y009432D01*
X006145Y009747D01*
X007858Y009747D01*
X007877Y009727D01*
X007877Y010771D01*
X007424Y011223D01*
X007424Y011637D01*
X006676Y011637D02*
X006657Y011656D01*
X006676Y011637D02*
X006373Y011334D01*
X006373Y010869D01*
X006354Y010889D01*
X006066Y010889D01*
X006373Y010869D02*
X006373Y010357D01*
X006373Y009097D02*
X006373Y008361D01*
X006322Y008310D01*
X007877Y007778D02*
X007877Y009727D01*
X009275Y011578D02*
X009236Y011617D01*
X009905Y011637D02*
X011086Y011637D01*
X011086Y012503D02*
X010476Y012503D01*
X011834Y012503D02*
X011972Y012641D01*
X012759Y011676D02*
X012779Y011656D01*
X013487Y011656D02*
X014117Y011656D01*
X014354Y011420D01*
X014354Y009412D01*
X014511Y009255D01*
X015121Y009255D01*
X015338Y009038D01*
X015338Y006341D01*
X015239Y006243D01*
X013684Y006243D01*
X013625Y006302D01*
X013487Y011656D02*
X013842Y011656D01*
X014157Y011971D01*
X014157Y014038D01*
X012287Y015908D01*
X009058Y015908D01*
X008015Y014865D01*
X002680Y014865D01*
X005987Y012503D02*
X006676Y012503D01*
X013507Y012483D02*
X013704Y012680D01*
D219*
X006322Y008310D02*
X005751Y008310D01*
X005456Y008015D01*
X005456Y007050D01*
X005495Y007011D01*
X005495Y005987D01*
X005495Y005180D01*
X005476Y003920D02*
X005456Y003900D01*
X005456Y003093D01*
X005456Y002857D01*
X005948Y002365D01*
X005948Y001637D01*
X005869Y001558D01*
X012621Y001322D02*
X013113Y001322D01*
X013369Y001578D01*
X013369Y002267D01*
D220*
X013842Y002582D02*
X014236Y002188D01*
X015283Y002188D01*
X015830Y002735D01*
X015346Y003251D02*
X015830Y003735D01*
X015346Y003251D02*
X014610Y003251D01*
X013340Y004521D01*
X010773Y004521D01*
X010773Y004776D02*
X013789Y004776D01*
X014830Y003735D01*
X013842Y003586D02*
X013842Y002582D01*
X013842Y003586D02*
X013419Y004009D01*
X010773Y004009D01*
X010773Y003753D02*
X011627Y003753D01*
X012129Y003251D01*
X012995Y003251D01*
X012385Y002267D02*
X011411Y003241D01*
X010773Y003241D01*
X009610Y002345D02*
X009610Y001341D01*
X009196Y000928D01*
X002936Y000928D01*
X002680Y001184D01*
X002680Y008743D01*
X002680Y009747D02*
X002680Y014865D01*
X002326Y015219D01*
X001346Y015219D01*
X000830Y015735D01*
X007424Y012503D02*
X007444Y012483D01*
X008489Y013845D02*
X008474Y013861D01*
X009708Y012562D02*
X009629Y012483D01*
X009275Y011578D02*
X009275Y011204D01*
X009393Y011086D01*
X012484Y011086D01*
X012799Y010771D01*
X012995Y011341D02*
X012995Y012759D01*
X011598Y012759D01*
X011598Y011361D01*
X011617Y011341D01*
X012995Y011341D01*
X012995Y011438D02*
X011598Y011438D01*
X011598Y011556D02*
X012995Y011556D01*
X012995Y011675D02*
X011598Y011675D01*
X011598Y011793D02*
X012995Y011793D01*
X012995Y011912D02*
X011598Y011912D01*
X011598Y012030D02*
X012995Y012030D01*
X012995Y012149D02*
X011598Y012149D01*
X011598Y012267D02*
X012995Y012267D01*
X012995Y012386D02*
X011598Y012386D01*
X011598Y012504D02*
X012995Y012504D01*
X012995Y012623D02*
X011598Y012623D01*
X011598Y012741D02*
X012995Y012741D01*
X012346Y012503D02*
X011834Y012503D01*
X011854Y012483D01*
X012346Y012503D02*
X012346Y013822D01*
X011834Y014334D01*
X010850Y014334D01*
X010489Y013973D01*
X010489Y013845D01*
X012759Y011637D02*
X012779Y011656D01*
X013704Y012680D02*
X013704Y013251D01*
X013232Y009353D02*
X013113Y009235D01*
X011814Y009235D01*
X011814Y008487D02*
X010968Y008487D01*
X010948Y008467D01*
X010318Y007798D02*
X008743Y007798D01*
X008507Y007562D01*
X008507Y006499D01*
X008320Y006312D01*
X007895Y006312D01*
X007895Y006568D02*
X006686Y006568D01*
X006243Y007011D01*
X006243Y005987D02*
X006686Y005544D01*
X007895Y005544D01*
X007895Y005288D02*
X006352Y005288D01*
X006834Y004688D02*
X003921Y004688D01*
X003763Y004845D01*
X003763Y006647D01*
X003901Y004393D02*
X003743Y004235D01*
X003743Y002867D01*
X003901Y004393D02*
X006716Y004393D01*
X006844Y004265D01*
X007895Y004265D01*
X007895Y004521D02*
X007001Y004521D01*
X006834Y004688D01*
X007169Y004963D02*
X007237Y005032D01*
X007895Y005032D01*
X007895Y005800D02*
X007415Y005800D01*
X007110Y006105D01*
X007895Y006056D02*
X008989Y006056D01*
X009413Y006479D01*
X009413Y007286D01*
X008783Y008349D02*
X008940Y008507D01*
X009728Y008507D01*
X009728Y009255D02*
X009314Y009255D01*
X009078Y009491D01*
X011263Y007326D02*
X011263Y006735D01*
X011096Y006568D01*
X010773Y006568D01*
X010773Y006312D02*
X011174Y006312D01*
X011322Y006460D01*
X011598Y006460D01*
X011795Y006656D01*
X011470Y006056D02*
X010773Y006056D01*
X010773Y005800D02*
X007895Y005800D01*
X007895Y004009D02*
X009324Y004009D01*
X009413Y003920D01*
X009413Y002542D01*
X009610Y002345D01*
X009098Y002286D02*
X009098Y003605D01*
X008950Y003753D01*
X007895Y003753D01*
X007895Y004009D02*
X006312Y004009D01*
X006352Y003241D02*
X007895Y003241D01*
X007895Y003497D02*
X008478Y003497D01*
X008566Y003408D01*
X008566Y002641D01*
X008428Y002503D01*
X010773Y005032D02*
X014206Y005032D01*
X014432Y005259D01*
X015306Y005259D01*
X015830Y004735D01*
X014499Y007404D02*
X013625Y007404D01*
X012877Y007404D02*
X011342Y007404D01*
X011263Y007326D01*
X012484Y006519D02*
X011932Y005967D01*
X011765Y005800D01*
X011509Y005544D01*
X010773Y005544D01*
X010773Y005288D02*
X011883Y005288D01*
X012208Y005613D01*
X012228Y005633D02*
X012877Y005633D01*
X012877Y006519D02*
X012484Y006519D01*
X014499Y007404D02*
X014830Y007735D01*
D221*
X011086Y012503D02*
X011086Y013442D01*
X011489Y013845D01*
X009708Y013627D02*
X009708Y012562D01*
X009629Y012483D02*
X009236Y012483D01*
X008487Y012483D02*
X008487Y011617D01*
X008487Y012483D02*
X007444Y012483D01*
X006676Y012503D02*
X006676Y013546D01*
X006991Y013861D01*
X008474Y013861D01*
X009489Y013845D02*
X009708Y013627D01*
D222*
X008527Y010239D02*
X013842Y010239D01*
X013901Y010180D01*
M02*
