%
M48
M72
T01C0.0236
T02C0.0320
T03C0.0360
T04C0.0650
T05C0.1400
%
T01
X5948Y2365
X7169Y4963
X7110Y6105
X6322Y8310
X6066Y10889
X5987Y12503
X8527Y10239
X9078Y9491
X8783Y8349
X9452Y7326
X10436Y7916
X10948Y8467
X11795Y6656
X11480Y6066
X12208Y5613
X9826Y2621
X9098Y2286
X8428Y2503
X12621Y1322
X13232Y9353
X13901Y10180
X12799Y10771
X13704Y13251
X10476Y12503
X9905Y11637
T02
X9489Y13845
X8989Y14845
X8489Y13845
X9989Y14845
X10489Y13845
X10989Y14845
X11489Y13845
X11989Y14845
X11839Y19295
X12839Y19295
X8639Y19295
X7639Y19295
T03
X830Y735
X830Y1735
X830Y2735
X830Y3735
X830Y4735
X830Y5735
X830Y6735
X830Y7735
X830Y8735
X830Y9735
X830Y10735
X830Y11735
X830Y12735
X830Y13735
X830Y14735
X830Y15735
X830Y16735
X830Y17735
X1830Y17735
X1830Y16735
X1830Y15735
X1830Y14735
X1830Y13735
X1830Y12735
X1830Y11735
X1830Y10735
X1830Y9735
X1830Y8735
X1830Y7735
X1830Y6735
X1830Y5735
X1830Y4735
X1830Y3735
X1830Y2735
X1830Y1735
X1830Y735
X14830Y735
X14830Y1735
X14830Y2735
X14830Y3735
X14830Y4735
X14830Y5735
X14830Y6735
X14830Y7735
X14830Y8735
X14830Y9735
X14830Y10735
X14830Y11735
X14830Y12735
X14830Y13735
X14830Y14735
X14830Y15735
X14830Y16735
X14830Y17735
X15830Y17735
X15830Y16735
X15830Y15735
X15830Y14735
X15830Y13735
X15830Y12735
X15830Y11735
X15830Y10735
X15830Y9735
X15830Y8735
X15830Y7735
X15830Y6735
X15830Y5735
X15830Y4735
X15830Y3735
X15830Y2735
X15830Y1735
X15830Y735
T04
X13389Y16195
X7089Y16195
T05
X7989Y17345
X12489Y17345
M30
