G75*
%MOIN*%
%OFA0B0*%
%FSLAX24Y24*%
%IPPOS*%
%LPD*%
%AMOC8*
5,1,8,0,0,1.08239X$1,22.5*
%
%ADD10C,0.0160*%
%ADD11C,0.0600*%
%ADD12OC8,0.0600*%
%ADD13R,0.0610X0.0197*%
%ADD14C,0.0660*%
%ADD15C,0.1035*%
%ADD16R,0.0660X0.0660*%
%ADD17C,0.0000*%
%ADD18C,0.1460*%
%ADD19R,0.0572X0.0651*%
%ADD20R,0.0760X0.2060*%
%ADD21R,0.1060X0.0560*%
%ADD22R,0.0493X0.0651*%
%ADD23R,0.0651X0.0572*%
%ADD24R,0.0220X0.0540*%
%ADD25C,0.0436*%
D10*
X000259Y000180D02*
X016401Y000180D01*
X016401Y019865D01*
X000259Y019865D01*
X000259Y000180D01*
D11*
X000830Y000735D03*
X014830Y000735D03*
D12*
X014830Y001735D03*
X014830Y002735D03*
X014830Y003735D03*
X014830Y004735D03*
X014830Y005735D03*
X014830Y006735D03*
X014830Y007735D03*
X014830Y008735D03*
X014830Y009735D03*
X014830Y010735D03*
X014830Y011735D03*
X014830Y012735D03*
X014830Y013735D03*
X014830Y014735D03*
X014830Y015735D03*
X014830Y016735D03*
X014830Y017735D03*
X015830Y017735D03*
X015830Y016735D03*
X015830Y015735D03*
X015830Y014735D03*
X015830Y013735D03*
X015830Y012735D03*
X015830Y011735D03*
X015830Y010735D03*
X015830Y009735D03*
X015830Y008735D03*
X015830Y007735D03*
X015830Y006735D03*
X015830Y005735D03*
X015830Y004735D03*
X015830Y003735D03*
X015830Y002735D03*
X015830Y001735D03*
X015830Y000735D03*
X001830Y000735D03*
X001830Y001735D03*
X001830Y002735D03*
X001830Y003735D03*
X001830Y004735D03*
X001830Y005735D03*
X001830Y006735D03*
X001830Y007735D03*
X001830Y008735D03*
X001830Y009735D03*
X001830Y010735D03*
X001830Y011735D03*
X001830Y012735D03*
X001830Y013735D03*
X001830Y014735D03*
X001830Y015735D03*
X001830Y016735D03*
X001830Y017735D03*
X000830Y017735D03*
X000830Y016735D03*
X000830Y015735D03*
X000830Y014735D03*
X000830Y013735D03*
X000830Y012735D03*
X000830Y011735D03*
X000830Y010735D03*
X000830Y009735D03*
X000830Y008735D03*
X000830Y007735D03*
X000830Y006735D03*
X000830Y005735D03*
X000830Y004735D03*
X000830Y003735D03*
X000830Y002735D03*
X000830Y001735D03*
D13*
X007895Y003241D03*
X007895Y003497D03*
X007895Y003753D03*
X007895Y004009D03*
X007895Y004265D03*
X007895Y004521D03*
X007895Y004776D03*
X007895Y005032D03*
X007895Y005288D03*
X007895Y005544D03*
X007895Y005800D03*
X007895Y006056D03*
X007895Y006312D03*
X007895Y006568D03*
X010773Y006568D03*
X010773Y006312D03*
X010773Y006056D03*
X010773Y005800D03*
X010773Y005544D03*
X010773Y005288D03*
X010773Y005032D03*
X010773Y004776D03*
X010773Y004521D03*
X010773Y004265D03*
X010773Y004009D03*
X010773Y003753D03*
X010773Y003497D03*
X010773Y003241D03*
D14*
X010489Y013845D03*
X009989Y014845D03*
X009489Y013845D03*
X008989Y014845D03*
X008489Y013845D03*
X010989Y014845D03*
X011489Y013845D03*
X011839Y019295D03*
X012839Y019295D03*
X008639Y019295D03*
X007639Y019295D03*
D15*
X007089Y016195D03*
X013389Y016195D03*
D16*
X011989Y014845D03*
D17*
X011789Y017345D02*
X011791Y017397D01*
X011797Y017449D01*
X011807Y017501D01*
X011820Y017551D01*
X011837Y017601D01*
X011858Y017649D01*
X011883Y017695D01*
X011911Y017739D01*
X011942Y017781D01*
X011976Y017821D01*
X012013Y017858D01*
X012053Y017892D01*
X012095Y017923D01*
X012139Y017951D01*
X012185Y017976D01*
X012233Y017997D01*
X012283Y018014D01*
X012333Y018027D01*
X012385Y018037D01*
X012437Y018043D01*
X012489Y018045D01*
X012541Y018043D01*
X012593Y018037D01*
X012645Y018027D01*
X012695Y018014D01*
X012745Y017997D01*
X012793Y017976D01*
X012839Y017951D01*
X012883Y017923D01*
X012925Y017892D01*
X012965Y017858D01*
X013002Y017821D01*
X013036Y017781D01*
X013067Y017739D01*
X013095Y017695D01*
X013120Y017649D01*
X013141Y017601D01*
X013158Y017551D01*
X013171Y017501D01*
X013181Y017449D01*
X013187Y017397D01*
X013189Y017345D01*
X013187Y017293D01*
X013181Y017241D01*
X013171Y017189D01*
X013158Y017139D01*
X013141Y017089D01*
X013120Y017041D01*
X013095Y016995D01*
X013067Y016951D01*
X013036Y016909D01*
X013002Y016869D01*
X012965Y016832D01*
X012925Y016798D01*
X012883Y016767D01*
X012839Y016739D01*
X012793Y016714D01*
X012745Y016693D01*
X012695Y016676D01*
X012645Y016663D01*
X012593Y016653D01*
X012541Y016647D01*
X012489Y016645D01*
X012437Y016647D01*
X012385Y016653D01*
X012333Y016663D01*
X012283Y016676D01*
X012233Y016693D01*
X012185Y016714D01*
X012139Y016739D01*
X012095Y016767D01*
X012053Y016798D01*
X012013Y016832D01*
X011976Y016869D01*
X011942Y016909D01*
X011911Y016951D01*
X011883Y016995D01*
X011858Y017041D01*
X011837Y017089D01*
X011820Y017139D01*
X011807Y017189D01*
X011797Y017241D01*
X011791Y017293D01*
X011789Y017345D01*
X007289Y017345D02*
X007291Y017397D01*
X007297Y017449D01*
X007307Y017501D01*
X007320Y017551D01*
X007337Y017601D01*
X007358Y017649D01*
X007383Y017695D01*
X007411Y017739D01*
X007442Y017781D01*
X007476Y017821D01*
X007513Y017858D01*
X007553Y017892D01*
X007595Y017923D01*
X007639Y017951D01*
X007685Y017976D01*
X007733Y017997D01*
X007783Y018014D01*
X007833Y018027D01*
X007885Y018037D01*
X007937Y018043D01*
X007989Y018045D01*
X008041Y018043D01*
X008093Y018037D01*
X008145Y018027D01*
X008195Y018014D01*
X008245Y017997D01*
X008293Y017976D01*
X008339Y017951D01*
X008383Y017923D01*
X008425Y017892D01*
X008465Y017858D01*
X008502Y017821D01*
X008536Y017781D01*
X008567Y017739D01*
X008595Y017695D01*
X008620Y017649D01*
X008641Y017601D01*
X008658Y017551D01*
X008671Y017501D01*
X008681Y017449D01*
X008687Y017397D01*
X008689Y017345D01*
X008687Y017293D01*
X008681Y017241D01*
X008671Y017189D01*
X008658Y017139D01*
X008641Y017089D01*
X008620Y017041D01*
X008595Y016995D01*
X008567Y016951D01*
X008536Y016909D01*
X008502Y016869D01*
X008465Y016832D01*
X008425Y016798D01*
X008383Y016767D01*
X008339Y016739D01*
X008293Y016714D01*
X008245Y016693D01*
X008195Y016676D01*
X008145Y016663D01*
X008093Y016653D01*
X008041Y016647D01*
X007989Y016645D01*
X007937Y016647D01*
X007885Y016653D01*
X007833Y016663D01*
X007783Y016676D01*
X007733Y016693D01*
X007685Y016714D01*
X007639Y016739D01*
X007595Y016767D01*
X007553Y016798D01*
X007513Y016832D01*
X007476Y016869D01*
X007442Y016909D01*
X007411Y016951D01*
X007383Y016995D01*
X007358Y017041D01*
X007337Y017089D01*
X007320Y017139D01*
X007307Y017189D01*
X007297Y017241D01*
X007291Y017293D01*
X007289Y017345D01*
D18*
X007989Y017345D03*
X012489Y017345D03*
D19*
X012759Y012483D03*
X013507Y012483D03*
X011834Y012503D03*
X011834Y011637D03*
X011086Y011637D03*
X011086Y012503D03*
X009236Y012483D03*
X009236Y011617D03*
X008487Y011617D03*
X008487Y012483D03*
X007424Y012503D03*
X006676Y012503D03*
X006676Y011637D03*
X007424Y011637D03*
X005456Y008015D03*
X004708Y008015D03*
X005495Y007011D03*
X006243Y007011D03*
X006243Y005987D03*
X006243Y005180D03*
X005495Y005180D03*
X005495Y005987D03*
X005476Y003920D03*
X005456Y003093D03*
X006204Y003093D03*
X006224Y003920D03*
X005869Y001558D03*
X005121Y001558D03*
X012621Y002267D03*
X013369Y002267D03*
X013625Y005633D03*
X012877Y005633D03*
X012877Y006519D03*
X013625Y006519D03*
X013625Y007404D03*
X012877Y007404D03*
D20*
X003763Y006647D03*
X003763Y002847D03*
D21*
X012995Y003251D03*
D22*
X012779Y011656D03*
X013487Y011656D03*
D23*
X011814Y009235D03*
X011814Y008487D03*
X009728Y008507D03*
X009728Y009255D03*
D24*
X007373Y009097D03*
X006873Y009097D03*
X006373Y009097D03*
X006373Y010357D03*
X006873Y010357D03*
X007373Y010357D03*
D25*
X008527Y010239D03*
X009078Y009491D03*
X008783Y008349D03*
X009452Y007326D03*
X010436Y007916D03*
X010948Y008467D03*
X011795Y006656D03*
X011480Y006066D03*
X012208Y005613D03*
X009826Y002621D03*
X009098Y002286D03*
X008428Y002503D03*
X007169Y004963D03*
X007110Y006105D03*
X006322Y008310D03*
X006066Y010889D03*
X005987Y012503D03*
X009905Y011637D03*
X010476Y012503D03*
X012799Y010771D03*
X013232Y009353D03*
X013901Y010180D03*
X013704Y013251D03*
X005948Y002365D03*
X012621Y001322D03*
M02*
