G75*
%MOIN*%
%OFA0B0*%
%FSLAX24Y24*%
%IPPOS*%
%LPD*%
%AMOC8*
5,1,8,0,0,1.08239X$1,22.5*
%
%ADD10C,0.0160*%
%ADD11C,0.0540*%
%ADD12OC8,0.0540*%
%ADD13R,0.0004X0.0421*%
%ADD14R,0.0004X0.0465*%
%ADD15R,0.0004X0.0492*%
%ADD16R,0.0004X0.0516*%
%ADD17R,0.0004X0.0531*%
%ADD18R,0.0004X0.0547*%
%ADD19R,0.0004X0.0563*%
%ADD20R,0.0004X0.0575*%
%ADD21R,0.0004X0.0587*%
%ADD22R,0.0004X0.0598*%
%ADD23R,0.0004X0.0610*%
%ADD24R,0.0004X0.0618*%
%ADD25R,0.0004X0.0626*%
%ADD26R,0.0004X0.0638*%
%ADD27R,0.0004X0.0646*%
%ADD28R,0.0004X0.0650*%
%ADD29R,0.0004X0.0657*%
%ADD30R,0.0004X0.0665*%
%ADD31R,0.0004X0.0673*%
%ADD32R,0.0004X0.0677*%
%ADD33R,0.0004X0.0685*%
%ADD34R,0.0004X0.0689*%
%ADD35R,0.0004X0.0693*%
%ADD36R,0.0004X0.0701*%
%ADD37R,0.0004X0.0705*%
%ADD38R,0.0004X0.0709*%
%ADD39R,0.0004X0.0717*%
%ADD40R,0.0004X0.0720*%
%ADD41R,0.0004X0.0724*%
%ADD42R,0.0004X0.0728*%
%ADD43R,0.0004X0.0732*%
%ADD44R,0.0004X0.0736*%
%ADD45R,0.0004X0.0740*%
%ADD46R,0.0004X0.0744*%
%ADD47R,0.0004X0.0748*%
%ADD48R,0.0004X0.0752*%
%ADD49R,0.0004X0.0756*%
%ADD50R,0.0004X0.0760*%
%ADD51R,0.0004X0.0764*%
%ADD52R,0.0004X0.0768*%
%ADD53R,0.0004X0.0772*%
%ADD54R,0.0004X0.0776*%
%ADD55R,0.0004X0.0780*%
%ADD56R,0.0004X0.0783*%
%ADD57R,0.0004X0.0787*%
%ADD58R,0.0004X0.0791*%
%ADD59R,0.0004X0.0795*%
%ADD60R,0.0004X0.0799*%
%ADD61R,0.0004X0.0803*%
%ADD62R,0.0004X0.0807*%
%ADD63R,0.0004X0.0811*%
%ADD64R,0.0004X0.0815*%
%ADD65R,0.0004X0.0819*%
%ADD66R,0.0004X0.0823*%
%ADD67R,0.0004X0.0827*%
%ADD68R,0.0004X0.0831*%
%ADD69R,0.0004X0.0835*%
%ADD70R,0.0004X0.0839*%
%ADD71R,0.0004X0.0909*%
%ADD72R,0.0004X0.0937*%
%ADD73R,0.0004X0.0953*%
%ADD74R,0.0004X0.0961*%
%ADD75R,0.0004X0.0969*%
%ADD76R,0.0004X0.0976*%
%ADD77R,0.0004X0.0980*%
%ADD78R,0.0004X0.0984*%
%ADD79R,0.0004X0.0965*%
%ADD80R,0.0004X0.0957*%
%ADD81R,0.0004X0.0945*%
%ADD82R,0.0004X0.0921*%
%ADD83R,0.0004X0.0232*%
%ADD84R,0.0004X0.0555*%
%ADD85R,0.0004X0.0224*%
%ADD86R,0.0004X0.0543*%
%ADD87R,0.0004X0.0539*%
%ADD88R,0.0004X0.0220*%
%ADD89R,0.0004X0.0535*%
%ADD90R,0.0004X0.0528*%
%ADD91R,0.0004X0.0520*%
%ADD92R,0.0004X0.0512*%
%ADD93R,0.0004X0.0500*%
%ADD94R,0.0004X0.0488*%
%ADD95R,0.0004X0.0484*%
%ADD96R,0.0004X0.0476*%
%ADD97R,0.0004X0.0449*%
%ADD98R,0.0004X0.0370*%
%ADD99R,0.0004X0.0043*%
%ADD100R,0.0004X0.0228*%
%ADD101R,0.0004X0.0358*%
%ADD102R,0.0004X0.0350*%
%ADD103R,0.0004X0.0343*%
%ADD104R,0.0004X0.0331*%
%ADD105R,0.0004X0.0319*%
%ADD106R,0.0004X0.0311*%
%ADD107R,0.0004X0.0307*%
%ADD108R,0.0004X0.0303*%
%ADD109R,0.0004X0.0063*%
%ADD110R,0.0004X0.0130*%
%ADD111R,0.0004X0.0445*%
%ADD112R,0.0004X0.0437*%
%ADD113R,0.0004X0.0433*%
%ADD114R,0.0004X0.0362*%
%ADD115R,0.0004X0.0047*%
%ADD116R,0.0004X0.0354*%
%ADD117R,0.0004X0.0031*%
%ADD118R,0.0004X0.0346*%
%ADD119R,0.0004X0.0339*%
%ADD120R,0.0004X0.0055*%
%ADD121R,0.0004X0.0177*%
%ADD122R,0.0004X0.0035*%
%ADD123R,0.0004X0.0161*%
%ADD124R,0.0004X0.0051*%
%ADD125R,0.0004X0.0142*%
%ADD126R,0.0004X0.0118*%
%ADD127R,0.0004X0.0091*%
%ADD128R,0.0004X0.0024*%
%ADD129R,0.0004X0.0020*%
%ADD130R,0.0004X0.0008*%
%ADD131R,0.0004X0.0004*%
%ADD132R,0.0004X0.0012*%
%ADD133R,0.0004X0.0028*%
%ADD134R,0.0004X0.0059*%
%ADD135R,0.0004X0.0067*%
%ADD136R,0.0004X0.0075*%
%ADD137R,0.0004X0.0083*%
%ADD138R,0.0004X0.0098*%
%ADD139R,0.0004X0.0106*%
%ADD140R,0.0004X0.0114*%
%ADD141R,0.0004X0.0122*%
%ADD142R,0.0004X0.0138*%
%ADD143R,0.0004X0.0146*%
%ADD144R,0.0004X0.0154*%
%ADD145R,0.0004X0.0165*%
%ADD146R,0.0004X0.0169*%
%ADD147R,0.0004X0.0185*%
%ADD148R,0.0004X0.0189*%
%ADD149R,0.0004X0.0193*%
%ADD150R,0.0004X0.0201*%
%ADD151R,0.0004X0.0209*%
%ADD152R,0.0004X0.0213*%
%ADD153R,0.0004X0.0217*%
%ADD154R,0.0004X0.0236*%
%ADD155R,0.0004X0.0240*%
%ADD156R,0.0004X0.0248*%
%ADD157R,0.0004X0.0256*%
%ADD158R,0.0004X0.0264*%
%ADD159R,0.0004X0.0272*%
%ADD160R,0.0004X0.0280*%
%ADD161R,0.0004X0.0287*%
%ADD162R,0.0004X0.0295*%
%ADD163R,0.0004X0.0299*%
%ADD164R,0.0004X0.0126*%
%ADD165R,0.0004X0.0157*%
%ADD166R,0.0004X0.0134*%
%ADD167R,0.0004X0.0173*%
%ADD168R,0.0004X0.0366*%
%ADD169R,0.0004X0.0374*%
%ADD170R,0.0004X0.0382*%
%ADD171R,0.0004X0.0390*%
%ADD172R,0.0004X0.0394*%
%ADD173R,0.0004X0.0398*%
%ADD174R,0.0004X0.0406*%
%ADD175R,0.0004X0.0409*%
%ADD176R,0.0004X0.0417*%
%ADD177R,0.0004X0.0429*%
%ADD178R,0.0004X0.0441*%
%ADD179R,0.0004X0.0453*%
%ADD180R,0.0004X0.0457*%
%ADD181R,0.0004X0.0469*%
%ADD182R,0.0004X0.0480*%
%ADD183R,0.0004X0.0504*%
%ADD184R,0.0004X0.0508*%
%ADD185R,0.0004X0.0551*%
%ADD186R,0.0004X0.0567*%
%ADD187R,0.0004X0.0579*%
%ADD188R,0.0004X0.0413*%
%ADD189R,0.0004X0.0425*%
%ADD190R,0.0004X0.0181*%
%ADD191R,0.0004X0.0634*%
%ADD192R,0.0004X0.0654*%
%ADD193R,0.0004X0.0661*%
%ADD194R,0.0004X0.0669*%
%ADD195R,0.0004X0.0697*%
%ADD196R,0.0004X0.0244*%
%ADD197R,0.0004X0.0252*%
%ADD198R,0.0004X0.0461*%
%ADD199R,0.0004X0.0094*%
%ADD200R,0.0004X0.0622*%
%ADD201R,0.0004X0.0102*%
%ADD202R,0.0004X0.0630*%
%ADD203R,0.0004X0.0614*%
%ADD204R,0.0004X0.0583*%
%ADD205R,0.0004X0.0327*%
%ADD206C,0.0600*%
%ADD207C,0.0975*%
%ADD208R,0.0600X0.0600*%
%ADD209C,0.0000*%
%ADD210C,0.0376*%
%ADD211C,0.0100*%
%ADD212C,0.0120*%
D10*
X000259Y000180D02*
X016401Y000180D01*
X016401Y019865D01*
X000259Y019865D01*
X000259Y000180D01*
X000579Y001183D02*
X000680Y001225D01*
X000619Y001225D01*
X000579Y001265D01*
X000579Y001183D01*
X000980Y001225D02*
X001041Y001225D01*
X001330Y001514D01*
X001609Y001235D01*
X001320Y000946D01*
X001320Y000885D01*
X001262Y001024D01*
X001119Y001167D01*
X000980Y001225D01*
X001106Y001290D02*
X001554Y001290D01*
X001505Y001131D02*
X001155Y001131D01*
X001284Y000973D02*
X001346Y000973D01*
X001320Y000585D02*
X001320Y000524D01*
X001344Y000500D01*
X001285Y000500D01*
X001320Y000585D01*
X001264Y001448D02*
X001396Y001448D01*
X001330Y001956D02*
X001609Y002235D01*
X001330Y002514D01*
X001051Y002235D01*
X001330Y001956D01*
X001204Y002082D02*
X001456Y002082D01*
X001603Y002241D02*
X001057Y002241D01*
X001215Y002399D02*
X001445Y002399D01*
X001330Y002956D02*
X001609Y003235D01*
X001330Y003514D01*
X001051Y003235D01*
X001330Y002956D01*
X001253Y003033D02*
X001407Y003033D01*
X001565Y003192D02*
X001095Y003192D01*
X001166Y003350D02*
X001494Y003350D01*
X001335Y003509D02*
X001325Y003509D01*
X001330Y003956D02*
X001609Y004235D01*
X001330Y004514D01*
X001051Y004235D01*
X001330Y003956D01*
X001302Y003984D02*
X001358Y003984D01*
X001516Y004143D02*
X001144Y004143D01*
X001117Y004301D02*
X001543Y004301D01*
X001384Y004460D02*
X001276Y004460D01*
X001330Y004956D02*
X001609Y005235D01*
X001330Y005514D01*
X001051Y005235D01*
X001330Y004956D01*
X001193Y005094D02*
X001467Y005094D01*
X001592Y005252D02*
X001068Y005252D01*
X001227Y005411D02*
X001433Y005411D01*
X001330Y005956D02*
X001609Y006235D01*
X001330Y006514D01*
X001051Y006235D01*
X001330Y005956D01*
X001242Y006045D02*
X001418Y006045D01*
X001577Y006203D02*
X001083Y006203D01*
X001178Y006362D02*
X001482Y006362D01*
X001330Y006956D02*
X001609Y007235D01*
X001330Y007514D01*
X001051Y007235D01*
X001330Y006956D01*
X001291Y006996D02*
X001369Y006996D01*
X001528Y007154D02*
X001132Y007154D01*
X001129Y007313D02*
X001531Y007313D01*
X001373Y007471D02*
X001287Y007471D01*
X001330Y007956D02*
X001609Y008235D01*
X001330Y008514D01*
X001051Y008235D01*
X001330Y007956D01*
X001181Y008105D02*
X001479Y008105D01*
X001580Y008264D02*
X001080Y008264D01*
X001238Y008422D02*
X001422Y008422D01*
X001330Y008956D02*
X001609Y009235D01*
X001330Y009514D01*
X001051Y009235D01*
X001330Y008956D01*
X001230Y009056D02*
X001430Y009056D01*
X001588Y009215D02*
X001072Y009215D01*
X001189Y009373D02*
X001471Y009373D01*
X002051Y009235D02*
X002340Y009524D01*
X002340Y009946D01*
X002337Y009949D01*
X005474Y009949D01*
X005581Y009993D01*
X006048Y010461D01*
X006151Y010461D01*
X006309Y010526D01*
X006429Y010646D01*
X006494Y010804D01*
X006494Y010974D01*
X006429Y011131D01*
X006309Y011252D01*
X006151Y011317D01*
X005981Y011317D01*
X005824Y011252D01*
X005703Y011131D01*
X005638Y010974D01*
X005638Y010871D01*
X005296Y010529D01*
X002340Y010529D01*
X002340Y010946D01*
X002051Y011235D01*
X002340Y011524D01*
X002340Y011946D01*
X002041Y012245D01*
X001619Y012245D01*
X001330Y011956D01*
X001051Y012235D01*
X001340Y012524D01*
X001340Y012946D01*
X001051Y013235D01*
X001330Y013514D01*
X001619Y013225D01*
X002041Y013225D01*
X002340Y013524D01*
X002340Y013946D01*
X002051Y014235D01*
X002340Y014524D01*
X002340Y014946D01*
X002051Y015235D01*
X002340Y015524D01*
X002340Y015946D01*
X002041Y016245D01*
X001619Y016245D01*
X001330Y015956D01*
X001051Y016235D01*
X001340Y016524D01*
X001340Y016946D01*
X001041Y017245D01*
X000619Y017245D01*
X000579Y017205D01*
X000579Y017350D01*
X000644Y017285D01*
X000820Y017285D01*
X000820Y017725D01*
X000840Y017725D01*
X000840Y017285D01*
X001016Y017285D01*
X001280Y017549D01*
X001280Y017725D01*
X000840Y017725D01*
X000840Y017745D01*
X001280Y017745D01*
X001280Y017922D01*
X001016Y018185D01*
X000840Y018185D01*
X000840Y017745D01*
X000820Y017745D01*
X000820Y018185D01*
X000644Y018185D01*
X000579Y018121D01*
X000579Y019545D01*
X007158Y019545D01*
X007099Y019403D01*
X007099Y019188D01*
X007182Y018989D01*
X007334Y018838D01*
X007532Y018755D01*
X007747Y018755D01*
X007753Y018758D01*
X008260Y018251D01*
X008176Y018285D01*
X007802Y018285D01*
X007457Y018142D01*
X007193Y017878D01*
X007049Y017532D01*
X007049Y017158D01*
X007147Y016923D01*
X006945Y016923D01*
X006677Y016812D01*
X006473Y016607D01*
X006362Y016340D01*
X006362Y016051D01*
X006473Y015783D01*
X006677Y015579D01*
X006945Y015468D01*
X007234Y015468D01*
X007502Y015579D01*
X007518Y015595D01*
X007518Y013408D01*
X007564Y013297D01*
X008798Y012064D01*
X008798Y009816D01*
X008715Y009734D01*
X008650Y009576D01*
X008650Y009406D01*
X008715Y009249D01*
X008836Y009128D01*
X008993Y009063D01*
X009163Y009063D01*
X009321Y009128D01*
X009349Y009156D01*
X009349Y007746D01*
X009210Y007689D01*
X009089Y007568D01*
X009083Y007553D01*
X009083Y008044D01*
X009146Y008107D01*
X009211Y008264D01*
X009211Y008434D01*
X009146Y008592D01*
X009025Y008712D01*
X008868Y008777D01*
X008698Y008777D01*
X008540Y008712D01*
X008420Y008592D01*
X008355Y008434D01*
X008355Y008264D01*
X008420Y008107D01*
X008483Y008044D01*
X008483Y002981D01*
X008432Y002931D01*
X008343Y002931D01*
X008186Y002866D01*
X008065Y002745D01*
X008000Y002588D01*
X008000Y002418D01*
X008065Y002260D01*
X008186Y002140D01*
X008343Y002075D01*
X008514Y002075D01*
X008671Y002140D01*
X008688Y002157D01*
X008735Y002044D01*
X008855Y001923D01*
X009013Y001858D01*
X009183Y001858D01*
X009340Y001923D01*
X009461Y002044D01*
X009526Y002201D01*
X009526Y002371D01*
X009461Y002529D01*
X009340Y002649D01*
X009319Y002658D01*
X009319Y006257D01*
X009419Y006356D01*
X010161Y006356D01*
X010272Y006402D01*
X011118Y007249D01*
X011180Y007310D01*
X011180Y006371D01*
X011117Y006308D01*
X011051Y006151D01*
X011051Y005981D01*
X011117Y005823D01*
X011237Y005703D01*
X011394Y005638D01*
X011565Y005638D01*
X011722Y005703D01*
X011824Y005805D01*
X011780Y005698D01*
X011780Y005528D01*
X011845Y005371D01*
X011908Y005308D01*
X011908Y003979D01*
X011954Y003868D01*
X012780Y003042D01*
X012865Y002957D01*
X012975Y002911D01*
X014229Y002911D01*
X014320Y002821D01*
X014320Y002524D01*
X014609Y002235D01*
X014320Y001946D01*
X014320Y001524D01*
X014619Y001225D01*
X014680Y001225D01*
X014541Y001167D01*
X014398Y001024D01*
X014320Y000837D01*
X014320Y000634D01*
X014375Y000500D01*
X002316Y000500D01*
X002340Y000524D01*
X002340Y000946D01*
X002051Y001235D01*
X002340Y001524D01*
X002340Y001946D01*
X002051Y002235D01*
X002340Y002524D01*
X002340Y002946D01*
X002051Y003235D01*
X002340Y003524D01*
X002340Y003946D01*
X002051Y004235D01*
X002340Y004524D01*
X002340Y004946D01*
X002051Y005235D01*
X002340Y005524D01*
X002340Y005946D01*
X002051Y006235D01*
X002340Y006524D01*
X002340Y006946D01*
X002051Y007235D01*
X002340Y007524D01*
X002340Y007946D01*
X002051Y008235D01*
X002340Y008524D01*
X002340Y008946D01*
X002051Y009235D01*
X002072Y009215D02*
X008749Y009215D01*
X008664Y009373D02*
X002189Y009373D01*
X002340Y009532D02*
X008650Y009532D01*
X008697Y009690D02*
X002340Y009690D01*
X002340Y009849D02*
X008798Y009849D01*
X008798Y010007D02*
X005595Y010007D01*
X005753Y010166D02*
X008798Y010166D01*
X008798Y010324D02*
X005912Y010324D01*
X006204Y010483D02*
X008798Y010483D01*
X008798Y010641D02*
X006424Y010641D01*
X006493Y010800D02*
X008798Y010800D01*
X008798Y010958D02*
X006494Y010958D01*
X006435Y011117D02*
X008798Y011117D01*
X008798Y011275D02*
X006252Y011275D01*
X005880Y011275D02*
X002091Y011275D01*
X002170Y011117D02*
X005697Y011117D01*
X005638Y010958D02*
X002328Y010958D01*
X002340Y010800D02*
X005567Y010800D01*
X005408Y010641D02*
X002340Y010641D01*
X002250Y011434D02*
X008798Y011434D01*
X008798Y011592D02*
X002340Y011592D01*
X002340Y011751D02*
X008798Y011751D01*
X008798Y011909D02*
X002340Y011909D01*
X002219Y012068D02*
X008794Y012068D01*
X008635Y012226D02*
X002060Y012226D01*
X002016Y012285D02*
X002280Y012549D01*
X002280Y012725D01*
X001840Y012725D01*
X001840Y012285D01*
X002016Y012285D01*
X002116Y012385D02*
X008477Y012385D01*
X008318Y012543D02*
X002274Y012543D01*
X002280Y012702D02*
X008160Y012702D01*
X008001Y012860D02*
X002280Y012860D01*
X002280Y012922D02*
X002016Y013185D01*
X001840Y013185D01*
X001840Y012745D01*
X002280Y012745D01*
X002280Y012922D01*
X002183Y013019D02*
X007843Y013019D01*
X007684Y013177D02*
X002024Y013177D01*
X001840Y013177D02*
X001820Y013177D01*
X001820Y013185D02*
X001644Y013185D01*
X001380Y012922D01*
X001380Y012745D01*
X001820Y012745D01*
X001820Y012725D01*
X001840Y012725D01*
X001840Y012745D01*
X001820Y012745D01*
X001820Y013185D01*
X001820Y013019D02*
X001840Y013019D01*
X001840Y012860D02*
X001820Y012860D01*
X001820Y012725D02*
X001380Y012725D01*
X001380Y012549D01*
X001644Y012285D01*
X001820Y012285D01*
X001820Y012725D01*
X001820Y012702D02*
X001840Y012702D01*
X001840Y012543D02*
X001820Y012543D01*
X001820Y012385D02*
X001840Y012385D01*
X001600Y012226D02*
X001060Y012226D01*
X001201Y012385D02*
X001544Y012385D01*
X001386Y012543D02*
X001340Y012543D01*
X001340Y012702D02*
X001380Y012702D01*
X001380Y012860D02*
X001340Y012860D01*
X001268Y013019D02*
X001477Y013019D01*
X001636Y013177D02*
X001109Y013177D01*
X001152Y013336D02*
X001508Y013336D01*
X001350Y013494D02*
X001310Y013494D01*
X001330Y013956D02*
X001609Y014235D01*
X001330Y014514D01*
X001051Y014235D01*
X001330Y013956D01*
X001317Y013970D02*
X001343Y013970D01*
X001502Y014128D02*
X001158Y014128D01*
X001103Y014287D02*
X001557Y014287D01*
X001399Y014445D02*
X001261Y014445D01*
X001330Y014956D02*
X001609Y015235D01*
X001330Y015514D01*
X001051Y015235D01*
X001330Y014956D01*
X001207Y015079D02*
X001453Y015079D01*
X001606Y015238D02*
X001054Y015238D01*
X001212Y015396D02*
X001448Y015396D01*
X001404Y016030D02*
X001256Y016030D01*
X001098Y016189D02*
X001562Y016189D01*
X001644Y016285D02*
X001380Y016549D01*
X001380Y016725D01*
X001820Y016725D01*
X001840Y016725D01*
X001840Y016285D01*
X002016Y016285D01*
X002280Y016549D01*
X002280Y016725D01*
X001840Y016725D01*
X001840Y016745D01*
X002280Y016745D01*
X002280Y016922D01*
X002016Y017185D01*
X001840Y017185D01*
X001840Y016745D01*
X001820Y016745D01*
X001820Y016725D01*
X001820Y016285D01*
X001644Y016285D01*
X001582Y016347D02*
X001163Y016347D01*
X001322Y016506D02*
X001423Y016506D01*
X001380Y016664D02*
X001340Y016664D01*
X001380Y016745D02*
X001820Y016745D01*
X001820Y017185D01*
X001644Y017185D01*
X001380Y016922D01*
X001380Y016745D01*
X001380Y016823D02*
X001340Y016823D01*
X001305Y016981D02*
X001440Y016981D01*
X001598Y017140D02*
X001147Y017140D01*
X001029Y017298D02*
X001546Y017298D01*
X001619Y017225D02*
X002041Y017225D01*
X002340Y017524D01*
X002340Y017946D01*
X002041Y018245D01*
X001619Y018245D01*
X001320Y017946D01*
X001320Y017524D01*
X001619Y017225D01*
X001820Y017140D02*
X001840Y017140D01*
X001840Y016981D02*
X001820Y016981D01*
X001820Y016823D02*
X001840Y016823D01*
X001840Y016664D02*
X001820Y016664D01*
X001820Y016506D02*
X001840Y016506D01*
X001840Y016347D02*
X001820Y016347D01*
X002078Y016347D02*
X006365Y016347D01*
X006362Y016189D02*
X002098Y016189D01*
X002256Y016030D02*
X006370Y016030D01*
X006436Y015872D02*
X002340Y015872D01*
X002340Y015713D02*
X006543Y015713D01*
X006735Y015555D02*
X002340Y015555D01*
X002212Y015396D02*
X007518Y015396D01*
X007518Y015238D02*
X002054Y015238D01*
X002207Y015079D02*
X007518Y015079D01*
X007518Y014921D02*
X002340Y014921D01*
X002340Y014762D02*
X007518Y014762D01*
X007518Y014604D02*
X002340Y014604D01*
X002261Y014445D02*
X007518Y014445D01*
X007518Y014287D02*
X002103Y014287D01*
X002158Y014128D02*
X007518Y014128D01*
X007518Y013970D02*
X002317Y013970D01*
X002340Y013811D02*
X007518Y013811D01*
X007518Y013653D02*
X002340Y013653D01*
X002310Y013494D02*
X007518Y013494D01*
X007548Y013336D02*
X002152Y013336D01*
X001441Y012068D02*
X001219Y012068D01*
X001330Y011514D02*
X001609Y011235D01*
X001330Y010956D01*
X001051Y011235D01*
X001330Y011514D01*
X001250Y011434D02*
X001410Y011434D01*
X001569Y011275D02*
X001091Y011275D01*
X001170Y011117D02*
X001490Y011117D01*
X001332Y010958D02*
X001328Y010958D01*
X000609Y011235D02*
X000579Y011205D01*
X000579Y011265D01*
X000609Y011235D01*
X000579Y010265D02*
X000609Y010235D01*
X000579Y010205D01*
X000579Y010265D01*
X000579Y009265D02*
X000609Y009235D01*
X000579Y009205D01*
X000579Y009265D01*
X000579Y009215D02*
X000588Y009215D01*
X000579Y008265D02*
X000609Y008235D01*
X000579Y008205D01*
X000579Y008265D01*
X000579Y008264D02*
X000580Y008264D01*
X000579Y007265D02*
X000609Y007235D01*
X000579Y007205D01*
X000579Y007265D01*
X000579Y006265D02*
X000609Y006235D01*
X000579Y006205D01*
X000579Y006265D01*
X000579Y005265D02*
X000609Y005235D01*
X000579Y005205D01*
X000579Y005265D01*
X000579Y005252D02*
X000592Y005252D01*
X000579Y004265D02*
X000609Y004235D01*
X000579Y004205D01*
X000579Y004265D01*
X000579Y003265D02*
X000609Y003235D01*
X000579Y003205D01*
X000579Y003265D01*
X000579Y002265D02*
X000609Y002235D01*
X000579Y002205D01*
X000579Y002265D01*
X000579Y002241D02*
X000603Y002241D01*
X002057Y002241D02*
X008085Y002241D01*
X008008Y002399D02*
X002215Y002399D01*
X002340Y002558D02*
X008000Y002558D01*
X008053Y002716D02*
X002340Y002716D01*
X002340Y002875D02*
X008207Y002875D01*
X008483Y003033D02*
X002253Y003033D01*
X002095Y003192D02*
X008483Y003192D01*
X008483Y003350D02*
X002166Y003350D01*
X002325Y003509D02*
X008483Y003509D01*
X008483Y003667D02*
X002340Y003667D01*
X002340Y003826D02*
X008483Y003826D01*
X008483Y003984D02*
X002302Y003984D01*
X002144Y004143D02*
X008483Y004143D01*
X008483Y004301D02*
X002117Y004301D01*
X002276Y004460D02*
X008483Y004460D01*
X008483Y004618D02*
X002340Y004618D01*
X002340Y004777D02*
X008483Y004777D01*
X008483Y004935D02*
X002340Y004935D01*
X002193Y005094D02*
X008483Y005094D01*
X008483Y005252D02*
X002068Y005252D01*
X002227Y005411D02*
X008483Y005411D01*
X008483Y005569D02*
X002340Y005569D01*
X002340Y005728D02*
X008483Y005728D01*
X008483Y005886D02*
X002340Y005886D01*
X002242Y006045D02*
X008483Y006045D01*
X008483Y006203D02*
X002083Y006203D01*
X002178Y006362D02*
X008483Y006362D01*
X008483Y006520D02*
X002336Y006520D01*
X002340Y006679D02*
X008483Y006679D01*
X008483Y006837D02*
X002340Y006837D01*
X002291Y006996D02*
X008483Y006996D01*
X008483Y007154D02*
X002132Y007154D01*
X002129Y007313D02*
X008483Y007313D01*
X008483Y007471D02*
X002287Y007471D01*
X002340Y007630D02*
X008483Y007630D01*
X008483Y007788D02*
X002340Y007788D01*
X002340Y007947D02*
X008483Y007947D01*
X008422Y008105D02*
X002181Y008105D01*
X002080Y008264D02*
X008355Y008264D01*
X008355Y008422D02*
X002238Y008422D01*
X002340Y008581D02*
X008415Y008581D01*
X008605Y008739D02*
X002340Y008739D01*
X002340Y008898D02*
X009349Y008898D01*
X009349Y009056D02*
X002230Y009056D01*
X000579Y012205D02*
X000609Y012235D01*
X000579Y012265D01*
X000579Y012205D01*
X000579Y012226D02*
X000600Y012226D01*
X000579Y013205D02*
X000609Y013235D01*
X000579Y013265D01*
X000579Y013205D01*
X000579Y014205D02*
X000609Y014235D01*
X000579Y014265D01*
X000579Y014205D01*
X000579Y015205D02*
X000609Y015235D01*
X000579Y015265D01*
X000579Y015205D01*
X000579Y015238D02*
X000606Y015238D01*
X000579Y016205D02*
X000609Y016235D01*
X000579Y016265D01*
X000579Y016205D01*
X000579Y017298D02*
X000631Y017298D01*
X000820Y017298D02*
X000840Y017298D01*
X000840Y017457D02*
X000820Y017457D01*
X000820Y017615D02*
X000840Y017615D01*
X000840Y017774D02*
X000820Y017774D01*
X000820Y017932D02*
X000840Y017932D01*
X000840Y018091D02*
X000820Y018091D01*
X000579Y018249D02*
X007715Y018249D01*
X007945Y018566D02*
X000579Y018566D01*
X000579Y018408D02*
X008103Y018408D01*
X007786Y018725D02*
X000579Y018725D01*
X000579Y018883D02*
X007288Y018883D01*
X007160Y019042D02*
X000579Y019042D01*
X000579Y019200D02*
X007099Y019200D01*
X007099Y019359D02*
X000579Y019359D01*
X000579Y019517D02*
X007147Y019517D01*
X008121Y019545D02*
X008174Y019416D01*
X008195Y019480D01*
X008228Y019545D01*
X008121Y019545D01*
X008132Y019517D02*
X008214Y019517D01*
X008639Y019295D02*
X008639Y019295D01*
X008639Y018815D01*
X008602Y018815D01*
X008533Y018826D01*
X009254Y018105D01*
X009299Y017995D01*
X009299Y016715D01*
X009254Y016605D01*
X009169Y016520D01*
X008118Y015469D01*
X008118Y014151D01*
X008123Y014158D01*
X008177Y014211D01*
X008238Y014256D01*
X008305Y014290D01*
X008377Y014314D01*
X008452Y014325D01*
X008489Y014325D01*
X008489Y013845D01*
X008489Y013845D01*
X008489Y013365D01*
X008452Y013365D01*
X008377Y013377D01*
X008311Y013399D01*
X008699Y013011D01*
X008699Y013414D01*
X008674Y013401D01*
X008602Y013377D01*
X008527Y013365D01*
X008489Y013365D01*
X008489Y013845D01*
X008489Y013845D01*
X008489Y014325D01*
X008527Y014325D01*
X008602Y014314D01*
X008674Y014290D01*
X008734Y014260D01*
X008745Y014287D01*
X008798Y014340D01*
X008684Y014388D01*
X008532Y014539D01*
X008449Y014738D01*
X008449Y014953D01*
X008532Y015151D01*
X008684Y015303D01*
X008882Y015385D01*
X009097Y015385D01*
X009291Y015305D01*
X009361Y015375D01*
X009636Y015651D01*
X009747Y015697D01*
X011498Y015697D01*
X011608Y015651D01*
X011693Y015566D01*
X011874Y015385D01*
X012337Y015385D01*
X012425Y015349D01*
X012493Y015281D01*
X012529Y015193D01*
X012529Y014498D01*
X012493Y014409D01*
X012425Y014342D01*
X012337Y014305D01*
X012223Y014305D01*
X012252Y014236D01*
X012252Y013093D01*
X012206Y012983D01*
X012095Y012871D01*
X012095Y010362D01*
X012499Y010362D01*
X012499Y010465D01*
X012436Y010528D01*
X012370Y010685D01*
X012370Y010856D01*
X012436Y011013D01*
X012556Y011133D01*
X012713Y011199D01*
X012884Y011199D01*
X012932Y011179D01*
X012932Y014957D01*
X011245Y016644D01*
X011199Y016754D01*
X011199Y018015D01*
X011245Y018125D01*
X011329Y018210D01*
X011946Y018826D01*
X011877Y018815D01*
X011839Y018815D01*
X011839Y019295D01*
X011359Y019295D01*
X011359Y019258D01*
X011371Y019183D01*
X011395Y019111D01*
X011429Y019044D01*
X011473Y018983D01*
X011527Y018929D01*
X011588Y018885D01*
X011655Y018851D01*
X011727Y018827D01*
X011802Y018815D01*
X011839Y018815D01*
X011839Y019295D01*
X011839Y019295D01*
X011839Y019295D01*
X011359Y019295D01*
X011359Y019333D01*
X011371Y019408D01*
X011395Y019480D01*
X011428Y019545D01*
X009051Y019545D01*
X009084Y019480D01*
X009108Y019408D01*
X009119Y019333D01*
X009119Y019295D01*
X008639Y019295D01*
X008639Y018815D01*
X008677Y018815D01*
X008752Y018827D01*
X008824Y018851D01*
X008891Y018885D01*
X008952Y018929D01*
X009006Y018983D01*
X009050Y019044D01*
X009084Y019111D01*
X009108Y019183D01*
X009119Y019258D01*
X009119Y019295D01*
X008639Y019295D01*
X008639Y019295D01*
X008639Y019200D02*
X008639Y019200D01*
X008639Y019042D02*
X008639Y019042D01*
X008639Y018883D02*
X008639Y018883D01*
X008635Y018725D02*
X011844Y018725D01*
X011839Y018883D02*
X011839Y018883D01*
X011839Y019042D02*
X011839Y019042D01*
X011839Y019200D02*
X011839Y019200D01*
X011591Y018883D02*
X008888Y018883D01*
X009048Y019042D02*
X011431Y019042D01*
X011369Y019200D02*
X009110Y019200D01*
X009115Y019359D02*
X011363Y019359D01*
X011414Y019517D02*
X009065Y019517D01*
X008793Y018566D02*
X011686Y018566D01*
X011527Y018408D02*
X008952Y018408D01*
X009110Y018249D02*
X011369Y018249D01*
X011231Y018091D02*
X009260Y018091D01*
X009299Y017932D02*
X011199Y017932D01*
X011199Y017774D02*
X009299Y017774D01*
X009299Y017615D02*
X011199Y017615D01*
X011199Y017457D02*
X009299Y017457D01*
X009299Y017298D02*
X011199Y017298D01*
X011199Y017140D02*
X009299Y017140D01*
X009299Y016981D02*
X011199Y016981D01*
X011199Y016823D02*
X009299Y016823D01*
X009278Y016664D02*
X011237Y016664D01*
X011383Y016506D02*
X009155Y016506D01*
X008996Y016347D02*
X011542Y016347D01*
X011700Y016189D02*
X008838Y016189D01*
X008679Y016030D02*
X011859Y016030D01*
X012017Y015872D02*
X008521Y015872D01*
X008362Y015713D02*
X012176Y015713D01*
X012334Y015555D02*
X011705Y015555D01*
X011863Y015396D02*
X012493Y015396D01*
X012511Y015238D02*
X012651Y015238D01*
X012529Y015079D02*
X012810Y015079D01*
X012932Y014921D02*
X012529Y014921D01*
X012529Y014762D02*
X012932Y014762D01*
X012932Y014604D02*
X012529Y014604D01*
X012508Y014445D02*
X012932Y014445D01*
X012932Y014287D02*
X012231Y014287D01*
X012252Y014128D02*
X012932Y014128D01*
X012932Y013970D02*
X012252Y013970D01*
X012252Y013811D02*
X012932Y013811D01*
X012932Y013653D02*
X012252Y013653D01*
X012252Y013494D02*
X012932Y013494D01*
X012932Y013336D02*
X012252Y013336D01*
X012252Y013177D02*
X012932Y013177D01*
X012932Y013019D02*
X012221Y013019D01*
X012095Y012860D02*
X012932Y012860D01*
X012932Y012702D02*
X012095Y012702D01*
X012095Y012543D02*
X012932Y012543D01*
X012932Y012385D02*
X012095Y012385D01*
X012095Y012226D02*
X012932Y012226D01*
X012932Y012068D02*
X012095Y012068D01*
X012095Y011909D02*
X012932Y011909D01*
X012932Y011751D02*
X012095Y011751D01*
X012095Y011592D02*
X012932Y011592D01*
X012932Y011434D02*
X012095Y011434D01*
X012095Y011275D02*
X012932Y011275D01*
X012539Y011117D02*
X012095Y011117D01*
X012095Y010958D02*
X012413Y010958D01*
X012370Y010800D02*
X012095Y010800D01*
X012095Y010641D02*
X012389Y010641D01*
X012481Y010483D02*
X012095Y010483D01*
X012095Y009762D02*
X012779Y009762D01*
X012890Y009808D01*
X012932Y009849D01*
X012932Y009659D01*
X012869Y009596D01*
X012803Y009438D01*
X012803Y009268D01*
X012869Y009111D01*
X012989Y008990D01*
X013146Y008925D01*
X013317Y008925D01*
X013474Y008990D01*
X013595Y009111D01*
X013660Y009268D01*
X013660Y009438D01*
X013595Y009596D01*
X013532Y009659D01*
X013532Y015141D01*
X013486Y015252D01*
X013402Y015336D01*
X013270Y015468D01*
X013534Y015468D01*
X013802Y015579D01*
X014006Y015783D01*
X014117Y016051D01*
X014117Y016340D01*
X014006Y016607D01*
X013802Y016812D01*
X013534Y016923D01*
X013332Y016923D01*
X013429Y017158D01*
X013429Y017532D01*
X013286Y017878D01*
X013022Y018142D01*
X012676Y018285D01*
X012302Y018285D01*
X012219Y018251D01*
X012726Y018758D01*
X012732Y018755D01*
X012947Y018755D01*
X013145Y018838D01*
X013297Y018989D01*
X013379Y019188D01*
X013379Y019403D01*
X013321Y019545D01*
X014482Y019545D01*
X014463Y019527D01*
X014460Y019520D01*
X014459Y019519D01*
X014456Y019512D01*
X014455Y019511D01*
X014452Y019504D01*
X014447Y019499D01*
X014445Y019492D01*
X014443Y019491D01*
X014441Y019484D01*
X014440Y019483D01*
X014437Y019477D01*
X014436Y019475D01*
X014433Y019469D01*
X014432Y019468D01*
X014429Y019461D01*
X014428Y019460D01*
X014425Y019453D01*
X014424Y019452D01*
X014421Y019445D01*
X014420Y019444D01*
X014417Y019437D01*
X014416Y019436D01*
X014413Y019429D01*
X014412Y019428D01*
X014409Y019421D01*
X014408Y019420D01*
X014405Y019414D01*
X014404Y019412D01*
X014368Y019324D01*
X014368Y019324D01*
X014360Y019305D01*
X014360Y019302D01*
X014356Y019293D01*
X014356Y019290D01*
X014352Y019281D01*
X014352Y019279D01*
X014348Y019269D01*
X014348Y019267D01*
X014344Y019257D01*
X014344Y019255D01*
X014340Y019245D01*
X014340Y019239D01*
X014336Y019230D01*
X014336Y019223D01*
X014332Y019214D01*
X014332Y019208D01*
X014328Y019198D01*
X014328Y019188D01*
X014324Y019179D01*
X014324Y019164D01*
X014320Y019155D01*
X014320Y019129D01*
X014316Y019119D01*
X014316Y018918D01*
X014320Y018908D01*
X014320Y018882D01*
X014324Y018873D01*
X014324Y018859D01*
X014328Y018849D01*
X014328Y018839D01*
X014332Y018829D01*
X014332Y018823D01*
X014336Y018814D01*
X014336Y018807D01*
X014340Y018798D01*
X014340Y018792D01*
X014344Y018782D01*
X014344Y018780D01*
X014348Y018770D01*
X014348Y018768D01*
X014352Y018759D01*
X014352Y018756D01*
X014356Y018747D01*
X014356Y018744D01*
X014360Y018735D01*
X014360Y018733D01*
X014368Y018714D01*
X014368Y018713D01*
X014404Y018625D01*
X014405Y018624D01*
X014416Y018597D01*
X014417Y018596D01*
X014420Y018589D01*
X014421Y018588D01*
X014424Y018581D01*
X014425Y018580D01*
X014428Y018574D01*
X014429Y018572D01*
X014432Y018566D01*
X014433Y018565D01*
X014436Y018558D01*
X014437Y018557D01*
X014440Y018550D01*
X014445Y018545D01*
X014447Y018538D01*
X014449Y018537D01*
X014451Y018530D01*
X014452Y018529D01*
X014455Y018522D01*
X014456Y018521D01*
X014459Y018515D01*
X014464Y018509D01*
X014467Y018503D01*
X014535Y018435D01*
X014623Y018399D01*
X014730Y018399D01*
X014818Y018435D01*
X014823Y018440D01*
X014830Y018443D01*
X014838Y018451D01*
X014839Y018452D01*
X014846Y018455D01*
X014855Y018464D01*
X014862Y018467D01*
X014871Y018476D01*
X014877Y018479D01*
X014886Y018488D01*
X014893Y018490D01*
X014902Y018499D01*
X014909Y018502D01*
X014918Y018511D01*
X014925Y018514D01*
X014934Y018523D01*
X014940Y018526D01*
X014949Y018535D01*
X014956Y018538D01*
X014965Y018547D01*
X014972Y018549D01*
X014981Y018558D01*
X014988Y018561D01*
X014993Y018566D01*
X014999Y018569D01*
X015008Y018578D01*
X015015Y018581D01*
X015024Y018590D01*
X015031Y018593D01*
X015040Y018602D01*
X015047Y018604D01*
X015056Y018614D01*
X015062Y018616D01*
X015071Y018625D01*
X015078Y018628D01*
X015087Y018637D01*
X015094Y018640D01*
X015103Y018649D01*
X015104Y018649D01*
X015116Y018637D01*
X015120Y018629D01*
X015120Y018626D01*
X015156Y018538D01*
X015157Y018537D01*
X015160Y018530D01*
X015161Y018529D01*
X015164Y018522D01*
X015231Y018455D01*
X015235Y018451D01*
X015239Y018447D01*
X015243Y018443D01*
X015247Y018439D01*
X015247Y018439D01*
X015251Y018435D01*
X015255Y018431D01*
X015262Y018428D01*
X015263Y018427D01*
X015267Y018423D01*
X015274Y018421D01*
X015275Y018419D01*
X015278Y018418D01*
X015282Y018408D01*
X015350Y018341D01*
X015353Y018337D01*
X015357Y018333D01*
X015361Y018329D01*
X015365Y018325D01*
X015454Y018288D01*
X015456Y018288D01*
X015465Y018284D01*
X015612Y018284D01*
X015621Y018288D01*
X015624Y018288D01*
X015712Y018325D01*
X015780Y018392D01*
X015783Y018396D01*
X015787Y018400D01*
X015788Y018401D01*
X015792Y018403D01*
X015793Y018403D01*
X015881Y018439D01*
X015882Y018440D01*
X015889Y018443D01*
X015890Y018444D01*
X015897Y018447D01*
X015898Y018448D01*
X015905Y018451D01*
X015906Y018452D01*
X015913Y018455D01*
X015918Y018460D01*
X015925Y018463D01*
X015930Y018468D01*
X015936Y018471D01*
X015942Y018476D01*
X015948Y018479D01*
X015972Y018502D01*
X016039Y018570D01*
X016043Y018574D01*
X016047Y018578D01*
X016050Y018584D01*
X016051Y018585D01*
X016055Y018589D01*
X016058Y018596D01*
X016059Y018597D01*
X016063Y018601D01*
X016066Y018608D01*
X016067Y018609D01*
X016070Y018616D01*
X016071Y018617D01*
X016074Y018624D01*
X016075Y018625D01*
X016081Y018639D01*
X016081Y018205D01*
X016041Y018245D01*
X015619Y018245D01*
X015320Y017946D01*
X015320Y017524D01*
X015609Y017235D01*
X015330Y016956D01*
X015041Y017245D01*
X014619Y017245D01*
X014320Y016946D01*
X014320Y016524D01*
X014609Y016235D01*
X014320Y015946D01*
X014320Y015524D01*
X014609Y015235D01*
X014320Y014946D01*
X014320Y014524D01*
X014609Y014235D01*
X014320Y013946D01*
X014320Y013524D01*
X014609Y013235D01*
X014320Y012946D01*
X014320Y012524D01*
X014609Y012235D01*
X014320Y011946D01*
X014320Y011524D01*
X014609Y011235D01*
X014320Y010946D01*
X014320Y010524D01*
X014609Y010235D01*
X014320Y009946D01*
X014320Y009524D01*
X014609Y009235D01*
X014320Y008946D01*
X014320Y008524D01*
X014619Y008225D01*
X015041Y008225D01*
X015330Y008514D01*
X015609Y008235D01*
X015320Y007946D01*
X015320Y007524D01*
X015609Y007235D01*
X015330Y006956D01*
X015041Y007245D01*
X014619Y007245D01*
X014320Y006946D01*
X014320Y006524D01*
X014609Y006235D01*
X014320Y005946D01*
X014320Y005524D01*
X014609Y005235D01*
X014320Y004946D01*
X014320Y004524D01*
X014609Y004235D01*
X014320Y003946D01*
X014320Y003524D01*
X014332Y003511D01*
X013159Y003511D01*
X012508Y004163D01*
X012508Y005308D01*
X012571Y005371D01*
X012636Y005528D01*
X012636Y005698D01*
X012571Y005856D01*
X012450Y005976D01*
X012293Y006041D01*
X012123Y006041D01*
X011965Y005976D01*
X011864Y005874D01*
X011908Y005981D01*
X011908Y006151D01*
X011876Y006228D01*
X011880Y006228D01*
X012037Y006293D01*
X012158Y006414D01*
X012223Y006571D01*
X012223Y006742D01*
X012158Y006899D01*
X012095Y006962D01*
X012095Y009762D01*
X012095Y009690D02*
X012932Y009690D01*
X012931Y009849D02*
X012932Y009849D01*
X012842Y009532D02*
X012095Y009532D01*
X012095Y009373D02*
X012803Y009373D01*
X012826Y009215D02*
X012095Y009215D01*
X012095Y009056D02*
X012923Y009056D01*
X013540Y009056D02*
X014430Y009056D01*
X014320Y008898D02*
X012095Y008898D01*
X012095Y008739D02*
X014320Y008739D01*
X014320Y008581D02*
X012095Y008581D01*
X012095Y008422D02*
X014422Y008422D01*
X014580Y008264D02*
X012095Y008264D01*
X012095Y008105D02*
X014563Y008105D01*
X014644Y008185D02*
X014380Y007922D01*
X014380Y007745D01*
X014820Y007745D01*
X014820Y007725D01*
X014840Y007725D01*
X014840Y007285D01*
X015016Y007285D01*
X015280Y007549D01*
X015280Y007725D01*
X014840Y007725D01*
X014840Y007745D01*
X015280Y007745D01*
X015280Y007922D01*
X015016Y008185D01*
X014840Y008185D01*
X014840Y007745D01*
X014820Y007745D01*
X014820Y008185D01*
X014644Y008185D01*
X014820Y008105D02*
X014840Y008105D01*
X014840Y007947D02*
X014820Y007947D01*
X014820Y007788D02*
X014840Y007788D01*
X014820Y007725D02*
X014380Y007725D01*
X014380Y007549D01*
X014644Y007285D01*
X014820Y007285D01*
X014820Y007725D01*
X014820Y007630D02*
X014840Y007630D01*
X014840Y007471D02*
X014820Y007471D01*
X014820Y007313D02*
X014840Y007313D01*
X015044Y007313D02*
X015531Y007313D01*
X015528Y007154D02*
X015132Y007154D01*
X015291Y006996D02*
X015369Y006996D01*
X015373Y007471D02*
X015202Y007471D01*
X015280Y007630D02*
X015320Y007630D01*
X015320Y007788D02*
X015280Y007788D01*
X015255Y007947D02*
X015320Y007947D01*
X015479Y008105D02*
X015096Y008105D01*
X015080Y008264D02*
X015580Y008264D01*
X015422Y008422D02*
X015238Y008422D01*
X015330Y008956D02*
X015609Y009235D01*
X015330Y009514D01*
X015051Y009235D01*
X015330Y008956D01*
X015230Y009056D02*
X015430Y009056D01*
X015588Y009215D02*
X015072Y009215D01*
X015189Y009373D02*
X015471Y009373D01*
X015330Y009956D02*
X015609Y010235D01*
X015330Y010514D01*
X015051Y010235D01*
X015330Y009956D01*
X015279Y010007D02*
X015381Y010007D01*
X015539Y010166D02*
X015121Y010166D01*
X015140Y010324D02*
X015520Y010324D01*
X015361Y010483D02*
X015299Y010483D01*
X015330Y010956D02*
X015609Y011235D01*
X015330Y011514D01*
X015051Y011235D01*
X015330Y010956D01*
X015328Y010958D02*
X015332Y010958D01*
X015490Y011117D02*
X015170Y011117D01*
X015091Y011275D02*
X015569Y011275D01*
X015410Y011434D02*
X015250Y011434D01*
X015330Y011956D02*
X015609Y012235D01*
X015330Y012514D01*
X015051Y012235D01*
X015330Y011956D01*
X015219Y012068D02*
X015441Y012068D01*
X015600Y012226D02*
X015060Y012226D01*
X015201Y012385D02*
X015459Y012385D01*
X015330Y012956D02*
X015609Y013235D01*
X015330Y013514D01*
X015051Y013235D01*
X015330Y012956D01*
X015268Y013019D02*
X015392Y013019D01*
X015551Y013177D02*
X015109Y013177D01*
X015152Y013336D02*
X015508Y013336D01*
X015350Y013494D02*
X015310Y013494D01*
X015330Y013956D02*
X015609Y014235D01*
X015330Y014514D01*
X015051Y014235D01*
X015330Y013956D01*
X015317Y013970D02*
X015343Y013970D01*
X015502Y014128D02*
X015158Y014128D01*
X015103Y014287D02*
X015557Y014287D01*
X015399Y014445D02*
X015261Y014445D01*
X015330Y014956D02*
X015609Y015235D01*
X015330Y015514D01*
X015051Y015235D01*
X015330Y014956D01*
X015207Y015079D02*
X015453Y015079D01*
X015606Y015238D02*
X015054Y015238D01*
X015212Y015396D02*
X015448Y015396D01*
X015330Y015956D02*
X015609Y016235D01*
X015330Y016514D01*
X015051Y016235D01*
X015330Y015956D01*
X015256Y016030D02*
X015404Y016030D01*
X015562Y016189D02*
X015098Y016189D01*
X015163Y016347D02*
X015497Y016347D01*
X015338Y016506D02*
X015322Y016506D01*
X015305Y016981D02*
X015355Y016981D01*
X015513Y017140D02*
X015147Y017140D01*
X015016Y017285D02*
X014840Y017285D01*
X014840Y017725D01*
X014820Y017725D01*
X014820Y017285D01*
X014644Y017285D01*
X014380Y017549D01*
X014380Y017725D01*
X014820Y017725D01*
X014820Y017745D01*
X014380Y017745D01*
X014380Y017922D01*
X014644Y018185D01*
X014820Y018185D01*
X014820Y017745D01*
X014840Y017745D01*
X015280Y017745D01*
X015280Y017922D01*
X015016Y018185D01*
X014840Y018185D01*
X014840Y017745D01*
X014840Y017725D01*
X015280Y017725D01*
X015280Y017549D01*
X015016Y017285D01*
X015029Y017298D02*
X015546Y017298D01*
X015387Y017457D02*
X015188Y017457D01*
X015280Y017615D02*
X015320Y017615D01*
X015320Y017774D02*
X015280Y017774D01*
X015269Y017932D02*
X015320Y017932D01*
X015464Y018091D02*
X015111Y018091D01*
X014840Y018091D02*
X014820Y018091D01*
X014820Y017932D02*
X014840Y017932D01*
X014840Y017774D02*
X014820Y017774D01*
X014820Y017615D02*
X014840Y017615D01*
X014840Y017457D02*
X014820Y017457D01*
X014820Y017298D02*
X014840Y017298D01*
X014631Y017298D02*
X013429Y017298D01*
X013429Y017457D02*
X014472Y017457D01*
X014380Y017615D02*
X013395Y017615D01*
X013330Y017774D02*
X014380Y017774D01*
X014391Y017932D02*
X013232Y017932D01*
X013074Y018091D02*
X014549Y018091D01*
X014601Y018408D02*
X012376Y018408D01*
X012534Y018566D02*
X014432Y018566D01*
X014363Y018725D02*
X012693Y018725D01*
X012764Y018249D02*
X016081Y018249D01*
X016081Y018408D02*
X015805Y018408D01*
X015972Y018502D02*
X015972Y018502D01*
X016036Y018566D02*
X016081Y018566D01*
X016081Y019398D02*
X016075Y019412D01*
X016074Y019414D01*
X016071Y019420D01*
X016070Y019421D01*
X016067Y019428D01*
X016066Y019429D01*
X016063Y019436D01*
X016062Y019437D01*
X016059Y019444D01*
X016055Y019448D01*
X016054Y019449D01*
X016051Y019456D01*
X016047Y019460D01*
X016043Y019464D01*
X016039Y019468D01*
X016038Y019469D01*
X016035Y019475D01*
X016031Y019479D01*
X015966Y019545D01*
X016081Y019545D01*
X016081Y019398D01*
X016031Y019479D02*
X016031Y019479D01*
X015994Y019517D02*
X016081Y019517D01*
X015182Y019545D02*
X014891Y019545D01*
X014894Y019542D01*
X014901Y019539D01*
X014910Y019530D01*
X014917Y019527D01*
X014926Y019518D01*
X014932Y019515D01*
X014936Y019511D01*
X014936Y019511D01*
X014942Y019506D01*
X014948Y019504D01*
X014957Y019495D01*
X014964Y019492D01*
X014973Y019483D01*
X014980Y019480D01*
X014985Y019475D01*
X014992Y019472D01*
X015001Y019463D01*
X015007Y019460D01*
X015016Y019451D01*
X015023Y019448D01*
X015032Y019439D01*
X015039Y019437D01*
X015048Y019428D01*
X015055Y019425D01*
X015060Y019420D01*
X015066Y019417D01*
X015075Y019408D01*
X015082Y019405D01*
X015091Y019396D01*
X015092Y019396D01*
X015125Y019475D01*
X015126Y019477D01*
X015129Y019483D01*
X015130Y019484D01*
X015132Y019491D01*
X015138Y019496D01*
X015140Y019503D01*
X015182Y019545D01*
X015154Y019517D02*
X014928Y019517D01*
X014459Y019517D02*
X013332Y019517D01*
X013379Y019359D02*
X014382Y019359D01*
X014329Y019200D02*
X013379Y019200D01*
X013319Y019042D02*
X014316Y019042D01*
X014320Y018883D02*
X013191Y018883D01*
X012305Y019416D02*
X012358Y019545D01*
X012251Y019545D01*
X012284Y019480D01*
X012305Y019416D01*
X012265Y019517D02*
X012347Y019517D01*
X013422Y017140D02*
X014513Y017140D01*
X014355Y016981D02*
X013356Y016981D01*
X013776Y016823D02*
X014320Y016823D01*
X014320Y016664D02*
X013950Y016664D01*
X014048Y016506D02*
X014338Y016506D01*
X014497Y016347D02*
X014114Y016347D01*
X014117Y016189D02*
X014562Y016189D01*
X014404Y016030D02*
X014108Y016030D01*
X014043Y015872D02*
X014320Y015872D01*
X014320Y015713D02*
X013936Y015713D01*
X013743Y015555D02*
X014320Y015555D01*
X014448Y015396D02*
X013341Y015396D01*
X013492Y015238D02*
X014606Y015238D01*
X014453Y015079D02*
X013532Y015079D01*
X013532Y014921D02*
X014320Y014921D01*
X014320Y014762D02*
X013532Y014762D01*
X013532Y014604D02*
X014320Y014604D01*
X014399Y014445D02*
X013532Y014445D01*
X013532Y014287D02*
X014557Y014287D01*
X014502Y014128D02*
X013532Y014128D01*
X013532Y013970D02*
X014343Y013970D01*
X014320Y013811D02*
X013532Y013811D01*
X013532Y013653D02*
X014320Y013653D01*
X014350Y013494D02*
X013532Y013494D01*
X013532Y013336D02*
X014508Y013336D01*
X014551Y013177D02*
X013532Y013177D01*
X013532Y013019D02*
X014392Y013019D01*
X014320Y012860D02*
X013532Y012860D01*
X013532Y012702D02*
X014320Y012702D01*
X014320Y012543D02*
X013532Y012543D01*
X013532Y012385D02*
X014459Y012385D01*
X014600Y012226D02*
X013532Y012226D01*
X013532Y012068D02*
X014441Y012068D01*
X014320Y011909D02*
X013532Y011909D01*
X013532Y011751D02*
X014320Y011751D01*
X014320Y011592D02*
X013532Y011592D01*
X013532Y011434D02*
X014410Y011434D01*
X014569Y011275D02*
X013532Y011275D01*
X013532Y011117D02*
X014490Y011117D01*
X014332Y010958D02*
X013532Y010958D01*
X013532Y010800D02*
X014320Y010800D01*
X014320Y010641D02*
X013532Y010641D01*
X013532Y010483D02*
X014361Y010483D01*
X014520Y010324D02*
X013532Y010324D01*
X013532Y010166D02*
X014539Y010166D01*
X014381Y010007D02*
X013532Y010007D01*
X013532Y009849D02*
X014320Y009849D01*
X014320Y009690D02*
X013532Y009690D01*
X013621Y009532D02*
X014320Y009532D01*
X014471Y009373D02*
X013660Y009373D01*
X013637Y009215D02*
X014588Y009215D01*
X014405Y007947D02*
X012095Y007947D01*
X012095Y007788D02*
X014380Y007788D01*
X014380Y007630D02*
X012095Y007630D01*
X012095Y007471D02*
X014458Y007471D01*
X014616Y007313D02*
X012095Y007313D01*
X012095Y007154D02*
X014528Y007154D01*
X014369Y006996D02*
X012095Y006996D01*
X012183Y006837D02*
X014320Y006837D01*
X014320Y006679D02*
X012223Y006679D01*
X012201Y006520D02*
X014324Y006520D01*
X014482Y006362D02*
X012105Y006362D01*
X011886Y006203D02*
X014577Y006203D01*
X014418Y006045D02*
X011908Y006045D01*
X011875Y005886D02*
X011869Y005886D01*
X011792Y005728D02*
X011747Y005728D01*
X011780Y005569D02*
X009319Y005569D01*
X009319Y005411D02*
X011828Y005411D01*
X011908Y005252D02*
X009319Y005252D01*
X009319Y005094D02*
X011908Y005094D01*
X011908Y004935D02*
X009319Y004935D01*
X009319Y004777D02*
X011908Y004777D01*
X011908Y004618D02*
X009319Y004618D01*
X009319Y004460D02*
X011908Y004460D01*
X011908Y004301D02*
X009319Y004301D01*
X009319Y004143D02*
X011908Y004143D01*
X011908Y003984D02*
X009319Y003984D01*
X009319Y003826D02*
X011996Y003826D01*
X012155Y003667D02*
X009319Y003667D01*
X009319Y003509D02*
X012313Y003509D01*
X012472Y003350D02*
X009319Y003350D01*
X009319Y003192D02*
X012630Y003192D01*
X012789Y003033D02*
X009319Y003033D01*
X009319Y002875D02*
X014266Y002875D01*
X014320Y002716D02*
X009319Y002716D01*
X009432Y002558D02*
X014320Y002558D01*
X014445Y002399D02*
X009514Y002399D01*
X009526Y002241D02*
X014603Y002241D01*
X014456Y002082D02*
X009476Y002082D01*
X009340Y001924D02*
X014320Y001924D01*
X014320Y001765D02*
X002340Y001765D01*
X002340Y001607D02*
X014320Y001607D01*
X014396Y001448D02*
X002264Y001448D01*
X002106Y001290D02*
X014554Y001290D01*
X014505Y001131D02*
X002155Y001131D01*
X002314Y000973D02*
X014376Y000973D01*
X014320Y000814D02*
X002340Y000814D01*
X002340Y000656D02*
X014320Y000656D01*
X014980Y001225D02*
X015041Y001225D01*
X015330Y001514D01*
X015609Y001235D01*
X015320Y000946D01*
X015320Y000885D01*
X015262Y001024D01*
X015119Y001167D01*
X014980Y001225D01*
X015106Y001290D02*
X015554Y001290D01*
X015505Y001131D02*
X015155Y001131D01*
X015284Y000973D02*
X015346Y000973D01*
X015320Y000585D02*
X015320Y000524D01*
X015344Y000500D01*
X015285Y000500D01*
X015320Y000585D01*
X015264Y001448D02*
X015396Y001448D01*
X015330Y001956D02*
X015609Y002235D01*
X015330Y002514D01*
X015051Y002235D01*
X015330Y001956D01*
X015204Y002082D02*
X015456Y002082D01*
X015603Y002241D02*
X015057Y002241D01*
X015215Y002399D02*
X015445Y002399D01*
X015330Y002956D02*
X015609Y003235D01*
X015330Y003514D01*
X015051Y003235D01*
X015330Y002956D01*
X015253Y003033D02*
X015407Y003033D01*
X015565Y003192D02*
X015095Y003192D01*
X015166Y003350D02*
X015494Y003350D01*
X015335Y003509D02*
X015325Y003509D01*
X015330Y003956D02*
X015609Y004235D01*
X015330Y004514D01*
X015051Y004235D01*
X015330Y003956D01*
X015302Y003984D02*
X015358Y003984D01*
X015516Y004143D02*
X015144Y004143D01*
X015117Y004301D02*
X015543Y004301D01*
X015384Y004460D02*
X015276Y004460D01*
X015330Y004956D02*
X015609Y005235D01*
X015330Y005514D01*
X015051Y005235D01*
X015330Y004956D01*
X015193Y005094D02*
X015467Y005094D01*
X015592Y005252D02*
X015068Y005252D01*
X015227Y005411D02*
X015433Y005411D01*
X015330Y005956D02*
X015609Y006235D01*
X015330Y006514D01*
X015051Y006235D01*
X015330Y005956D01*
X015242Y006045D02*
X015418Y006045D01*
X015577Y006203D02*
X015083Y006203D01*
X015178Y006362D02*
X015482Y006362D01*
X016051Y006235D02*
X016081Y006265D01*
X016081Y006205D01*
X016051Y006235D01*
X016081Y005265D02*
X016081Y005205D01*
X016051Y005235D01*
X016081Y005265D01*
X016081Y005252D02*
X016068Y005252D01*
X016081Y004265D02*
X016081Y004205D01*
X016051Y004235D01*
X016081Y004265D01*
X016081Y003265D02*
X016081Y003205D01*
X016051Y003235D01*
X016081Y003265D01*
X016081Y002265D02*
X016081Y002205D01*
X016051Y002235D01*
X016081Y002265D01*
X016081Y002241D02*
X016057Y002241D01*
X016081Y001265D02*
X016081Y001205D01*
X016051Y001235D01*
X016081Y001265D01*
X014320Y003667D02*
X013003Y003667D01*
X012845Y003826D02*
X014320Y003826D01*
X014358Y003984D02*
X012686Y003984D01*
X012528Y004143D02*
X014516Y004143D01*
X014543Y004301D02*
X012508Y004301D01*
X012508Y004460D02*
X014384Y004460D01*
X014320Y004618D02*
X012508Y004618D01*
X012508Y004777D02*
X014320Y004777D01*
X014320Y004935D02*
X012508Y004935D01*
X012508Y005094D02*
X014467Y005094D01*
X014592Y005252D02*
X012508Y005252D01*
X012587Y005411D02*
X014433Y005411D01*
X014320Y005569D02*
X012636Y005569D01*
X012624Y005728D02*
X014320Y005728D01*
X014320Y005886D02*
X012540Y005886D01*
X011212Y005728D02*
X009319Y005728D01*
X009319Y005886D02*
X011091Y005886D01*
X011051Y006045D02*
X009319Y006045D01*
X009319Y006203D02*
X011073Y006203D01*
X011170Y006362D02*
X010174Y006362D01*
X010390Y006520D02*
X011180Y006520D01*
X011180Y006679D02*
X010548Y006679D01*
X010707Y006837D02*
X011180Y006837D01*
X011180Y006996D02*
X010865Y006996D01*
X011024Y007154D02*
X011180Y007154D01*
X010509Y007488D02*
X009977Y006956D01*
X009679Y006956D01*
X009695Y006963D01*
X009815Y007083D01*
X009880Y007241D01*
X009880Y007330D01*
X009903Y007353D01*
X009949Y007463D01*
X009949Y011209D01*
X009990Y011209D01*
X010136Y011269D01*
X010136Y008222D01*
X010073Y008159D01*
X010008Y008001D01*
X010008Y007831D01*
X010073Y007674D01*
X010194Y007553D01*
X010351Y007488D01*
X010509Y007488D01*
X010492Y007471D02*
X009949Y007471D01*
X009949Y007630D02*
X010118Y007630D01*
X010026Y007788D02*
X009949Y007788D01*
X009949Y007947D02*
X010008Y007947D01*
X010051Y008105D02*
X009949Y008105D01*
X009949Y008264D02*
X010136Y008264D01*
X010136Y008422D02*
X009949Y008422D01*
X009949Y008581D02*
X010136Y008581D01*
X010136Y008739D02*
X009949Y008739D01*
X009949Y008898D02*
X010136Y008898D01*
X010136Y009056D02*
X009949Y009056D01*
X009949Y009215D02*
X010136Y009215D01*
X010136Y009373D02*
X009949Y009373D01*
X009949Y009532D02*
X010136Y009532D01*
X010136Y009690D02*
X009949Y009690D01*
X009949Y009849D02*
X010136Y009849D01*
X010136Y010007D02*
X009949Y010007D01*
X009949Y010166D02*
X010136Y010166D01*
X010136Y010324D02*
X009949Y010324D01*
X009949Y010483D02*
X010136Y010483D01*
X010136Y010641D02*
X009949Y010641D01*
X009949Y010800D02*
X010136Y010800D01*
X010136Y010958D02*
X009949Y010958D01*
X009949Y011117D02*
X010136Y011117D01*
X010736Y011117D02*
X011180Y011117D01*
X011180Y011275D02*
X010736Y011275D01*
X010736Y011434D02*
X011180Y011434D01*
X011180Y011592D02*
X010736Y011592D01*
X010736Y011751D02*
X011180Y011751D01*
X011180Y011909D02*
X010736Y011909D01*
X010736Y012068D02*
X011180Y012068D01*
X011180Y012226D02*
X010804Y012226D01*
X010839Y012260D02*
X010736Y012158D01*
X010736Y008843D01*
X010863Y008896D01*
X011033Y008896D01*
X011180Y008835D01*
X011180Y012813D01*
X010771Y012813D01*
X010839Y012745D01*
X010904Y012588D01*
X010904Y012418D01*
X010839Y012260D01*
X010890Y012385D02*
X011180Y012385D01*
X011180Y012543D02*
X010904Y012543D01*
X010857Y012702D02*
X011180Y012702D01*
X011627Y013252D02*
X011574Y013305D01*
X011597Y013305D01*
X011652Y013328D01*
X011652Y013277D01*
X011627Y013252D01*
X011158Y013413D02*
X010821Y013413D01*
X010947Y013539D01*
X010989Y013641D01*
X011032Y013539D01*
X011158Y013413D01*
X011077Y013494D02*
X010902Y013494D01*
X010989Y014049D02*
X010947Y014151D01*
X010795Y014303D01*
X010597Y014385D01*
X010382Y014385D01*
X010184Y014303D01*
X010032Y014151D01*
X009989Y014049D01*
X009947Y014151D01*
X009795Y014303D01*
X009664Y014358D01*
X009691Y014384D01*
X009882Y014305D01*
X010097Y014305D01*
X010295Y014388D01*
X010447Y014539D01*
X010489Y014641D01*
X010532Y014539D01*
X010684Y014388D01*
X010882Y014305D01*
X011097Y014305D01*
X011103Y014308D01*
X011145Y014265D01*
X011032Y014151D01*
X010989Y014049D01*
X010957Y014128D02*
X011022Y014128D01*
X011124Y014287D02*
X010812Y014287D01*
X010626Y014445D02*
X010353Y014445D01*
X010474Y014604D02*
X010505Y014604D01*
X010489Y015049D02*
X010509Y015097D01*
X010470Y015097D01*
X010489Y015049D01*
X010477Y015079D02*
X010502Y015079D01*
X010167Y014287D02*
X009812Y014287D01*
X009957Y014128D02*
X010022Y014128D01*
X009989Y013641D02*
X010032Y013539D01*
X010158Y013413D01*
X009931Y013413D01*
X009876Y013468D01*
X009947Y013539D01*
X009989Y013641D01*
X009902Y013494D02*
X010077Y013494D01*
X009747Y012813D02*
X009636Y012859D01*
X009320Y013176D01*
X009299Y013196D01*
X009299Y013178D01*
X009819Y012659D01*
X009903Y012574D01*
X009949Y012464D01*
X009949Y012065D01*
X009990Y012065D01*
X010136Y012004D01*
X010136Y012237D01*
X010113Y012260D01*
X010048Y012418D01*
X010048Y012588D01*
X010113Y012745D01*
X010180Y012813D01*
X009747Y012813D01*
X009776Y012702D02*
X010095Y012702D01*
X010048Y012543D02*
X009916Y012543D01*
X009949Y012385D02*
X010061Y012385D01*
X010136Y012226D02*
X009949Y012226D01*
X009949Y012068D02*
X010136Y012068D01*
X009635Y012860D02*
X009618Y012860D01*
X009477Y013019D02*
X009459Y013019D01*
X009318Y013177D02*
X009301Y013177D01*
X008699Y013177D02*
X008533Y013177D01*
X008691Y013019D02*
X008699Y013019D01*
X008699Y013336D02*
X008374Y013336D01*
X008489Y013494D02*
X008489Y013494D01*
X008489Y013653D02*
X008489Y013653D01*
X008489Y013811D02*
X008489Y013811D01*
X008489Y013970D02*
X008489Y013970D01*
X008489Y014128D02*
X008489Y014128D01*
X008489Y014287D02*
X008489Y014287D01*
X008298Y014287D02*
X008118Y014287D01*
X008118Y014445D02*
X008626Y014445D01*
X008681Y014287D02*
X008745Y014287D01*
X008505Y014604D02*
X008118Y014604D01*
X008118Y014762D02*
X008449Y014762D01*
X008449Y014921D02*
X008118Y014921D01*
X008118Y015079D02*
X008502Y015079D01*
X008618Y015238D02*
X008118Y015238D01*
X008118Y015396D02*
X009382Y015396D01*
X009540Y015555D02*
X008204Y015555D01*
X007831Y016030D02*
X007808Y016030D01*
X007817Y016051D02*
X007793Y015992D01*
X008227Y016426D01*
X008176Y016405D01*
X007802Y016405D01*
X007787Y016412D01*
X007817Y016340D01*
X007817Y016051D01*
X007817Y016189D02*
X007989Y016189D01*
X008148Y016347D02*
X007814Y016347D01*
X007518Y015555D02*
X007443Y015555D01*
X006529Y016664D02*
X002280Y016664D01*
X002280Y016823D02*
X006703Y016823D01*
X006430Y016506D02*
X002237Y016506D01*
X002220Y016981D02*
X007123Y016981D01*
X007057Y017140D02*
X002062Y017140D01*
X002114Y017298D02*
X007049Y017298D01*
X007049Y017457D02*
X002273Y017457D01*
X002340Y017615D02*
X007084Y017615D01*
X007149Y017774D02*
X002340Y017774D01*
X002340Y017932D02*
X007247Y017932D01*
X007405Y018091D02*
X002196Y018091D01*
X001464Y018091D02*
X001111Y018091D01*
X001269Y017932D02*
X001320Y017932D01*
X001320Y017774D02*
X001280Y017774D01*
X001280Y017615D02*
X001320Y017615D01*
X001387Y017457D02*
X001188Y017457D01*
X008961Y008739D02*
X009349Y008739D01*
X009349Y008581D02*
X009150Y008581D01*
X009211Y008422D02*
X009349Y008422D01*
X009349Y008264D02*
X009211Y008264D01*
X009144Y008105D02*
X009349Y008105D01*
X009349Y007947D02*
X009083Y007947D01*
X009083Y007788D02*
X009349Y007788D01*
X009150Y007630D02*
X009083Y007630D01*
X009083Y007099D02*
X009083Y006869D01*
X009125Y006911D01*
X009230Y006954D01*
X009210Y006963D01*
X009089Y007083D01*
X009083Y007099D01*
X009083Y006996D02*
X009177Y006996D01*
X009727Y006996D02*
X010017Y006996D01*
X010175Y007154D02*
X009844Y007154D01*
X009880Y007313D02*
X010334Y007313D01*
X010736Y008898D02*
X011180Y008898D01*
X011180Y009056D02*
X010736Y009056D01*
X010736Y009215D02*
X011180Y009215D01*
X011180Y009373D02*
X010736Y009373D01*
X010736Y009532D02*
X011180Y009532D01*
X011180Y009690D02*
X010736Y009690D01*
X010736Y009849D02*
X011180Y009849D01*
X011180Y010007D02*
X010736Y010007D01*
X010736Y010166D02*
X011180Y010166D01*
X011180Y010324D02*
X010736Y010324D01*
X010736Y010483D02*
X011180Y010483D01*
X011180Y010641D02*
X010736Y010641D01*
X010736Y010800D02*
X011180Y010800D01*
X011180Y010958D02*
X010736Y010958D01*
X012662Y016075D02*
X012332Y016405D01*
X012676Y016405D01*
X012692Y016412D01*
X012662Y016340D01*
X012662Y016075D01*
X012662Y016189D02*
X012549Y016189D01*
X012665Y016347D02*
X012390Y016347D01*
X014752Y018408D02*
X015283Y018408D01*
X015251Y018435D02*
X015251Y018435D01*
X015145Y018566D02*
X014992Y018566D01*
X014838Y018451D02*
X014838Y018451D01*
X016051Y017235D02*
X016081Y017265D01*
X016081Y017205D01*
X016051Y017235D01*
X016081Y016265D02*
X016081Y016205D01*
X016051Y016235D01*
X016081Y016265D01*
X016081Y015265D02*
X016081Y015205D01*
X016051Y015235D01*
X016081Y015265D01*
X016081Y015238D02*
X016054Y015238D01*
X016081Y014265D02*
X016081Y014205D01*
X016051Y014235D01*
X016081Y014265D01*
X016081Y013265D02*
X016081Y013205D01*
X016051Y013235D01*
X016081Y013265D01*
X016081Y012265D02*
X016081Y012205D01*
X016051Y012235D01*
X016081Y012265D01*
X016081Y012226D02*
X016060Y012226D01*
X016081Y011265D02*
X016081Y011205D01*
X016051Y011235D01*
X016081Y011265D01*
X016081Y010265D02*
X016081Y010205D01*
X016051Y010235D01*
X016081Y010265D01*
X016081Y009265D02*
X016081Y009205D01*
X016051Y009235D01*
X016081Y009265D01*
X016072Y009215D02*
X016081Y009215D01*
X016081Y008265D02*
X016081Y008205D01*
X016051Y008235D01*
X016081Y008265D01*
X016080Y008264D02*
X016081Y008264D01*
X016081Y007265D02*
X016081Y007205D01*
X016051Y007235D01*
X016081Y007265D01*
X008855Y001924D02*
X002340Y001924D01*
X002204Y002082D02*
X008326Y002082D01*
X008531Y002082D02*
X008719Y002082D01*
D11*
X014830Y000735D03*
X000830Y000735D03*
D12*
X000830Y001735D03*
X000830Y002735D03*
X000830Y003735D03*
X000830Y004735D03*
X000830Y005735D03*
X000830Y006735D03*
X000830Y007735D03*
X000830Y008735D03*
X000830Y009735D03*
X000830Y010735D03*
X000830Y011735D03*
X000830Y012735D03*
X000830Y013735D03*
X000830Y014735D03*
X000830Y015735D03*
X000830Y016735D03*
X000830Y017735D03*
X001830Y017735D03*
X001830Y016735D03*
X001830Y015735D03*
X001830Y014735D03*
X001830Y013735D03*
X001830Y012735D03*
X001830Y011735D03*
X001830Y010735D03*
X001830Y009735D03*
X001830Y008735D03*
X001830Y007735D03*
X001830Y006735D03*
X001830Y005735D03*
X001830Y004735D03*
X001830Y003735D03*
X001830Y002735D03*
X001830Y001735D03*
X001830Y000735D03*
X014830Y001735D03*
X014830Y002735D03*
X014830Y003735D03*
X014830Y004735D03*
X014830Y005735D03*
X014830Y006735D03*
X014830Y007735D03*
X014830Y008735D03*
X014830Y009735D03*
X014830Y010735D03*
X014830Y011735D03*
X014830Y012735D03*
X014830Y013735D03*
X014830Y014735D03*
X014830Y015735D03*
X014830Y016735D03*
X014830Y017735D03*
X015830Y017735D03*
X015830Y016735D03*
X015830Y015735D03*
X015830Y014735D03*
X015830Y013735D03*
X015830Y012735D03*
X015830Y011735D03*
X015830Y010735D03*
X015830Y009735D03*
X015830Y008735D03*
X015830Y007735D03*
X015830Y006735D03*
X015830Y005735D03*
X015830Y004735D03*
X015830Y003735D03*
X015830Y002735D03*
X015830Y001735D03*
X015830Y000735D03*
D13*
X015881Y019019D03*
X014905Y019019D03*
D14*
X014877Y019017D03*
X015365Y018899D03*
X015877Y019021D03*
D15*
X015873Y019019D03*
X014858Y019019D03*
X014606Y019019D03*
D16*
X014610Y019019D03*
X014842Y019019D03*
X015869Y019019D03*
D17*
X015865Y019019D03*
X014830Y019019D03*
X014613Y019019D03*
D18*
X014617Y019019D03*
X015413Y018897D03*
X015861Y019019D03*
D19*
X015858Y019019D03*
X014810Y019019D03*
D20*
X014802Y019017D03*
X015854Y019021D03*
D21*
X015850Y019019D03*
D22*
X015846Y019021D03*
X014629Y019017D03*
D23*
X015842Y019019D03*
D24*
X015838Y019019D03*
X014688Y018956D03*
D25*
X014680Y018952D03*
X014676Y018952D03*
X014669Y018960D03*
X014767Y019019D03*
X015834Y019019D03*
D26*
X015830Y019021D03*
X014759Y019017D03*
D27*
X014755Y019017D03*
X014641Y019017D03*
X015826Y019021D03*
D28*
X015822Y019019D03*
X014751Y019019D03*
D29*
X015818Y019019D03*
D30*
X015814Y019019D03*
D31*
X015810Y019019D03*
X014736Y019019D03*
X014649Y019019D03*
D32*
X014732Y019017D03*
X015806Y019021D03*
D33*
X015802Y019021D03*
X014728Y019017D03*
D34*
X015799Y019019D03*
D35*
X015795Y019021D03*
X014724Y019017D03*
D36*
X015791Y019021D03*
D37*
X015787Y019019D03*
D38*
X015783Y019021D03*
D39*
X015779Y019021D03*
D40*
X015775Y019019D03*
D41*
X015771Y019021D03*
X014700Y019017D03*
D42*
X015767Y019019D03*
D43*
X015763Y019021D03*
D44*
X015759Y019019D03*
D45*
X015755Y019021D03*
D46*
X015751Y019019D03*
D47*
X015747Y019021D03*
D48*
X015743Y019019D03*
D49*
X015739Y019021D03*
X015736Y019021D03*
D50*
X015732Y019019D03*
D51*
X015728Y019021D03*
D52*
X015724Y019019D03*
D53*
X015720Y019021D03*
X015716Y019021D03*
D54*
X015712Y019019D03*
D55*
X015708Y019021D03*
D56*
X015704Y019019D03*
X015700Y019019D03*
D57*
X015696Y019021D03*
D58*
X015692Y019019D03*
X015688Y019019D03*
X015421Y019019D03*
D59*
X015424Y019017D03*
X015680Y019021D03*
X015684Y019021D03*
D60*
X015676Y019019D03*
X015432Y019019D03*
X015428Y019019D03*
D61*
X015436Y019017D03*
X015440Y019017D03*
X015669Y019021D03*
X015673Y019021D03*
D62*
X015665Y019019D03*
X015661Y019019D03*
X015452Y019019D03*
X015448Y019019D03*
X015444Y019019D03*
D63*
X015653Y019021D03*
X015657Y019021D03*
D64*
X015649Y019019D03*
D65*
X015645Y019021D03*
X015641Y019021D03*
X015637Y019021D03*
D66*
X015633Y019019D03*
X015629Y019019D03*
D67*
X015625Y019021D03*
X015621Y019021D03*
D68*
X015617Y019019D03*
X015613Y019019D03*
D69*
X015610Y019021D03*
X015606Y019021D03*
D70*
X015602Y019019D03*
X015598Y019019D03*
D71*
X015594Y019019D03*
D72*
X015590Y019017D03*
D73*
X015586Y019017D03*
D74*
X015582Y019017D03*
D75*
X015578Y019017D03*
X015499Y019017D03*
D76*
X015503Y019017D03*
X015507Y019017D03*
X015570Y019017D03*
X015574Y019017D03*
D77*
X015566Y019019D03*
X015511Y019019D03*
D78*
X015515Y019017D03*
X015519Y019017D03*
X015523Y019017D03*
X015527Y019017D03*
X015531Y019017D03*
X015535Y019017D03*
X015539Y019017D03*
X015543Y019017D03*
X015547Y019017D03*
X015550Y019017D03*
X015554Y019017D03*
X015558Y019017D03*
X015562Y019017D03*
D79*
X015495Y019019D03*
D80*
X015491Y019019D03*
D81*
X015487Y019017D03*
D82*
X015484Y019017D03*
D83*
X015338Y019239D03*
X015346Y019251D03*
X015350Y019255D03*
X015417Y019298D03*
X015035Y019019D03*
X014653Y018790D03*
D84*
X014814Y019019D03*
X015417Y018900D03*
D85*
X015326Y019215D03*
X015358Y019267D03*
X015361Y019271D03*
X015365Y019274D03*
X015369Y019278D03*
X015377Y019282D03*
X015381Y019286D03*
X015389Y019290D03*
X015397Y019294D03*
X015405Y019298D03*
X015409Y019298D03*
X015413Y019298D03*
X015039Y019019D03*
X014566Y019019D03*
D86*
X014822Y019017D03*
X015409Y018899D03*
D87*
X015405Y018897D03*
X014826Y019019D03*
D88*
X015373Y019280D03*
X015385Y019288D03*
X015393Y019292D03*
X015401Y019296D03*
D89*
X015401Y018899D03*
D90*
X015397Y018899D03*
X015393Y018899D03*
X014834Y019017D03*
D91*
X014838Y019017D03*
X015389Y018899D03*
D92*
X015385Y018899D03*
D93*
X015381Y018897D03*
X014854Y019019D03*
D94*
X014861Y019017D03*
X015377Y018895D03*
D95*
X015373Y018897D03*
D96*
X015369Y018897D03*
X014869Y019019D03*
X014602Y019019D03*
D97*
X014653Y019139D03*
X014657Y019143D03*
X015361Y018899D03*
D98*
X015358Y018934D03*
X014940Y019017D03*
D99*
X015161Y019019D03*
X015267Y018897D03*
X015358Y018708D03*
D100*
X015330Y019225D03*
X015334Y019233D03*
X015342Y019245D03*
X015354Y019261D03*
D101*
X015354Y018932D03*
X014582Y019019D03*
D102*
X015350Y018932D03*
D103*
X015346Y018928D03*
D104*
X015342Y018926D03*
D105*
X015338Y018924D03*
D106*
X015334Y018920D03*
D107*
X015330Y018922D03*
X015322Y018930D03*
D108*
X015326Y018924D03*
D109*
X015279Y018902D03*
X015322Y019280D03*
D110*
X015322Y019160D03*
X015102Y019019D03*
X014964Y018916D03*
D111*
X014889Y019019D03*
X015314Y019003D03*
X015318Y019003D03*
D112*
X015310Y019003D03*
D113*
X015306Y019005D03*
X014897Y019017D03*
D114*
X015302Y019040D03*
D115*
X015259Y019024D03*
X015271Y018899D03*
X015302Y018820D03*
D116*
X015299Y019040D03*
X015295Y019040D03*
D117*
X015169Y019021D03*
X015263Y018895D03*
X015299Y018816D03*
D118*
X015291Y019040D03*
X015287Y019040D03*
D119*
X015283Y019040D03*
D120*
X015279Y019178D03*
D121*
X015279Y019034D03*
X015070Y019019D03*
X014952Y019105D03*
X014562Y019019D03*
D122*
X015165Y019019D03*
X015275Y019184D03*
D123*
X015275Y019034D03*
X015082Y019019D03*
X014984Y019089D03*
X014976Y019097D03*
X014968Y019101D03*
X014795Y018806D03*
X014791Y018802D03*
X014787Y018798D03*
X014783Y018798D03*
D124*
X015153Y019019D03*
X015157Y019019D03*
X015275Y018900D03*
D125*
X015271Y019032D03*
X014956Y018914D03*
X014952Y018914D03*
D126*
X015267Y019028D03*
D127*
X015263Y019026D03*
X015129Y019019D03*
D128*
X015259Y018895D03*
D129*
X015255Y018893D03*
X015176Y019019D03*
D130*
X015251Y018891D03*
D131*
X015188Y019019D03*
D132*
X015184Y019019D03*
X015180Y019019D03*
D133*
X015173Y019019D03*
D134*
X015149Y019019D03*
D135*
X015145Y019019D03*
D136*
X015141Y019019D03*
X015137Y019019D03*
D137*
X015133Y019019D03*
D138*
X015125Y019019D03*
X015121Y019019D03*
X014680Y019345D03*
D139*
X014558Y019019D03*
X015117Y019019D03*
D140*
X015113Y019019D03*
D141*
X015110Y019019D03*
X015106Y019019D03*
X014980Y018924D03*
D142*
X015098Y019019D03*
D143*
X015094Y019019D03*
X015090Y019019D03*
D144*
X015086Y019019D03*
X014948Y018916D03*
D145*
X015078Y019017D03*
X014964Y019103D03*
X014779Y018796D03*
D146*
X014960Y019105D03*
X015074Y019019D03*
D147*
X015066Y019019D03*
D148*
X015062Y019017D03*
X014948Y019103D03*
D149*
X015058Y019019D03*
D150*
X015054Y019019D03*
D151*
X015050Y019019D03*
D152*
X015047Y019017D03*
D153*
X015043Y019019D03*
D154*
X015031Y019017D03*
X014657Y018784D03*
D155*
X014716Y019247D03*
X014712Y019251D03*
X015027Y019019D03*
D156*
X015023Y019019D03*
D157*
X015019Y019019D03*
X015015Y019019D03*
X014665Y018778D03*
D158*
X014570Y019019D03*
X015011Y019019D03*
D159*
X015007Y019019D03*
D160*
X015003Y019019D03*
X014999Y019019D03*
D161*
X014995Y019019D03*
D162*
X014991Y019019D03*
X014574Y019019D03*
D163*
X014987Y019017D03*
D164*
X014984Y018930D03*
X014976Y018922D03*
X014972Y018918D03*
X014968Y018918D03*
D165*
X014980Y019095D03*
X014972Y019099D03*
D166*
X014960Y018914D03*
D167*
X014956Y019103D03*
X014775Y018796D03*
D168*
X014944Y019019D03*
D169*
X014936Y019019D03*
D170*
X014932Y019019D03*
X014586Y019019D03*
D171*
X014928Y019019D03*
D172*
X014924Y019017D03*
D173*
X014921Y019019D03*
D174*
X014917Y019019D03*
X014791Y019109D03*
X014787Y019113D03*
X014590Y019019D03*
D175*
X014783Y019115D03*
X014795Y019107D03*
X014913Y019017D03*
D176*
X014909Y019017D03*
X014775Y019115D03*
D177*
X014901Y019019D03*
X014594Y019019D03*
D178*
X014893Y019017D03*
D179*
X014885Y019019D03*
X014716Y018893D03*
X014712Y018889D03*
X014598Y019019D03*
D180*
X014661Y019147D03*
X014881Y019017D03*
X014708Y018887D03*
D181*
X014873Y019019D03*
X014665Y019149D03*
D182*
X014865Y019017D03*
D183*
X014850Y019017D03*
D184*
X014846Y019019D03*
D185*
X014818Y019017D03*
D186*
X014806Y019017D03*
X014621Y019017D03*
D187*
X014799Y019019D03*
D188*
X014779Y019117D03*
D189*
X014771Y019115D03*
D190*
X014771Y018796D03*
D191*
X014763Y019019D03*
D192*
X014747Y019017D03*
D193*
X014743Y019017D03*
X014645Y019017D03*
D194*
X014739Y019017D03*
D195*
X014720Y019019D03*
D196*
X014708Y019253D03*
X014661Y018780D03*
D197*
X014704Y019253D03*
D198*
X014704Y018889D03*
D199*
X014696Y019336D03*
X014692Y019339D03*
X014688Y019343D03*
X014684Y019343D03*
D200*
X014696Y018961D03*
X014692Y018958D03*
X014684Y018954D03*
D201*
X014669Y019339D03*
X014673Y019343D03*
X014676Y019347D03*
D202*
X014637Y019017D03*
X014673Y018954D03*
D203*
X014633Y019017D03*
D204*
X014625Y019017D03*
D205*
X014578Y019019D03*
D206*
X012839Y019295D03*
X011839Y019295D03*
X008639Y019295D03*
X007639Y019295D03*
X008989Y014845D03*
X008489Y013845D03*
X009489Y013845D03*
X009989Y014845D03*
X010489Y013845D03*
X010989Y014845D03*
X011489Y013845D03*
D207*
X013389Y016195D03*
X007089Y016195D03*
D208*
X011989Y014845D03*
D209*
X011789Y017345D02*
X011791Y017397D01*
X011797Y017449D01*
X011807Y017501D01*
X011820Y017551D01*
X011837Y017601D01*
X011858Y017649D01*
X011883Y017695D01*
X011911Y017739D01*
X011942Y017781D01*
X011976Y017821D01*
X012013Y017858D01*
X012053Y017892D01*
X012095Y017923D01*
X012139Y017951D01*
X012185Y017976D01*
X012233Y017997D01*
X012283Y018014D01*
X012333Y018027D01*
X012385Y018037D01*
X012437Y018043D01*
X012489Y018045D01*
X012541Y018043D01*
X012593Y018037D01*
X012645Y018027D01*
X012695Y018014D01*
X012745Y017997D01*
X012793Y017976D01*
X012839Y017951D01*
X012883Y017923D01*
X012925Y017892D01*
X012965Y017858D01*
X013002Y017821D01*
X013036Y017781D01*
X013067Y017739D01*
X013095Y017695D01*
X013120Y017649D01*
X013141Y017601D01*
X013158Y017551D01*
X013171Y017501D01*
X013181Y017449D01*
X013187Y017397D01*
X013189Y017345D01*
X013187Y017293D01*
X013181Y017241D01*
X013171Y017189D01*
X013158Y017139D01*
X013141Y017089D01*
X013120Y017041D01*
X013095Y016995D01*
X013067Y016951D01*
X013036Y016909D01*
X013002Y016869D01*
X012965Y016832D01*
X012925Y016798D01*
X012883Y016767D01*
X012839Y016739D01*
X012793Y016714D01*
X012745Y016693D01*
X012695Y016676D01*
X012645Y016663D01*
X012593Y016653D01*
X012541Y016647D01*
X012489Y016645D01*
X012437Y016647D01*
X012385Y016653D01*
X012333Y016663D01*
X012283Y016676D01*
X012233Y016693D01*
X012185Y016714D01*
X012139Y016739D01*
X012095Y016767D01*
X012053Y016798D01*
X012013Y016832D01*
X011976Y016869D01*
X011942Y016909D01*
X011911Y016951D01*
X011883Y016995D01*
X011858Y017041D01*
X011837Y017089D01*
X011820Y017139D01*
X011807Y017189D01*
X011797Y017241D01*
X011791Y017293D01*
X011789Y017345D01*
X007289Y017345D02*
X007291Y017397D01*
X007297Y017449D01*
X007307Y017501D01*
X007320Y017551D01*
X007337Y017601D01*
X007358Y017649D01*
X007383Y017695D01*
X007411Y017739D01*
X007442Y017781D01*
X007476Y017821D01*
X007513Y017858D01*
X007553Y017892D01*
X007595Y017923D01*
X007639Y017951D01*
X007685Y017976D01*
X007733Y017997D01*
X007783Y018014D01*
X007833Y018027D01*
X007885Y018037D01*
X007937Y018043D01*
X007989Y018045D01*
X008041Y018043D01*
X008093Y018037D01*
X008145Y018027D01*
X008195Y018014D01*
X008245Y017997D01*
X008293Y017976D01*
X008339Y017951D01*
X008383Y017923D01*
X008425Y017892D01*
X008465Y017858D01*
X008502Y017821D01*
X008536Y017781D01*
X008567Y017739D01*
X008595Y017695D01*
X008620Y017649D01*
X008641Y017601D01*
X008658Y017551D01*
X008671Y017501D01*
X008681Y017449D01*
X008687Y017397D01*
X008689Y017345D01*
X008687Y017293D01*
X008681Y017241D01*
X008671Y017189D01*
X008658Y017139D01*
X008641Y017089D01*
X008620Y017041D01*
X008595Y016995D01*
X008567Y016951D01*
X008536Y016909D01*
X008502Y016869D01*
X008465Y016832D01*
X008425Y016798D01*
X008383Y016767D01*
X008339Y016739D01*
X008293Y016714D01*
X008245Y016693D01*
X008195Y016676D01*
X008145Y016663D01*
X008093Y016653D01*
X008041Y016647D01*
X007989Y016645D01*
X007937Y016647D01*
X007885Y016653D01*
X007833Y016663D01*
X007783Y016676D01*
X007733Y016693D01*
X007685Y016714D01*
X007639Y016739D01*
X007595Y016767D01*
X007553Y016798D01*
X007513Y016832D01*
X007476Y016869D01*
X007442Y016909D01*
X007411Y016951D01*
X007383Y016995D01*
X007358Y017041D01*
X007337Y017089D01*
X007320Y017139D01*
X007307Y017189D01*
X007297Y017241D01*
X007291Y017293D01*
X007289Y017345D01*
D210*
X005987Y012503D03*
X006066Y010889D03*
X006322Y008310D03*
X007110Y006105D03*
X007169Y004963D03*
X008428Y002503D03*
X009098Y002286D03*
X009826Y002621D03*
X011480Y006066D03*
X011795Y006656D03*
X012208Y005613D03*
X010436Y007916D03*
X010948Y008467D03*
X009452Y007326D03*
X008783Y008349D03*
X009078Y009491D03*
X008527Y010239D03*
X009905Y011637D03*
X010476Y012503D03*
X012799Y010771D03*
X013232Y009353D03*
X013901Y010180D03*
X013704Y013251D03*
X005948Y002365D03*
X012621Y001322D03*
D211*
X009098Y002286D02*
X009019Y002365D01*
X005417Y010239D02*
X006066Y010889D01*
X005417Y010239D02*
X001334Y010239D01*
X000830Y009735D01*
X010436Y012463D02*
X010476Y012503D01*
D212*
X010436Y012463D02*
X010436Y007916D01*
X010948Y007503D02*
X010948Y008467D01*
X010948Y007503D02*
X010102Y006656D01*
X009295Y006656D01*
X009019Y006381D01*
X009019Y002365D01*
X008645Y002719D02*
X008783Y002857D01*
X008783Y008349D01*
X009078Y009491D02*
X009098Y009511D01*
X009098Y012188D01*
X007818Y013467D01*
X007818Y015593D01*
X008999Y016774D01*
X008999Y017936D01*
X007639Y019295D01*
X009806Y015397D02*
X009531Y015121D01*
X009531Y014649D01*
X008999Y014117D01*
X008999Y013054D01*
X009649Y012404D01*
X009649Y011381D01*
X009649Y010475D01*
X009649Y007523D01*
X009452Y007326D01*
X011480Y006066D02*
X011480Y012975D01*
X011342Y013113D01*
X009806Y013113D01*
X009489Y013430D01*
X009489Y013845D01*
X009806Y015397D02*
X011438Y015397D01*
X011989Y014845D01*
X011755Y014373D02*
X011462Y014373D01*
X010989Y014845D01*
X011755Y014373D02*
X011952Y014176D01*
X011952Y013152D01*
X011795Y012995D01*
X011795Y009944D01*
X011913Y010062D01*
X012720Y010062D01*
X012799Y010141D01*
X012799Y010771D01*
X013232Y010121D02*
X013232Y009727D01*
X013232Y009353D01*
X013232Y010121D02*
X013232Y015082D01*
X011499Y016814D01*
X011499Y017955D01*
X012839Y019295D01*
X009905Y011637D02*
X009649Y011381D01*
X011795Y009944D02*
X011795Y006656D01*
X012208Y005613D02*
X012208Y004038D01*
X013035Y003211D01*
X014354Y003211D01*
X014830Y002735D01*
X008645Y002719D02*
X008428Y002503D01*
M02*
